<?xml version="1.0" encoding="utf-8"?>
<!-- Generator: Adobe Illustrator 17.1.0, SVG Export Plug-In . SVG Version: 6.00 Build 0)  -->
<!DOCTYPE svg PUBLIC "-//W3C//DTD SVG 1.1//EN" "http://www.w3.org/Graphics/SVG/1.1/DTD/svg11.dtd">
<svg version="1.1" id="Layer_1" xmlns="http://www.w3.org/2000/svg" xmlns:xlink="http://www.w3.org/1999/xlink" x="0px" y="0px"
	 viewBox="0 0 120 120" enable-background="new 0 0 120 120" xml:space="preserve">
<g id="TWC" display="none">
	<g id="FPH6lI.tif" display="inline">
		
			<image overflow="visible" enable-background="new    " width="88" height="65" id="Layer_0_9_" xlink:href="B7B82E3A3CAFDC68.png"  transform="matrix(1 0 0 1 -17.9355 29.0698)">
		</image>
	</g>
	<g id="xYyA96.tif" display="inline">
		
			<image overflow="visible" enable-background="new    " width="89" height="67" id="Layer_0_10_" xlink:href="B7B82E3A3CAFDC69.png"  transform="matrix(0.9888 0 0 1 99.1026 28.0698)">
		</image>
	</g>
</g>
<g id="ios">
	<path fill="none" stroke="#FFFFFF" stroke-width="7" stroke-miterlimit="10" d="M113.3,51.2c0-12-9.7-21.7-21.7-21.7
		c-3.8,0-7.4,1-10.6,2.7c-4.3-11-15-18.7-27.5-18.7C37.2,13.5,24,26.7,23.9,43h-2.5c-8.4,0-15.1,6.8-15.1,15.1
		c0,8.4,6.8,15.1,15.1,15.1h70.8c2.7,0,5.2-0.7,7.4-1.9C107.6,68.1,113.3,60.3,113.3,51.2z"/>
	
		<line fill="none" stroke="#FFFFFF" stroke-width="7" stroke-linecap="round" stroke-miterlimit="10" x1="56.9" y1="96.7" x2="61.1" y2="92.6"/>
	
		<line fill="none" stroke="#FFFFFF" stroke-width="7" stroke-linecap="round" stroke-miterlimit="10" x1="81.9" y1="96.7" x2="86.1" y2="92.6"/>
	
		<line fill="none" stroke="#FFFFFF" stroke-width="7" stroke-linecap="round" stroke-miterlimit="10" x1="31.9" y1="96.7" x2="36.1" y2="92.6"/>
</g>
<g id="Jenn_x5F_new_set" display="none">
	<g display="inline">
		<g>
			<path fill="#FFFFFF" d="M-1.1,60.4c-13,0-8.3-23,7.5-17c0.2-16.2,19.8-20.5,26.4-5.9c4.7-4.7,14.2-1.7,14.3,6.1
				c14.2-5.4,19,16.6,5.9,16.7C37.6,60.5,10.5,60.4-1.1,60.4z"/>
			<path fill="#CCCCCC" d="M50.3,56.4c2.1-0.1,4.3-2.5,2.4-5.6c-1.9-3-6.1-2.5-9.4-0.4c0,0,0.3-5.2-2.1-7.6
				c-1.6-1.6-6.5-2.8-11.5,3.2l0,0c0,0-3.7-19.7-20.1-10.9c-5.5,2.9,5.1-6,10.5-6.5c2.8-0.3,6.2,1.3,6.2,1.3l6.4,7.7l4.6-2.5
				l4.1,1.4l4.1,2.7l1.5,4.5l4.9-0.8l4.9,1l3.3,4v3.7L59.4,57l-4.1,3.2l-58.6,0.5l-4-4.2"/>
			<path fill="none" stroke="#999999" stroke-width="2.7482" d="M-1.1,60.4c-13,0-8.3-23,7.5-17c0.2-16.2,19.8-20.5,26.4-5.9
				c4.7-4.7,14.2-1.7,14.3,6.1c14.2-5.4,19,16.6,5.9,16.7C37.6,60.5,10.5,60.4-1.1,60.4z"/>
		</g>
	</g>
	<g display="inline">
		
			<line fill="none" stroke="#999999" stroke-width="2.7482" stroke-linecap="round" stroke-dasharray="7,10" x1="36.5" y1="97.4" x2="54.4" y2="60.4"/>
		
			<line fill="none" stroke="#999999" stroke-width="2.7482" stroke-linecap="round" stroke-dasharray="7,10" x1="25.4" y1="97.4" x2="43.3" y2="60.4"/>
		
			<line fill="none" stroke="#999999" stroke-width="2.7482" stroke-linecap="round" stroke-dasharray="7,10" x1="14.2" y1="97.4" x2="32.1" y2="60.4"/>
		
			<line fill="none" stroke="#999999" stroke-width="2.7482" stroke-linecap="round" stroke-dasharray="7,10" x1="3.1" y1="97.4" x2="21" y2="60.4"/>
		
			<line fill="none" stroke="#999999" stroke-width="2.7482" stroke-linecap="round" stroke-dasharray="7,10" x1="-8" y1="97.4" x2="9.9" y2="60.4"/>
	</g>
	<g display="inline">
		<g>
			<path fill="#999999" d="M112,98.8c-0.2,0-0.4,0-0.6-0.1c-0.7-0.3-1-1.2-0.6-1.8l4.4-9c0.3-0.7,1.2-1,1.8-0.6
				c0.7,0.3,1,1.2,0.6,1.8l-4.4,9C113,98.5,112.5,98.8,112,98.8z M118.9,84.4c-0.2,0-0.4,0-0.6-0.1c-0.7-0.3-1-1.2-0.6-1.8l4.4-9
				c0.3-0.7,1.2-1,1.8-0.6c0.7,0.3,1,1.2,0.6,1.8l-4.4,9C119.9,84.1,119.4,84.4,118.9,84.4z M125.9,70c-0.2,0-0.4,0-0.6-0.1
				c-0.7-0.3-1-1.2-0.6-1.8l4-8.2c0.3-0.7,1.1-1,1.8-0.6s1,1.2,0.6,1.8l-4,8.2C126.9,69.7,126.4,70,125.9,70z"/>
		</g>
	</g>
	<g display="inline">
		<g>
			<path fill="#FFFFFF" d="M118.9,60.4c-13,0-8.3-23,7.5-17c0.2-16.2,19.8-20.5,26.4-5.9c4.7-4.7,14.2-1.7,14.3,6.1
				c14.2-5.4,19,16.6,5.9,16.7C157.6,60.5,130.5,60.4,118.9,60.4z"/>
			<path fill="#CCCCCC" d="M170.3,56.4c2.1-0.1,4.3-2.5,2.4-5.6c-1.9-3-6.1-2.5-9.4-0.4c0,0,0.3-5.2-2.1-7.6
				c-1.6-1.6-6.5-2.8-11.5,3.2l0,0c0,0-3.7-19.7-20.1-10.9c-5.5,2.9,5.1-6,10.5-6.5c2.8-0.3,6.2,1.3,6.2,1.3l6.4,7.7l4.6-2.5
				l4.1,1.4l4.1,2.7l1.5,4.5l4.9-0.8l4.9,1l3.3,4v3.7l-0.9,5.5l-4.1,3.2l-58.6,0.5l-4-4.2"/>
			<path fill="none" stroke="#999999" stroke-width="2.7482" d="M118.9,60.4c-13,0-8.3-23,7.5-17c0.2-16.2,19.8-20.5,26.4-5.9
				c4.7-4.7,14.2-1.7,14.3,6.1c14.2-5.4,19,16.6,5.9,16.7C157.6,60.5,130.5,60.4,118.9,60.4z"/>
		</g>
	</g>
	<g id="Winter_Leaf" display="inline">
	</g>
	<g id="Maple_Leaf_2" display="inline">
		<g id="Leaf_3">
		</g>
	</g>
</g>
<g id="Discrepencies" display="none">
	<rect x="-23.9" y="-99.9" display="inline" fill="#FFFFFF" width="100" height="100"/>
	<rect x="96.1" y="20.1" display="inline" fill="#FFFFFF" width="101.4" height="101.4"/>
</g>
<g id="LABELS" display="none">
	
		<text transform="matrix(1 0 0 1 0.2989 17.0698)" display="inline" fill="#383838" font-family="'MyriadPro-Regular'" font-size="12">Light rain</text>
</g>
<g id="NUMBERS" display="none">
</g>
</svg>
