<?xml version="1.0" encoding="utf-8"?>
<!-- Generator: Adobe Illustrator 17.1.0, SVG Export Plug-In . SVG Version: 6.00 Build 0)  -->
<!DOCTYPE svg PUBLIC "-//W3C//DTD SVG 1.1//EN" "http://www.w3.org/Graphics/SVG/1.1/DTD/svg11.dtd">
<svg version="1.1" id="Layer_1" xmlns="http://www.w3.org/2000/svg" xmlns:xlink="http://www.w3.org/1999/xlink" x="0px" y="0px"
	 viewBox="0 0 120 120" enable-background="new 0 0 120 120" xml:space="preserve">
<g id="TWC" display="none">
	<g id="qeR8US.tif" display="inline">
		
			<image overflow="visible" enable-background="new    " width="88" height="76" id="Layer_0_13_" xlink:href="C3D1E2BB12B58841.png"  transform="matrix(1 0 0 1 2.0649 12)">
		</image>
	</g>
</g>
<g id="ios">
	<g>
		<path fill="#FFFFFF" d="M43.3,104.3c-3.4,0-6.1-2.7-6.1-6.1c0-3.4,2.7-6.1,6.1-6.1c3.4,0,6.1,2.7,6.1,6.1
			C49.4,101.5,46.7,104.3,43.3,104.3z M43.3,95.4c-1.5,0-2.8,1.2-2.8,2.8c0,1.5,1.2,2.8,2.8,2.8s2.8-1.2,2.8-2.8
			C46.1,96.6,44.9,95.4,43.3,95.4z"/>
		<path fill="#FFFFFF" d="M43.3,95.4c-0.9,0-1.7-0.7-1.7-1.7V82.8c0-0.9,0.7-1.7,1.7-1.7c0.9,0,1.7,0.7,1.7,1.7v10.9
			C45,94.6,44.2,95.4,43.3,95.4z"/>
		<path fill="#FFFFFF" d="M43.5,91.1c-0.4,0-0.8-0.2-1.2-0.5l-4.1-4c-0.7-0.6-0.7-1.7,0-2.4c0.6-0.7,1.7-0.7,2.4,0l4.1,4
			c0.7,0.6,0.7,1.7,0,2.4C44.4,91,43.9,91.1,43.5,91.1z"/>
		<path fill="#FFFFFF" d="M43.1,91.1c-0.4,0-0.9-0.2-1.2-0.5c-0.6-0.7-0.6-1.7,0-2.4l4.1-4c0.7-0.6,1.7-0.6,2.4,0
			c0.6,0.7,0.6,1.7,0,2.4l-4.1,4C44,91,43.6,91.1,43.1,91.1z"/>
		<path fill="#FFFFFF" d="M43.3,115c-0.9,0-1.7-0.7-1.7-1.7v-10.1c0-0.9,0.7-1.7,1.7-1.7c0.9,0,1.7,0.7,1.7,1.7v10.1
			C45,114.2,44.2,115,43.3,115z"/>
		<path fill="#FFFFFF" d="M39.4,112.3c-0.4,0-0.9-0.2-1.2-0.5c-0.6-0.7-0.6-1.7,0-2.4l4.1-4c0.7-0.6,1.7-0.6,2.4,0
			c0.6,0.7,0.6,1.7,0,2.4l-4.1,4C40.3,112.1,39.9,112.3,39.4,112.3z"/>
		<path fill="#FFFFFF" d="M47.2,112.3c-0.4,0-0.8-0.2-1.2-0.5l-4.1-4c-0.7-0.6-0.7-1.7,0-2.4c0.6-0.7,1.7-0.7,2.4,0l4.1,4
			c0.7,0.6,0.7,1.7,0,2.4C48.1,112.1,47.6,112.3,47.2,112.3z"/>
		<path fill="#FFFFFF" d="M39.4,97.7c-0.3,0-0.6-0.1-0.8-0.2L29.2,92c-0.8-0.5-1.1-1.5-0.6-2.3c0.5-0.8,1.5-1.1,2.3-0.6l9.4,5.4
			c0.8,0.5,1.1,1.5,0.6,2.3C40.6,97.4,40,97.7,39.4,97.7z"/>
		<path fill="#FFFFFF" d="M30.4,97c-0.7,0-1.4-0.5-1.6-1.2c-0.2-0.9,0.3-1.8,1.2-2.1l5.5-1.5c0.9-0.2,1.8,0.3,2.1,1.2
			c0.2,0.9-0.3,1.8-1.2,2.1l-5.5,1.5C30.7,96.9,30.6,97,30.4,97z"/>
		<path fill="#FFFFFF" d="M35.7,95.8c-0.7,0-1.4-0.5-1.6-1.3L32.7,89c-0.2-0.9,0.3-1.8,1.2-2c0.9-0.2,1.8,0.3,2,1.2l1.4,5.5
			c0.2,0.9-0.3,1.8-1.2,2C36,95.7,35.9,95.8,35.7,95.8z"/>
		<path fill="#FFFFFF" d="M56.4,107.5c-0.3,0-0.6-0.1-0.8-0.2l-9-5.2c-0.8-0.5-1.1-1.5-0.6-2.3c0.5-0.8,1.5-1.1,2.3-0.6l9,5.2
			c0.8,0.5,1.1,1.5,0.6,2.3C57.6,107.2,57,107.5,56.4,107.5z"/>
		<path fill="#FFFFFF" d="M52.2,109.5c-0.7,0-1.4-0.5-1.6-1.3l-1.4-5.5c-0.2-0.9,0.3-1.8,1.2-2c0.9-0.2,1.8,0.3,2,1.2l1.4,5.5
			c0.2,0.9-0.3,1.8-1.2,2C52.5,109.5,52.3,109.5,52.2,109.5z"/>
		<path fill="#FFFFFF" d="M50.6,104.3c-0.7,0-1.4-0.5-1.6-1.2c-0.2-0.9,0.3-1.8,1.2-2.1l5.5-1.5c0.9-0.2,1.8,0.3,2.1,1.2
			c0.2,0.9-0.3,1.8-1.2,2.1l-5.5,1.5C50.9,104.3,50.7,104.3,50.6,104.3z"/>
		<path fill="#FFFFFF" d="M48.2,97c-0.6,0-1.1-0.3-1.4-0.8c-0.5-0.8-0.2-1.8,0.6-2.3l8.4-4.8c0.8-0.5,1.8-0.2,2.3,0.6
			c0.5,0.8,0.2,1.8-0.6,2.3L49,96.8C48.7,96.9,48.4,97,48.2,97z"/>
		<path fill="#FFFFFF" d="M56.1,96.9c-0.1,0-0.3,0-0.4-0.1l-5.5-1.5c-0.9-0.2-1.4-1.2-1.2-2.1c0.2-0.9,1.2-1.4,2.1-1.2l5.5,1.5
			c0.9,0.2,1.4,1.2,1.2,2.1C57.5,96.4,56.9,96.9,56.1,96.9z"/>
		<path fill="#FFFFFF" d="M50.8,95.7c-0.1,0-0.3,0-0.4-0.1c-0.9-0.2-1.4-1.1-1.2-2l1.4-5.5c0.2-0.9,1.1-1.4,2-1.2
			c0.9,0.2,1.4,1.1,1.2,2l-1.4,5.5C52.3,95.2,51.6,95.7,50.8,95.7z"/>
		<path fill="#FFFFFF" d="M30.1,107.4c-0.6,0-1.1-0.3-1.4-0.8c-0.5-0.8-0.2-1.8,0.6-2.3l9.3-5.4c0.8-0.5,1.8-0.2,2.3,0.6
			c0.5,0.8,0.2,1.8-0.6,2.3l-9.3,5.4C30.7,107.3,30.4,107.4,30.1,107.4z"/>
		<path fill="#FFFFFF" d="M34.4,109.4c-0.1,0-0.3,0-0.4-0.1c-0.9-0.2-1.4-1.1-1.2-2l1.4-5.5c0.2-0.9,1.1-1.4,2-1.2
			c0.9,0.2,1.4,1.1,1.2,2l-1.4,5.5C35.8,108.9,35.1,109.4,34.4,109.4z"/>
		<path fill="#FFFFFF" d="M36,104.2c-0.1,0-0.3,0-0.4-0.1l-5.5-1.5c-0.9-0.2-1.4-1.2-1.2-2.1c0.2-0.9,1.2-1.4,2.1-1.2l5.5,1.5
			c0.9,0.2,1.4,1.2,1.2,2.1C37.4,103.8,36.7,104.2,36,104.2z"/>
	</g>
	<path fill="#FFFFFF" d="M68.4,50.4l-2.2-1.3l1.4-0.4c0.9-0.2,1.4-1.2,1.2-2.1c-0.2-0.9-1.2-1.4-2.1-1.2l-4.4,1.2
		c-0.1,0-0.3-0.1-0.4-0.1l-1.6-0.9c0.1-0.5,0.2-1,0.2-1.6c0-0.5-0.1-1-0.2-1.5l1.7-1c0.1,0,0.3,0,0.4-0.1l4.4,1.2
		c0.1,0,0.3,0.1,0.4,0.1c0.7,0,1.4-0.5,1.6-1.2c0.2-0.9-0.3-1.8-1.2-2.1l-1.4-0.4l2.2-1.3c0.8-0.5,1.1-1.5,0.6-2.3
		c-0.5-0.8-1.5-1.1-2.3-0.6l-2.2,1.3l0.4-1.4c0.2-0.9-0.3-1.8-1.2-2c-0.9-0.2-1.8,0.3-2,1.2l-1.1,4.4c-0.1,0.1-0.2,0.2-0.3,0.3
		l-1.7,1c-0.7-0.7-1.6-1.2-2.6-1.5v-2c0.1-0.1,0.1-0.3,0.1-0.4l3.2-3.2c0.7-0.6,0.7-1.7,0-2.4c-0.6-0.7-1.7-0.7-2.4,0l-1.1,1v-2.5
		c0-0.9-0.7-1.7-1.7-1.7c-0.9,0-1.7,0.7-1.7,1.7v2.5l-1-1c-0.7-0.6-1.7-0.6-2.4,0c-0.6,0.7-0.6,1.7,0,2.4l3.2,3.2
		c0,0.1,0.1,0.3,0.1,0.4v2.1c-1,0.3-1.9,0.8-2.7,1.6l-1.7-1c-0.1-0.1-0.2-0.2-0.3-0.3L47,34.2c-0.2-0.9-1.1-1.4-2-1.2
		c-0.9,0.2-1.4,1.1-1.2,2l0.4,1.4L42,35.2c-0.8-0.5-1.8-0.2-2.3,0.6c-0.5,0.8-0.2,1.8,0.6,2.3l2.2,1.3l-1.4,0.4
		c-0.9,0.2-1.4,1.2-1.2,2.1c0.2,0.7,0.9,1.2,1.6,1.2c0.1,0,0.3,0,0.4-0.1l4.4-1.2c0.1,0,0.3,0.1,0.4,0.1l1.7,1
		c-0.1,0.5-0.2,0.9-0.2,1.4c0,0.5,0.1,1,0.2,1.5l-1.7,1c-0.1,0-0.3,0-0.4,0.1l-4.4-1.2c-0.9-0.2-1.8,0.3-2.1,1.2
		c-0.2,0.9,0.3,1.8,1.2,2.1l1.4,0.4l-2.2,1.3c-0.8,0.5-1.1,1.5-0.6,2.3c0.3,0.5,0.9,0.8,1.4,0.8c0.3,0,0.6-0.1,0.8-0.2l2.2-1.3
		l-0.4,1.4c-0.2,0.9,0.3,1.8,1.2,2c0.1,0,0.3,0.1,0.4,0.1c0.7,0,1.4-0.5,1.6-1.3l1.1-4.4c0.1-0.1,0.2-0.2,0.3-0.3l1.7-1
		c0.7,0.7,1.6,1.2,2.6,1.5v1.8c-0.1,0.1-0.1,0.2-0.1,0.4l-3.2,3.2c-0.7,0.6-0.7,1.7,0,2.4c0.3,0.3,0.8,0.5,1.2,0.5
		c0.4,0,0.8-0.2,1.2-0.5l1-1v2.5c0,0.9,0.7,1.7,1.7,1.7c0.9,0,1.7-0.7,1.7-1.7v-2.5l1.1,1c0.3,0.3,0.7,0.5,1.2,0.5
		c0.4,0,0.9-0.2,1.2-0.5c0.6-0.7,0.6-1.7,0-2.4l-3.2-3.2c0-0.1-0.1-0.3-0.1-0.4V50c1-0.3,1.8-0.8,2.5-1.4l1.7,1
		c0.1,0.1,0.2,0.2,0.3,0.3l1.1,4.4c0.2,0.8,0.9,1.3,1.6,1.3c0.1,0,0.3,0,0.4-0.1c0.9-0.2,1.4-1.1,1.2-2L64.5,52l2.2,1.3
		c0.3,0.2,0.5,0.2,0.8,0.2c0.6,0,1.1-0.3,1.4-0.8C69.4,51.9,69.2,50.9,68.4,50.4z M54.4,46.9c-1.5,0-2.8-1.2-2.8-2.8
		c0-1.5,1.2-2.8,2.8-2.8s2.8,1.2,2.8,2.8C57.2,45.7,56,46.9,54.4,46.9z"/>
	<g>
		<path fill="#FFFFFF" d="M98.4,69.6c0,0,0.1,0,0.1,0C98.5,69.6,98.5,69.6,98.4,69.6C98.5,69.6,98.5,69.6,98.4,69.6z"/>
		<path fill="#FFFFFF" d="M91.6,25.9c-3,0-6,0.5-8.8,1.6C77.1,16.8,65.9,10,53.5,10c-17,0-31.1,13-32.9,29.5
			c-9.9,0.4-17.8,8.6-17.8,18.6c0,10.3,8.4,18.6,18.6,18.6h43.3c-0.1-0.8,0-1.7,0.2-2.5c-0.1-0.3-0.2-0.6-0.3-0.9
			c-0.3-1.2-0.3-2.4-0.1-3.6H21.4c-6.4,0-11.6-5.2-11.6-11.6c0-6.4,5.2-11.6,11.6-11.6h6l0-3.5c0-14.4,11.7-26,26.1-26
			c10.8,0,20.3,6.5,24.3,16.5l1.5,3.7l3.5-1.9c2.7-1.5,5.8-2.3,8.9-2.3c10,0,18.2,8.2,18.2,18.2c0,5.6-2.5,10.7-6.6,14
			c0.8,0.6,1.4,1.3,1.9,2.2c0.8,1.4,1.1,2.9,1,4.4c6.6-4.6,10.7-12.2,10.7-20.6C116.8,37.3,105.5,25.9,91.6,25.9z"/>
	</g>
	<g>
		<path fill="#FFFFFF" d="M99.3,85.1l-2.2-1.3l1.4-0.4c0.9-0.2,1.4-1.2,1.2-2.1c-0.2-0.9-1.2-1.4-2.1-1.2l-4.4,1.2
			c-0.1,0-0.3-0.1-0.4-0.1l-1.6-0.9c0.1-0.5,0.2-1,0.2-1.6c0-0.5-0.1-1-0.2-1.5l1.7-1c0.1,0,0.3,0,0.4-0.1l4.4,1.2
			c0.2,0,0.3,0.1,0.4,0.1c0.7,0,1.4-0.5,1.6-1.2c0.2-0.9-0.3-1.8-1.2-2.1l-1.4-0.4l2.2-1.3c0.8-0.5,1.1-1.5,0.6-2.3
			c-0.5-0.8-1.5-1.1-2.3-0.6l-2.2,1.3l0.4-1.4c0.2-0.9-0.3-1.8-1.2-2c-0.9-0.2-1.8,0.3-2,1.2l-1.1,4.4c-0.1,0.1-0.2,0.2-0.3,0.3
			l-1.7,1c-0.7-0.7-1.6-1.2-2.6-1.5v-2c0.1-0.1,0.1-0.3,0.1-0.4l3.2-3.2c0.7-0.6,0.7-1.7,0-2.4c-0.6-0.7-1.7-0.7-2.4,0l-1.1,1v-2.5
			c0-0.9-0.7-1.7-1.7-1.7c-0.9,0-1.7,0.7-1.7,1.7v2.5l-1.1-1c-0.7-0.6-1.7-0.6-2.4,0c-0.6,0.7-0.6,1.7,0,2.4l3.2,3.2
			c0,0.1,0.1,0.3,0.1,0.4V73c-1,0.3-1.9,0.8-2.7,1.6l-1.7-1c-0.1-0.1-0.2-0.2-0.3-0.3l-1.1-4.4c-0.2-0.9-1.1-1.4-2-1.2
			c-0.9,0.2-1.4,1.1-1.2,2l0.4,1.4l-2.2-1.3c-0.8-0.5-1.8-0.2-2.3,0.6c-0.5,0.8-0.2,1.8,0.6,2.3l2.2,1.3L72,74.4
			c-0.9,0.2-1.4,1.2-1.2,2.1c0.2,0.7,0.9,1.2,1.6,1.2c0.1,0,0.3,0,0.4-0.1l4.4-1.2c0.1,0,0.3,0.1,0.4,0.1l1.7,1
			c-0.1,0.5-0.2,0.9-0.2,1.4c0,0.5,0.1,1,0.2,1.5l-1.7,1c-0.1,0-0.3,0-0.4,0.1l-4.4-1.2c-0.9-0.2-1.8,0.3-2.1,1.2s0.3,1.8,1.2,2.1
			l1.4,0.4L71.3,85c-0.8,0.5-1.1,1.5-0.6,2.3c0.3,0.5,0.9,0.8,1.4,0.8c0.3,0,0.6-0.1,0.8-0.2l2.2-1.3l-0.4,1.4
			c-0.2,0.9,0.3,1.8,1.2,2c0.1,0,0.3,0.1,0.4,0.1c0.7,0,1.4-0.5,1.6-1.3l1.1-4.4c0.1-0.1,0.2-0.2,0.3-0.3l1.7-1
			c0.7,0.7,1.6,1.2,2.6,1.5v1.8c-0.1,0.1-0.1,0.2-0.1,0.4l-3.2,3.2c-0.7,0.6-0.7,1.7,0,2.4c0.3,0.3,0.8,0.5,1.2,0.5
			c0.4,0,0.8-0.2,1.2-0.5l1.1-1V94c0,0.9,0.7,1.7,1.7,1.7c0.9,0,1.7-0.7,1.7-1.7v-2.5l1.1,1c0.3,0.3,0.7,0.5,1.2,0.5
			c0.4,0,0.9-0.2,1.2-0.5c0.6-0.7,0.6-1.7,0-2.4L87.1,87c0-0.1-0.1-0.3-0.1-0.4v-1.8c1-0.3,1.8-0.8,2.5-1.4l1.7,1
			c0.1,0.1,0.2,0.2,0.3,0.3l1.1,4.4c0.2,0.8,0.9,1.3,1.6,1.3c0.1,0,0.3,0,0.4-0.1c0.9-0.2,1.4-1.1,1.2-2l-0.4-1.4l2.2,1.3
			c0.3,0.2,0.5,0.2,0.8,0.2c0.6,0,1.1-0.3,1.4-0.8C100.3,86.6,100,85.6,99.3,85.1z M85.3,81.7c-1.5,0-2.8-1.2-2.8-2.8
			c0-1.5,1.2-2.8,2.8-2.8c1.5,0,2.8,1.2,2.8,2.8C88.1,80.4,86.8,81.7,85.3,81.7z"/>
	</g>
</g>
<g id="Jenn_x5F_new_set" display="none">
	<path display="inline" fill="#40B4E5" d="M31.8,48.8L31,47.6l1,0.2c0.3,0.1,0.6-0.1,0.7-0.4c0.1-0.3-0.1-0.6-0.4-0.7l-2-0.4
		c0,0-0.1-0.1-0.1-0.1l-0.8-1.3c0.1-0.1,0.2-0.2,0.3-0.4c0.1-0.1,0.1-0.3,0.2-0.4l1.5,0c0,0,0,0,0,0c0.1,0,0.1,0,0.2,0.1l1.4,1.4
		c0,0,0.1,0.1,0.1,0.1c0.2,0.1,0.5,0.1,0.7-0.1c0.2-0.2,0.2-0.6,0-0.8L33,43.9l1.5,0c0.3,0,0.5-0.3,0.5-0.6c0-0.3-0.3-0.5-0.6-0.5
		l-1.5,0l0.7-0.8c0.2-0.2,0.2-0.6,0-0.8c-0.2-0.2-0.6-0.2-0.8,0l-1.4,1.5c-0.1,0-0.1,0-0.2,0.1l-1.5,0c-0.1-0.3-0.3-0.5-0.5-0.8
		l0.8-1.4c0.1,0,0.1-0.1,0.1-0.1l1.9-0.6c0.3-0.1,0.5-0.4,0.4-0.7c-0.1-0.3-0.4-0.5-0.7-0.4l-1,0.3l0.7-1.3c0.1-0.3,0-0.6-0.2-0.7
		c-0.3-0.1-0.6,0-0.7,0.2l-0.7,1.3l-0.3-1c-0.1-0.3-0.4-0.4-0.7-0.4c-0.3,0.1-0.4,0.4-0.4,0.7l0.6,1.9c0,0.1,0,0.1,0,0.2l-0.8,1.4
		c-0.3-0.1-0.6-0.1-0.9,0l-0.8-1.3c0-0.1,0-0.1,0-0.2l0.5-1.9c0.1-0.3-0.1-0.6-0.4-0.7c-0.3-0.1-0.6,0.1-0.7,0.4l-0.2,1l-0.8-1.3
		c-0.2-0.3-0.5-0.3-0.8-0.2c-0.3,0.2-0.3,0.5-0.2,0.7l0.8,1.3l-1-0.2c-0.3-0.1-0.6,0.1-0.7,0.4c-0.1,0.2,0.1,0.5,0.3,0.6
		c0,0,0.1,0,0.1,0.1l1.9,0.4c0,0.1,0.1,0.1,0.2,0.1c0,0,0,0,0,0l0.8,1.3c-0.1,0.1-0.2,0.2-0.2,0.3c-0.1,0.1-0.1,0.3-0.2,0.4l-1.5,0
		c-0.1,0-0.1-0.1-0.2-0.1l-1.4-1.4c-0.2-0.2-0.6-0.2-0.8,0c-0.2,0.2-0.2,0.6,0,0.8l0.7,0.7l-1.5,0c-0.3,0-0.5,0.3-0.5,0.6
		c0,0.2,0.1,0.4,0.3,0.5c0.1,0,0.2,0.1,0.3,0.1l1.5,0L22.2,45c-0.2,0.2-0.2,0.6,0,0.8c0,0,0.1,0.1,0.1,0.1c0.2,0.1,0.5,0.1,0.7-0.1
		l1.4-1.5c0.1,0,0.1,0,0.2-0.1l1.5,0c0.1,0.3,0.3,0.6,0.5,0.8l-0.7,1.3c-0.1,0-0.1,0.1-0.1,0.1l-1.9,0.6c-0.3,0.1-0.5,0.4-0.4,0.7
		c0,0.1,0.1,0.3,0.3,0.3c0.1,0.1,0.3,0.1,0.4,0l1-0.3L24.4,49c-0.1,0.3,0,0.6,0.2,0.7c0.3,0.1,0.6,0,0.7-0.2l0.7-1.3l0.3,1
		c0,0.1,0.1,0.3,0.3,0.3c0.1,0.1,0.3,0.1,0.4,0c0.3-0.1,0.4-0.4,0.4-0.7l-0.6-1.9c0-0.1,0-0.1,0-0.2l0.7-1.3c0.3,0.1,0.6,0.1,0.9,0
		l0.8,1.3c0,0.1,0,0.1,0,0.2l-0.5,1.9c-0.1,0.2,0.1,0.5,0.3,0.6c0,0,0.1,0,0.1,0c0.3,0.1,0.6-0.1,0.7-0.4l0.2-1l0.8,1.3
		c0.1,0.1,0.1,0.1,0.2,0.2c0.2,0.1,0.4,0.1,0.5,0C31.8,49.4,31.9,49.1,31.8,48.8z M27.5,44.3c-0.4-0.2-0.6-0.7-0.3-1.2
		c0.2-0.4,0.7-0.6,1.2-0.3c0.4,0.2,0.6,0.7,0.3,1.2C28.4,44.4,27.9,44.5,27.5,44.3z"/>
	<g display="inline">
		<g>
			<path fill="#FFFFFF" d="M18.9,40.3c-13,0-8.3-23,7.5-17c0.2-16.2,19.8-20.5,26.4-5.9c4.7-4.7,14.2-1.7,14.3,6.1
				c14.2-5.4,19,16.6,5.9,16.7C57.6,40.4,30.5,40.3,18.9,40.3z"/>
			<path fill="#ADD9F2" d="M70.3,36.4c2.1-0.1,4.3-2.5,2.4-5.6c-1.9-3-6.1-2.5-9.4-0.4c0,0,0.3-5.2-2.1-7.6
				c-1.6-1.6-6.5-2.8-11.5,3.2l0,0c0,0-3.7-19.7-20.1-10.9c-5.5,2.9,5.1-6,10.5-6.5c2.8-0.3,6.2,1.3,6.2,1.3l6.4,7.7l4.6-2.5
				l4.1,1.4l4.1,2.7l1.5,4.5l4.9-0.8l4.9,1l3.3,4v3.7l-0.9,5.5l-4.1,3.2l-58.6,0.5l-4-4.2"/>
			<path fill="none" stroke="#40B4E5" stroke-width="2.7482" d="M18.9,40.3c-13,0-8.3-23,7.5-17c0.2-16.2,19.8-20.5,26.4-5.9
				c4.7-4.7,14.2-1.7,14.3,6.1c14.2-5.4,19,16.6,5.9,16.7C57.6,40.4,30.5,40.3,18.9,40.3z"/>
		</g>
	</g>
	<path display="inline" fill="#40B4E5" d="M70.2,56.1l-1.3-0.7l1-0.3c0.3-0.1,0.5-0.4,0.4-0.7c-0.1-0.3-0.4-0.5-0.7-0.4l-1.9,0.5
		c-0.1,0-0.1,0-0.2,0l-1.3-0.8c0-0.2,0.1-0.3,0.1-0.5c0-0.2,0-0.3-0.1-0.5l1.3-0.8c0,0,0,0,0,0c0.1,0,0.1,0,0.2,0l1.9,0.5
		c0,0,0.1,0,0.1,0c0.2,0,0.5-0.2,0.5-0.4c0.1-0.3-0.1-0.6-0.4-0.7l-1-0.3l1.3-0.7c0.3-0.2,0.3-0.5,0.2-0.7c-0.2-0.3-0.5-0.4-0.7-0.2
		l-1.3,0.7l0.3-1c0.1-0.3-0.1-0.6-0.4-0.7c-0.3-0.1-0.6,0.1-0.7,0.4L67.1,51c-0.1,0-0.1,0.1-0.1,0.1l-1.3,0.8
		c-0.2-0.2-0.5-0.4-0.8-0.4v-1.6c0-0.1,0.1-0.1,0.1-0.2l1.4-1.4c0.2-0.2,0.2-0.6,0-0.8c-0.2-0.2-0.6-0.2-0.8,0l-0.7,0.7v-1.5
		c0-0.3-0.2-0.5-0.5-0.5c-0.3,0-0.5,0.2-0.5,0.5v1.5L63,47.5c-0.2-0.2-0.6-0.2-0.8,0c-0.2,0.2-0.2,0.6,0,0.8l1.4,1.4
		c0,0.1,0,0.1,0.1,0.2v1.6c-0.3,0.1-0.6,0.3-0.8,0.5l-1.3-0.8c0-0.1-0.1-0.1-0.1-0.1l-0.5-1.9c-0.1-0.3-0.4-0.5-0.7-0.4
		c-0.3,0.1-0.5,0.4-0.4,0.7l0.3,1l-1.3-0.7c-0.3-0.2-0.6-0.1-0.7,0.2c-0.2,0.3-0.1,0.6,0.2,0.7l1.3,0.7l-1,0.3
		c-0.3,0.1-0.5,0.4-0.4,0.7c0.1,0.2,0.3,0.4,0.5,0.4c0,0,0.1,0,0.1,0l1.9-0.5c0.1,0,0.1,0,0.2,0c0,0,0,0,0,0l1.3,0.8
		c0,0.1,0,0.3,0,0.4c0,0.2,0,0.3,0.1,0.4l-1.3,0.8c-0.1,0-0.1,0-0.2,0L58.9,54c-0.3-0.1-0.6,0.1-0.7,0.4c-0.1,0.3,0.1,0.6,0.4,0.7
		l1,0.3l-1.3,0.7c-0.3,0.2-0.4,0.5-0.2,0.7c0.1,0.2,0.3,0.3,0.5,0.3c0.1,0,0.2,0,0.3-0.1l1.3-0.7l-0.3,1c-0.1,0.3,0.1,0.6,0.4,0.7
		c0,0,0.1,0,0.1,0c0.2,0,0.5-0.2,0.5-0.4l0.5-1.9c0.1,0,0.1-0.1,0.1-0.2l1.3-0.8c0.2,0.2,0.5,0.4,0.8,0.5v1.5c0,0.1-0.1,0.1-0.1,0.2
		l-1.4,1.4c-0.2,0.2-0.2,0.6,0,0.8c0.1,0.1,0.2,0.2,0.4,0.2c0.1,0,0.3-0.1,0.4-0.2l0.7-0.7v1.5c0,0.3,0.2,0.5,0.5,0.5
		c0.3,0,0.5-0.2,0.5-0.5v-1.5l0.7,0.7c0.1,0.1,0.2,0.2,0.4,0.2c0.1,0,0.3-0.1,0.4-0.2c0.2-0.2,0.2-0.6,0-0.8l-1.4-1.4
		c0-0.1,0-0.1-0.1-0.2v-1.5c0.3-0.1,0.5-0.2,0.8-0.4l1.3,0.8c0,0.1,0.1,0.1,0.1,0.2l0.5,1.9c0.1,0.2,0.3,0.4,0.5,0.4
		c0,0,0.1,0,0.1,0c0.3-0.1,0.5-0.4,0.4-0.7l-0.3-1l1.3,0.7c0.1,0,0.2,0.1,0.3,0.1c0.2,0,0.4-0.1,0.5-0.3
		C70.5,56.6,70.4,56.3,70.2,56.1z M64.3,54.2c-0.5,0-0.9-0.4-0.9-0.8c0-0.5,0.4-0.8,0.9-0.8c0.5,0,0.8,0.4,0.8,0.8
		C65.1,53.8,64.7,54.2,64.3,54.2z"/>
	<path display="inline" fill="#40B4E5" d="M44.9,68.1l-1.3-0.7l1-0.3c0.3-0.1,0.5-0.4,0.4-0.7c-0.1-0.3-0.4-0.5-0.7-0.4l-1.9,0.5
		c-0.1,0-0.1,0-0.2,0l-1.3-0.8c0-0.2,0.1-0.3,0.1-0.5c0-0.2,0-0.3-0.1-0.5l1.3-0.8c0,0,0,0,0,0c0.1,0,0.1,0,0.2,0l1.9,0.5
		c0,0,0.1,0,0.1,0c0.2,0,0.5-0.2,0.5-0.4c0.1-0.3-0.1-0.6-0.4-0.7l-1-0.3l1.3-0.7c0.3-0.2,0.3-0.5,0.2-0.7c-0.2-0.3-0.5-0.4-0.7-0.2
		l-1.3,0.7l0.3-1c0.1-0.3-0.1-0.6-0.4-0.7c-0.3-0.1-0.6,0.1-0.7,0.4L41.8,63c0,0-0.1,0.1-0.1,0.1l-1.3,0.8c-0.2-0.2-0.5-0.4-0.8-0.4
		v-1.6c0-0.1,0.1-0.1,0.1-0.2l1.4-1.4c0.2-0.2,0.2-0.6,0-0.8s-0.6-0.2-0.8,0l-0.7,0.7v-1.5c0-0.3-0.2-0.5-0.5-0.5
		c-0.3,0-0.5,0.2-0.5,0.5v1.5l-0.7-0.7c-0.2-0.2-0.6-0.2-0.8,0s-0.2,0.6,0,0.8l1.4,1.4c0,0.1,0,0.1,0.1,0.2v1.6
		c-0.3,0.1-0.6,0.3-0.8,0.5l-1.3-0.8c0-0.1-0.1-0.1-0.1-0.1l-0.5-1.9c-0.1-0.3-0.4-0.5-0.7-0.4c-0.3,0.1-0.5,0.4-0.4,0.7l0.3,1
		l-1.3-0.7c-0.3-0.2-0.6-0.1-0.7,0.2c-0.2,0.3-0.1,0.6,0.2,0.7l1.3,0.7l-1,0.3c-0.3,0.1-0.5,0.4-0.4,0.7c0.1,0.2,0.3,0.4,0.5,0.4
		c0,0,0.1,0,0.1,0l1.9-0.5c0.1,0,0.1,0,0.2,0c0,0,0,0,0,0l1.3,0.8c0,0.1,0,0.3,0,0.4c0,0.2,0,0.3,0.1,0.4l-1.3,0.8
		c-0.1,0-0.1,0-0.2,0L33.7,66c-0.3-0.1-0.6,0.1-0.7,0.4c-0.1,0.3,0.1,0.6,0.4,0.7l1,0.3l-1.3,0.7c-0.3,0.2-0.3,0.5-0.2,0.7
		c0.1,0.2,0.3,0.3,0.5,0.3c0.1,0,0.2,0,0.3-0.1l1.3-0.7l-0.3,1c-0.1,0.3,0.1,0.6,0.4,0.7c0,0,0.1,0,0.1,0c0.2,0,0.5-0.2,0.5-0.4
		l0.5-1.9c0.1,0,0.1-0.1,0.1-0.2l1.3-0.8c0.2,0.2,0.5,0.4,0.8,0.5v1.5c0,0.1-0.1,0.1-0.1,0.2L37,70.3c-0.2,0.2-0.2,0.6,0,0.8
		c0.1,0.1,0.2,0.2,0.4,0.2c0.1,0,0.3-0.1,0.4-0.2l0.7-0.7v1.5c0,0.3,0.2,0.5,0.5,0.5c0.3,0,0.5-0.2,0.5-0.5v-1.5l0.7,0.7
		c0.1,0.1,0.2,0.2,0.4,0.2c0.1,0,0.3-0.1,0.4-0.2c0.2-0.2,0.2-0.6,0-0.8l-1.4-1.4c0-0.1,0-0.1-0.1-0.2v-1.5c0.3-0.1,0.5-0.2,0.8-0.4
		l1.3,0.8c0,0.1,0.1,0.1,0.1,0.2l0.5,1.9c0.1,0.2,0.3,0.4,0.5,0.4c0,0,0.1,0,0.1,0c0.3-0.1,0.5-0.4,0.4-0.7l-0.3-1l1.3,0.7
		c0.1,0.1,0.2,0.1,0.3,0.1c0.2,0,0.4-0.1,0.5-0.3C45.2,68.6,45.1,68.3,44.9,68.1z M39,66.2c-0.5,0-0.9-0.4-0.9-0.8s0.4-0.8,0.9-0.8
		c0.5,0,0.8,0.4,0.8,0.8C39.8,65.8,39.5,66.2,39,66.2z"/>
	<g display="inline">
		<g>
			<path fill="#40B4E5" d="M69.1,65.8c-0.2,0-0.4,0-0.6-0.1c-0.7-0.3-1-1.1-0.7-1.8l0,0c0.3-0.7,1.1-1,1.8-0.7
				c0.7,0.3,1,1.1,0.7,1.8C70.1,65.5,69.6,65.8,69.1,65.8z M73.6,44.9c-0.2,0-0.5-0.1-0.7-0.2c-0.7-0.4-0.9-1.2-0.5-1.9l0,0
				c0.4-0.7,1.2-0.9,1.9-0.5c0.7,0.4,0.9,1.2,0.5,1.9C74.5,44.6,74,44.9,73.6,44.9z"/>
		</g>
		<g>
			<path fill="#40B4E5" d="M49.7,69.7c-0.2,0-0.5-0.1-0.7-0.2c-0.7-0.4-0.9-1.2-0.5-1.9l0,0c0.4-0.7,1.2-0.9,1.9-0.5
				c0.7,0.4,0.9,1.2,0.5,1.9C50.7,69.4,50.2,69.7,49.7,69.7z M54.1,60.7c-0.2,0-0.4,0-0.6-0.1c-0.7-0.3-1-1.1-0.7-1.8l0,0
				c0.3-0.7,1.1-1,1.8-0.7c0.7,0.3,1,1.1,0.7,1.8C55.1,60.4,54.6,60.7,54.1,60.7z M58.6,46.2c-0.2,0-0.5-0.1-0.7-0.2
				c-0.7-0.4-0.9-1.2-0.5-1.9l0,0c0.4-0.7,1.2-0.9,1.9-0.5c0.7,0.4,0.9,1.2,0.5,1.9C59.5,46,59.1,46.2,58.6,46.2z"/>
		</g>
		<g>
			<path fill="#40B4E5" d="M44,56c-0.2,0-0.4,0-0.6-0.1c-0.7-0.3-1-1.1-0.7-1.8l0,0c0.3-0.7,1.1-1,1.8-0.7c0.7,0.3,1,1.1,0.7,1.8
				C45,55.7,44.5,56,44,56z M29.3,59.3c-0.2,0-0.4,0-0.6-0.1c-0.7-0.3-1-1.1-0.7-1.8l0,0c0.3-0.7,1.1-1,1.8-0.7
				c0.7,0.3,1,1.1,0.7,1.8C30.3,59,29.8,59.3,29.3,59.3z"/>
		</g>
		<g>
			<path fill="#40B4E5" d="M20.9,66.6c-0.2,0-0.4,0-0.6-0.1c-0.7-0.3-1-1.2-0.6-1.8l0,0c0.3-0.7,1.2-1,1.8-0.6
				c0.7,0.3,1,1.2,0.6,1.8C21.9,66.4,21.4,66.6,20.9,66.6z M19.5,53.9c-0.2,0-0.4,0-0.6-0.1c-0.7-0.3-1-1.2-0.6-1.8l0,0
				c0.3-0.7,1.2-1,1.8-0.6c0.7,0.3,1,1.2,0.6,1.8C20.5,53.7,20,53.9,19.5,53.9z M42.3,46.2c-0.2,0-0.4,0-0.6-0.1
				c-0.7-0.3-1-1.2-0.6-1.8l0,0c0.3-0.7,1.2-1,1.8-0.6c0.7,0.3,1,1.2,0.6,1.8C43.3,45.9,42.8,46.2,42.3,46.2z"/>
		</g>
	</g>
	<g id="Winter_Leaf" display="inline">
	</g>
	<g id="Maple_Leaf_2" display="inline">
		<g id="Leaf_3">
		</g>
	</g>
</g>
<g id="Discrepencies" display="none">
	<rect x="-2.4" y="120" display="inline" fill="#FFFFFF" width="101.4" height="101.4"/>
	<rect x="116.1" display="inline" fill="#FFFFFF" width="99.5" height="99.5"/>
</g>
<g id="LABELS" display="none">
</g>
<g id="NUMBERS" display="none">
</g>
</svg>
