<?xml version="1.0" encoding="utf-8"?>
<!-- Generator: Adobe Illustrator 17.1.0, SVG Export Plug-In . SVG Version: 6.00 Build 0)  -->
<!DOCTYPE svg PUBLIC "-//W3C//DTD SVG 1.1//EN" "http://www.w3.org/Graphics/SVG/1.1/DTD/svg11.dtd">
<svg version="1.1" id="Layer_1" xmlns="http://www.w3.org/2000/svg" xmlns:xlink="http://www.w3.org/1999/xlink" x="0px" y="0px"
	 viewBox="0 0 120 120" enable-background="new 0 0 120 120" xml:space="preserve">
<g id="TWC" display="none">
	<g id="Sb6vBt.tif" display="inline">
		
			<image overflow="visible" enable-background="new    " width="88" height="68" id="Layer_0_8_" xlink:href="3E999FB61E662CE6.png"  transform="matrix(1 0 0 0.9853 41.7705 36.5425)">
		</image>
	</g>
</g>
<path fill="none" stroke="#FFFFFF" stroke-width="7" stroke-miterlimit="10" d="M113.3,51.2c0-12-9.7-21.7-21.7-21.7
	c-3.8,0-7.4,1-10.6,2.7c-4.3-11-15-18.7-27.5-18.7C37.2,13.5,24,26.7,23.9,43h-2.5c-8.4,0-15.1,6.8-15.1,15.1
	c0,8.4,6.8,15.1,15.1,15.1h70.8c2.7,0,5.2-0.7,7.4-1.9C107.6,68.1,113.3,60.3,113.3,51.2z"/>
<polygon fill="#FFFFFF" points="69.7,103.8 73.2,103.8 75.8,97.8 69.7,100.3 "/>
<polygon fill="#FFFFFF" points="87.9,106.1 93.8,106.1 98,96 87.9,100.2 "/>
<polygon fill="#FFFFFF" points="61.6,88 61.6,94 67.5,94 71.7,83.9 "/>
<polygon fill="#FFFFFF" points="83.8,88.1 83.8,91.7 87.4,91.7 89.9,85.6 "/>
<line fill="none" stroke="#FFFFFF" stroke-width="7" stroke-linecap="round" stroke-miterlimit="10" x1="39.9" y1="96.7" x2="44.1" y2="92.6"/>
<line fill="none" stroke="#FFFFFF" stroke-width="7" stroke-linecap="round" stroke-miterlimit="10" x1="19.9" y1="96.7" x2="24.1" y2="92.6"/>
<g id="Jenn_x5F_new_set" display="none">
	<g display="inline">
		<g>
			<path fill="#999999" d="M96.2,98.8c-0.2,0-0.4,0-0.6-0.1c-0.7-0.3-1-1.2-0.6-1.8l4.4-9c0.3-0.7,1.2-1,1.8-0.6s1,1.2,0.6,1.8
				l-4.4,9C97.2,98.5,96.7,98.8,96.2,98.8z"/>
		</g>
		<g>
			<path fill="#999999" d="M85.1,98.8c-0.2,0-0.4,0-0.6-0.1c-0.7-0.3-1-1.2-0.6-1.8l4.4-9c0.3-0.7,1.2-1,1.8-0.6
				c0.7,0.3,1,1.2,0.6,1.8l-4.4,9C86.1,98.5,85.6,98.8,85.1,98.8z M92.1,84.3c-0.2,0-0.4,0-0.6-0.1c-0.7-0.3-1-1.2-0.6-1.8l4.4-9
				c0.3-0.7,1.2-1,1.8-0.6c0.7,0.3,1,1.2,0.6,1.8l-4.4,9C93.1,84.1,92.6,84.3,92.1,84.3z"/>
		</g>
		<g>
			<path fill="#999999" d="M73.9,98.8c-0.2,0-0.4,0-0.6-0.1c-0.7-0.3-1-1.2-0.6-1.8l4.4-9c0.3-0.7,1.2-1,1.8-0.6
				c0.7,0.3,1,1.2,0.6,1.8l-4.4,9C74.9,98.5,74.5,98.8,73.9,98.8z M80.9,84.3c-0.2,0-0.4,0-0.6-0.1c-0.7-0.3-1-1.2-0.6-1.8l4.4-9
				c0.3-0.7,1.2-1,1.8-0.6c0.7,0.3,1,1.2,0.6,1.8l-4.4,9C81.9,84.1,81.4,84.3,80.9,84.3z M87.9,69.9c-0.2,0-0.4,0-0.6-0.1
				c-0.7-0.3-1-1.2-0.6-1.8l4-8.2c0.3-0.7,1.2-1,1.8-0.6s1,1.2,0.6,1.8l-4,8.2C88.9,69.7,88.4,69.9,87.9,69.9z"/>
		</g>
		<g>
			<path fill="#999999" d="M62.8,98.8c-0.2,0-0.4,0-0.6-0.1c-0.7-0.3-1-1.2-0.6-1.8l4.4-9c0.3-0.7,1.2-1,1.8-0.6
				c0.7,0.3,1,1.2,0.6,1.8L64,98C63.8,98.5,63.3,98.8,62.8,98.8z M69.8,84.3c-0.2,0-0.4,0-0.6-0.1c-0.7-0.3-1-1.2-0.6-1.8l4.4-9
				c0.3-0.7,1.2-1,1.8-0.6c0.7,0.3,1,1.2,0.6,1.8l-4.4,9C70.8,84.1,70.3,84.3,69.8,84.3z M76.7,69.9c-0.2,0-0.4,0-0.6-0.1
				c-0.7-0.3-1-1.2-0.6-1.8l4-8.2c0.3-0.7,1.2-1,1.8-0.6s1,1.2,0.6,1.8l-4,8.2C77.7,69.7,77.2,69.9,76.7,69.9z"/>
		</g>
		<g>
			<path fill="#999999" d="M51.7,98.8c-0.2,0-0.4,0-0.6-0.1c-0.7-0.3-1-1.2-0.6-1.8l4.4-9c0.3-0.7,1.2-1,1.8-0.6
				c0.7,0.3,1,1.2,0.6,1.8l-4.4,9C52.7,98.5,52.2,98.8,51.7,98.8z M58.6,84.3c-0.2,0-0.4,0-0.6-0.1c-0.7-0.3-1-1.2-0.6-1.8l4.4-9
				c0.3-0.7,1.2-1,1.8-0.6c0.7,0.3,1,1.2,0.6,1.8l-4.4,9C59.6,84.1,59.1,84.3,58.6,84.3z M65.6,69.9c-0.2,0-0.4,0-0.6-0.1
				c-0.7-0.3-1-1.2-0.6-1.8l4-8.2c0.3-0.7,1.2-1,1.8-0.6s1,1.2,0.6,1.8l-4,8.2C66.6,69.7,66.1,69.9,65.6,69.9z"/>
		</g>
	</g>
	<g display="inline">
		<g>
			<path fill="#FFFFFF" d="M58.6,60.3c-13,0-8.3-23,7.5-17c0.2-16.2,19.8-20.5,26.4-5.9c4.7-4.7,14.2-1.7,14.3,6.1
				c14.2-5.4,19,16.6,5.9,16.7C97.3,60.4,70.2,60.3,58.6,60.3z"/>
			<path fill="#CCCCCC" d="M110,56.4c2.1-0.1,4.3-2.5,2.4-5.6c-1.9-3-6.1-2.5-9.4-0.4c0,0,0.3-5.2-2.1-7.6
				c-1.6-1.6-6.5-2.8-11.5,3.2l0,0c0,0-3.7-19.7-20.1-10.9c-5.5,2.9,5.1-6,10.5-6.5c2.8-0.3,6.2,1.3,6.2,1.3l6.4,7.7l4.6-2.5
				l4.1,1.4l4.1,2.7l1.5,4.5l4.9-0.8l4.9,1l3.3,4v3.7l-0.9,5.5l-4.1,3.2l-58.6,0.5l-4-4.2"/>
			<path fill="none" stroke="#999999" stroke-width="2.7482" d="M58.6,60.3c-13,0-8.3-23,7.5-17c0.2-16.2,19.8-20.5,26.4-5.9
				c4.7-4.7,14.2-1.7,14.3,6.1c14.2-5.4,19,16.6,5.9,16.7C97.3,60.4,70.2,60.3,58.6,60.3z"/>
		</g>
	</g>
	<g display="inline">
		<path fill="#999999" d="M115.2,61.4c-1.3,0-1.4,6.5-1.4,6.5s0.2-5.3-1.9-6.2L115.2,61.4z"/>
		<path fill="#999999" d="M94.6,61.7c2.9,0,4.2,13.9,4.2,13.9s1-10.8,3.1-10.8c2.1,0,3.2,25.4,3.2,25.4s0.2-19.2,2.1-19.2
			s2,2.3,2,2.3s0.4-11.6,2.6-11.7L94.6,61.7z"/>
	</g>
	<g id="Winter_Leaf" display="inline">
	</g>
	<g id="Maple_Leaf_2" display="inline">
		<g id="Leaf_3">
		</g>
	</g>
</g>
<g id="Discrepencies" display="none">
	<rect x="35.8" y="-100" display="inline" fill="#FFFFFF" width="100" height="100"/>
</g>
<g id="LABELS" display="none">
	
		<text transform="matrix(1 0 0 1 47.541 17.0425)" display="inline" fill="#383838" font-family="'MyriadPro-Regular'" font-size="12">Heavy rain/sleet</text>
</g>
<g id="NUMBERS" display="none">
</g>
</svg>
