<?xml version="1.0" encoding="utf-8"?>
<!-- Generator: Adobe Illustrator 17.1.0, SVG Export Plug-In . SVG Version: 6.00 Build 0)  -->
<!DOCTYPE svg PUBLIC "-//W3C//DTD SVG 1.1//EN" "http://www.w3.org/Graphics/SVG/1.1/DTD/svg11.dtd">
<svg version="1.1" id="Layer_1" xmlns="http://www.w3.org/2000/svg" xmlns:xlink="http://www.w3.org/1999/xlink" x="0px" y="0px"
	 viewBox="0 0 121 121" enable-background="new 0 0 121 121" xml:space="preserve">
<g id="TWC" display="none">
</g>
<g id="ios">
	<g>
		<path fill="#FFFFFF" d="M91.6,25.9c-3,0-6,0.6-8.8,1.6C77.1,16.8,65.9,10,53.5,10c-17,0-31.1,13-32.9,29.5
			c-9.9,0.4-17.8,8.6-17.8,18.6c0,10.3,8.4,18.6,18.6,18.6h7.3l0.4-1.8l1.3-5.2h-9c-6.4,0-11.6-5.2-11.6-11.6
			c0-6.4,5.2-11.6,11.6-11.6h6l0-3.5c0-14.4,11.7-26,26.1-26c10.8,0,20.3,6.5,24.3,16.5l1.5,3.7l3.5-1.9c2.7-1.5,5.8-2.3,8.9-2.3
			c10,0,18.2,8.2,18.2,18.2c0,7.5-4.5,14.1-11.5,16.9l-0.4,0.2c-1.7,1-3.7,1.5-5.7,1.5h-12l-4.6,7h16.6c3.1,0,6.2-0.8,8.9-2.3
			c9.5-3.9,15.7-13,15.7-23.3C116.8,37.3,105.5,25.9,91.6,25.9z"/>
	</g>
	<polygon fill="#FFFFFF" points="46.3,108.9 76,63.5 55.7,63.5 55.4,63.5 55.4,63.5 55.4,63.5 55.4,63.4 65.2,39.7 45.2,39.7 
		36,76.7 53.3,76.7 55.9,76.7 55.9,76.7 56,76.7 55.9,76.8 	"/>
</g>
<g id="Jenn_x5F_new_set" display="none">
	<path display="inline" fill="#CCCCCC" d="M3.6-9.8C3.4-10.9-6.2-8.4-7.1-9.7c-1.2-1.8,7.2-2.5,8.5-2.7c1.8-0.2,3.5-0.1,5.3-0.2
		c3.7-0.2,7.4-0.1,11-0.1c3.2,0,7.2-0.6,10.4,0.1c3.3,0.7,0.1,1.6-1.7,2.2C24.8-9.8,15.8-8.6,16-6.9c3.2,0.7,6.7,0.5,10,0.5
		c5.7,0,11.3,0,17,0.2c4.5,0.1,9,0.2,13.5,0.5c1.9,0.1,6-0.1,7.5,1.4c4.2,4.1-10.9,3.9-11.6,3.9c-2.1,0.1-18.4-0.3-18.9,2.5
		C38.8,3.9,45.8,3,51.3,3C56.1,3,62.5,2.6,67,4.7C66.7,7,55.4,7,54.1,7.1c-6,0.4-12,0.9-18,0.9c-10.2,0-20.6,0.4-30.8,1.1
		C2.2,9.3-0.9,9.5-4,9.7c-1.2,0.1-4.2,0.8-5.2-0.4C-10.8,7.4-7.7,7.2-6.5,7C-1.7,6.2,3.2,5.5,8,4.8c1.2-0.2,6.3-0.3,6.4-1.9
		c-2.5-1-6.3-0.2-8.9-0.2c-2.7,0-5.5,0.1-8.2-0.1c-1.2-0.1-5.3-0.4-3.2-2c1.1-0.9,3.7-0.6,5-0.7c3.1-0.4,6.2-0.7,9.4-0.9
		c3.6-0.3,8.3,0,11.6-1.6c-1.8-1.8-8.4-0.6-11-0.6c-3,0-6,0-9,0c-2.3,0-11.5,0.4-12.2-2C-13.4-9.9,4.1-7.4,3.6-9.8z"/>
	<g display="inline">
		<path fill="#FFFFFF" d="M7.1,5.4c-9.8,0-6.3-17.4,5.7-12.9c0.2-12.3,15-15.5,20-4.4c3.5-3.6,10.8-1.3,10.9,4.6
			c10.8-4.1,14.4,12.5,4.5,12.6C36.4,5.5,15.9,5.4,7.1,5.4z"/>
		<path fill="#CCCCCC" d="M46.1,2.5c1.6,0,3.2-1.9,1.8-4.3c-1.4-2.3-4.6-1.9-7.1-0.3c0,0,0.3-3.9-1.6-5.7C38-9.1,34.3-10,30.6-5.4
			l0,0c0,0-2.8-14.9-15.2-8.3c-4.1,2.2,3.9-4.5,7.9-4.9c2.1-0.2,4.7,1,4.7,1l4.8,5.8l3.5-1.9l3.1,1l3.1,2.1l1.1,3.4l3.7-0.6l3.7,0.8
			l2.5,3v2.8L53,2.9l-3.1,2.4L5.4,5.7l-3-3.2"/>
		<path fill="none" stroke="#999999" stroke-width="2.7482" d="M7.1,5.4c-9.8,0-6.3-17.4,5.7-12.9c0.2-12.3,15-15.5,20-4.4
			c3.5-3.6,10.8-1.3,10.9,4.6c10.8-4.1,14.4,12.5,4.5,12.6C36.4,5.5,15.9,5.4,7.1,5.4z"/>
	</g>
	<path display="inline" fill="#ADD9F2" stroke="#40B4E5" stroke-width="3.4353" stroke-linecap="round" stroke-linejoin="round" d="
		M-16.6,69.4c-2.3,0-4.6,0.3-6.7,0.9c6.8,3.1,11.6,10,11.6,18c0,10.9-8.8,19.8-19.8,19.8c-1.7,0-3.3-0.2-4.9-0.6
		c4.4,6.2,11.6,10.3,19.7,10.3c13.3,0,24.1-10.8,24.1-24.1S-3.3,69.4-16.6,69.4z"/>
	<g display="inline">
		<path fill="#40B4E5" d="M119.6,81.4c0-0.7,0.1-1.4,0.3-2h-4.7c-0.3,0.7-0.7,1.4-1.1,2H119.6z"/>
		<path fill="#40B4E5" d="M113.3,82.4L113.3,82.4c-0.8,0.8-1.7,1.5-2.7,2h9.3c-0.2-0.6-0.3-1.3-0.3-2l0,0H113.3z"/>
		<path fill="#40B4E5" d="M67.8,97L67.8,97L67.8,97v-0.5h0L67.8,97L67.8,97l0,0.5v8h166.7h0.9h0.9h4.7h6c9.7,0,17.6-7.9,17.6-17.6
			s-7.9-17.6-17.6-17.6c-8.1,0-14.9,5.5-16.9,12.9c-0.3,1-0.5,2-0.6,3c-0.1,0.6-0.1,1.1-0.1,1.7c0,0.9,0.1,1.7,0.2,2.5h2
			c-0.1-0.8-0.2-1.7-0.2-2.5c0-8.6,7-15.6,15.6-15.6c8.6,0,15.6,7,15.6,15.6c0,8.6-7,15.6-15.6,15.6l0,0H239h-2h-3.3h-0.8h-0.7H97.1
			c0,0-0.1,0-0.1,0s-0.1,0-0.1,0H67.8v-1h25.7c-0.8-0.5-1.5-1.2-2-2H67.8v-1H91c-0.3-0.6-0.4-1.3-0.5-2c0,0,0,0,0,0H68h-0.1L67.8,97
			L67.8,97l0-0.5h22.7c0.1-0.7,0.2-1.4,0.5-2H67.8h0l0,0V97L67.8,97L67.8,97z"/>
		<path fill="#40B4E5" d="M247.1,78.4c5.3,0,9.5,4.3,9.5,9.5s-4.3,9.5-9.5,9.5l0,0h0h-6.5H239h-2.8h-1.3h-2.5h-1.2h-2.3h-0.6h-0.6
			h-13.1h-25h-0.1h-0.1h-86c0,0,0,0,0,0c-0.1,0.7-0.2,1.4-0.5,2h125.8h0.6h0.6h2.5h1.3h2.8h1.6h3.9h4.9l0,0
			c6.4,0,11.5-5.2,11.5-11.5c0-6.4-5.2-11.5-11.5-11.5s-11.5,5.2-11.5,11.5c0,0.9,0.1,1.7,0.3,2.5h2.1c-0.2-0.8-0.3-1.6-0.3-2.5
			C237.6,82.7,241.8,78.4,247.1,78.4z"/>
		<path fill="#40B4E5" d="M247.1,81.4c3.6,0,6.5,2.9,6.5,6.5c0,3.6-2.9,6.5-6.5,6.5l0,0h-5.5h-1.4h-2.6h-1.2h-2.3H233h-2.2h-1.1
			h-2.1h-0.5h-0.5h-2.7h-0.8h-1h-7.4h-7.4h-1h-0.8h-4.9h-1h-1.1h-8.8h-0.1h-0.1h-8.8h-1.1h-1h-17.1h-0.1h-0.1H103c0,0,0,0,0,0l0,0
			c0.3,0.6,0.4,1.3,0.5,2h79.6h1.9h4.5h0.1h0.1h4.5h1.9h13.1h1.5h4h4h1.5h7.1h0.5h0.6h2.2h1.1h2.3h1.2h2.6h1.4h3.5h4.2
			c4.7,0,8.5-3.8,8.5-8.5c0-4.7-3.8-8.5-8.5-8.5c-4.7,0-8.5,3.8-8.5,8.5c0,0.9,0.1,1.7,0.4,2.5h2.1c-0.3-0.8-0.5-1.6-0.5-2.5
			C240.6,84.3,243.5,81.4,247.1,81.4z"/>
		<path fill="#40B4E5" d="M226.6,85.7c-0.1,0.7-0.1,1.5-0.1,2.3c0,0.8,0,1.5,0.1,2.2c0,0.1,0,0.2,0,0.3h0.5h0.5h1
			c-0.1-0.5-0.1-1-0.1-1.5c0-0.3,0-0.7,0-1c0,0,0,0,0,0c0-0.6,0-1.2,0.1-1.8c0.1-1,0.3-2.1,0.6-3c0.2-0.6,0.4-1.2,0.6-1.8
			c0.1-0.3,0.3-0.6,0.4-1c2.9-6.5,9.4-11,16.9-11c10.2,0,18.6,8.3,18.6,18.6s-8.3,18.6-18.6,18.6h-8.9h-1.1h-1H67.8v2h161.3l0,0
			c0,0,0,0,0,0h11.4h1.9h4.6c11.3,0,20.6-9.2,20.6-20.6s-9.2-20.6-20.6-20.6c-7.4,0-14,4-17.6,9.9c-0.1,0.2-0.2,0.4-0.3,0.6
			c-0.1,0.2-0.3,0.5-0.4,0.7c-0.7,1.3-1.2,2.7-1.6,4.2C226.9,83.6,226.8,84.6,226.6,85.7z"/>
		<path fill="#40B4E5" d="M100.5,102.5h130.7h0.7h0.7h3h1.7h4.3h5.5l0,0c8,0,14.6-6.5,14.6-14.6c0-8-6.5-14.6-14.6-14.6
			s-14.6,6.5-14.6,14.6c0,0.9,0.1,1.7,0.2,2.5h2c-0.2-0.8-0.3-1.7-0.3-2.5c0-6.9,5.6-12.6,12.6-12.6c6.9,0,12.5,5.6,12.5,12.6
			c0,6.9-5.6,12.6-12.6,12.6v0h-7.4h-1.8h-3.1h-1.4h-2.6h-0.6h-0.6H102.5C102,101.3,101.3,102,100.5,102.5z"/>
		<path fill="#40B4E5" d="M229.9,91.4h-1H227h-0.1h-0.4h-0.1h-0.5h-0.1h-2.8h-1.6h-6.5h-6.5h-1.6h-2h-0.7h-0.1H203H203h-0.6h-2.7h-2
			h-8.1h-0.1h-0.1h-8.1h-2h-3.3h-0.8h-0.7h-4h-0.8h-1h-7.3h-0.1h-0.1h-7.3h-1h-0.8h-23.1c0,0,0,0,0,0c0,0,0,0,0,0c0,0,0,0,0,0
			c0,0,0,0,0,0h-28.7c0.8,0.5,1.5,1.2,2,2l0,0H156h1.5h4h0.1h0.1h4h1.5h10.1h0.9h0.9h4.7h6h0.1h0.1h6h4.7h0.9h0.9h2.2h0.7h0.9h3.9
			h4.9h4.9h3.9h0.9h0.7h1.1h0.5h0.5h2.1h1.1h2.1h1.1h2.2h1.1h2.4h1.3h3h3.5l0,0c3,0,5.5-2.5,5.5-5.5c0-3-2.5-5.5-5.5-5.5
			c-3,0-5.5,2.5-5.5,5.5c0,0.9,0.2,1.8,0.6,2.5h2.5c-0.7-0.6-1.1-1.5-1.1-2.5c0-1.9,1.6-3.5,3.5-3.5c1.9,0,3.5,1.6,3.5,3.5
			s-1.6,3.5-3.5,3.5h-4.3h-1.2h-2.3h-1.1h-2.1h-1H233h-1L229.9,91.4L229.9,91.4z"/>
		<path fill="#40B4E5" d="M67.8,120.5H214h0.4h0.6h2.1h1h2.1h1.1h2.3h1.2h4.3c1.9,0,3.5,1.6,3.5,3.5c0,1.9-1.6,3.5-3.5,3.5
			c-1.9,0-3.5-1.6-3.5-3.5c0-1,0.4-1.9,1.1-2.5h-2.5c-0.4,0.8-0.6,1.6-0.6,2.5c0,3,2.5,5.5,5.5,5.5c3,0,5.5-2.5,5.5-5.5
			c0-3-2.5-5.5-5.5-5.5v0h-3.5h-3h-1.3H219h-1.1h-2.2h-0.6h-0.4H67.8V120.5z"/>
		<path fill="#40B4E5" d="M67.8,117.5h147.2h0.4h0.7h2.3h1.2h2.6h1.4h5.5v0c3.6,0,6.5,2.9,6.5,6.5c0,3.6-2.9,6.5-6.5,6.5
			c-3.6,0-6.5-2.9-6.5-6.5c0-0.9,0.2-1.7,0.5-2.5H221c-0.2,0.8-0.4,1.6-0.4,2.5c0,4.7,3.8,8.5,8.5,8.5c4.7,0,8.5-3.8,8.5-8.5
			c0-4.7-3.8-8.5-8.5-8.5h-4.2h-3.5H220h-2.6h-0.7h-0.5H67.8V117.5z"/>
		<path fill="#40B4E5" d="M67.8,114.5h149.1h0.5h0.8h2.8h1.6h6.5h0v0c5.3,0,9.5,4.3,9.5,9.5c0,5.3-4.3,9.5-9.5,9.5
			c-5.3,0-9.5-4.3-9.5-9.5c0-0.9,0.1-1.7,0.3-2.5h-2.1c-0.2,0.8-0.3,1.6-0.3,2.5c0,6.4,5.2,11.5,11.5,11.5c6.4,0,11.5-5.2,11.5-11.5
			s-5.2-11.5-11.5-11.5l0,0h-4.9h-3.9h-1h-0.6H67.8V114.5z"/>
		<path fill="#40B4E5" d="M225,109.5h-1.3H68.1h-0.2v2H220h0.7h1.1h7.4l0,0c6.9,0,12.6,5.6,12.6,12.6c0,6.9-5.6,12.6-12.6,12.6
			c-6.9,0-12.6-5.6-12.6-12.6c0-0.9,0.1-1.7,0.3-2.5h-2c-0.1,0.8-0.2,1.7-0.2,2.5c0,8,6.5,14.6,14.6,14.6c8,0,14.6-6.5,14.6-14.6
			c0-8-6.5-14.5-14.5-14.6c0,0,0,0,0,0l0,0C229.2,109.5,225,109.5,225,109.5z"/>
		<path fill="#40B4E5" d="M106.4,78.4c1.4,0,2.5-1.1,2.5-2.5c0-1.4-1.1-2.5-2.5-2.5c-1.4,0-2.5,1.1-2.5,2.5
			C103.9,77.2,105,78.4,106.4,78.4C106.4,78.4,106.4,78.4,106.4,78.4C106.4,78.4,106.4,78.4,106.4,78.4z"/>
		<path fill="#40B4E5" d="M94.5,96.9C94.5,96.9,94.5,96.9,94.5,96.9C94.5,97,94.5,97,94.5,96.9c0,0.2,0,0.4,0,0.5c0,0,0,0,0,0
			c0.2,1.1,1.2,2,2.4,2c0,0,0,0,0,0s0,0,0,0c1.2,0,2.2-0.9,2.4-2c0,0,0,0,0,0c0-0.1,0-0.3,0-0.5c0,0,0,0,0,0c0,0,0,0,0,0
			c0-0.2,0-0.3-0.1-0.5c0,0,0,0,0,0c-0.2-1.1-1.2-2-2.5-2s-2.2,0.9-2.5,2c0,0,0,0,0,0C94.5,96.6,94.5,96.8,94.5,96.9z"/>
		<path fill="#40B4E5" d="M67.8,93.4L67.8,93.4L67.8,93.4h23.7h0.6h0.6H97c0.7,0,1.3,0.2,1.9,0.5c0.2,0.1,0.4,0.3,0.6,0.5l0,0
			c0,0,0,0,0,0l0,0c0.5,0.5,0.9,1.2,1,2c0,0,0,0,0,0c0,0.2,0,0.3,0,0.5c0,0,0,0,0,0c0,0,0,0,0,0c0,0.2,0,0.3,0,0.5c0,0,0,0,0,0
			c-0.1,0.8-0.5,1.5-1,2c-0.6,0.6-1.5,1-2.4,1c0,0,0,0-0.1,0c0,0,0,0-0.1,0c-0.9,0-1.8-0.4-2.4-1c-0.5-0.5-0.9-1.2-1-2c0,0,0,0,0,0
			c0-0.2,0-0.3,0-0.5c0,0,0,0,0,0c0,0,0,0,0,0c0-0.2,0-0.3,0-0.5c0,0,0,0,0,0c0.1-0.8,0.5-1.5,1-2h-2.5c-0.3,0.6-0.5,1.3-0.6,2
			c0,0,0,0,0,0c0,0.2,0,0.3,0,0.5c0,0,0,0,0,0c0,0,0,0,0,0c0,0.2,0,0.3,0,0.5c0,0,0,0,0,0c0.1,0.7,0.3,1.4,0.6,2
			c0.2,0.4,0.4,0.7,0.7,1c1,1.2,2.5,2,4.2,2c0,0,0,0,0.1,0s0,0,0.1,0c1.7,0,3.2-0.8,4.2-2c0.3-0.3,0.5-0.6,0.7-1
			c0.3-0.6,0.5-1.3,0.6-2c0,0,0,0,0,0c0-0.2,0-0.3,0-0.5c0,0,0,0,0,0c0,0,0,0,0,0c0-0.2,0-0.3,0-0.5c0,0,0,0,0,0
			c-0.1-0.7-0.3-1.4-0.6-2l0,0c0,0,0,0,0,0v0c-0.1-0.2-0.2-0.3-0.3-0.5c-0.1-0.2-0.2-0.4-0.4-0.5l0,0c0,0,0,0,0,0h0
			c-1-1.2-2.5-2-4.3-2h-2.4h-1.1H67.8h0l0,0v0v0v-0.5v-0.5l0,0v0v0h0l0,0v0v0l0,0H97h27.9h1.8h2.4c0,0,0,0,0,0c0,0,0,0,0,0
			c0,0,0,0,0,0c0,0,0,0,0,0c2.1,0,4-0.8,5.4-2l0,0c0,0,0,0,0,0c0.4-0.3,0.7-0.6,1-1c0,0,0,0,0,0c0.5-0.6,0.9-1.3,1.3-2l0,0
			c0,0,0,0,0,0c0.1-0.2,0.1-0.3,0.2-0.5c0.1-0.2,0.1-0.3,0.2-0.5c0,0,0,0,0,0c0,0,0,0,0,0c0.2-0.6,0.3-1.3,0.4-2l0,0
			c0-0.2,0-0.3,0-0.5l0,0c0-0.2,0-0.3,0-0.5c0-0.7-0.2-1.4-0.4-2c-0.1-0.2-0.1-0.3-0.2-0.5c-0.1-0.2-0.1-0.3-0.2-0.5
			c-1.3-3-4.3-5-7.8-5c-3.5,0-6.4,2.1-7.8,5c-0.1,0.2-0.1,0.3-0.2,0.5c-0.1,0.2-0.1,0.3-0.2,0.5c-0.2,0.6-0.3,1.3-0.4,2
			c0,0.2,0,0.3,0,0.5l0,0c0,0.2,0,0.3,0,0.5l0,0c0,0.7,0.2,1.4,0.4,2l0,0c0,0,0,0,0,0v0h2.1v0c0,0,0,0,0,0l0,0
			c-0.3-0.6-0.4-1.3-0.5-2l0,0c0-0.2,0-0.3,0-0.5l0,0c0-0.2,0-0.3,0-0.5c0.1-0.7,0.2-1.4,0.5-2c0.1-0.2,0.2-0.3,0.2-0.5
			c0.1-0.2,0.2-0.3,0.3-0.5c1.2-1.8,3.2-3,5.5-3c2.3,0,4.3,1.2,5.5,3c0.1,0.2,0.2,0.3,0.3,0.5c0.1,0.2,0.2,0.3,0.2,0.5
			c0.3,0.6,0.4,1.3,0.5,2c0,0.2,0,0.3,0,0.5l0,0c0,0.2,0,0.3,0,0.5l0,0c-0.1,0.7-0.2,1.4-0.5,2l0,0c0,0,0,0,0,0
			c-0.1,0.2-0.2,0.3-0.2,0.5c-0.1,0.2-0.2,0.3-0.3,0.5c0,0,0,0,0,0l0,0c-0.5,0.8-1.2,1.5-2,2c0,0,0,0,0,0c-1,0.6-2.2,1-3.4,1
			c0,0,0,0,0,0h0c0,0,0,0,0,0l0,0h-5.5h-0.5h-0.9H67.8v0l0,0v0h0v-1v0h0v0v0h53.5h0.8h0.4h3h3.5v0c0,0,0,0,0,0c0,0,0,0,0,0
			c1.7,0,3.2-0.8,4.2-2l0,0c0,0,0,0,0,0c0.1-0.2,0.3-0.3,0.4-0.5c0.1-0.2,0.2-0.3,0.3-0.5v0l0,0c0.3-0.6,0.5-1.3,0.6-2l0,0
			c0-0.2,0-0.3,0-0.5l0,0c0-0.2,0-0.3,0-0.5c-0.1-0.7-0.3-1.4-0.6-2c-0.1-0.2-0.2-0.3-0.3-0.5c-0.1-0.2-0.2-0.3-0.4-0.5
			c-1-1.2-2.5-2-4.3-2c-1.7,0-3.2,0.8-4.3,2c-0.1,0.2-0.3,0.3-0.4,0.5c-0.1,0.2-0.2,0.3-0.3,0.5c-0.3,0.6-0.5,1.3-0.6,2
			c0,0.2,0,0.3,0,0.5l0,0c0,0.2,0,0.3,0,0.5l0,0c0.1,0.7,0.3,1.4,0.6,2c0,0,0,0,0,0v0v0h2.5c0,0,0,0,0,0c0,0,0,0,0,0l0,0
			c-0.5-0.5-0.9-1.2-1-2l0,0c0-0.2,0-0.3,0-0.5l0,0c0-0.2,0-0.3,0-0.5c0.1-0.8,0.5-1.5,1-2c0.2-0.2,0.4-0.4,0.7-0.5
			c0.5-0.3,1.1-0.5,1.8-0.5c0.7,0,1.3,0.2,1.8,0.5c0.2,0.1,0.5,0.3,0.7,0.5c0.5,0.5,0.9,1.2,1,2c0,0.2,0,0.3,0,0.5l0,0
			c0,0.2,0,0.3,0,0.5h0c-0.1,0.8-0.5,1.5-1,2c0,0,0,0,0,0c0,0,0,0,0,0c-0.2,0.2-0.4,0.4-0.6,0.5c-0.5,0.3-1.1,0.5-1.8,0.5
			c0,0,0,0,0,0c0,0,0,0,0,0c0,0,0,0,0,0h-4.3h-1.2h-2.3H121h-0.7h-13.9H67.8v0l0,0l0,0v0h0l0,0v-0.5v-0.5v0h0v0v0l0,0h34.3h1.8h2.4
			c0,0,0,0,0,0c0,0,0,0,0,0c0,0,0,0,0,0c2.1,0,4-0.8,5.4-2l0,0c0.2-0.2,0.4-0.3,0.6-0.5c0.2-0.2,0.3-0.3,0.5-0.5
			c0.5-0.6,0.9-1.3,1.3-2c0.1-0.2,0.1-0.3,0.2-0.5c0.1-0.2,0.1-0.3,0.2-0.5c0.2-0.8,0.4-1.6,0.4-2.5c0-4.7-3.8-8.5-8.5-8.5
			s-8.5,3.8-8.5,8.5c0,0.9,0.1,1.7,0.4,2.5l0,0h2.1h0c-0.3-0.8-0.5-1.6-0.5-2.5c0-3.6,2.9-6.5,6.5-6.5c3.6,0,6.5,2.9,6.5,6.5
			c0,0.9-0.2,1.7-0.5,2.5c-0.1,0.2-0.2,0.3-0.2,0.5c-0.1,0.2-0.2,0.3-0.3,0.5c-0.5,0.8-1.2,1.5-2,2c-0.3,0.2-0.6,0.4-1,0.5
			c-0.8,0.3-1.6,0.5-2.5,0.5c0,0,0,0,0,0v0h-5.5h-0.5h-0.9H67.8v0l0,0h0v-0.5v-0.5h0l0,0h30.8h0.8h0.4h3h3.5l0,0c0,0,0,0,0,0
			c1.7,0,3.2-0.8,4.2-2c0.1-0.2,0.3-0.3,0.4-0.5c0.1-0.2,0.2-0.3,0.3-0.5c0.4-0.8,0.6-1.6,0.6-2.5c0-3-2.5-5.5-5.5-5.5
			c-3,0-5.5,2.5-5.5,5.5c0,0.9,0.2,1.8,0.6,2.5l0,0h2.5c0,0,0,0,0,0c-0.7-0.6-1.1-1.5-1.1-2.5c0-1.9,1.6-3.5,3.5-3.5
			c1.9,0,3.5,1.6,3.5,3.5c0,1-0.4,1.9-1.1,2.5c-0.2,0.2-0.4,0.4-0.7,0.5c-0.5,0.3-1.1,0.5-1.8,0.5c0,0,0,0,0,0h-4.3h-1.2h-2.3h-0.4
			h-0.7H67.8v0h0v2v0.5v0.5v8.5V93.4L67.8,93.4L67.8,93.4L67.8,93.4z"/>
	</g>
	<g id="Winter_Leaf" display="inline">
	</g>
	<g id="Maple_Leaf_2" display="inline">
		<g id="Leaf_3">
		</g>
	</g>
</g>
<g id="Discrepencies" display="none">
</g>
<g id="LABELS" display="none">
</g>
<g id="NUMBERS" display="none">
</g>
</svg>
