<?xml version="1.0" encoding="utf-8"?>
<!-- Generator: Adobe Illustrator 17.1.0, SVG Export Plug-In . SVG Version: 6.00 Build 0)  -->
<!DOCTYPE svg PUBLIC "-//W3C//DTD SVG 1.1//EN" "http://www.w3.org/Graphics/SVG/1.1/DTD/svg11.dtd">
<svg version="1.1" id="Layer_1" xmlns="http://www.w3.org/2000/svg" xmlns:xlink="http://www.w3.org/1999/xlink" x="0px" y="0px"
	 viewBox="0 0 120 120" enable-background="new 0 0 120 120" xml:space="preserve">
<g id="TWC" display="none">
	<g id="DPTusl.tif" display="inline">
		
			<image overflow="visible" enable-background="new    " width="99" height="98" id="Layer_0_20_" xlink:href="BB28A52C3D25D644.png"  transform="matrix(0.9899 0 0 0.9898 -42.9902 -18.8232)">
		</image>
	</g>
</g>
<g id="ios">
	<g>
		<path fill="none" stroke="#FFFFFF" stroke-width="7" stroke-linecap="round" stroke-miterlimit="10" d="M82.8,59.3
			c0,12.7-10.3,23.1-23.1,23.1C47,82.3,36.7,72,36.7,59.3S47,36.2,59.8,36.2C72.5,36.2,82.8,46.5,82.8,59.3z"/>
		
			<line fill="none" stroke="#FFFFFF" stroke-width="7" stroke-linecap="round" stroke-miterlimit="10" x1="97.3" y1="59.3" x2="108.2" y2="59.3"/>
		
			<line fill="none" stroke="#FFFFFF" stroke-width="7" stroke-linecap="round" stroke-miterlimit="10" x1="11.4" y1="59.3" x2="22.3" y2="59.3"/>
		
			<line fill="none" stroke="#FFFFFF" stroke-width="7" stroke-linecap="round" stroke-miterlimit="10" x1="59.8" y1="96.7" x2="59.8" y2="107.6"/>
		
			<line fill="none" stroke="#FFFFFF" stroke-width="7" stroke-linecap="round" stroke-miterlimit="10" x1="59.8" y1="10.9" x2="59.8" y2="21.8"/>
		
			<line fill="none" stroke="#FFFFFF" stroke-width="7" stroke-linecap="round" stroke-miterlimit="10" x1="86.3" y1="85.8" x2="94" y2="93.5"/>
		
			<line fill="none" stroke="#FFFFFF" stroke-width="7" stroke-linecap="round" stroke-miterlimit="10" x1="25.6" y1="25" x2="33.3" y2="32.7"/>
		
			<line fill="none" stroke="#FFFFFF" stroke-width="7" stroke-linecap="round" stroke-miterlimit="10" x1="33.3" y1="85.8" x2="25.6" y2="93.5"/>
		
			<line fill="none" stroke="#FFFFFF" stroke-width="7" stroke-linecap="round" stroke-miterlimit="10" x1="94" y1="25" x2="86.3" y2="32.7"/>
	</g>
</g>
<g id="Jenn_x5F_new_set" display="none">
	<g id="Winter_Leaf" display="inline">
	</g>
	<g id="Maple_Leaf_2" display="inline">
		<g id="Leaf_3">
		</g>
	</g>
	<g display="inline">
		<polygon fill="#999999" points="32,27.3 32,19 22.5,19 22.5,10.5 21,8.3 10.9,8.3 10.9,14.3 8,14.3 6.8,15.1 6.8,25.6 2.7,25.6 
			2.7,9.8 0.2,8 -6.3,8 -6.3,14.6 -11,14.6 -11,2.7 -18.3,2.7 -18.3,5.1 -22.5,5.1 -22.5,27.3 -26.8,27.3 -26.8,27.6 -27.7,29.5 
			-27.7,50.3 -26.8,49.9 -22.5,49.9 -22.5,51.1 -15.2,51.1 -15.2,49.9 -14,49.9 -14,48.7 -11,48.7 -11,48.1 -6.3,48.1 0.2,48.1 
			0.8,48.1 2.7,48.1 13.6,48.1 13.6,47.8 20.7,47.8 21,47.8 21,48.2 22.5,48.8 22.5,47.8 24.6,47.8 24.6,49.9 37.4,49.9 37.4,27.3 
					"/>
		<g>
			<g>
				<defs>
					<path id="SVGID_1_" d="M-38.6,54.3l-3.3-1.5l-2.4-8.4l7.6-13.1l21.8-9l37.8,1.8c0,0,16.1,3,16.8,3.6s13.8,10.3,13.8,10.3
						l-0.1,11.3L52,53.2l-2.2,1.1L8.5,53L-38.6,54.3z"/>
				</defs>
				<clipPath id="SVGID_2_">
					<use xlink:href="#SVGID_1_"  overflow="visible"/>
				</clipPath>
				<g clip-path="url(#SVGID_2_)">
					<path fill="#CCCCCC" d="M49.3,47.3c0.8-0.6,1.4-1.6,1.4-2.8c0-1.9-1.6-3.5-3.5-3.5c-0.4,0-0.7,0.1-1.1,0.2
						c-0.3-1.5-1.7-2.7-3.3-2.7c0,0,0,0,0,0c-0.1-1.9-1.6-3.3-3.5-3.3c-1.8,0-3.2,1.3-3.5,3.1c-0.6-0.4-1.3-0.7-2-0.7
						c-0.5,0-1,0.1-1.5,0.4c-0.4-1.7-2-3-3.9-3c-0.5,0-1,0.1-1.5,0.3c-0.6-2.8-3.2-5-6.2-5c-2.2,0-4.2,1.1-5.3,2.8
						c-0.6-0.9-1.7-1.5-2.9-1.5c-1.9,0-3.4,1.5-3.5,3.3c-0.5-0.2-1.1-0.3-1.7-0.3c-0.1,0-0.3,0-0.4,0c0-0.3,0.1-0.6,0.1-0.9
						c0-3.2-2.6-5.8-5.8-5.8c-2.1,0-4,1.1-5,2.8c-0.5-0.3-1.2-0.5-1.8-0.5c-1.8,0-3.3,1.3-3.6,3c-0.5-0.2-1-0.3-1.6-0.3
						c-0.6,0-1.3,0.1-1.8,0.4c-0.9-2.9-3.6-5.1-6.9-5.1c-4,0-7.2,3.2-7.2,7.2l0,0h0c0,0,0,0,0,0C-27,35.1-27.5,35-28,35
						c-1.8,0-3.3,1.4-3.5,3.2c-0.1,0-0.1,0-0.2,0c-1.8,0-3.3,1.5-3.3,3.3c0,1.1,0.5,2,1.3,2.6c-0.9,0.6-1.5,1.7-1.5,2.9c0,0,0,0,0,0
						c-1.9,0.1-3.3,1.6-3.3,3.5c0,1.9,1.6,3.5,3.5,3.5c1,0,1.9-0.5,2.6-1.2c0.3,0,0.5,0,0.8,0.1c2,0.2,4.1,0,6-0.2
						c4.9-0.5,9.8-1.1,14.6-1.7c6.3-0.8,13-0.5,19.3,0.1c5.1,0.5,10.3,0.4,15.5,0.4c3.3,0,6.5,0.3,9.7,0.3c2.3,0,4.5-0.1,6.7,0.7
						c1.6,0.6,3.7,1.2,5.5,0.8c0.1,0,0.2-0.1,0.2-0.1c0.4,0.1,0.8,0.2,1.2,0.2c1.9,0,3.5-1.6,3.5-3.5C50.6,48.9,50.1,47.9,49.3,47.3
						z"/>
					<path fill="#FFFFFF" d="M47,49.2c1-0.5,1.6-1.5,1.6-2.7c0-1.7-1.4-3.1-3.1-3.1c-0.5,0-0.9,0.1-1.3,0.3
						c-0.1-1.6-1.4-2.8-2.9-2.8c-0.1,0-0.2,0-0.4,0c0-0.1,0-0.1,0-0.2c0-1.7-1.4-3.1-3.1-3.1s-3.1,1.4-3.1,3.1c0,0.1,0,0.2,0,0.4
						c-0.5-0.7-1.4-1.2-2.3-1.2c-0.7,0-1.3,0.2-1.7,0.6c-0.2-1.8-1.7-3.1-3.5-3.1c-0.7,0-1.4,0.2-2,0.6c-0.3-2.8-2.7-5-5.6-5
						c-2.3,0-4.2,1.3-5.1,3.2c-0.4-1.3-1.6-2.2-3-2.2c-1.7,0-3.1,1.4-3.1,3.1c0,0.2,0,0.4,0.1,0.5c-0.6-0.3-1.3-0.6-2-0.6
						c-0.4,0-0.8,0.1-1.1,0.2c0.1-0.5,0.2-0.9,0.2-1.5c0-2.9-2.3-5.2-5.2-5.2c-2,0-3.8,1.2-4.6,2.9c-0.6-0.5-1.3-0.8-2.1-0.8
						c-1.8,0-3.2,1.4-3.2,3.2c-0.6-0.3-1.2-0.5-1.8-0.5c-0.9,0-1.7,0.3-2.3,0.7c-0.6-2.9-3.1-5.1-6.2-5.1c-3.5,0-6.4,2.8-6.4,6.3
						c0,0.2,0,0.3,0,0.5c-0.2,0-0.5-0.1-0.7-0.1c0,0,0,0,0,0c-0.4-0.2-0.9-0.4-1.5-0.4c-1.7,0-3.1,1.4-3.1,3.1c0,0,0,0,0,0.1
						c-0.2,0-0.3-0.1-0.5-0.1c-1.6,0-3,1.3-3,3c0,0.2,0,0.5,0.1,0.7c-0.5,0.7-0.9,1.5-1,2.4c-1.7,0.5-2.9,2.1-2.9,4
						c0,0.6,0.1,1.2,0.4,1.7c0,0,0,0.1,0,0.1c0,1.7,1.4,3.1,3.1,3.1c0.5,0,1-0.1,1.4-0.4c1,0.1,2.3-0.1,3-0.1c0,0,0,0,0.1,0
						c3.7,0,7.5-0.1,11.2,0c10.5,0.3,21.1,0.2,31.7,0.2c6.4,0,12.7-0.3,19.1-0.3c4.3,0,8.7,0.1,12.9-0.3c0.4,0.2,0.9,0.4,1.5,0.4
						c1.7,0,3.1-1.4,3.1-3.1C48.7,50.8,48,49.8,47,49.2z"/>
					<g>
						<path fill="#999999" d="M1.3,27.8c3.2,0,5.8,2.6,5.8,5.8c0,0.3,0,0.6-0.1,0.9c0.1,0,0.3,0,0.4,0c0.6,0,1.2,0.1,1.7,0.3
							c0.1-1.8,1.6-3.3,3.5-3.3c1.2,0,2.2,0.6,2.9,1.5c1.1-1.7,3.1-2.9,5.3-2.9c3,0,5.6,2.1,6.2,5c0.5-0.2,1-0.3,1.5-0.3
							c1.9,0,3.4,1.3,3.9,3c0.4-0.2,0.9-0.4,1.5-0.4c0.8,0,1.5,0.3,2,0.7c0.2-1.7,1.7-3.1,3.5-3.1c1.9,0,3.4,1.5,3.5,3.3
							c0,0,0,0,0,0c1.6,0,3,1.2,3.3,2.7c0.3-0.1,0.7-0.2,1.1-0.2c1.9,0,3.5,1.6,3.5,3.5c0,1.1-0.5,2.1-1.4,2.8
							c0.8,0.6,1.4,1.6,1.4,2.8c0,1.9-1.6,3.5-3.5,3.5c-0.4,0-0.8-0.1-1.2-0.2c-0.1,0-0.2,0.1-0.2,0.1c-0.5,0.1-0.9,0.2-1.4,0.2
							c-1.5,0-3-0.5-4.1-0.9c-2.1-0.8-4.3-0.7-6.7-0.7c-3.2,0-6.4-0.3-9.6-0.3c0,0-0.1,0-0.1,0c-1.6,0-3.2,0-4.9,0
							c-3.6,0-7.1-0.1-10.6-0.4c-3.6-0.3-7.4-0.6-11.2-0.6c-2.7,0-5.4,0.1-8.1,0.5c-4.9,0.6-9.7,1.2-14.6,1.7
							c-1.3,0.1-2.8,0.2-4.2,0.2c-0.6,0-1.3,0-1.9-0.1c-0.3,0-0.5,0-0.8-0.1C-33.1,53.6-34,54-35,54c-1.9,0-3.5-1.6-3.5-3.5
							c0-1.9,1.5-3.4,3.3-3.5c0,0,0,0,0,0c0-1.2,0.6-2.2,1.5-2.9c-0.8-0.6-1.3-1.6-1.3-2.6c0-1.8,1.5-3.3,3.3-3.3c0.1,0,0.1,0,0.2,0
							c0.2-1.8,1.6-3.2,3.5-3.2c0.5,0,1,0.1,1.5,0.3c0,0,0,0,0,0h0c0-4,3.2-7.2,7.2-7.2c3.2,0,5.9,2.1,6.9,5.1
							c0.6-0.2,1.2-0.4,1.8-0.4c0.6,0,1.1,0.1,1.6,0.3c0.3-1.7,1.8-3,3.6-3c0.7,0,1.3,0.2,1.8,0.5C-2.7,29-0.8,27.8,1.3,27.8
							 M1.3,26.4c-2.2,0-4.1,0.9-5.5,2.5c-0.4-0.1-0.9-0.2-1.3-0.2c-1.9,0-3.6,1.1-4.5,2.7c-0.2,0-0.4,0-0.6,0c-0.3,0-0.6,0-1,0.1
							c-1.4-2.9-4.4-4.7-7.7-4.7c-4.1,0-7.6,2.9-8.4,6.8c-0.1,0-0.2,0-0.2,0c-2.1,0-4,1.3-4.7,3.3c-2.2,0.5-3.8,2.4-3.8,4.7
							c0,0.9,0.3,1.8,0.8,2.6c-0.4,0.5-0.6,1.1-0.8,1.7c-2,0.6-3.5,2.5-3.5,4.7c0,2.7,2.2,5,5,5c1.1,0,2.2-0.4,3.1-1.1
							c0,0,0.1,0,0.1,0c0.6,0.1,1.3,0.1,2,0.1c1.5,0,3-0.1,4.3-0.3c5-0.5,10-1.1,14.7-1.7c2.4-0.3,5-0.5,7.9-0.5
							c3.3,0,6.8,0.2,11,0.6C11.8,53,15.5,53,18.9,53c1,0,1.9,0,2.9,0l2,0h0.1c1.7,0,3.4,0.1,5.1,0.2c1.5,0.1,3,0.1,4.5,0.2
							c0.3,0,0.6,0,0.9,0c2,0,3.7,0,5.3,0.6c1.3,0.5,2.9,1,4.7,1c0.6,0,1.1-0.1,1.6-0.2c0.4,0.1,0.8,0.2,1.2,0.2c2.7,0,5-2.2,5-5
							c0-1-0.3-1.9-0.8-2.8c0.5-0.8,0.8-1.8,0.8-2.8c0-2.7-2.2-5-5-5c0,0-0.1,0-0.1,0c-0.6-1.1-1.7-2-3-2.3c-0.6-2-2.5-3.5-4.7-3.5
							c-1.8,0-3.4,1-4.3,2.5c-0.4-0.1-0.8-0.2-1.2-0.2c-0.2,0-0.4,0-0.6,0c-1-1.6-2.7-2.7-4.7-2.7c-0.2,0-0.3,0-0.5,0
							c-1.2-2.8-4-4.7-7.1-4.7c-2,0-4,0.8-5.4,2.2c-0.8-0.5-1.8-0.8-2.8-0.8c-1.7,0-3.3,0.9-4.2,2.3C7.8,28.9,4.9,26.4,1.3,26.4
							L1.3,26.4z"/>
					</g>
				</g>
			</g>
		</g>
		<g>
			<path fill="#999999" d="M6.5,46.5c-16.1,0-31.5,2.8-45.8,8h91.7C38,49.3,22.6,46.5,6.5,46.5z"/>
		</g>
	</g>
</g>
<g id="Discrepencies" display="none">
	<rect x="-43" y="98.4" display="inline" fill="#FFFFFF" width="98" height="98"/>
</g>
<g id="LABELS" display="none">
</g>
<g id="NUMBERS" display="none">
</g>
</svg>
