<?xml version="1.0" encoding="utf-8"?>
<!-- Generator: Adobe Illustrator 17.1.0, SVG Export Plug-In . SVG Version: 6.00 Build 0)  -->
<!DOCTYPE svg PUBLIC "-//W3C//DTD SVG 1.1//EN" "http://www.w3.org/Graphics/SVG/1.1/DTD/svg11.dtd">
<svg version="1.1" id="Layer_1" xmlns="http://www.w3.org/2000/svg" xmlns:xlink="http://www.w3.org/1999/xlink" x="0px" y="0px"
	 viewBox="0 0 120 120" enable-background="new 0 0 120 120" xml:space="preserve">
<g id="TWC" display="none">
	<g id="_x33_URXGG.tif" display="inline">
		
			<image overflow="visible" enable-background="new    " width="88" height="84" id="Layer_0_16_" xlink:href="208530C74392833E.png"  transform="matrix(1 0 0 1 42.1353 -11.7935)">
		</image>
	</g>
	<g id="tQfrYH.tif" display="inline">
		
			<image overflow="visible" enable-background="new    " width="98" height="98" id="Layer_0_21_" xlink:href="208530C743928342.png"  transform="matrix(1 0 0 0.9898 37.1353 101.7065)">
		</image>
	</g>
</g>
<g id="ios">
	<path fill="none" stroke="#FFFFFF" stroke-width="7" stroke-miterlimit="10" d="M113.3,51.2c0-12-9.7-21.7-21.7-21.7
		c-3.8,0-7.4,1-10.6,2.7c-4.3-11-15-18.7-27.5-18.7C37.2,13.5,24,26.7,23.9,43h-2.5c-8.4,0-15.1,6.8-15.1,15.1
		c0,8.4,6.8,15.1,15.1,15.1h70.8c2.7,0,5.2-0.7,7.4-1.9C107.6,68.1,113.3,60.3,113.3,51.2z"/>
</g>
<g id="Jenn_x5F_new_set" display="none">
	<g display="inline">
		<g>
			<path fill="#FFFFFF" d="M59,20.5c-13,0-8.3-23,7.5-17C66.7-12.7,86.3-17,92.9-2.3c4.7-4.7,14.2-1.7,14.3,6.1
				c14.2-5.4,19,16.6,5.9,16.7C97.7,20.6,70.6,20.5,59,20.5z"/>
			<path fill="#ADD9F2" d="M110.4,16.6c2.1-0.1,4.3-2.5,2.4-5.6c-1.9-3-6.1-2.5-9.4-0.4c0,0,0.3-5.2-2.1-7.6
				c-1.6-1.6-6.5-2.8-11.5,3.2l0,0c0,0-3.7-19.7-20.1-10.9c-5.5,2.9,5.1-6,10.5-6.5c2.8-0.3,6.2,1.3,6.2,1.3l6.4,7.7l4.6-2.5
				l4.1,1.4l4.1,2.7l1.5,4.5l4.9-0.8l4.9,1l3.3,4v3.7l-0.9,5.5l-4.1,3.2l-58.6,0.5l-4-4.2"/>
			<path fill="none" stroke="#40B4E5" stroke-width="2.7482" d="M59,20.5c-13,0-8.3-23,7.5-17C66.7-12.7,86.3-17,92.9-2.3
				c4.7-4.7,14.2-1.7,14.3,6.1c14.2-5.4,19,16.6,5.9,16.7C97.7,20.6,70.6,20.5,59,20.5z"/>
		</g>
	</g>
	<path display="inline" fill="#40B4E5" d="M70.4,31l-1.3-0.7l1-0.3c0.3-0.1,0.5-0.4,0.4-0.7c-0.1-0.3-0.4-0.5-0.7-0.4l-1.9,0.5
		c-0.1,0-0.1,0-0.2,0l-1.3-0.8c0-0.2,0.1-0.3,0.1-0.5c0-0.2,0-0.3-0.1-0.5l1.3-0.8c0,0,0,0,0,0c0.1,0,0.1,0,0.2,0l1.9,0.5
		c0,0,0.1,0,0.1,0c0.2,0,0.5-0.2,0.5-0.4c0.1-0.3-0.1-0.6-0.4-0.7l-1-0.3l1.3-0.7c0.3-0.1,0.3-0.5,0.2-0.7c-0.2-0.3-0.5-0.4-0.7-0.2
		l-1.3,0.7l0.3-1c0.1-0.3-0.1-0.6-0.4-0.7c-0.3-0.1-0.6,0.1-0.7,0.4l-0.5,1.9c-0.1,0-0.1,0.1-0.1,0.1l-1.3,0.8
		c-0.2-0.2-0.5-0.4-0.8-0.4v-1.6c0-0.1,0.1-0.1,0.1-0.2l1.4-1.4c0.2-0.2,0.2-0.6,0-0.8c-0.2-0.2-0.6-0.2-0.8,0l-0.7,0.7v-1.5
		c0-0.3-0.2-0.5-0.5-0.5c-0.3,0-0.5,0.2-0.5,0.5v1.5l-0.7-0.7c-0.2-0.2-0.6-0.2-0.8,0c-0.2,0.2-0.2,0.6,0,0.8l1.4,1.4
		c0,0.1,0,0.1,0.1,0.2v1.6c-0.3,0.1-0.6,0.3-0.8,0.5L61.8,26c0-0.1-0.1-0.1-0.1-0.1l-0.5-1.9c-0.1-0.3-0.4-0.5-0.7-0.4
		c-0.3,0.1-0.5,0.4-0.4,0.7l0.3,1l-1.3-0.7c-0.3-0.2-0.6-0.1-0.7,0.2c-0.2,0.3-0.1,0.6,0.2,0.7l1.3,0.7l-1,0.3
		c-0.3,0.1-0.5,0.4-0.4,0.7c0.1,0.2,0.3,0.4,0.5,0.4c0,0,0.1,0,0.1,0l1.9-0.5c0.1,0,0.1,0,0.2,0c0,0,0,0,0,0l1.3,0.8
		c0,0.1,0,0.3,0,0.4c0,0.2,0,0.3,0.1,0.4l-1.3,0.8c-0.1,0-0.1,0-0.2,0l-1.9-0.5c-0.3-0.1-0.6,0.1-0.7,0.4s0.1,0.6,0.4,0.7l1,0.3
		l-1.3,0.7c-0.3,0.2-0.3,0.5-0.2,0.7c0.1,0.2,0.3,0.3,0.5,0.3c0.1,0,0.2,0,0.3-0.1l1.3-0.7l-0.3,1c-0.1,0.3,0.1,0.6,0.4,0.7
		c0,0,0.1,0,0.1,0c0.2,0,0.5-0.2,0.5-0.4l0.5-1.9c0.1,0,0.1-0.1,0.1-0.2l1.3-0.8c0.2,0.2,0.5,0.4,0.8,0.5v1.5c0,0.1-0.1,0.1-0.1,0.2
		l-1.4,1.4c-0.2,0.2-0.2,0.6,0,0.8c0.1,0.1,0.2,0.2,0.4,0.2c0.1,0,0.3-0.1,0.4-0.2l0.7-0.7v1.5c0,0.3,0.2,0.5,0.5,0.5
		c0.3,0,0.5-0.2,0.5-0.5v-1.5l0.7,0.7C65.9,34,66,34,66.2,34c0.1,0,0.3-0.1,0.4-0.2c0.2-0.2,0.2-0.6,0-0.8l-1.4-1.4
		c0-0.1,0-0.1-0.1-0.2V30c0.3-0.1,0.5-0.2,0.8-0.4l1.3,0.8c0,0.1,0.1,0.1,0.1,0.2l0.5,1.9c0.1,0.2,0.3,0.4,0.5,0.4c0,0,0.1,0,0.1,0
		c0.3-0.1,0.5-0.4,0.4-0.7l-0.3-1l1.3,0.7c0.1,0,0.2,0.1,0.3,0.1c0.2,0,0.4-0.1,0.5-0.3C70.7,31.4,70.7,31.1,70.4,31z M64.5,29
		c-0.5,0-0.8-0.4-0.8-0.9s0.4-0.9,0.8-0.9s0.8,0.4,0.8,0.9C65.4,28.6,65,29,64.5,29z"/>
	<path display="inline" fill="#40B4E5" d="M110.4,32l-1-1.1l1,0c0.3,0,0.6-0.2,0.6-0.5c0-0.3-0.2-0.6-0.5-0.6l-2-0.1
		c-0.1,0-0.1-0.1-0.2-0.1l-1-1.1c0.1-0.1,0.2-0.3,0.2-0.4c0.1-0.2,0.1-0.3,0.1-0.5l1.5-0.3c0,0,0,0,0,0c0.1,0,0.1,0,0.2,0l1.7,1.1
		c0,0,0.1,0,0.1,0.1c0.2,0.1,0.5,0,0.6-0.2c0.2-0.2,0.1-0.6-0.2-0.8l-0.9-0.6l1.4-0.3c0.3-0.1,0.5-0.4,0.4-0.6
		c-0.1-0.3-0.3-0.5-0.6-0.4l-1.4,0.3L111,25c0.2-0.3,0.1-0.6-0.2-0.8c-0.3-0.2-0.6-0.1-0.8,0.2l-1.1,1.7c-0.1,0-0.1,0.1-0.2,0.1
		l-1.5,0.3c-0.1-0.3-0.4-0.5-0.6-0.7l0.5-1.5c0.1,0,0.1-0.1,0.1-0.2l1.8-0.9c0.3-0.1,0.4-0.5,0.2-0.7c-0.1-0.3-0.5-0.4-0.7-0.2
		l-0.9,0.5l0.5-1.4c0.1-0.3-0.1-0.6-0.3-0.7c-0.3-0.1-0.6,0.1-0.7,0.3l-0.5,1.4l-0.5-0.9c-0.1-0.3-0.5-0.4-0.7-0.2
		c-0.3,0.1-0.4,0.5-0.2,0.7l0.9,1.8c0,0.1,0,0.1,0,0.2l-0.5,1.5c-0.3,0-0.6,0.1-0.9,0.2l-1-1.2c0-0.1,0-0.1-0.1-0.2l0.1-2
		c0-0.3-0.2-0.6-0.5-0.6c-0.3,0-0.6,0.2-0.6,0.5l-0.1,1l-1-1.1c-0.2-0.2-0.5-0.2-0.8,0c-0.2,0.2-0.2,0.5,0,0.8l1,1.1l-1,0
		c-0.3,0-0.6,0.2-0.6,0.5c0,0.2,0.1,0.5,0.4,0.5c0,0,0.1,0,0.1,0l2,0.1c0.1,0,0.1,0.1,0.2,0.1c0,0,0,0,0,0l1,1.2
		c-0.1,0.1-0.1,0.2-0.2,0.4c0,0.1-0.1,0.3-0.1,0.4l-1.5,0.3c-0.1,0-0.1,0-0.2,0l-1.7-1.1c-0.2-0.2-0.6-0.1-0.8,0.2
		c-0.2,0.3-0.1,0.6,0.2,0.8l0.9,0.6l-1.4,0.3c-0.3,0.1-0.5,0.4-0.4,0.6c0,0.2,0.2,0.3,0.4,0.4c0.1,0,0.2,0,0.3,0l1.4-0.3l-0.6,0.9
		c-0.2,0.3-0.1,0.6,0.2,0.8c0,0,0.1,0,0.1,0.1c0.2,0.1,0.5,0,0.6-0.2l1.1-1.7c0.1,0,0.1-0.1,0.2-0.1l1.5-0.3
		c0.1,0.3,0.4,0.5,0.6,0.7l-0.5,1.4c-0.1,0-0.1,0.1-0.1,0.2l-1.8,0.9c-0.3,0.1-0.4,0.5-0.2,0.7c0.1,0.1,0.2,0.2,0.3,0.3
		c0.1,0,0.3,0,0.4,0l0.9-0.5l-0.5,1.4c-0.1,0.3,0.1,0.6,0.3,0.7c0.3,0.1,0.6-0.1,0.7-0.3l0.5-1.4l0.5,0.9c0.1,0.1,0.2,0.2,0.3,0.3
		c0.1,0,0.3,0,0.4,0c0.3-0.1,0.4-0.5,0.2-0.7l-0.9-1.8c0-0.1,0-0.1,0-0.2l0.5-1.4c0.3,0,0.6,0,0.9-0.2l1,1.1c0,0.1,0,0.1,0.1,0.2
		l-0.1,2c0,0.3,0.1,0.5,0.4,0.6c0,0,0.1,0,0.1,0c0.3,0,0.6-0.2,0.6-0.5l0.1-1l1,1.1c0.1,0.1,0.1,0.1,0.2,0.2c0.2,0.1,0.4,0,0.5-0.1
		C110.6,32.6,110.6,32.2,110.4,32z M105.4,28.3c-0.4-0.1-0.7-0.6-0.5-1.1c0.1-0.4,0.6-0.7,1.1-0.5c0.4,0.1,0.7,0.6,0.5,1.1
		C106.3,28.2,105.8,28.5,105.4,28.3z"/>
	<path display="inline" fill="#40B4E5" d="M88.5,47.1L87,46.7l0.9-0.5c0.3-0.2,0.3-0.5,0.2-0.8s-0.5-0.3-0.7-0.2l-1.7,1.1
		c-0.1,0-0.1,0-0.2,0L84,46c0-0.2,0-0.3-0.1-0.5c0-0.2-0.1-0.3-0.2-0.4l1.1-1.1c0,0,0,0,0,0c0.1,0,0.1-0.1,0.2-0.1l2,0
		c0.1,0,0.1,0,0.1,0c0.2-0.1,0.4-0.3,0.4-0.5c0-0.3-0.2-0.5-0.5-0.5l-1,0l1-1.1c0.2-0.2,0.2-0.6,0-0.8c-0.2-0.2-0.6-0.2-0.8,0
		l-1,1.1l0-1c0-0.3-0.3-0.5-0.6-0.5c-0.3,0-0.5,0.3-0.5,0.6l0.1,2c0,0.1-0.1,0.1-0.1,0.2l-1.1,1.1c-0.3-0.1-0.6-0.2-0.9-0.2
		l-0.4-1.5c0-0.1,0-0.1,0-0.2l1-1.7c0.1-0.3,0.1-0.6-0.2-0.7c-0.3-0.1-0.6-0.1-0.7,0.2L81.2,41l-0.4-1.4c-0.1-0.3-0.4-0.5-0.7-0.4
		c-0.3,0.1-0.5,0.4-0.4,0.7l0.4,1.4l-0.9-0.5c-0.3-0.1-0.6,0-0.7,0.2c-0.1,0.3,0,0.6,0.2,0.7l1.8,1c0,0.1,0.1,0.1,0.1,0.2l0.4,1.5
		c-0.3,0.2-0.5,0.4-0.7,0.7l-1.5-0.4c0,0-0.1-0.1-0.2-0.1l-1-1.7c-0.2-0.3-0.5-0.3-0.7-0.2c-0.3,0.2-0.3,0.5-0.2,0.7l0.5,0.9
		l-1.4-0.4c-0.3-0.1-0.6,0.1-0.7,0.4c-0.1,0.3,0.1,0.6,0.4,0.7l1.4,0.4l-0.9,0.5c-0.3,0.2-0.3,0.5-0.2,0.7c0.1,0.2,0.4,0.3,0.6,0.2
		c0,0,0.1,0,0.1-0.1l1.7-1c0.1,0,0.1,0,0.2,0c0,0,0,0,0,0l1.5,0.4c0,0.1,0,0.3,0.1,0.4c0,0.1,0.1,0.3,0.2,0.4l-1.1,1.1
		c-0.1,0-0.1,0-0.2,0.1l-2,0c-0.3,0-0.5,0.2-0.5,0.5c0,0.3,0.2,0.5,0.6,0.5l1,0l-1,1.1c-0.2,0.2-0.2,0.6,0,0.8
		c0.1,0.1,0.3,0.2,0.5,0.1c0.1,0,0.2-0.1,0.2-0.1l1-1.1l0,1c0,0.3,0.3,0.5,0.6,0.5c0,0,0.1,0,0.1,0c0.2-0.1,0.4-0.3,0.4-0.5L80,49
		c0-0.1,0.1-0.1,0.1-0.2l1.1-1.1c0.3,0.1,0.6,0.2,0.9,0.2l0.4,1.4c0,0.1,0,0.1,0,0.2l-1,1.7c-0.1,0.3-0.1,0.6,0.2,0.7
		c0.1,0.1,0.3,0.1,0.4,0c0.1,0,0.2-0.1,0.3-0.3l0.5-0.9l0.4,1.4c0.1,0.3,0.4,0.5,0.7,0.4c0.3-0.1,0.5-0.4,0.4-0.7L84,50.7l0.9,0.5
		c0.1,0.1,0.3,0.1,0.4,0c0.1,0,0.3-0.1,0.3-0.3c0.1-0.3,0-0.6-0.2-0.7l-1.8-1c0-0.1-0.1-0.1-0.1-0.2l-0.4-1.4
		c0.3-0.2,0.5-0.4,0.6-0.6l1.5,0.4c0.1,0.1,0.1,0.1,0.2,0.1l1,1.7c0.1,0.2,0.4,0.3,0.6,0.2c0,0,0.1,0,0.1-0.1
		c0.3-0.2,0.3-0.5,0.2-0.7l-0.5-0.9l1.4,0.4c0.1,0,0.2,0,0.3,0c0.2-0.1,0.3-0.2,0.4-0.4C88.9,47.5,88.8,47.2,88.5,47.1z M82.3,46.8
		c-0.4,0.1-0.9-0.1-1.1-0.6c-0.1-0.5,0.1-0.9,0.6-1.1c0.4-0.1,0.9,0.1,1.1,0.6C83,46.2,82.7,46.7,82.3,46.8z"/>
	<path display="inline" fill="#40B4E5" d="M88.9,29.7l-0.7-0.4l0.6-0.2c0.2,0,0.3-0.2,0.2-0.4c0-0.2-0.2-0.3-0.4-0.2l-1.1,0.3
		c0,0-0.1,0-0.1,0l-0.7-0.4c0-0.1,0-0.2,0-0.3c0-0.1,0-0.2,0-0.3l0.8-0.4c0,0,0,0,0,0c0,0,0.1,0,0.1,0l1.1,0.3c0,0,0.1,0,0.1,0
		c0.1,0,0.3-0.1,0.3-0.2c0-0.2-0.1-0.3-0.2-0.4L88.2,27l0.7-0.4c0.1-0.1,0.2-0.3,0.1-0.4c-0.1-0.1-0.3-0.2-0.4-0.1l-0.7,0.4l0.1-0.6
		c0-0.2-0.1-0.3-0.2-0.4c-0.2,0-0.3,0.1-0.4,0.2l-0.3,1.1c0,0-0.1,0.1-0.1,0.1l-0.8,0.4c-0.1-0.1-0.3-0.2-0.4-0.3v-0.9
		c0,0,0-0.1,0-0.1l0.8-0.8c0.1-0.1,0.1-0.3,0-0.4c-0.1-0.1-0.3-0.1-0.4,0l-0.4,0.4v-0.8c0-0.2-0.1-0.3-0.3-0.3
		c-0.2,0-0.3,0.1-0.3,0.3v0.8l-0.4-0.4c-0.1-0.1-0.3-0.1-0.4,0c-0.1,0.1-0.1,0.3,0,0.4l0.8,0.8c0,0,0,0.1,0,0.1v0.9
		c-0.2,0.1-0.3,0.1-0.5,0.3L84,26.9c0,0,0-0.1-0.1-0.1l-0.3-1.1c0-0.2-0.2-0.3-0.4-0.2c-0.2,0-0.3,0.2-0.2,0.4l0.1,0.6L82.5,26
		c-0.1-0.1-0.3,0-0.4,0.1c-0.1,0.1,0,0.3,0.1,0.4l0.7,0.4l-0.6,0.2c-0.2,0-0.3,0.2-0.2,0.4c0,0.1,0.2,0.2,0.3,0.2c0,0,0.1,0,0.1,0
		l1.1-0.3c0,0,0.1,0,0.1,0c0,0,0,0,0,0l0.8,0.4c0,0.1,0,0.2,0,0.2c0,0.1,0,0.2,0,0.3l-0.8,0.4c0,0-0.1,0-0.1,0l-1.1-0.3
		c-0.2,0-0.3,0-0.4,0.2c0,0.2,0.1,0.3,0.2,0.4l0.6,0.2l-0.7,0.4c-0.1,0.1-0.2,0.3-0.1,0.4c0.1,0.1,0.2,0.2,0.3,0.2
		c0.1,0,0.1,0,0.2,0l0.7-0.4l-0.1,0.6c0,0.2,0.1,0.3,0.2,0.4c0,0,0.1,0,0.1,0c0.1,0,0.3-0.1,0.3-0.2l0.3-1.1c0,0,0.1-0.1,0.1-0.1
		l0.7-0.4c0.1,0.1,0.3,0.2,0.5,0.3V30c0,0,0,0.1,0,0.1l-0.8,0.8c-0.1,0.1-0.1,0.3,0,0.4c0.1,0.1,0.1,0.1,0.2,0.1
		c0.1,0,0.2,0,0.2-0.1l0.4-0.4v0.8c0,0.2,0.1,0.3,0.3,0.3c0.2,0,0.3-0.1,0.3-0.3V31l0.4,0.4c0.1,0.1,0.1,0.1,0.2,0.1
		c0.1,0,0.2,0,0.2-0.1c0.1-0.1,0.1-0.3,0-0.4l-0.8-0.8c0,0,0-0.1,0-0.1v-0.9c0.2,0,0.3-0.1,0.4-0.2l0.8,0.4c0,0,0,0.1,0.1,0.1
		l0.3,1.1c0,0.1,0.2,0.2,0.3,0.2c0,0,0.1,0,0.1,0c0.2,0,0.3-0.2,0.2-0.4l-0.1-0.6l0.7,0.4c0,0,0.1,0,0.2,0c0.1,0,0.2-0.1,0.3-0.2
		C89.1,30,89,29.8,88.9,29.7z M85.6,28.6c-0.3,0-0.5-0.2-0.5-0.5c0-0.3,0.2-0.5,0.5-0.5s0.5,0.2,0.5,0.5
		C86,28.4,85.8,28.6,85.6,28.6z"/>
	<path display="inline" fill="#40B4E5" d="M62.8,50.1l-0.4-0.8l0.6,0.2c0.2,0.1,0.3,0,0.4-0.2c0.1-0.2,0-0.3-0.2-0.4l-1.1-0.4
		c0,0,0-0.1-0.1-0.1l-0.4-0.8c0.1-0.1,0.1-0.1,0.2-0.2c0.1-0.1,0.1-0.2,0.1-0.2l0.9,0.1c0,0,0,0,0,0c0,0,0.1,0,0.1,0l0.7,0.9
		c0,0,0,0,0.1,0.1c0.1,0.1,0.3,0.1,0.4,0c0.1-0.1,0.1-0.3,0-0.4l-0.4-0.4l0.8,0.1c0.2,0,0.3-0.1,0.3-0.3c0-0.2-0.1-0.3-0.3-0.3
		l-0.8-0.1l0.4-0.4c0.1-0.1,0.1-0.3,0-0.4c-0.1-0.1-0.3-0.1-0.4,0L63,46.7c0,0-0.1,0-0.1,0L62,46.6c0-0.2-0.1-0.3-0.2-0.5l0.5-0.7
		c0,0,0.1,0,0.1-0.1l1.1-0.2c0.2,0,0.3-0.2,0.2-0.4c0-0.2-0.2-0.3-0.4-0.2l-0.6,0.1l0.5-0.7c0.1-0.1,0.1-0.3-0.1-0.4
		c-0.1-0.1-0.3-0.1-0.4,0.1l-0.5,0.7l-0.1-0.6c0-0.2-0.2-0.3-0.4-0.2s-0.3,0.2-0.2,0.4l0.2,1.1c0,0,0,0.1,0,0.1l-0.5,0.7
		c-0.2-0.1-0.4-0.1-0.5,0L60.4,45c0,0,0-0.1,0-0.1l0.4-1.1c0.1-0.2,0-0.3-0.2-0.4c-0.2-0.1-0.3,0-0.4,0.2L60,44.2l-0.4-0.8
		c-0.1-0.2-0.3-0.2-0.4-0.1c-0.2,0.1-0.2,0.3-0.1,0.4l0.4,0.8l-0.6-0.2c-0.2-0.1-0.3,0-0.4,0.2c0,0.1,0,0.3,0.1,0.4c0,0,0,0,0.1,0
		l1.1,0.4c0,0,0,0.1,0.1,0.1c0,0,0,0,0,0l0.4,0.8c-0.1,0.1-0.1,0.1-0.2,0.2c0,0.1-0.1,0.1-0.1,0.2l-0.9-0.1c0,0-0.1,0-0.1,0
		l-0.7-0.9c-0.1-0.1-0.3-0.1-0.4,0c-0.1,0.1-0.1,0.3,0,0.4l0.4,0.4l-0.8-0.1c-0.2,0-0.3,0.1-0.3,0.3c0,0.1,0,0.2,0.1,0.3
		c0,0,0.1,0,0.2,0.1l0.8,0.1l-0.4,0.4c-0.1,0.1-0.1,0.3,0,0.4c0,0,0,0,0.1,0.1c0.1,0.1,0.3,0.1,0.4,0l0.8-0.7c0,0,0.1,0,0.1,0
		l0.9,0.1c0,0.2,0.1,0.3,0.2,0.5l-0.5,0.7c0,0-0.1,0-0.1,0.1l-1.1,0.2c-0.2,0-0.3,0.2-0.2,0.4c0,0.1,0.1,0.2,0.1,0.2
		c0.1,0,0.1,0.1,0.2,0l0.6-0.1l-0.5,0.7c-0.1,0.1-0.1,0.3,0.1,0.4c0.1,0.1,0.3,0.1,0.4-0.1l0.5-0.7l0.1,0.6c0,0.1,0.1,0.2,0.1,0.2
		c0.1,0,0.2,0.1,0.2,0c0.2,0,0.3-0.2,0.2-0.4l-0.2-1.1c0,0,0-0.1,0-0.1l0.5-0.7c0.2,0.1,0.3,0.1,0.5,0l0.4,0.8c0,0,0,0.1,0,0.1
		l-0.4,1.1c0,0.1,0,0.3,0.1,0.4c0,0,0,0,0.1,0c0.2,0.1,0.3,0,0.4-0.2l0.2-0.5l0.4,0.8c0,0.1,0.1,0.1,0.1,0.1c0.1,0.1,0.2,0.1,0.3,0
		C62.8,50.4,62.9,50.2,62.8,50.1z M60.7,47.3c-0.2-0.2-0.3-0.5-0.1-0.7c0.2-0.2,0.5-0.3,0.7-0.1c0.2,0.1,0.3,0.5,0.1,0.7
		C61.2,47.4,60.9,47.4,60.7,47.3z"/>
	<path display="inline" fill="#40B4E5" d="M103.5,46.2l-0.7-0.4l0.6-0.2c0.2,0,0.3-0.2,0.2-0.4c0-0.2-0.2-0.3-0.4-0.2l-1.1,0.3
		c0,0-0.1,0-0.1,0l-0.7-0.4c0-0.1,0-0.2,0-0.3c0-0.1,0-0.2,0-0.3l0.8-0.4c0,0,0,0,0,0c0,0,0.1,0,0.1,0l1.1,0.3c0,0,0.1,0,0.1,0
		c0.1,0,0.3-0.1,0.3-0.2c0-0.2-0.1-0.3-0.2-0.4l-0.6-0.2l0.7-0.4c0.1-0.1,0.2-0.3,0.1-0.4c-0.1-0.1-0.3-0.2-0.4-0.1l-0.7,0.4
		l0.1-0.6c0-0.2-0.1-0.3-0.2-0.4c-0.2,0-0.3,0.1-0.4,0.2l-0.3,1.1c0,0-0.1,0.1-0.1,0.1l-0.8,0.4c-0.1-0.1-0.3-0.2-0.4-0.3v-0.9
		c0,0,0-0.1,0-0.1l0.8-0.8c0.1-0.1,0.1-0.3,0-0.4c-0.1-0.1-0.3-0.1-0.4,0l-0.4,0.4v-0.8c0-0.2-0.1-0.3-0.3-0.3
		c-0.2,0-0.3,0.1-0.3,0.3v0.8l-0.4-0.4c-0.1-0.1-0.3-0.1-0.4,0c-0.1,0.1-0.1,0.3,0,0.4l0.8,0.8c0,0,0,0.1,0,0.1v0.9
		c-0.2,0.1-0.3,0.1-0.5,0.3l-0.8-0.4c0,0,0-0.1-0.1-0.1l-0.3-1.1c0-0.2-0.2-0.3-0.4-0.2c-0.2,0-0.3,0.2-0.2,0.4l0.1,0.6l-0.7-0.4
		c-0.1-0.1-0.3,0-0.4,0.1c-0.1,0.1,0,0.3,0.1,0.4l0.7,0.4l-0.6,0.2c-0.2,0-0.3,0.2-0.2,0.4c0,0.1,0.2,0.2,0.3,0.2c0,0,0.1,0,0.1,0
		l1.1-0.3c0,0,0.1,0,0.1,0c0,0,0,0,0,0l0.8,0.4c0,0.1,0,0.2,0,0.2c0,0.1,0,0.2,0,0.3l-0.8,0.4c0,0-0.1,0-0.1,0L97.1,45
		c-0.2,0-0.3,0-0.4,0.2c0,0.2,0.1,0.3,0.2,0.4l0.6,0.2l-0.7,0.4c-0.1,0.1-0.2,0.3-0.1,0.4c0.1,0.1,0.2,0.2,0.3,0.2
		c0.1,0,0.1,0,0.2,0l0.7-0.4l-0.1,0.6c0,0.2,0.1,0.3,0.2,0.4c0,0,0.1,0,0.1,0c0.1,0,0.3-0.1,0.3-0.2l0.3-1.1c0,0,0.1-0.1,0.1-0.1
		l0.7-0.4c0.1,0.1,0.3,0.2,0.5,0.3v0.8c0,0,0,0.1,0,0.1L99,47.4c-0.1,0.1-0.1,0.3,0,0.4c0.1,0.1,0.1,0.1,0.2,0.1
		c0.1,0,0.2,0,0.2-0.1l0.4-0.4v0.8c0,0.2,0.1,0.3,0.3,0.3c0.2,0,0.3-0.1,0.3-0.3v-0.8l0.4,0.4c0.1,0.1,0.1,0.1,0.2,0.1
		c0.1,0,0.2,0,0.2-0.1c0.1-0.1,0.1-0.3,0-0.4l-0.8-0.8c0,0,0-0.1,0-0.1v-0.8c0.2,0,0.3-0.1,0.4-0.2l0.8,0.4c0,0,0,0.1,0.1,0.1
		L102,47c0,0.1,0.2,0.2,0.3,0.2c0,0,0.1,0,0.1,0c0.2,0,0.3-0.2,0.2-0.4l-0.1-0.6l0.7,0.4c0,0,0.1,0,0.2,0c0.1,0,0.2-0.1,0.3-0.2
		C103.7,46.4,103.6,46.2,103.5,46.2z M100.1,45c-0.3,0-0.5-0.2-0.5-0.5c0-0.3,0.2-0.5,0.5-0.5s0.5,0.2,0.5,0.5
		C100.6,44.8,100.4,45,100.1,45z"/>
	<path display="inline" fill="#40B4E5" d="M110.5,52.2c-0.2,0-0.4,0-0.6-0.1c-0.7-0.3-1-1.1-0.7-1.8l0,0c0.3-0.7,1.1-1,1.8-0.7
		c0.7,0.3,1,1.1,0.7,1.8C111.5,51.9,111,52.2,110.5,52.2z"/>
	<path display="inline" fill="#40B4E5" d="M89.1,37.9c-0.2,0-0.4,0-0.6-0.1c-0.7-0.3-1-1.1-0.7-1.8l0,0c0.3-0.7,1.1-1,1.8-0.7
		c0.7,0.3,1,1.1,0.7,1.8C90.1,37.6,89.6,37.9,89.1,37.9z"/>
	<path display="inline" fill="#40B4E5" d="M71.7,44.2c-0.2,0-0.4,0-0.6-0.1c-0.7-0.3-1-1.1-0.7-1.8l0,0c0.3-0.7,1.1-1,1.8-0.7
		c0.7,0.3,1,1.1,0.7,1.8C72.7,43.9,72.2,44.2,71.7,44.2z"/>
	<path display="inline" fill="#40B4E5" d="M92.8,45.6c-0.2,0-0.4,0-0.6-0.1c-0.7-0.3-1-1.1-0.7-1.8l0,0c0.3-0.7,1.1-1,1.8-0.7
		c0.7,0.3,1,1.1,0.7,1.8C93.8,45.3,93.3,45.6,92.8,45.6z"/>
	<path display="inline" fill="#40B4E5" d="M59.2,39.8c-0.2,0-0.4,0-0.6-0.1c-0.7-0.3-1-1.1-0.7-1.8l0,0c0.3-0.7,1.1-1,1.8-0.7
		c0.7,0.3,1,1.1,0.7,1.8C60.3,39.5,59.8,39.8,59.2,39.8z"/>
	<path display="inline" fill="#40B4E5" d="M77.2,27.8c-0.2,0-0.4,0-0.6-0.1c-0.7-0.3-1-1.1-0.7-1.8l0,0c0.3-0.7,1.1-1,1.8-0.7
		c0.7,0.3,1,1.1,0.7,1.8C78.2,27.5,77.7,27.8,77.2,27.8z"/>
	<path display="inline" fill="#40B4E5" d="M94.2,27.8c-0.2,0-0.4,0-0.6-0.1c-0.7-0.3-1-1.1-0.7-1.8l0,0c0.3-0.7,1.1-1,1.8-0.7
		c0.7,0.3,1,1.1,0.7,1.8C95.2,27.5,94.7,27.8,94.2,27.8z"/>
	<path display="inline" fill="#40B4E5" d="M75.8,36.5c-0.2,0-0.4,0-0.6-0.1c-0.7-0.3-1-1.1-0.7-1.8l0,0c0.3-0.7,1.1-1,1.8-0.7
		c0.7,0.3,1,1.1,0.7,1.8C76.8,36.2,76.3,36.5,75.8,36.5z"/>
	<path display="inline" fill="#40B4E5" d="M71.3,37.9c-0.2,0-0.4,0-0.6-0.1c-0.7-0.3-1-1.1-0.7-1.8l0,0c0.3-0.7,1.1-1,1.8-0.7
		c0.7,0.3,1,1.1,0.7,1.8C72.3,37.6,71.8,37.9,71.3,37.9z"/>
	<path display="inline" fill="#40B4E5" d="M107,45.6c-0.2,0-0.4,0-0.6-0.1c-0.7-0.3-1-1.1-0.7-1.8l0,0c0.3-0.7,1.1-1,1.8-0.7
		c0.7,0.3,1,1.1,0.7,1.8C108.1,45.3,107.6,45.6,107,45.6z"/>
	<path display="inline" fill="#40B4E5" d="M96.6,38.2c-0.2,0-0.4,0-0.6-0.1c-0.7-0.3-1-1.1-0.7-1.8l0,0c0.3-0.7,1.1-1,1.8-0.7
		c0.7,0.3,1,1.1,0.7,1.8C97.6,37.8,97.1,38.2,96.6,38.2z"/>
	<path display="inline" fill="#40B4E5" d="M69.9,55.3c-0.2,0-0.4,0-0.6-0.1c-0.7-0.3-1-1.1-0.7-1.8l0,0c0.3-0.7,1.1-1,1.8-0.7
		c0.7,0.3,1,1.1,0.7,1.8C70.9,55,70.4,55.3,69.9,55.3z"/>
	<path display="inline" fill="#40B4E5" d="M59.2,55.3c-0.2,0-0.4,0-0.6-0.1c-0.7-0.3-1-1.1-0.7-1.8l0,0c0.3-0.7,1.1-1,1.8-0.7
		c0.7,0.3,1,1.1,0.7,1.8C60.3,55,59.8,55.3,59.2,55.3z"/>
	<path display="inline" fill="#40B4E5" d="M95.1,56.8l-0.5-0.7l0.6,0.1c0.2,0,0.3-0.1,0.4-0.3c0-0.2-0.1-0.3-0.3-0.4l-1.1-0.2
		c0,0-0.1,0-0.1-0.1l-0.5-0.7c0.1-0.1,0.1-0.1,0.2-0.2c0-0.1,0.1-0.2,0.1-0.3l0.9-0.1c0,0,0,0,0,0c0,0,0.1,0,0.1,0l0.9,0.7
		c0,0,0,0,0.1,0c0.1,0.1,0.3,0,0.4-0.1c0.1-0.1,0.1-0.3,0-0.4L95.7,54l0.8-0.1c0.2,0,0.3-0.2,0.3-0.3c0-0.2-0.2-0.3-0.3-0.3
		l-0.8,0.1l0.4-0.5c0.1-0.1,0.1-0.3,0-0.4c-0.1-0.1-0.3-0.1-0.4,0l-0.7,0.9c0,0-0.1,0-0.1,0l-0.9,0.1c-0.1-0.2-0.2-0.3-0.3-0.4
		l0.4-0.8c0,0,0.1,0,0.1-0.1l1.1-0.4c0.2-0.1,0.2-0.2,0.2-0.4c-0.1-0.2-0.2-0.2-0.4-0.2l-0.6,0.2l0.4-0.8c0.1-0.2,0-0.3-0.1-0.4
		c-0.2-0.1-0.3,0-0.4,0.1l-0.4,0.8l-0.2-0.5c-0.1-0.2-0.2-0.2-0.4-0.2c-0.2,0.1-0.2,0.2-0.2,0.4l0.4,1.1c0,0,0,0.1,0,0.1l-0.4,0.8
		c-0.2,0-0.4,0-0.5,0l-0.5-0.7c0,0,0-0.1,0-0.1l0.2-1.1c0-0.2-0.1-0.3-0.2-0.4c-0.2,0-0.3,0.1-0.4,0.2l-0.1,0.6l-0.5-0.7
		c-0.1-0.1-0.3-0.2-0.4-0.1c-0.1,0.1-0.2,0.3-0.1,0.4l0.5,0.7l-0.6-0.1c-0.2,0-0.3,0.1-0.4,0.3c0,0.1,0.1,0.3,0.2,0.3
		c0,0,0.1,0,0.1,0l1.1,0.2c0,0,0.1,0.1,0.1,0.1c0,0,0,0,0,0l0.5,0.7c0,0.1-0.1,0.1-0.1,0.2c0,0.1-0.1,0.2-0.1,0.2l-0.9,0.1
		c0,0-0.1,0-0.1,0L89.9,53c-0.1-0.1-0.3-0.1-0.4,0c-0.1,0.1-0.1,0.3,0,0.4l0.4,0.4L89.1,54c-0.2,0-0.3,0.2-0.3,0.3
		c0,0.1,0.1,0.2,0.2,0.3c0,0,0.1,0,0.2,0l0.8-0.1l-0.4,0.5c-0.1,0.1-0.1,0.3,0,0.4c0,0,0,0,0.1,0c0.1,0.1,0.3,0,0.4-0.1l0.7-0.9
		c0,0,0.1,0,0.1-0.1l0.9-0.1c0.1,0.2,0.2,0.3,0.3,0.4l-0.4,0.8c0,0-0.1,0-0.1,0.1L90.6,56c-0.2,0.1-0.2,0.2-0.2,0.4
		c0,0.1,0.1,0.1,0.2,0.2c0.1,0,0.2,0,0.2,0l0.6-0.2L91,57.1c-0.1,0.2,0,0.3,0.2,0.4c0.2,0.1,0.3,0,0.4-0.2l0.4-0.8l0.2,0.5
		c0,0.1,0.1,0.1,0.2,0.2c0.1,0,0.2,0,0.2,0c0.2-0.1,0.2-0.2,0.2-0.4l-0.4-1.1c0,0,0-0.1,0-0.1l0.4-0.8c0.2,0,0.3,0,0.5,0l0.5,0.7
		c0,0,0,0.1,0,0.1l-0.2,1.1c0,0.1,0,0.3,0.2,0.3c0,0,0,0,0.1,0c0.2,0,0.3-0.1,0.4-0.2l0.1-0.6l0.5,0.7c0,0,0.1,0.1,0.1,0.1
		c0.1,0,0.2,0,0.3,0C95.2,57.1,95.2,56.9,95.1,56.8z M92.6,54.4c-0.2-0.1-0.3-0.4-0.2-0.6c0.1-0.2,0.4-0.3,0.6-0.2
		c0.2,0.1,0.3,0.4,0.2,0.6C93.1,54.4,92.8,54.5,92.6,54.4z"/>
	<path display="inline" fill="#40B4E5" d="M100.1,53.9c-0.2,0-0.4,0-0.6-0.1c-0.7-0.3-1-1.1-0.7-1.8l0,0c0.3-0.7,1.1-1,1.8-0.7
		c0.7,0.3,1,1.1,0.7,1.8C101.1,53.6,100.6,53.9,100.1,53.9z"/>
	<path display="inline" fill="#40B4E5" d="M110.5,40.9c-0.2,0-0.4,0-0.6-0.1c-0.7-0.3-1-1.1-0.7-1.8l0,0c0.3-0.7,1.1-1,1.8-0.7
		c0.7,0.3,1,1.1,0.7,1.8C111.5,40.6,111,40.9,110.5,40.9z"/>
	<path display="inline" fill="#40B4E5" d="M77.2,56.7c-0.2,0-0.4,0-0.6-0.1c-0.7-0.3-1-1.1-0.7-1.8l0,0c0.3-0.7,1.1-1,1.8-0.7
		c0.7,0.3,1,1.1,0.7,1.8C78.2,56.4,77.7,56.7,77.2,56.7z"/>
	<path display="inline" fill="#40B4E5" d="M69.9,48.2c-0.2,0-0.4,0-0.6-0.1c-0.7-0.3-1-1.1-0.7-1.8l0,0c0.3-0.7,1.1-1,1.8-0.7
		c0.7,0.3,1,1.1,0.7,1.8C70.9,47.9,70.4,48.2,69.9,48.2z"/>
	<path display="inline" fill="#40B4E5" d="M82,36.6c-0.2,0-0.4,0-0.6-0.1c-0.7-0.3-1-1.1-0.7-1.8l0,0c0.3-0.7,1.1-1,1.8-0.7
		c0.7,0.3,1,1.1,0.7,1.8C83.1,36.3,82.5,36.6,82,36.6z"/>
	<path display="inline" fill="#40B4E5" d="M92.8,33.5c-0.2,0-0.4,0-0.6-0.1c-0.7-0.3-1-1.1-0.7-1.8l0,0c0.3-0.7,1.1-1,1.8-0.7
		c0.7,0.3,1,1.1,0.7,1.8C93.8,33.2,93.3,33.5,92.8,33.5z"/>
	<path display="inline" fill="#40B4E5" d="M65.5,42.5c-0.2,0-0.4,0-0.6-0.1c-0.7-0.3-1-1.1-0.7-1.8l0,0c0.3-0.7,1.1-1,1.8-0.7
		c0.7,0.3,1,1.1,0.7,1.8C66.5,42.2,66,42.5,65.5,42.5z"/>
	<g id="Winter_Leaf" display="inline">
	</g>
	<g id="Maple_Leaf_2" display="inline">
		<g id="Leaf_3">
		</g>
	</g>
</g>
<g id="Discrepencies" display="none">
	<rect x="37.1" y="101.7" display="inline" fill="#FFFFFF" width="99" height="99"/>
</g>
<g id="LABELS" display="none">
</g>
<g id="NUMBERS" display="none">
</g>
</svg>
