<?xml version="1.0" encoding="utf-8"?>
<!-- Generator: Adobe Illustrator 17.1.0, SVG Export Plug-In . SVG Version: 6.00 Build 0)  -->
<!DOCTYPE svg PUBLIC "-//W3C//DTD SVG 1.1//EN" "http://www.w3.org/Graphics/SVG/1.1/DTD/svg11.dtd">
<svg version="1.1" id="Layer_1" xmlns="http://www.w3.org/2000/svg" xmlns:xlink="http://www.w3.org/1999/xlink" x="0px" y="0px"
	 viewBox="0 0 120 120" enable-background="new 0 0 120 120" xml:space="preserve">
<g id="TWC" display="none">
	<g id="YUtieH.tif" display="inline">
		
			<image overflow="visible" enable-background="new    " width="88" height="84" id="Layer_0_14_" xlink:href="A041D023B8A75D44.png"  transform="matrix(1 0 0 1 -17.998 8.062)">
		</image>
	</g>
	<g id="nO0GcS.tif" display="inline">
		
			<image overflow="visible" enable-background="new    " width="88" height="70" id="Layer_0_15_" xlink:href="A041D023B8A75D45.png"  transform="matrix(1 0 0 1 102.002 15.062)">
		</image>
	</g>
</g>
<g id="ios">
	<g>
		<path fill="#FFFFFF" d="M88.8,74.5c-0.2,0-0.4,0-0.5,0c-0.1,0-0.1,0-0.2,0C88.3,74.5,88.6,74.5,88.8,74.5z"/>
		<path fill="#FFFFFF" d="M11.3,62.2L11.3,62.2c0,0,2.5,1.9,6.5,3.6c-1.2-1.7-2-3.7-2-6c0-5.6,4.6-10.2,10.2-10.2h5.1l0-3
			c0-12.5,10.2-22.7,22.8-22.7c9.4,0,17.7,5.7,21.1,14.4l1.3,3.2l3-1.7c2.4-1.3,5-2,7.7-2c8.8,0,15.9,7.1,15.9,15.9
			c0,0.4,0,0.8,0,1.1c2.1,0.7,4.1,1.4,5.8,2.2c0.2-1.1,0.3-2.2,0.3-3.3c0-12.1-9.8-21.9-21.9-21.9c-2.6,0-5.3,0.5-7.7,1.4
			C74.4,23.8,64.8,17.9,54,17.9c-14.8,0-27.1,11.3-28.6,25.7C16.8,44,9.9,51.1,9.9,59.8c0,0.5,0,1,0.1,1.5
			C10.4,61.5,10.9,61.8,11.3,62.2z"/>
	</g>
	<path fill="#FFFFFF" d="M29.5,80.1c-15.1,0-25.3-8.2-25.7-8.6c-1.3-1.1-1.5-2.9-0.4-4.2c1.1-1.3,2.9-1.5,4.2-0.4l0,0
		C7.7,67,18.2,75.3,32.9,74c7.9-0.7,17.3-4.3,26.4-7.8c9.3-3.5,18-6.8,25.6-7.5c15.7-1.5,28.9,7.9,29.5,8.3c1.3,1,1.7,2.8,0.7,4.2
		c-1,1.3-2.8,1.6-4.2,0.7c-0.1-0.1-12-8.5-25.4-7.2c-6.8,0.6-15.2,3.8-24,7.2c-9.5,3.6-19.3,7.3-28,8.1
		C32.1,80.1,30.8,80.1,29.5,80.1z"/>
	<path fill="#FFFFFF" d="M29.5,96.1c-15.1,0-25.3-8.2-25.7-8.6c-1.3-1.1-1.5-2.9-0.4-4.2c1.1-1.3,2.9-1.5,4.2-0.4l0,0
		C7.7,83,18.2,91.3,32.9,90c7.9-0.7,17.3-4.3,26.4-7.8c9.3-3.5,18-6.8,25.6-7.5c15.7-1.5,28.9,7.9,29.5,8.3c1.3,1,1.7,2.8,0.7,4.2
		c-1,1.3-2.8,1.6-4.2,0.7c-0.1-0.1-12-8.5-25.4-7.2c-6.8,0.6-15.2,3.8-24,7.2c-9.5,3.6-19.3,7.3-28,8.1
		C32.1,96.1,30.8,96.1,29.5,96.1z"/>
</g>
<g id="Jenn_x5F_new_set" display="none">
	<g display="inline">
		<g>
			<path fill="#FFFFFF" d="M-1.2,40.4c-13,0-8.3-23,7.5-17C6.6,7.2,26.2,2.9,32.8,17.5c4.7-4.7,14.2-1.7,14.3,6.1
				c14.2-5.4,19,16.6,5.9,16.7C37.5,40.5,10.4,40.4-1.2,40.4z"/>
			<path fill="#ADD9F2" d="M50.3,36.4c2.1-0.1,4.3-2.5,2.4-5.6c-1.9-3-6.1-2.5-9.4-0.4c0,0,0.3-5.2-2.1-7.6
				c-1.6-1.6-6.5-2.8-11.5,3.2l0,0c0,0-3.7-19.7-20.1-10.9c-5.5,2.9,5.1-6,10.5-6.5c2.8-0.3,6.2,1.3,6.2,1.3l6.4,7.7l4.6-2.5
				l4.1,1.4l4.1,2.7l1.5,4.5l4.9-0.8l4.9,1l3.3,4v3.7L59.3,37l-4.1,3.2l-58.6,0.5l-4-4.2"/>
			<path fill="none" stroke="#40B4E5" stroke-width="2.7482" d="M-1.2,40.4c-13,0-8.3-23,7.5-17C6.6,7.2,26.2,2.9,32.8,17.5
				c4.7-4.7,14.2-1.7,14.3,6.1c14.2-5.4,19,16.6,5.9,16.7C37.5,40.5,10.4,40.4-1.2,40.4z"/>
		</g>
	</g>
	<path display="inline" fill="#40B4E5" d="M10.3,50.8L9,50.1l1-0.3c0.3-0.1,0.5-0.4,0.4-0.7c-0.1-0.3-0.4-0.5-0.7-0.4l-1.9,0.5
		c-0.1,0-0.1,0-0.2,0l-1.3-0.8c0-0.2,0.1-0.3,0.1-0.5c0-0.2,0-0.3-0.1-0.5l1.3-0.8c0,0,0,0,0,0c0.1,0,0.1,0,0.2,0l1.9,0.5
		c0,0,0.1,0,0.1,0c0.2,0,0.5-0.2,0.5-0.4c0.1-0.3-0.1-0.6-0.4-0.7l-1-0.3l1.3-0.7c0.3-0.2,0.4-0.5,0.2-0.7c-0.1-0.3-0.5-0.4-0.7-0.2
		L8.5,45l0.3-1c0.1-0.3-0.1-0.6-0.4-0.7c-0.3-0.1-0.6,0.1-0.7,0.4l-0.5,1.9c-0.1,0-0.1,0.1-0.1,0.1l-1.3,0.8
		c-0.2-0.2-0.5-0.4-0.8-0.4v-1.6C5,44.5,5,44.4,5,44.4L6.4,43c0.2-0.2,0.2-0.6,0-0.8s-0.6-0.2-0.8,0l-0.7,0.7v-1.5
		c0-0.3-0.2-0.5-0.5-0.5s-0.5,0.2-0.5,0.5v1.5l-0.7-0.7c-0.2-0.2-0.6-0.2-0.8,0c-0.2,0.2-0.2,0.6,0,0.8l1.4,1.4c0,0.1,0,0.1,0.1,0.2
		v1.6c-0.3,0.1-0.6,0.3-0.8,0.5l-1.3-0.8c0-0.1-0.1-0.1-0.1-0.1L1,43.8c-0.1-0.3-0.4-0.5-0.7-0.4C0.1,43.4-0.1,43.7,0,44l0.3,1
		L-1,44.3c-0.3-0.2-0.6-0.1-0.7,0.2c-0.1,0.3-0.1,0.6,0.2,0.7l1.3,0.7l-1,0.3c-0.3,0.1-0.5,0.4-0.4,0.7c0.1,0.2,0.3,0.4,0.5,0.4
		c0,0,0.1,0,0.1,0l1.9-0.5c0.1,0,0.1,0,0.2,0c0,0,0,0,0,0l1.3,0.8c0,0.1-0.1,0.3-0.1,0.4c0,0.2,0,0.3,0.1,0.4l-1.3,0.8
		c-0.1,0-0.1,0-0.2,0L-1,48.7c-0.3-0.1-0.6,0.1-0.7,0.4c-0.1,0.3,0.1,0.6,0.4,0.7l1,0.3l-1.3,0.7c-0.3,0.2-0.4,0.5-0.2,0.7
		c0.1,0.2,0.3,0.3,0.5,0.3c0.1,0,0.2,0,0.3-0.1L0.3,51L0,52c-0.1,0.3,0.1,0.6,0.4,0.7c0,0,0.1,0,0.1,0c0.2,0,0.5-0.2,0.5-0.4
		l0.5-1.9c0.1,0,0.1-0.1,0.1-0.2L3,49.4c0.2,0.2,0.5,0.4,0.8,0.5v1.5c0,0.1-0.1,0.1-0.1,0.2l-1.4,1.4c-0.2,0.2-0.2,0.6,0,0.8
		c0.1,0.1,0.2,0.2,0.4,0.2c0.1,0,0.3-0.1,0.4-0.2L3.8,53v1.5c0,0.3,0.2,0.5,0.5,0.5s0.5-0.2,0.5-0.5V53l0.7,0.7
		c0.1,0.1,0.2,0.2,0.4,0.2c0.1,0,0.3-0.1,0.4-0.2c0.2-0.2,0.2-0.6,0-0.8L5,51.5c0-0.1,0-0.1-0.1-0.2v-1.5c0.3-0.1,0.5-0.2,0.8-0.4
		L7,50.2c0,0.1,0.1,0.1,0.1,0.2l0.5,1.9c0.1,0.2,0.3,0.4,0.5,0.4c0,0,0.1,0,0.1,0c0.3-0.1,0.5-0.4,0.4-0.7l-0.3-1l1.3,0.7
		c0.1,0,0.2,0.1,0.3,0.1c0.2,0,0.4-0.1,0.5-0.3C10.6,51.3,10.5,51,10.3,50.8z M4.4,48.8c-0.5,0-0.8-0.4-0.8-0.8
		c0-0.5,0.4-0.8,0.8-0.8s0.8,0.4,0.8,0.8S4.8,48.8,4.4,48.8z"/>
	<path display="inline" fill="#40B4E5" d="M50.2,51.9l-1-1.1l1,0c0.3,0,0.6-0.2,0.6-0.5c0-0.3-0.2-0.6-0.5-0.6l-2-0.1
		c0,0-0.1-0.1-0.2-0.1l-1-1.1c0.1-0.1,0.2-0.3,0.2-0.4c0.1-0.2,0.1-0.3,0.1-0.5l1.5-0.3c0,0,0,0,0,0c0.1,0,0.1,0,0.2,0l1.7,1.1
		c0,0,0.1,0,0.1,0.1c0.2,0.1,0.5,0,0.6-0.2c0.2-0.2,0.1-0.6-0.2-0.8l-0.9-0.6l1.4-0.3c0.3-0.1,0.5-0.4,0.4-0.6
		c-0.1-0.3-0.3-0.5-0.6-0.4l-1.4,0.3l0.6-0.9c0.2-0.3,0.1-0.6-0.2-0.8c-0.3-0.2-0.6-0.1-0.8,0.2L48.9,46c-0.1,0-0.1,0.1-0.2,0.1
		l-1.5,0.3c-0.1-0.3-0.4-0.5-0.6-0.7l0.5-1.5c0,0,0.1-0.1,0.1-0.2l1.8-0.9c0.3-0.1,0.4-0.5,0.2-0.7c-0.1-0.3-0.5-0.4-0.7-0.2
		l-0.9,0.5l0.5-1.4c0.1-0.3-0.1-0.6-0.3-0.7c-0.3-0.1-0.6,0.1-0.7,0.3l-0.5,1.4l-0.5-0.9c-0.1-0.3-0.5-0.4-0.7-0.2
		c-0.3,0.1-0.4,0.5-0.2,0.7l0.9,1.8c0,0.1,0,0.1,0,0.2l-0.5,1.5c-0.3,0-0.6,0.1-0.9,0.2l-1-1.2c0-0.1,0-0.1-0.1-0.2l0.1-2
		c0-0.3-0.2-0.6-0.5-0.6c-0.3,0-0.6,0.2-0.6,0.5l-0.1,1l-1-1.1c-0.2-0.2-0.5-0.2-0.8,0c-0.2,0.2-0.2,0.5,0,0.8l1,1.1l-1,0
		c-0.3,0-0.6,0.2-0.6,0.5c0,0.2,0.1,0.5,0.4,0.5c0,0,0.1,0,0.1,0l2,0.1c0.1,0,0.1,0.1,0.2,0.1c0,0,0,0,0,0l1,1.2
		c-0.1,0.1-0.1,0.2-0.2,0.4c0,0.1-0.1,0.3-0.1,0.4l-1.5,0.3c-0.1,0-0.1,0-0.2,0l-1.7-1.1c-0.2-0.2-0.6-0.1-0.8,0.2
		c-0.2,0.3-0.1,0.6,0.2,0.8l0.9,0.6L39,48.2c-0.3,0.1-0.5,0.4-0.4,0.6c0,0.2,0.2,0.3,0.4,0.4c0.1,0,0.2,0,0.3,0l1.4-0.3l-0.6,0.9
		c-0.2,0.3-0.1,0.6,0.2,0.8c0,0,0.1,0,0.1,0.1c0.2,0.1,0.5,0,0.6-0.2l1.1-1.7c0.1,0,0.1-0.1,0.2-0.1l1.5-0.3
		c0.1,0.3,0.4,0.5,0.6,0.7L44,50.4c0,0-0.1,0.1-0.1,0.2L42,51.4c-0.3,0.1-0.4,0.5-0.2,0.7c0.1,0.1,0.2,0.2,0.3,0.3
		c0.1,0,0.3,0,0.4,0l0.9-0.5L43,53.3c-0.1,0.3,0.1,0.6,0.3,0.7c0.3,0.1,0.6-0.1,0.7-0.3l0.5-1.4l0.5,0.9c0.1,0.1,0.2,0.2,0.3,0.3
		c0.1,0,0.3,0,0.4,0c0.3-0.1,0.4-0.5,0.2-0.7L45,50.9c0-0.1,0-0.1,0-0.2l0.5-1.4c0.3,0,0.6,0,0.9-0.2l1,1.1c0,0.1,0,0.1,0.1,0.2
		l-0.1,2c0,0.3,0.1,0.5,0.4,0.6c0,0,0.1,0,0.1,0c0.3,0,0.6-0.2,0.6-0.5l0.1-1l1,1.1c0.1,0.1,0.1,0.1,0.2,0.2c0.2,0.1,0.4,0,0.5-0.1
		C50.4,52.4,50.4,52.1,50.2,51.9z M45.3,48.2c-0.4-0.1-0.7-0.6-0.5-1.1c0.1-0.4,0.6-0.7,1.1-0.5c0.4,0.1,0.7,0.6,0.5,1.1
		C46.2,48.1,45.7,48.3,45.3,48.2z"/>
	<path display="inline" fill="#40B4E5" d="M28.3,66.9l-1.4-0.4l0.9-0.5c0.3-0.2,0.3-0.5,0.2-0.8c-0.2-0.3-0.5-0.3-0.7-0.2l-1.7,1.1
		c-0.1,0-0.1,0-0.2,0l-1.5-0.4c0-0.2,0-0.3-0.1-0.5c0-0.2-0.1-0.3-0.2-0.4l1.1-1.1c0,0,0,0,0,0c0.1,0,0.1-0.1,0.2-0.1l2,0
		c0.1,0,0.1,0,0.1,0c0.2-0.1,0.4-0.3,0.4-0.5c0-0.3-0.2-0.5-0.5-0.5l-1,0l1-1.1c0.2-0.2,0.2-0.6,0-0.8c-0.2-0.2-0.6-0.2-0.8,0
		l-1,1.1l0-1c0-0.3-0.3-0.5-0.6-0.5c-0.3,0-0.5,0.3-0.5,0.6l0.1,2c0,0.1-0.1,0.1-0.1,0.2l-1.1,1.1c-0.3-0.1-0.6-0.2-0.9-0.2
		l-0.4-1.5c0-0.1,0-0.1,0-0.2l1-1.7c0.1-0.3,0.1-0.6-0.2-0.7c-0.3-0.1-0.6-0.1-0.7,0.2L21,60.8l-0.4-1.4c-0.1-0.3-0.4-0.5-0.7-0.4
		c-0.3,0.1-0.5,0.4-0.4,0.7l0.4,1.4l-0.9-0.5c-0.3-0.1-0.6,0-0.7,0.2c-0.1,0.3,0,0.6,0.2,0.7l1.8,1c0,0.1,0.1,0.1,0.1,0.2l0.4,1.5
		c-0.3,0.2-0.5,0.4-0.7,0.7l-1.5-0.4c0,0-0.1-0.1-0.2-0.1l-1-1.7c-0.2-0.3-0.5-0.3-0.7-0.2c-0.3,0.2-0.3,0.5-0.2,0.7l0.5,0.9
		l-1.4-0.4c-0.3-0.1-0.6,0.1-0.7,0.4s0.1,0.6,0.4,0.7l1.4,0.4L16,65.7c-0.3,0.2-0.3,0.5-0.2,0.7c0.1,0.2,0.4,0.3,0.6,0.2
		c0,0,0.1,0,0.1-0.1l1.7-1c0.1,0,0.1,0,0.2,0c0,0,0,0,0,0L20,66c0,0.1,0,0.3,0.1,0.4c0,0.1,0.1,0.3,0.2,0.4l-1.1,1.1
		c-0.1,0-0.1,0-0.2,0.1l-2,0c-0.3,0-0.5,0.2-0.5,0.5c0,0.3,0.2,0.5,0.5,0.5l1,0l-1,1.1c-0.2,0.2-0.2,0.6,0,0.8
		c0.1,0.1,0.4,0.2,0.5,0.1c0.1,0,0.2-0.1,0.2-0.1l1-1.1l0,1c0,0.3,0.3,0.5,0.6,0.5c0,0,0.1,0,0.1,0c0.2-0.1,0.4-0.3,0.4-0.5l-0.1-2
		c0-0.1,0.1-0.1,0.1-0.2l1.1-1.1c0.3,0.1,0.6,0.2,0.9,0.2l0.4,1.4c0,0.1,0,0.1,0,0.2l-1,1.7c-0.1,0.3-0.1,0.6,0.2,0.7
		c0.1,0.1,0.3,0.1,0.4,0.1c0.1,0,0.2-0.1,0.3-0.3l0.5-0.9l0.4,1.4c0.1,0.3,0.4,0.5,0.7,0.4c0.3-0.1,0.5-0.4,0.4-0.7l-0.4-1.4
		l0.9,0.5c0.1,0.1,0.3,0.1,0.4,0c0.1,0,0.3-0.1,0.3-0.3c0.1-0.3,0-0.6-0.2-0.7l-1.8-1c0-0.1-0.1-0.1-0.1-0.2L23,67.5
		c0.3-0.2,0.5-0.4,0.6-0.6l1.5,0.4c0.1,0.1,0.1,0.1,0.2,0.1l1,1.7c0.1,0.2,0.4,0.3,0.6,0.2c0,0,0.1,0,0.1-0.1
		c0.3-0.2,0.3-0.5,0.2-0.7l-0.5-0.9l1.4,0.4c0.1,0,0.2,0,0.3,0c0.2-0.1,0.3-0.2,0.4-0.4C28.8,67.3,28.6,67,28.3,66.9z M22.2,66.7
		c-0.5,0.1-0.9-0.1-1.1-0.6c-0.1-0.5,0.1-0.9,0.6-1.1c0.4-0.1,0.9,0.1,1.1,0.6C22.9,66.1,22.6,66.5,22.2,66.7z"/>
	<path display="inline" fill="#40B4E5" d="M28.8,49.6L28,49.2l0.6-0.2c0.2,0,0.3-0.2,0.2-0.4c0-0.2-0.2-0.3-0.4-0.2l-1.1,0.3
		c0,0-0.1,0-0.1,0l-0.7-0.4c0-0.1,0-0.2,0-0.3c0-0.1,0-0.2,0-0.3l0.8-0.4c0,0,0,0,0,0c0,0,0.1,0,0.1,0l1.1,0.3c0,0,0.1,0,0.1,0
		c0.1,0,0.3-0.1,0.3-0.2c0-0.2-0.1-0.3-0.2-0.4L28,46.8l0.7-0.4c0.1-0.1,0.2-0.3,0.1-0.4c-0.1-0.1-0.3-0.2-0.4-0.1l-0.7,0.4l0.1-0.6
		c0-0.2-0.1-0.3-0.2-0.4c-0.2,0-0.3,0.1-0.4,0.2L27,46.7c0,0-0.1,0.1-0.1,0.1l-0.8,0.4c-0.1-0.1-0.3-0.2-0.4-0.3V46c0,0,0-0.1,0-0.1
		l0.8-0.8c0.1-0.1,0.1-0.3,0-0.4c-0.1-0.1-0.3-0.1-0.4,0l-0.4,0.4v-0.8c0-0.2-0.1-0.3-0.3-0.3c-0.2,0-0.3,0.1-0.3,0.3v0.8l-0.4-0.4
		c-0.1-0.1-0.3-0.1-0.4,0c-0.1,0.1-0.1,0.3,0,0.4l0.8,0.8c0,0,0,0.1,0,0.1v0.9c-0.2,0.1-0.3,0.1-0.5,0.3l-0.8-0.4c0,0,0-0.1-0.1-0.1
		l-0.3-1.1c0-0.2-0.2-0.3-0.4-0.2c-0.2,0-0.3,0.2-0.2,0.4l0.1,0.6l-0.7-0.4c-0.1-0.1-0.3,0-0.4,0.1c-0.1,0.1,0,0.3,0.1,0.4l0.7,0.4
		L22.2,47c-0.2,0-0.3,0.2-0.2,0.4c0,0.1,0.2,0.2,0.3,0.2c0,0,0.1,0,0.1,0l1.1-0.3c0,0,0.1,0,0.1,0c0,0,0,0,0,0l0.8,0.4
		c0,0.1,0,0.2,0,0.2c0,0.1,0,0.2,0,0.3l-0.8,0.4c0,0-0.1,0-0.1,0l-1.1-0.3c-0.2,0-0.3,0-0.4,0.2c0,0.2,0,0.3,0.2,0.4l0.6,0.2
		l-0.7,0.4c-0.1,0.1-0.2,0.3-0.1,0.4c0.1,0.1,0.2,0.2,0.3,0.2c0.1,0,0.1,0,0.2,0l0.7-0.4l-0.1,0.6c0,0.2,0.1,0.3,0.2,0.4
		c0,0,0.1,0,0.1,0c0.1,0,0.3-0.1,0.3-0.2l0.3-1.1c0,0,0.1-0.1,0.1-0.1l0.7-0.4c0.1,0.1,0.3,0.2,0.5,0.3v0.8c0,0,0,0.1,0,0.1
		l-0.8,0.8c-0.1,0.1-0.1,0.3,0,0.4c0.1,0.1,0.1,0.1,0.2,0.1c0.1,0,0.2,0,0.2-0.1l0.4-0.4v0.8c0,0.2,0.1,0.3,0.3,0.3
		c0.2,0,0.3-0.1,0.3-0.3v-0.8l0.4,0.4c0.1,0.1,0.1,0.1,0.2,0.1c0.1,0,0.2,0,0.2-0.1c0.1-0.1,0.1-0.3,0-0.4L25.8,50c0,0,0-0.1,0-0.1
		V49c0.2,0,0.3-0.1,0.4-0.2l0.8,0.4c0,0,0,0.1,0.1,0.1l0.3,1.1c0,0.1,0.2,0.2,0.3,0.2c0,0,0.1,0,0.1,0c0.2,0,0.3-0.2,0.2-0.4
		l-0.1-0.6l0.7,0.4c0,0,0.1,0,0.2,0c0.1,0,0.2-0.1,0.3-0.2C28.9,49.8,28.9,49.7,28.8,49.6z M25.4,48.5c-0.3,0-0.5-0.2-0.5-0.5
		c0-0.3,0.2-0.5,0.5-0.5c0.3,0,0.5,0.2,0.5,0.5S25.7,48.5,25.4,48.5z"/>
	<path display="inline" fill="#40B4E5" d="M2.7,69.9l-0.4-0.8l0.6,0.2c0.2,0.1,0.3,0,0.4-0.2c0.1-0.2,0-0.3-0.2-0.4L2,68.4
		c0,0,0-0.1-0.1-0.1l-0.4-0.8c0.1-0.1,0.1-0.1,0.2-0.2c0.1-0.1,0.1-0.2,0.1-0.2l0.9,0.1c0,0,0,0,0,0c0,0,0.1,0,0.1,0l0.7,0.9
		c0,0,0,0,0.1,0.1c0.1,0.1,0.3,0.1,0.4,0c0.1-0.1,0.1-0.3,0-0.4l-0.4-0.4l0.8,0.1c0.2,0,0.3-0.1,0.3-0.3c0-0.2-0.1-0.3-0.3-0.3
		l-0.8-0.1l0.4-0.4c0.1-0.1,0.1-0.3,0-0.4c-0.1-0.1-0.3-0.1-0.4,0l-0.9,0.7c0,0-0.1,0-0.1,0l-0.9-0.1c0-0.2-0.1-0.3-0.2-0.5l0.5-0.7
		c0,0,0.1,0,0.1-0.1L3.4,65c0.2,0,0.3-0.2,0.2-0.4c0-0.2-0.2-0.3-0.4-0.2l-0.6,0.1l0.5-0.7c0.1-0.1,0.1-0.3-0.1-0.4
		c-0.1-0.1-0.3-0.1-0.4,0.1l-0.5,0.7l-0.1-0.6c0-0.2-0.2-0.3-0.4-0.2s-0.3,0.2-0.2,0.4l0.2,1.1c0,0,0,0.1,0,0.1l-0.5,0.7
		c-0.2-0.1-0.4-0.1-0.5,0l-0.4-0.8c0,0,0-0.1,0-0.1l0.4-1.1c0.1-0.2,0-0.3-0.2-0.4c-0.2-0.1-0.3,0-0.4,0.2L-0.1,64l-0.4-0.8
		c-0.1-0.2-0.3-0.2-0.4-0.1c-0.2,0.1-0.2,0.3-0.1,0.4l0.4,0.8l-0.6-0.2c-0.2-0.1-0.3,0-0.4,0.2c0,0.1,0,0.3,0.1,0.4c0,0,0,0,0.1,0
		l1.1,0.4c0,0,0,0.1,0.1,0.1c0,0,0,0,0,0l0.4,0.8C0,66,0,66-0.1,66.1c0,0.1-0.1,0.1-0.1,0.2l-0.9-0.1c0,0-0.1,0-0.1,0l-0.7-0.9
		c-0.1-0.1-0.3-0.1-0.4,0c-0.1,0.1-0.1,0.3,0,0.4l0.4,0.4l-0.8-0.1c-0.2,0-0.3,0.1-0.3,0.3c0,0.1,0,0.2,0.1,0.3c0,0,0.1,0,0.2,0.1
		l0.8,0.1l-0.4,0.4c-0.1,0.1-0.1,0.3,0,0.4c0,0,0,0,0.1,0.1c0.1,0.1,0.3,0.1,0.4,0l0.9-0.7c0,0,0.1,0,0.1,0l0.9,0.1
		c0,0.2,0.1,0.3,0.2,0.5l-0.5,0.7c0,0-0.1,0-0.1,0.1l-1.1,0.2c-0.2,0-0.3,0.2-0.2,0.4c0,0.1,0.1,0.2,0.1,0.2c0.1,0,0.1,0.1,0.2,0
		l0.6-0.1l-0.5,0.7c-0.1,0.1-0.1,0.3,0.1,0.4c0.1,0.1,0.3,0.1,0.4-0.1l0.5-0.7l0.1,0.6c0,0.1,0.1,0.2,0.1,0.2c0.1,0,0.2,0.1,0.2,0
		c0.2,0,0.3-0.2,0.2-0.4L0,68.6c0,0,0-0.1,0-0.1l0.5-0.7c0.2,0.1,0.3,0.1,0.5,0l0.4,0.8c0,0,0,0.1,0,0.1L1,69.8
		c-0.1,0.1,0,0.3,0.1,0.4c0,0,0,0,0.1,0c0.2,0.1,0.3,0,0.4-0.2l0.2-0.5l0.4,0.8c0,0.1,0.1,0.1,0.1,0.1c0.1,0.1,0.2,0.1,0.3,0
		C2.7,70.3,2.8,70.1,2.7,69.9z M0.6,67.1c-0.2-0.2-0.3-0.5-0.1-0.7c0.1-0.2,0.5-0.3,0.7-0.1c0.2,0.1,0.3,0.4,0.1,0.7
		C1.1,67.2,0.8,67.3,0.6,67.1z"/>
	<path display="inline" fill="#40B4E5" d="M43.3,66l-0.7-0.4l0.6-0.2c0.2,0,0.3-0.2,0.2-0.4c0-0.2-0.2-0.3-0.4-0.2l-1.1,0.3
		c0,0-0.1,0-0.1,0L41,64.7c0-0.1,0-0.2,0-0.3c0-0.1,0-0.2,0-0.3l0.8-0.4c0,0,0,0,0,0c0,0,0.1,0,0.1,0L43,64c0,0,0.1,0,0.1,0
		c0.1,0,0.3-0.1,0.3-0.2c0-0.2-0.1-0.3-0.2-0.4l-0.6-0.2l0.7-0.4c0.1-0.1,0.2-0.3,0.1-0.4c-0.1-0.1-0.3-0.2-0.4-0.1l-0.7,0.4
		l0.1-0.6c0-0.2-0.1-0.3-0.2-0.4c-0.2,0-0.3,0.1-0.4,0.2l-0.3,1.1c0,0-0.1,0.1-0.1,0.1l-0.8,0.4c-0.1-0.1-0.3-0.2-0.4-0.3v-0.9
		c0,0,0-0.1,0-0.1l0.8-0.8c0.1-0.1,0.1-0.3,0-0.4c-0.1-0.1-0.3-0.1-0.4,0l-0.4,0.4v-0.8c0-0.2-0.1-0.3-0.3-0.3
		c-0.2,0-0.3,0.1-0.3,0.3v0.8l-0.4-0.4c-0.1-0.1-0.3-0.1-0.4,0c-0.1,0.1-0.1,0.3,0,0.4l0.8,0.8c0,0,0,0.1,0,0.1v0.9
		c-0.2,0.1-0.3,0.1-0.5,0.3l-0.8-0.4c0,0,0-0.1-0.1-0.1L38.1,62c0-0.2-0.2-0.3-0.4-0.2c-0.2,0-0.3,0.2-0.2,0.4l0.1,0.6l-0.7-0.4
		c-0.1-0.1-0.3,0-0.4,0.1c-0.1,0.1,0,0.3,0.1,0.4l0.7,0.4l-0.6,0.2c-0.2,0-0.3,0.2-0.2,0.4c0,0.1,0.2,0.2,0.3,0.2c0,0,0.1,0,0.1,0
		l1.1-0.3c0,0,0.1,0,0.1,0c0,0,0,0,0,0l0.8,0.4c0,0.1,0,0.2,0,0.2c0,0.1,0,0.2,0,0.3l-0.8,0.4c0,0-0.1,0-0.1,0L37,64.8
		c-0.2,0-0.3,0.1-0.4,0.2c0,0.2,0,0.3,0.2,0.4l0.6,0.2L36.6,66c-0.1,0.1-0.2,0.3-0.1,0.4c0.1,0.1,0.2,0.2,0.3,0.2c0.1,0,0.1,0,0.2,0
		l0.7-0.4l-0.1,0.6c0,0.2,0.1,0.3,0.2,0.4c0,0,0.1,0,0.1,0c0.1,0,0.3-0.1,0.3-0.2l0.3-1.1c0,0,0.1-0.1,0.1-0.1l0.7-0.4
		c0.1,0.1,0.3,0.2,0.5,0.3v0.8c0,0,0,0.1,0,0.1l-0.8,0.8c-0.1,0.1-0.1,0.3,0,0.4c0.1,0.1,0.1,0.1,0.2,0.1c0.1,0,0.2,0,0.2-0.1
		l0.4-0.4v0.8c0,0.2,0.1,0.3,0.3,0.3c0.2,0,0.3-0.1,0.3-0.3v-0.8l0.4,0.4c0.1,0.1,0.1,0.1,0.2,0.1c0.1,0,0.2,0,0.2-0.1
		c0.1-0.1,0.1-0.3,0-0.4l-0.8-0.8c0,0,0-0.1,0-0.1v-0.8c0.2,0,0.3-0.1,0.4-0.2l0.8,0.4c0,0,0,0.1,0.1,0.1l0.3,1.1
		c0,0.1,0.2,0.2,0.3,0.2c0,0,0.1,0,0.1,0c0.2,0,0.3-0.2,0.2-0.4l-0.1-0.6l0.7,0.4c0,0,0.1,0,0.2,0c0.1,0,0.2-0.1,0.3-0.2
		C43.5,66.3,43.5,66.1,43.3,66z M40,64.9c-0.3,0-0.5-0.2-0.5-0.5c0-0.3,0.2-0.5,0.5-0.5s0.5,0.2,0.5,0.5
		C40.5,64.7,40.3,64.9,40,64.9z"/>
	<path display="inline" fill="#40B4E5" d="M50.4,72.1c-0.2,0-0.4,0-0.6-0.1c-0.7-0.3-1-1.1-0.7-1.8l0,0c0.3-0.7,1.1-1,1.8-0.7
		c0.7,0.3,1,1.1,0.7,1.8C51.4,71.8,50.9,72.1,50.4,72.1z"/>
	<path display="inline" fill="#40B4E5" d="M28.9,57.7c-0.2,0-0.4,0-0.6-0.1c-0.7-0.3-1-1.1-0.7-1.8l0,0c0.3-0.7,1.1-1,1.8-0.7
		c0.7,0.3,1,1.1,0.7,1.8C30,57.4,29.4,57.7,28.9,57.7z"/>
	<path display="inline" fill="#40B4E5" d="M11.5,64.1c-0.2,0-0.4,0-0.6-0.1c-0.7-0.3-1-1.1-0.7-1.8l0,0c0.3-0.7,1.1-1,1.8-0.7
		c0.7,0.3,1,1.1,0.7,1.8C12.6,63.8,12.1,64.1,11.5,64.1z"/>
	<path display="inline" fill="#40B4E5" d="M32.7,65.5c-0.2,0-0.4,0-0.6-0.1c-0.7-0.3-1-1.1-0.7-1.8l0,0c0.3-0.7,1.1-1,1.8-0.7
		c0.7,0.3,1,1.1,0.7,1.8C33.7,65.2,33.2,65.5,32.7,65.5z"/>
	<path display="inline" fill="#40B4E5" d="M-0.9,59.6c-0.2,0-0.4,0-0.6-0.1c-0.7-0.3-1-1.1-0.7-1.8l0,0c0.3-0.7,1.1-1,1.8-0.7
		c0.7,0.3,1,1.1,0.7,1.8C0.1,59.3-0.4,59.6-0.9,59.6z"/>
	<path display="inline" fill="#40B4E5" d="M17.1,47.6c-0.2,0-0.4,0-0.6-0.1c-0.7-0.3-1-1.1-0.7-1.8l0,0c0.3-0.7,1.1-1,1.8-0.7
		c0.7,0.3,1,1.1,0.7,1.8C18.1,47.3,17.6,47.6,17.1,47.6z"/>
	<path display="inline" fill="#40B4E5" d="M34,47.6c-0.2,0-0.4,0-0.6-0.1c-0.7-0.3-1-1.1-0.7-1.8l0,0c0.3-0.7,1.1-1,1.8-0.7
		c0.7,0.3,1,1.1,0.7,1.8C35.1,47.3,34.6,47.6,34,47.6z"/>
	<path display="inline" fill="#40B4E5" d="M15.7,56.4c-0.2,0-0.4,0-0.6-0.1c-0.7-0.3-1-1.1-0.7-1.8l0,0c0.3-0.7,1.1-1,1.8-0.7
		c0.7,0.3,1,1.1,0.7,1.8C16.7,56.1,16.2,56.4,15.7,56.4z"/>
	<path display="inline" fill="#40B4E5" d="M11.2,57.7c-0.2,0-0.4,0-0.6-0.1c-0.7-0.3-1-1.1-0.7-1.8l0,0c0.3-0.7,1.1-1,1.8-0.7
		c0.7,0.3,1,1.1,0.7,1.8C12.2,57.4,11.7,57.7,11.2,57.7z"/>
	<path display="inline" fill="#40B4E5" d="M46.9,65.5c-0.2,0-0.4,0-0.6-0.1c-0.7-0.3-1-1.1-0.7-1.8l0,0c0.3-0.7,1.1-1,1.8-0.7
		c0.7,0.3,1,1.1,0.7,1.8C47.9,65.2,47.4,65.5,46.9,65.5z"/>
	<path display="inline" fill="#40B4E5" d="M36.5,58c-0.2,0-0.4,0-0.6-0.1c-0.7-0.3-1-1.1-0.7-1.8l0,0c0.3-0.7,1.1-1,1.8-0.7
		c0.7,0.3,1,1.1,0.7,1.8C37.5,57.7,37,58,36.5,58z"/>
	<path display="inline" fill="#40B4E5" d="M9.8,75.1c-0.2,0-0.4,0-0.6-0.1c-0.7-0.3-1-1.1-0.7-1.8l0,0c0.3-0.7,1.1-1,1.8-0.7
		c0.7,0.3,1,1.1,0.7,1.8C10.8,74.8,10.3,75.1,9.8,75.1z"/>
	<path display="inline" fill="#40B4E5" d="M-0.9,75.1c-0.2,0-0.4,0-0.6-0.1c-0.7-0.3-1-1.1-0.7-1.8l0,0c0.3-0.7,1.1-1,1.8-0.7
		c0.7,0.3,1,1.1,0.7,1.8C0.1,74.8-0.4,75.1-0.9,75.1z"/>
	<path display="inline" fill="#40B4E5" d="M35,76.6L34.5,76l0.6,0.1c0.2,0,0.3-0.1,0.4-0.3c0-0.2-0.1-0.3-0.3-0.4l-1.1-0.2
		c0,0-0.1,0-0.1-0.1l-0.5-0.7c0.1-0.1,0.1-0.1,0.2-0.2c0-0.1,0.1-0.2,0.1-0.3l0.9-0.1c0,0,0,0,0,0c0,0,0.1,0,0.1,0l0.9,0.7
		c0,0,0,0,0.1,0c0.1,0.1,0.3,0,0.4-0.1c0.1-0.1,0.1-0.3,0-0.4l-0.4-0.4l0.8-0.1c0.2,0,0.3-0.2,0.3-0.3c0-0.2-0.2-0.3-0.3-0.3
		l-0.8,0.1l0.4-0.5c0.1-0.1,0.1-0.3,0-0.4c-0.1-0.1-0.3-0.1-0.4,0l-0.7,0.9c0,0-0.1,0-0.1,0l-0.9,0.1c-0.1-0.2-0.2-0.3-0.3-0.4
		l0.4-0.8c0,0,0.1,0,0.1-0.1l1.1-0.4c0.2-0.1,0.2-0.2,0.2-0.4c-0.1-0.2-0.2-0.2-0.4-0.2l-0.5,0.2l0.4-0.8c0.1-0.2,0-0.3-0.2-0.4
		c-0.2-0.1-0.3,0-0.4,0.1l-0.4,0.8l-0.2-0.5c-0.1-0.2-0.2-0.2-0.4-0.2c-0.2,0.1-0.2,0.2-0.2,0.4l0.4,1.1c0,0,0,0.1,0,0.1l-0.4,0.8
		c-0.2,0-0.4,0-0.5,0L31.8,72c0,0,0-0.1,0-0.1l0.2-1.1c0-0.2-0.1-0.3-0.2-0.4c-0.2,0-0.3,0.1-0.4,0.2l-0.1,0.6l-0.5-0.7
		c-0.1-0.1-0.3-0.2-0.4-0.1c-0.1,0.1-0.2,0.3-0.1,0.4l0.5,0.7l-0.6-0.1c-0.2,0-0.3,0.1-0.4,0.3c0,0.1,0.1,0.3,0.2,0.3
		c0,0,0.1,0,0.1,0l1.1,0.2c0,0,0.1,0.1,0.1,0.1c0,0,0,0,0,0l0.5,0.7c0,0.1-0.1,0.1-0.1,0.2c0,0.1-0.1,0.2-0.1,0.2l-0.9,0.1
		c0,0-0.1,0-0.1,0l-0.9-0.7c-0.1-0.1-0.3-0.1-0.4,0s-0.1,0.3,0,0.4l0.4,0.4L29,73.8c-0.2,0-0.3,0.2-0.3,0.3c0,0.1,0.1,0.2,0.2,0.3
		c0,0,0.1,0,0.2,0l0.8-0.1l-0.4,0.5c-0.1,0.1-0.1,0.3,0,0.4c0,0,0,0,0.1,0c0.1,0.1,0.3,0,0.4-0.1l0.7-0.9c0,0,0.1,0,0.1-0.1l0.9-0.1
		c0.1,0.2,0.2,0.3,0.3,0.4l-0.4,0.8c0,0-0.1,0-0.1,0.1l-1.1,0.4c-0.2,0.1-0.2,0.2-0.2,0.4c0,0.1,0.1,0.1,0.2,0.2c0.1,0,0.2,0,0.2,0
		l0.6-0.2L30.8,77c-0.1,0.2,0,0.3,0.1,0.4c0.2,0.1,0.3,0,0.4-0.2l0.4-0.8l0.2,0.5c0,0.1,0.1,0.1,0.2,0.2c0.1,0,0.2,0,0.2,0
		c0.2-0.1,0.2-0.2,0.2-0.4l-0.4-1.1c0,0,0-0.1,0-0.1l0.4-0.8c0.2,0,0.3,0,0.5,0l0.5,0.7c0,0,0,0.1,0,0.1l-0.2,1.1
		c0,0.1,0,0.3,0.2,0.3c0,0,0,0,0.1,0c0.2,0,0.3-0.1,0.4-0.2l0.1-0.6l0.5,0.7c0,0,0.1,0.1,0.1,0.1c0.1,0,0.2,0,0.3,0
		C35.1,77,35.1,76.8,35,76.6z M32.5,74.2c-0.2-0.1-0.3-0.4-0.2-0.6c0.1-0.2,0.4-0.3,0.6-0.2c0.2,0.1,0.3,0.4,0.2,0.6
		C33,74.2,32.7,74.3,32.5,74.2z"/>
	<path display="inline" fill="#40B4E5" d="M40,73.8c-0.2,0-0.4,0-0.6-0.1c-0.7-0.3-1-1.1-0.7-1.8l0,0c0.3-0.7,1.1-1,1.8-0.7
		c0.7,0.3,1,1.1,0.7,1.8C41,73.5,40.5,73.8,40,73.8z"/>
	<path display="inline" fill="#40B4E5" d="M50.4,60.8c-0.2,0-0.4,0-0.6-0.1c-0.7-0.3-1-1.1-0.7-1.8l0,0c0.3-0.7,1.1-1,1.8-0.7
		c0.7,0.3,1,1.1,0.7,1.8C51.4,60.5,50.9,60.8,50.4,60.8z"/>
	<path display="inline" fill="#40B4E5" d="M17.1,76.5c-0.2,0-0.4,0-0.6-0.1c-0.7-0.3-1-1.1-0.7-1.8l0,0c0.3-0.7,1.1-1,1.8-0.7
		c0.7,0.3,1,1.1,0.7,1.8C18.1,76.2,17.6,76.5,17.1,76.5z"/>
	<path display="inline" fill="#40B4E5" d="M9.8,68.1c-0.2,0-0.4,0-0.6-0.1c-0.7-0.3-1-1.1-0.7-1.8l0,0c0.3-0.7,1.1-1,1.8-0.7
		c0.7,0.3,1,1.1,0.7,1.8C10.8,67.8,10.3,68.1,9.8,68.1z"/>
	<path display="inline" fill="#40B4E5" d="M21.9,56.5c-0.2,0-0.4,0-0.6-0.1c-0.7-0.3-1-1.1-0.7-1.8l0,0c0.3-0.7,1.1-1,1.8-0.7
		c0.7,0.3,1,1.1,0.7,1.8C22.9,56.2,22.4,56.5,21.9,56.5z"/>
	<path display="inline" fill="#40B4E5" d="M32.7,53.3c-0.2,0-0.4,0-0.6-0.1c-0.7-0.3-1-1.1-0.7-1.8l0,0c0.3-0.7,1.1-1,1.8-0.7
		c0.7,0.3,1,1.1,0.7,1.8C33.7,53,33.2,53.3,32.7,53.3z"/>
	<path display="inline" fill="#40B4E5" d="M5.3,62.4c-0.2,0-0.4,0-0.6-0.1c-0.7-0.3-1-1.1-0.7-1.8l0,0c0.3-0.7,1.1-1,1.8-0.7
		c0.7,0.3,1,1.1,0.7,1.8C6.4,62.1,5.9,62.4,5.3,62.4z"/>
	<path display="inline" fill="#40B4E5" d="M115.6,55.1c-0.2,0-0.4,0-0.6-0.1c-0.7-0.3-1-1.1-0.7-1.8l0,0c0.3-0.7,1.1-1,1.8-0.7
		c0.7,0.3,1,1.1,0.7,1.8C116.6,54.8,116.1,55.1,115.6,55.1z"/>
	<g id="Winter_Leaf" display="inline">
	</g>
	<g id="Maple_Leaf_2" display="inline">
		<g id="Leaf_3">
		</g>
	</g>
</g>
<g id="Discrepencies" display="none">
	<g display="inline">
		<line fill="none" stroke="#DA1F26" stroke-width="4" stroke-linecap="round" x1="119.7" y1="23.7" x2="172.4" y2="76.4"/>
		<line fill="none" stroke="#DA1F26" stroke-width="4" stroke-linecap="round" x1="172.4" y1="23.7" x2="119.7" y2="76.4"/>
	</g>
	<rect x="97.4" y="0.1" display="inline" fill="#FFFFFF" width="100" height="100"/>
	<rect x="-24" y="0.1" display="inline" fill="#FFFFFF" width="99.5" height="99.5"/>
</g>
<g id="LABELS" display="none">
</g>
<g id="NUMBERS" display="none">
</g>
</svg>
