<?xml version="1.0" encoding="utf-8"?>
<!-- Generator: Adobe Illustrator 17.1.0, SVG Export Plug-In . SVG Version: 6.00 Build 0)  -->
<!DOCTYPE svg PUBLIC "-//W3C//DTD SVG 1.1//EN" "http://www.w3.org/Graphics/SVG/1.1/DTD/svg11.dtd">
<svg version="1.1" id="Layer_1" xmlns="http://www.w3.org/2000/svg" xmlns:xlink="http://www.w3.org/1999/xlink" x="0px" y="0px"
	 viewBox="0 0 121 120" enable-background="new 0 0 121 120" xml:space="preserve">
<g id="TWC" display="none">
</g>
<g id="ios">
	<path fill="#FFFFFF" d="M113.6,62.4h-10.9c-1.9,0-3.5-1.6-3.5-3.5s1.6-3.5,3.5-3.5h10.9c1.9,0,3.5,1.6,3.5,3.5
		S115.5,62.4,113.6,62.4z"/>
	<path fill="#FFFFFF" d="M27.7,62.4H16.8c-1.9,0-3.5-1.6-3.5-3.5s1.6-3.5,3.5-3.5h10.9c1.9,0,3.5,1.6,3.5,3.5S29.6,62.4,27.7,62.4z"
		/>
	<path fill="#FFFFFF" d="M65.2,110.8c-1.9,0-3.5-1.6-3.5-3.5V96.4c0-1.9,1.6-3.5,3.5-3.5s3.5,1.6,3.5,3.5v10.9
		C68.7,109.3,67.1,110.8,65.2,110.8z"/>
	<path fill="#FFFFFF" d="M65.2,25c-1.9,0-3.5-1.6-3.5-3.5V10.5c0-1.9,1.6-3.5,3.5-3.5s3.5,1.6,3.5,3.5v10.9
		C68.7,23.4,67.1,25,65.2,25z"/>
	<path fill="#FFFFFF" d="M99.4,96.7c-0.9,0-1.8-0.3-2.5-1l-7.7-7.7c-1.4-1.4-1.4-3.6,0-4.9c1.4-1.4,3.6-1.4,4.9,0l7.7,7.7
		c1.4,1.4,1.4,3.6,0,4.9C101.2,96.3,100.3,96.7,99.4,96.7z"/>
	<path fill="#FFFFFF" d="M38.7,35.9c-0.9,0-1.8-0.3-2.5-1l-7.7-7.7c-1.4-1.4-1.4-3.6,0-4.9c1.4-1.4,3.6-1.4,4.9,0l7.7,7.7
		c1.4,1.4,1.4,3.6,0,4.9C40.5,35.6,39.6,35.9,38.7,35.9z"/>
	<path fill="#FFFFFF" d="M91.7,35.9c-0.9,0-1.8-0.3-2.5-1c-1.4-1.4-1.4-3.6,0-4.9l7.7-7.7c1.4-1.4,3.6-1.4,4.9,0
		c1.4,1.4,1.4,3.6,0,4.9l-7.7,7.7C93.5,35.6,92.6,35.9,91.7,35.9z"/>
	<path fill="#FFFFFF" d="M65.2,32.4c-14.6,0-26.6,11.9-26.6,26.6c0,1.2,0.1,2.3,0.2,3.5c2.7,0.3,5.2,1,7.6,2.1
		c-0.5-1.8-0.8-3.6-0.8-5.6c0-10.8,8.8-19.6,19.6-19.6s19.6,8.8,19.6,19.6c0,10.8-8.8,19.6-19.6,19.6c-2,0-4-0.3-5.8-0.9
		c1,2.4,1.7,4.9,2,7.6c1.2,0.2,2.5,0.3,3.8,0.3c14.6,0,26.6-11.9,26.6-26.6C91.8,44.3,79.8,32.4,65.2,32.4z"/>
	<g>
		<path fill="#FFFFFF" d="M36.4,106.5H19c-7.6,0-13.8-6.2-13.8-13.8S11.4,78.9,19,78.9h0.5c3.2-6,9.5-9.7,16.4-9.7
			c10.3,0,18.7,8.4,18.7,18.7c0,8.9-6.4,16.6-15.1,18.3C38.4,106.4,37.4,106.5,36.4,106.5z M19,84.9c-4.3,0-7.8,3.5-7.8,7.8
			s3.5,7.8,7.8,7.8h17.4c0.6,0,1.1-0.1,1.7-0.2l0.1,0c6-1.1,10.3-6.3,10.3-12.4c0-7-5.7-12.7-12.7-12.7c-5.2,0-9.7,3.1-11.7,7.9
			l-0.8,1.9L19,84.9L19,84.9z"/>
	</g>
</g>
<g id="Jenn_x5F_new_set" display="none">
	<circle display="inline" fill="#999999" cx="37.3" cy="16.6" r="7.2"/>
	<circle display="inline" fill="#999999" cx="46" cy="18.6" r="4.5"/>
	<circle display="inline" fill="#999999" cx="51.2" cy="15.1" r="3.7"/>
	<circle display="inline" fill="#999999" cx="58" cy="14.9" r="5.8"/>
	<circle display="inline" fill="#999999" cx="64.2" cy="20.4" r="4.7"/>
	<circle display="inline" fill="#999999" cx="69.3" cy="16.3" r="3.5"/>
	<circle display="inline" fill="#999999" cx="77.5" cy="17.8" r="6.3"/>
	<circle display="inline" fill="#999999" cx="85.2" cy="20.1" r="4"/>
	<circle display="inline" fill="#999999" cx="90.5" cy="22.1" r="3.3"/>
	<circle display="inline" fill="#999999" cx="96" cy="19.9" r="3.5"/>
	<circle display="inline" fill="#999999" cx="101.5" cy="20.1" r="3.3"/>
	<circle display="inline" fill="#999999" cx="30.2" cy="20.8" r="4.2"/>
	<circle display="inline" fill="#999999" cx="20" cy="24.3" r="3.5"/>
	<circle display="inline" fill="#999999" cx="25" cy="22.8" r="3.3"/>
	<circle display="inline" fill="#999999" cx="105.3" cy="24.3" r="3.5"/>
	<circle display="inline" fill="#999999" cx="30.3" cy="55.3" r="3.8"/>
	<circle display="inline" fill="#999999" cx="36.3" cy="54.3" r="4.8"/>
	<circle display="inline" fill="#999999" cx="43" cy="56.6" r="3.5"/>
	<circle display="inline" fill="#999999" cx="46.5" cy="52.8" r="3.3"/>
	<circle display="inline" fill="#999999" cx="50.7" cy="51.6" r="3.5"/>
	<circle display="inline" fill="#999999" cx="55.2" cy="55.4" r="3"/>
	<circle display="inline" fill="#999999" cx="60.2" cy="53.4" r="5.3"/>
	<circle display="inline" fill="#999999" cx="66.8" cy="54.4" r="3"/>
	<circle display="inline" fill="#999999" cx="75.2" cy="55" r="4.2"/>
	<circle display="inline" fill="#999999" cx="80.8" cy="52.8" r="3.7"/>
	<circle display="inline" fill="#999999" cx="90.5" cy="53.4" r="3.7"/>
	<circle display="inline" fill="#999999" cx="94.7" cy="57.6" r="4.2"/>
	<circle display="inline" fill="#999999" cx="101.2" cy="56.8" r="3"/>
	<circle display="inline" fill="#999999" cx="105.2" cy="58.8" r="2.7"/>
	<circle display="inline" fill="#999999" cx="56" cy="48.3" r="4.5"/>
	<circle display="inline" fill="#999999" cx="63" cy="48.3" r="3.8"/>
	<circle display="inline" fill="#999999" cx="68.8" cy="51.4" r="4.2"/>
	<circle display="inline" fill="#999999" cx="86.5" cy="51.1" r="3.5"/>
	<circle display="inline" fill="#999999" cx="26" cy="59.1" r="4"/>
	<circle display="inline" fill="#999999" cx="113.5" cy="56.8" r="4.7"/>
	<circle display="inline" fill="#999999" cx="108.8" cy="57.4" r="3.3"/>
	<circle display="inline" fill="#999999" cx="120.3" cy="58.9" r="4.2"/>
	<circle display="inline" fill="#999999" cx="23" cy="84.3" r="4.9"/>
	<circle display="inline" fill="#999999" cx="35.4" cy="79.1" r="4.9"/>
	<circle display="inline" fill="#999999" cx="43" cy="81" r="4.6"/>
	<circle display="inline" fill="#999999" cx="54.8" cy="81.5" r="3.1"/>
	<circle display="inline" fill="#999999" cx="74.5" cy="76.4" r="2.6"/>
	<circle display="inline" fill="#999999" cx="60.2" cy="80.8" r="3.1"/>
	<circle display="inline" fill="#999999" cx="70.6" cy="77.7" r="3.1"/>
	<circle display="inline" fill="#999999" cx="86.5" cy="81.3" r="2.6"/>
	<circle display="inline" fill="#999999" cx="104.2" cy="81" r="2.2"/>
	<circle display="inline" fill="#999999" cx="80.8" cy="77.7" r="4.9"/>
	<circle display="inline" fill="#999999" cx="92.5" cy="77.7" r="2.9"/>
	<circle display="inline" fill="#999999" cx="88.2" cy="79.4" r="3.7"/>
	<circle display="inline" fill="#999999" cx="100.2" cy="81" r="3.1"/>
	<circle display="inline" fill="#999999" cx="49.8" cy="79.9" r="3.5"/>
	<circle display="inline" fill="#999999" cx="29.3" cy="82.1" r="4.9"/>
	<circle display="inline" fill="#999999" cx="64.7" cy="79.1" r="3.7"/>
	<circle display="inline" fill="#999999" cx="75.5" cy="79.9" r="3.1"/>
	<circle display="inline" fill="#999999" cx="96" cy="81" r="3.1"/>
	<circle display="inline" fill="#999999" cx="106.6" cy="84.1" r="3.3"/>
	<circle display="inline" fill="#999999" cx="110.3" cy="86.1" r="3.1"/>
	<rect x="20" y="24.3" display="inline" fill="#999999" width="85.3" height="3.5"/>
	<rect x="26.2" y="57.6" display="inline" fill="#999999" width="94.1" height="5.5"/>
	<rect x="23" y="84.3" display="inline" fill="#999999" width="87.3" height="4.9"/>
	<polygon display="inline" fill="#999999" points="20,24.3 37.3,16.6 46.5,17.8 58,14.9 64.2,20.4 69.3,16.3 77.5,16.4 90.5,22.1 
		96,19.9 101.5,18.8 105.3,24.3 104.8,26.1 21.1,26 	"/>
	<polygon display="inline" fill="#999999" points="26.8,59.8 30.3,55.3 36.3,54.3 43,56.6 55.2,48.8 65.8,49.3 72.7,52.4 77,55.3 
		85,51.1 89.5,51.8 94.2,56.4 101.2,56.8 113.8,59.1 115,61.2 	"/>
	<polygon display="inline" fill="#999999" points="23,84.3 33.2,79.1 41.5,80.3 49.3,79.1 56.5,81.7 68.5,78.2 78.8,77.2 88.9,79.4 
		94.2,78.4 100.4,81.5 105.2,83 106.2,86.1 25.5,86.1 	"/>
	<g id="Winter_Leaf" display="inline">
	</g>
	<g id="Maple_Leaf_2" display="inline">
		<g id="Leaf_3">
		</g>
	</g>
</g>
<g id="Discrepencies" display="none">
</g>
<g id="LABELS" display="none">
</g>
<g id="NUMBERS" display="none">
</g>
</svg>
