<?xml version="1.0" encoding="utf-8"?>
<!-- Generator: Adobe Illustrator 17.1.0, SVG Export Plug-In . SVG Version: 6.00 Build 0)  -->
<!DOCTYPE svg PUBLIC "-//W3C//DTD SVG 1.1//EN" "http://www.w3.org/Graphics/SVG/1.1/DTD/svg11.dtd">
<svg version="1.1" id="Layer_1" xmlns="http://www.w3.org/2000/svg" xmlns:xlink="http://www.w3.org/1999/xlink" x="0px" y="0px"
	 viewBox="0 0 120 120" enable-background="new 0 0 120 120" xml:space="preserve">
<g id="TWC" display="none">
	<g id="EcJLQN.tif" display="inline">
		
			<image overflow="visible" enable-background="new    " width="88" height="68" id="Layer_0_18_" xlink:href="66DA3A265DC0D86.png"  transform="matrix(1 0 0 0.9853 2.0322 -3.6787)">
		</image>
	</g>
	<g id="zjFmwj.tif" display="inline">
		
			<image overflow="visible" enable-background="new    " width="98" height="98" id="Layer_0_19_" xlink:href="66DA3A265DC0D8A.png"  transform="matrix(1 0 0 0.9898 117.0322 -18.6787)">
		</image>
	</g>
	<g id="SWS2Ji.tif" display="inline">
		
			<image overflow="visible" enable-background="new    " width="88" height="68" id="Layer_0_23_" xlink:href="66DA3A265DC0D8D.png"  transform="matrix(1 0 0 0.9853 2.0322 113.5303)">
		</image>
	</g>
</g>
<g id="ios">
	<g>
		<path fill="#FFFFFF" d="M88.6,46.8c-0.4-0.5-0.8-0.8-1.4-1C87.7,46.1,88.2,46.4,88.6,46.8z"/>
		<path fill="#FFFFFF" d="M68.4,30c0.8,0,1.5-0.3,2.1-0.9l6.3-6.3c1.2-1.2,1.2-3.1,0-4.2s-3.1-1.2-4.2,0l-6.3,6.3
			c-1.2,1.2-1.2,3.1,0,4.2C66.9,29.8,67.7,30,68.4,30z"/>
		<path fill="#FFFFFF" d="M46.9,21.1c1.7,0,3-1.3,3-3V9.2c0-1.7-1.3-3-3-3s-3,1.3-3,3v8.9C43.9,19.8,45.2,21.1,46.9,21.1z"/>
		<path fill="#FFFFFF" d="M7.5,51.6h8.9c1.7,0,3-1.3,3-3s-1.3-3-3-3H7.5c-1.7,0-3,1.3-3,3S5.9,51.6,7.5,51.6z"/>
		<path fill="#FFFFFF" d="M23.2,29.2c0.6,0.6,1.4,0.9,2.1,0.9s1.5-0.3,2.1-0.9c1.2-1.2,1.2-3.1,0-4.2l-6.3-6.3
			c-1.2-1.2-3.1-1.2-4.2,0c-1.2,1.2-1.2,3.1,0,4.2L23.2,29.2z"/>
		<path fill="#FFFFFF" d="M26.6,56.5c1.7-1,3.6-1.8,5.5-2.4c-0.6-1.7-1-3.6-1-5.5c0-8.7,7.1-15.8,15.8-15.8c6.3,0,11.8,3.8,14.3,9.2
			c1.9-0.6,3.9-1,6-1.3C64,32.6,56.1,26.8,46.9,26.8c-12,0-21.8,9.8-21.8,21.8C25.1,51.4,25.7,54.1,26.6,56.5z"/>
	</g>
	<path fill="#FFFFFF" d="M68.9,70.1c-2.1,0-4.2,0.4-6.1,1c-4.2-7.7-12.3-12.5-21.2-12.5c-12.4,0-22.6,9.3-24.1,21.3
		c-7.2,0.5-12.8,6.5-12.8,13.8c0,7.7,6.2,13.9,13.9,13.9h50.9c2.3,0,4.6-0.6,6.6-1.7c7-2.9,11.6-9.6,11.6-17.2
		C87.5,78.4,79.1,70.1,68.9,70.1z M73.5,100.4l-0.4,0.2c-1.2,0.7-2.5,1-3.8,1H18.4c-4.3,0-7.9-3.5-7.9-7.9c0-4.3,3.5-7.9,7.9-7.9
		h4.8l0-3c0-10.1,8.2-18.2,18.3-18.2c7.5,0,14.2,4.5,17,11.6l1.3,3.2l3-1.7c1.9-1,4-1.6,6.1-1.6c7,0,12.6,5.7,12.6,12.6
		C81.5,93.9,78.4,98.5,73.5,100.4z M116.3,76.7c0,7.6-4.5,14.3-11.6,17.2c-2,1.1-4.3,1.7-6.6,1.7h-5.6c0.6-1.9,0.9-3.9,0.9-6h4.7
		c1.3,0,2.7-0.3,3.8-1l0.4-0.2c4.8-1.9,8-6.5,8-11.7c0-7-5.7-12.6-12.6-12.6c-2.1,0-4.3,0.6-6.1,1.6l-3,1.7l-1.3-3.2
		c-2.8-7-9.4-11.6-17-11.6c-4.8,0-9.1,1.9-12.4,4.9c-1.8-1.1-3.7-2.1-5.6-2.8c4.4-4.9,10.9-8,18-8c9,0,17,4.8,21.2,12.5
		c2-0.7,4-1,6.1-1C107.9,58.1,116.3,66.4,116.3,76.7z"/>
</g>
<g id="Jenn_x5F_new_set" display="none">
	<g display="inline">
		<g>
			<path fill="#999999" d="M56.5,58.5c-0.2,0-0.4,0-0.6-0.1c-0.7-0.3-1-1.2-0.6-1.8l4.4-9c0.3-0.7,1.2-1,1.8-0.6
				c0.7,0.3,1,1.2,0.6,1.8l-4.4,9C57.5,58.2,57,58.5,56.5,58.5z"/>
		</g>
		<g>
			<path fill="#999999" d="M45.3,58.5c-0.2,0-0.4,0-0.6-0.1c-0.7-0.3-1-1.2-0.6-1.8l4.4-9c0.3-0.7,1.2-1,1.8-0.6
				c0.7,0.3,1,1.2,0.6,1.8l-4.4,9C46.3,58.2,45.9,58.5,45.3,58.5z M52.3,44.1c-0.2,0-0.4,0-0.6-0.1c-0.7-0.3-1-1.2-0.6-1.8l4.4-9
				c0.3-0.7,1.2-1,1.8-0.6c0.7,0.3,1,1.2,0.6,1.8l-4.4,9C53.3,43.8,52.8,44.1,52.3,44.1z"/>
		</g>
		<g>
			<path fill="#999999" d="M34.2,58.5c-0.2,0-0.4,0-0.6-0.1c-0.7-0.3-1-1.2-0.6-1.8l4.4-9c0.3-0.7,1.2-1,1.8-0.6s1,1.2,0.6,1.8
				l-4.4,9C35.2,58.2,34.7,58.5,34.2,58.5z M41.2,44.1c-0.2,0-0.4,0-0.6-0.1c-0.7-0.3-1-1.2-0.6-1.8l4.4-9c0.3-0.7,1.2-1,1.8-0.6
				c0.7,0.3,1,1.2,0.6,1.8l-4.4,9C42.2,43.8,41.7,44.1,41.2,44.1z M48.1,29.7c-0.2,0-0.4,0-0.6-0.1c-0.7-0.3-1-1.2-0.6-1.8l4-8.2
				c0.3-0.7,1.2-1,1.8-0.6s1,1.2,0.6,1.8l-4,8.2C49.1,29.4,48.6,29.7,48.1,29.7z"/>
		</g>
		<g>
			<path fill="#999999" d="M23.1,58.5c-0.2,0-0.4,0-0.6-0.1c-0.7-0.3-1-1.2-0.6-1.8l4.4-9c0.3-0.7,1.1-1,1.8-0.6s1,1.2,0.6,1.8
				l-4.4,9C24.1,58.2,23.6,58.5,23.1,58.5z M30,44.1c-0.2,0-0.4,0-0.6-0.1c-0.7-0.3-1-1.2-0.6-1.8l4.4-9c0.3-0.7,1.2-1,1.8-0.6
				c0.7,0.3,1,1.2,0.6,1.8l-4.4,9C31,43.8,30.5,44.1,30,44.1z M37,29.7c-0.2,0-0.4,0-0.6-0.1c-0.7-0.3-1-1.2-0.6-1.8l4-8.2
				c0.3-0.7,1.2-1,1.8-0.6c0.7,0.3,1,1.2,0.6,1.8l-4,8.2C38,29.4,37.5,29.7,37,29.7z"/>
		</g>
		<g>
			<path fill="#999999" d="M11.9,58.5c-0.2,0-0.4,0-0.6-0.1c-0.7-0.3-1-1.2-0.6-1.8l4.4-9c0.3-0.7,1.2-1,1.8-0.6
				c0.7,0.3,1,1.2,0.6,1.8l-4.4,9C12.9,58.2,12.4,58.5,11.9,58.5z M18.9,44.1c-0.2,0-0.4,0-0.6-0.1c-0.7-0.3-1-1.2-0.6-1.8l4.4-9
				c0.3-0.7,1.2-1,1.8-0.6c0.7,0.3,1,1.2,0.6,1.8l-4.4,9C19.9,43.8,19.4,44.1,18.9,44.1z M25.9,29.7c-0.2,0-0.4,0-0.6-0.1
				c-0.7-0.3-1-1.2-0.6-1.8l4-8.2c0.3-0.7,1.2-1,1.8-0.6c0.7,0.3,1,1.2,0.6,1.8l-4,8.2C26.9,29.4,26.4,29.7,25.9,29.7z"/>
		</g>
	</g>
	<g display="inline">
		<g>
			<path fill="#FFFFFF" d="M18.9,20.1c-13,0-8.3-23,7.5-17c0.2-16.2,19.8-20.5,26.4-5.9C57.5-7.5,67-4.4,67.1,3.4
				C81.3-2,86.1,19.9,73,20.1C57.6,20.2,30.5,20.1,18.9,20.1z"/>
			<path fill="#CCCCCC" d="M70.3,16.2c2.1-0.1,4.3-2.5,2.4-5.6c-1.9-3-6.1-2.5-9.4-0.4c0,0,0.3-5.2-2.1-7.6
				c-1.6-1.6-6.5-2.8-11.5,3.2l0,0c0,0-3.7-19.7-20.1-10.9c-5.5,2.9,5.1-6,10.5-6.5c2.8-0.3,6.2,1.3,6.2,1.3l6.4,7.7l4.6-2.5
				l4.1,1.4l4.1,2.7l1.5,4.5L72,2.6l4.9,1l3.3,4v3.7l-0.9,5.5L75.2,20l-58.6,0.5l-4-4.2"/>
			<path fill="none" stroke="#999999" stroke-width="2.7482" d="M18.9,20.1c-13,0-8.3-23,7.5-17c0.2-16.2,19.8-20.5,26.4-5.9
				C57.5-7.5,67-4.4,67.1,3.4C81.3-2,86.1,19.9,73,20.1C57.6,20.2,30.5,20.1,18.9,20.1z"/>
		</g>
	</g>
	<g display="inline">
		<path fill="#999999" d="M75.5,21.1c-1.3,0-1.4,6.5-1.4,6.5s0.2-5.3-1.9-6.2L75.5,21.1z"/>
		<path fill="#999999" d="M54.9,21.5c2.9,0,4.2,13.9,4.2,13.9s1-10.8,3.1-10.8c2.1,0,3.2,25.4,3.2,25.4s0.2-19.2,2.1-19.2
			c1.9,0,2,2.3,2,2.3s0.4-11.6,2.6-11.7L54.9,21.5z"/>
	</g>
	<g display="inline">
		<path fill="#CCCCCC" d="M67.4,123.9c-0.6,0-1.2,0.2-1.7,0.5c-0.4-1.2-1.5-2.1-2.8-2.1c-0.1,0-0.1,0-0.2,0c0-0.1,0-0.2,0-0.3
			c0-3-2.5-5.4-5.5-5.4c-2.7,0-4.9,1.8-5.4,4.3c-0.4-0.2-0.8-0.3-1.2-0.3c-1.6,0-2.9,1.2-3,2.7c-0.4-0.2-0.7-0.2-1.1-0.2
			c-0.4,0-0.8,0.1-1.2,0.3c-0.2-2-1.9-3.6-4.1-3.6c-1.3,0-2.5,0.6-3.2,1.6c-0.7-0.6-1.7-1-2.7-1c-0.8,0-1.5,0.2-2.1,0.6
			c0-0.2,0-0.3,0-0.5c0-3.4-2.9-6.2-6.4-6.2c-1.5,0-2.9,0.5-4,1.4c-0.8-0.9-1.9-1.4-3.2-1.4c-2.3,0-4.2,1.9-4.2,4.2
			c0,0.1,0,0.2,0,0.2c-0.6-0.3-1.3-0.5-2-0.5c-2.3,0-4.2,1.9-4.2,4.2c0,0.2,0,0.4,0.1,0.7c-0.4-0.2-0.8-0.2-1.2-0.2
			c-1.8,0-3.3,1.5-3.3,3.5s1.5,3.5,3.3,3.5c0,0,0,0,0.1,0h59.2c0,0,0.1,0,0.1,0c1.6,0,3-1.3,3-2.9C70.4,125.2,69.1,123.9,67.4,123.9
			z"/>
		<path opacity="0.5" fill="#FFFFFF" enable-background="new    " d="M66.4,125.8c-0.3,0-0.6,0.1-0.8,0.2l-1.8,1.1l-0.7-1.9
			c-0.2-0.5-0.7-0.8-1.2-0.8c-0.1,0-0.1,0-0.1,0l-1.8,0.1l0.1-1.6l0-0.1c0,0,0-0.1,0-0.1c0-1.9-1.7-3.4-3.9-3.4
			c-1.8,0-3.4,1.1-3.8,2.7l-0.4,1.7l-1.8-0.7c-0.2-0.1-0.4-0.1-0.6-0.1c-0.7,0-1.3,0.5-1.3,1.1l-0.1,2.1l-2.1-0.8
			c-0.2-0.1-0.3-0.1-0.5-0.1c-0.2,0-0.3,0-0.5,0.1l-2,0.8l-0.2-2c-0.1-1.1-1.2-2-2.5-2c-0.8,0-1.5,0.3-2,0.9l-1.1,1.2l-1.3-1
			c-0.3-0.3-0.9-0.6-1.6-0.6c-0.5,0-0.9,0.1-1.3,0.3l-2.7,1.5l0.2-2.8l0,0c0-0.1,0-0.2,0-0.3c0-2.3-2.1-4.2-4.7-4.2
			c-1.1,0-2.2,0.3-3,1l-1.2,0.9l-1-1c-0.5-0.5-1.2-0.8-2-0.8c-1.4,0-2.6,1-2.6,2.3c0,0.1,0,0.1,0,0.2l0.2,2.5l-2.5-1.2
			c-0.4-0.2-0.8-0.3-1.2-0.3c-1.4,0-2.6,1-2.6,2.3c0,0.1,0,0.2,0,0.4l0.5,2.6l-2.7-1c-0.2-0.1-0.4-0.1-0.6-0.1
			c-0.9,0-1.6,0.8-1.6,1.7c0,0.9,0.7,1.7,1.6,1.7c0,0,0.1,0,0.1,0h0h0h59.2h0h0c0,0,0.1,0,0.1,0c0.7,0,1.3-0.6,1.3-1.2
			C67.7,126.3,67.1,125.8,66.4,125.8z"/>
		<path fill="none" stroke="#999999" stroke-width="1.4624" d="M67.4,123.9c-0.6,0-1.2,0.2-1.7,0.5c-0.4-1.2-1.5-2.1-2.8-2.1
			c-0.1,0-0.1,0-0.2,0c0-0.1,0-0.2,0-0.3c0-3-2.5-5.4-5.5-5.4c-2.7,0-4.9,1.8-5.4,4.3c-0.4-0.2-0.8-0.3-1.2-0.3
			c-1.6,0-2.9,1.2-3,2.7c-0.4-0.2-0.7-0.2-1.1-0.2c-0.4,0-0.8,0.1-1.2,0.3c-0.2-2-1.9-3.6-4.1-3.6c-1.3,0-2.5,0.6-3.2,1.6
			c-0.7-0.6-1.7-1-2.7-1c-0.8,0-1.5,0.2-2.1,0.6c0-0.2,0-0.3,0-0.5c0-3.4-2.9-6.2-6.4-6.2c-1.5,0-2.9,0.5-4,1.4
			c-0.8-0.9-1.9-1.4-3.2-1.4c-2.3,0-4.2,1.9-4.2,4.2c0,0.1,0,0.2,0,0.2c-0.6-0.3-1.3-0.5-2-0.5c-2.3,0-4.2,1.9-4.2,4.2
			c0,0.2,0,0.4,0.1,0.7c-0.4-0.2-0.8-0.2-1.2-0.2c-1.8,0-3.3,1.5-3.3,3.5s1.5,3.5,3.3,3.5c0,0,0,0,0.1,0h59.2c0,0,0.1,0,0.1,0
			c1.6,0,3-1.3,3-2.9C70.4,125.2,69.1,123.9,67.4,123.9z"/>
	</g>
	<g id="Winter_Leaf" display="inline">
	</g>
	<g id="Maple_Leaf_2" display="inline">
		<g id="Leaf_3">
		</g>
	</g>
</g>
<g id="Discrepencies" display="none">
	<rect x="117" y="-18.7" display="inline" fill="#FFFFFF" width="98" height="98"/>
	<rect x="-1.7" y="99.8" display="inline" fill="#FFFFFF" width="98.5" height="98.5"/>
	<rect x="-2.4" y="-20.2" display="inline" fill="#FFFFFF" width="101.4" height="101.4"/>
</g>
<g id="LABELS" display="none">
</g>
<g id="NUMBERS" display="none">
</g>
</svg>
