<?xml version="1.0" encoding="utf-8"?>
<!-- Generator: Adobe Illustrator 17.1.0, SVG Export Plug-In . SVG Version: 6.00 Build 0)  -->
<!DOCTYPE svg PUBLIC "-//W3C//DTD SVG 1.1//EN" "http://www.w3.org/Graphics/SVG/1.1/DTD/svg11.dtd">
<svg version="1.1" id="Layer_1" xmlns="http://www.w3.org/2000/svg" xmlns:xlink="http://www.w3.org/1999/xlink" x="0px" y="0px"
	 viewBox="0 0 120 120" enable-background="new 0 0 120 120" xml:space="preserve">
<g id="TWC" display="none">
	<g id="_x34_bpTf7.tif" display="inline">
		
			<image overflow="visible" enable-background="new    " width="100" height="101" id="Layer_0_28_" xlink:href="ADA359CFB35235F2.png"  transform="matrix(1 0 0 0.9901 -4.2666 -60.6397)">
		</image>
	</g>
	<g id="EkfeUu.tif" display="inline">
		
			<image overflow="visible" enable-background="new    " width="100" height="76" id="Layer_0_29_" xlink:href="ADA359CFB35235F6.png"  transform="matrix(0.99 0 0 0.9868 116.2334 -55.0293)">
		</image>
	</g>
	<g id="_x35_5N7EV.tif" display="inline">
		
			<image overflow="visible" enable-background="new    " width="82" height="60" id="Layer_0_33_" xlink:href="ADA359CFB35235F1.png"  transform="matrix(1 0 0 0.9833 4.7334 74.9433)">
		</image>
	</g>
	<g id="FsobWL.tif" display="inline">
		
			<image overflow="visible" enable-background="new    " width="100" height="100" id="Layer_0_34_" xlink:href="ADA359CFB35235F3.png"  transform="matrix(1 0 0 1 115.7334 58.332)">
		</image>
	</g>
</g>
<g id="ios">
	<path fill="#FFFFFF" d="M38.8,89C38.8,89,38.8,89,38.8,89c-0.1,0-0.1,0-0.1,0C38.7,89,38.7,89,38.8,89z"/>
	<path fill="#FFFFFF" d="M62.6,89.1C62.6,89.1,62.5,89.1,62.6,89.1c-0.1,0-0.1,0-0.1,0C62.5,89.1,62.5,89.1,62.6,89.1z"/>
	<g>
		<path fill="#FFFFFF" d="M105.5,50.5c-1.7,0.4-3.5,0.7-5.3,0.7c-11.7,0-21.3-9.5-21.3-21.3c0-2,0.3-3.9,0.8-5.9l1.4-5l-5.1,1.3
			c-11.2,2.9-19.2,12.5-20.3,23.9c2.1,1.1,4.2,2.5,6,4.2c0-0.6-0.1-1.1-0.1-1.7c0-8,4.5-15.2,11.3-18.8c0,0.7-0.1,1.3-0.1,2
			c0,15,12.2,27.3,27.3,27.3c0.4,0,0.9,0,1.3,0c-2.3,4.1-6,7.3-10.3,9.2C92,68.1,92.6,70,93,72c7.7-3.1,13.8-9.5,16.1-17.8l1.4-5
			L105.5,50.5z"/>
	</g>
	<g>
		<path fill="#FFFFFF" d="M31.9,92.8C31.9,92.8,31.8,92.8,31.9,92.8c-0.1,0-0.1,0-0.1,0C31.8,92.8,31.8,92.8,31.9,92.8z"/>
		<path fill="#FFFFFF" d="M57.5,92.9C57.4,92.9,57.4,92.9,57.5,92.9C57.4,92.9,57.4,92.9,57.5,92.9C57.4,92.9,57.4,92.9,57.5,92.9z"
			/>
		<path fill="#FFFFFF" d="M68.9,58.1c-2.1,0-4.2,0.4-6.1,1c-4.2-7.7-12.3-12.5-21.2-12.5c-12.4,0-22.6,9.3-24.1,21.3
			c-7.2,0.5-12.8,6.5-12.8,13.8c0,7.7,6.2,13.9,13.9,13.9h5.8c-0.2-1-0.1-2.1,0.2-3.2c0.1-0.2,0.1-0.5,0.2-0.7
			c-0.1-0.3-0.2-0.6-0.3-0.9c-0.1-0.4-0.2-0.8-0.2-1.2h-5.7c-4.3,0-7.9-3.5-7.9-7.9c0-4.3,3.5-7.9,7.9-7.9h4.8l0-3
			c0-10.1,8.2-18.2,18.3-18.2c7.5,0,14.2,4.5,17,11.6l1.3,3.2l3-1.7c1.9-1,4-1.6,6.1-1.6c7,0,12.6,5.7,12.6,12.6
			c0,5.2-3.1,9.8-8,11.7l-0.4,0.2c-1.2,0.7-2.5,1-3.8,1h-4.3c0,0.4-0.1,0.7-0.2,1.1c-0.1,0.3-0.2,0.7-0.4,1c0.1,0.3,0.2,0.5,0.3,0.8
			c0.3,1,0.3,2.1,0.2,3.1h4.4c2.3,0,4.6-0.6,6.6-1.7c7-2.9,11.6-9.6,11.6-17.2C87.5,66.4,79.1,58.1,68.9,58.1z"/>
	</g>
	<path fill="#FFFFFF" d="M58.6,97.8l-2.2-1.3l1.4-0.4c0.9-0.2,1.4-1.2,1.2-2.1c-0.2-0.9-1.2-1.4-2.1-1.2l-4.4,1.2
		c-0.1,0-0.3-0.1-0.4-0.1l-1.6-0.9c0.1-0.5,0.2-1,0.2-1.6c0-0.5-0.1-1-0.2-1.5l1.7-1c0.1,0,0.3,0,0.4-0.1l4.4,1.2
		c0.1,0,0.3,0.1,0.4,0.1c0.7,0,1.4-0.5,1.6-1.2c0.2-0.9-0.3-1.8-1.2-2.1l-1.4-0.4l2.2-1.3c0.8-0.5,1.1-1.5,0.6-2.3
		c-0.5-0.8-1.5-1.1-2.3-0.6l-2.2,1.3l0.4-1.4c0.2-0.9-0.3-1.8-1.2-2c-0.9-0.2-1.8,0.3-2,1.2l-1.1,4.4c-0.1,0.1-0.2,0.2-0.3,0.3
		l-1.7,1c-0.7-0.7-1.6-1.2-2.6-1.5v-2c0.1-0.1,0.1-0.3,0.1-0.4l3.2-3.2c0.7-0.6,0.7-1.7,0-2.4c-0.6-0.7-1.7-0.7-2.4,0l-1.1,1v-2.5
		c0-0.9-0.7-1.7-1.7-1.7c-0.9,0-1.7,0.7-1.7,1.7v2.5l-1.1-1c-0.7-0.6-1.7-0.6-2.4,0c-0.6,0.7-0.6,1.7,0,2.4l3.2,3.2
		c0,0.1,0.1,0.3,0.1,0.4v2.1c-1,0.3-1.9,0.8-2.7,1.6l-1.7-1c-0.1-0.1-0.2-0.2-0.3-0.3l-1.1-4.4c-0.2-0.9-1.1-1.4-2-1.2
		c-0.9,0.2-1.4,1.1-1.2,2l0.4,1.4l-2.2-1.3c-0.8-0.5-1.8-0.2-2.3,0.6s-0.2,1.8,0.6,2.3l2.2,1.3l-1.4,0.4c-0.9,0.2-1.4,1.2-1.2,2.1
		c0.2,0.7,0.9,1.2,1.6,1.2c0.1,0,0.3,0,0.4-0.1l4.4-1.2c0.1,0,0.3,0.1,0.4,0.1l1.7,1c-0.1,0.5-0.2,0.9-0.2,1.4c0,0.5,0.1,1,0.2,1.5
		l-1.7,1c-0.1,0-0.3,0-0.4,0.1l-4.4-1.2c-0.9-0.3-1.8,0.3-2.1,1.2c-0.2,0.9,0.3,1.8,1.2,2.1l1.4,0.4l-2.2,1.3
		c-0.8,0.5-1.1,1.5-0.6,2.3c0.3,0.5,0.9,0.8,1.4,0.8c0.3,0,0.6-0.1,0.8-0.2l2.2-1.3l-0.4,1.4c-0.2,0.9,0.3,1.8,1.2,2
		c0.1,0,0.3,0.1,0.4,0.1c0.7,0,1.4-0.5,1.6-1.3l1.1-4.4c0.1-0.1,0.2-0.2,0.3-0.3l1.7-1c0.7,0.7,1.6,1.2,2.6,1.5v1.8
		c-0.1,0.1-0.1,0.2-0.1,0.4l-3.2,3.2c-0.7,0.6-0.7,1.7,0,2.4c0.3,0.3,0.8,0.5,1.2,0.5c0.4,0,0.8-0.2,1.2-0.5l1.1-1v2.5
		c0,0.9,0.7,1.7,1.7,1.7c0.9,0,1.7-0.7,1.7-1.7v-2.5l1.1,1c0.3,0.3,0.7,0.5,1.2,0.5c0.4,0,0.9-0.2,1.2-0.5c0.6-0.7,0.6-1.7,0-2.4
		l-3.2-3.2c0-0.1-0.1-0.3-0.1-0.4v-1.8c1-0.3,1.8-0.8,2.5-1.4l1.7,1c0.1,0.1,0.2,0.2,0.3,0.3l1.1,4.4c0.2,0.8,0.9,1.3,1.6,1.3
		c0.1,0,0.3,0,0.4-0.1c0.9-0.2,1.4-1.1,1.2-2l-0.4-1.4l2.2,1.3c0.3,0.2,0.5,0.2,0.8,0.2c0.6,0,1.1-0.3,1.4-0.8
		C59.7,99.3,59.4,98.3,58.6,97.8z M44.7,94.3c-1.5,0-2.8-1.2-2.8-2.8c0-1.5,1.2-2.8,2.8-2.8c1.5,0,2.8,1.2,2.8,2.8
		C47.4,93.1,46.2,94.3,44.7,94.3z"/>
</g>
<g id="Jenn_x5F_new_set" display="none">
	<g display="inline">
		<g>
			<path fill="#ADD9F2" stroke="#40B4E5" stroke-miterlimit="10" d="M31.6,73.6c-2.3,0-4.6,0.3-6.7,0.9c6.8,3.1,11.6,10,11.6,18
				c0,10.9-8.8,19.8-19.8,19.8c-1.7,0-3.3-0.2-4.9-0.6c4.4,6.2,11.6,10.3,19.7,10.3c13.3,0,24.1-10.8,24.1-24.1S44.9,73.6,31.6,73.6
				z"/>
		</g>
		<g>
			<path fill="#ADD9F2" stroke="#40B4E5" stroke-width="3.4353" stroke-linecap="round" stroke-linejoin="round" d="M31.6,73.6
				c-2.3,0-4.6,0.3-6.7,0.9c6.8,3.1,11.6,10,11.6,18c0,10.9-8.8,19.8-19.8,19.8c-1.7,0-3.3-0.2-4.9-0.6c4.4,6.2,11.6,10.3,19.7,10.3
				c13.3,0,24.1-10.8,24.1-24.1S44.9,73.6,31.6,73.6z"/>
		</g>
	</g>
	<g display="inline">
		<path fill="#FFFFFF" d="M31.3,112.1C20,112.1,24,92,37.9,97.3c0.2-14.1,17.3-17.9,23-5.1c4.1-4.1,12.4-1.5,12.5,5.3
			c12.4-4.7,16.6,14.4,5.2,14.6C65,112.2,41.4,112.1,31.3,112.1z"/>
		<path fill="#ADD9F2" d="M76.2,108.6c1.8,0,4.5-2.4,2.9-5.1c-1.6-2.7-6.1-2-9-0.2c0,0,0.3-4.5-1.8-6.6c-1.4-1.4-5.6-2.4-10,2.8l0,0
			c0,0-3.2-17.2-17.5-9.5c-4.8,2.5,4.5-5.2,9.1-5.6c2.5-0.2,5.4,1.1,5.4,1.1l5.6,6.7l4-2.2l3.6,1.2l3.6,2.4l1.3,3.9l4.3-0.7l4.3,0.9
			l2.9,3.5v3.2l-0.8,4.8l-3.6,2.8l-51.2,0.4l-3.5-3.7"/>
		<path fill="none" stroke="#40B4E5" stroke-width="2.7482" d="M31.3,112.1C20,112.1,24,92,37.9,97.3c0.2-14.1,17.3-17.9,23-5.1
			c4.1-4.1,12.4-1.5,12.5,5.3c12.4-4.7,16.6,14.4,5.2,14.6C65,112.2,41.4,112.1,31.3,112.1z"/>
	</g>
	<g display="inline">
		<path fill="#FFFFFF" d="M28.5,8.6c-9.8,0-6.3-17.4,5.7-12.9c0.2-12.3,15-15.5,20-4.4C57.7-12.3,64.9-10,65-4.1
			C75.8-8.2,79.4,8.4,69.5,8.5C57.8,8.6,37.3,8.6,28.5,8.6z"/>
		<path fill="#CCCCCC" d="M67.4,5.6c1.6,0,3.2-1.9,1.8-4.3C67.8-1,64.6-0.6,62.1,1c0,0,0.3-3.9-1.6-5.7c-1.2-1.2-4.9-2.1-8.7,2.4
			l0,0c0,0-2.8-14.9-15.2-8.3c-4.1,2.2,3.9-4.5,7.9-4.9c2.1-0.2,4.7,1,4.7,1l4.8,5.8l3.5-1.9l3.1,1l3.1,2.1L65-4.1l3.7-0.6l3.7,0.8
			l2.5,3v2.8L74.3,6l-3.1,2.4L26.8,8.8l-3-3.2"/>
		<path fill="none" stroke="#999999" stroke-width="2.7482" d="M28.5,8.6c-9.8,0-6.3-17.4,5.7-12.9c0.2-12.3,15-15.5,20-4.4
			C57.7-12.3,64.9-10,65-4.1C75.8-8.2,79.4,8.4,69.5,8.5C57.8,8.6,37.3,8.6,28.5,8.6z"/>
	</g>
	<g id="Winter_Leaf" display="inline">
	</g>
	<g id="Maple_Leaf_2" display="inline">
		<g id="Leaf_3">
		</g>
	</g>
</g>
<g id="Discrepencies" display="none">
	<rect x="116.7" y="-61.7" display="inline" fill="#FFFFFF" width="99" height="99"/>
</g>
<g id="LABELS" display="none">
	
		<text transform="matrix(1 0 0 1 114.1421 56.332)" display="inline" fill="#383838" font-family="'MyriadPro-Regular'" font-size="12">2 Partly cloudy (day)</text>
	
		<text transform="matrix(1 0 0 1 -5.8101 56.332)" display="inline" fill="#383838" font-family="'MyriadPro-Regular'" font-size="12">Partly cloudy (night)</text>
</g>
<g id="NUMBERS" display="none">
</g>
</svg>
