<?xml version="1.0" encoding="utf-8"?>
<!-- Generator: Adobe Illustrator 17.1.0, SVG Export Plug-In . SVG Version: 6.00 Build 0)  -->
<!DOCTYPE svg PUBLIC "-//W3C//DTD SVG 1.1//EN" "http://www.w3.org/Graphics/SVG/1.1/DTD/svg11.dtd">
<svg version="1.1" id="Layer_1" xmlns="http://www.w3.org/2000/svg" xmlns:xlink="http://www.w3.org/1999/xlink" x="0px" y="0px"
	 viewBox="0 0 120 120" enable-background="new 0 0 120 120" xml:space="preserve">
<g id="TWC" display="none">
	<g id="xYyA96.tif" display="inline">
		
			<image overflow="visible" enable-background="new    " width="89" height="67" id="Layer_0_10_" xlink:href="397B85E49FE75F19.png"  transform="matrix(0.9888 0 0 1 -40.8974 28.0698)">
		</image>
	</g>
</g>
<g>
	<path fill="#FFFFFF" d="M81.5,74.2C81.5,74.2,81.5,74.2,81.5,74.2C81.4,74.2,81.4,74.2,81.5,74.2C81.4,74.2,81.5,74.2,81.5,74.2z"
		/>
	<path fill="#FFFFFF" d="M91.6,25.9c-3,0-6,0.6-8.8,1.6C77.1,16.8,65.9,10,53.5,10c-17,0-31.1,13-32.9,29.5
		c-9.9,0.4-17.8,8.6-17.8,18.6c0,10.3,8.4,18.6,18.6,18.6h26.8c-0.1-1-0.1-2,0.2-3c0.1-0.2,0.1-0.5,0.2-0.7
		c-0.1-0.3-0.2-0.6-0.3-0.9c-0.2-0.8-0.3-1.6-0.3-2.3H21.4c-6.4,0-11.6-5.2-11.6-11.6c0-6.4,5.2-11.6,11.6-11.6h6l0-3.5
		c0-14.4,11.7-26,26.1-26c10.8,0,20.3,6.5,24.3,16.5l1.5,3.7l3.5-1.9c2.7-1.5,5.8-2.3,8.9-2.3c10,0,18.2,8.2,18.2,18.2
		c0,7.5-4.5,14.1-11.5,16.9l-0.4,0.2c-1.7,1-3.7,1.5-5.7,1.5h-3.1c0,0.8-0.1,1.5-0.3,2.3c-0.1,0.3-0.2,0.7-0.4,1
		c0.1,0.3,0.2,0.5,0.3,0.8c0.3,1,0.3,2,0.2,2.9h3.2c3.1,0,6.2-0.8,8.9-2.3c9.5-3.9,15.7-13,15.7-23.3
		C116.8,37.3,105.5,25.9,91.6,25.9z"/>
	<path fill="#FFFFFF" d="M55.9,74.2C55.9,74.2,55.9,74.2,55.9,74.2C55.9,74.2,55.8,74.2,55.9,74.2C55.9,74.2,55.9,74.2,55.9,74.2z"
		/>
</g>
<g>
	<path fill="#FFFFFF" d="M82.7,79.2l-2.2-1.3l1.4-0.4c0.9-0.2,1.4-1.2,1.2-2.1c-0.2-0.9-1.2-1.4-2.1-1.2l-4.4,1.2
		c-0.1,0-0.3-0.1-0.4-0.1l-1.6-0.9c0.1-0.5,0.2-1,0.2-1.6c0-0.5-0.1-1-0.2-1.5l1.7-1c0.1,0,0.3,0,0.4-0.1l4.4,1.2
		c0.2,0,0.3,0.1,0.4,0.1c0.7,0,1.4-0.5,1.6-1.2c0.2-0.9-0.3-1.8-1.2-2.1L80.6,68l2.2-1.3c0.8-0.5,1.1-1.5,0.6-2.3
		c-0.5-0.8-1.5-1.1-2.3-0.6l-2.2,1.3l0.4-1.4c0.2-0.9-0.3-1.8-1.2-2c-0.9-0.2-1.8,0.3-2,1.2l-1.1,4.4c-0.1,0.1-0.2,0.2-0.3,0.3
		l-1.7,1c-0.7-0.7-1.6-1.2-2.6-1.5v-2c0.1-0.1,0.1-0.3,0.1-0.4l3.2-3.2c0.7-0.6,0.7-1.7,0-2.4c-0.6-0.7-1.7-0.7-2.4,0l-1.1,1v-2.5
		c0-0.9-0.7-1.7-1.7-1.7c-0.9,0-1.7,0.7-1.7,1.7v2.5l-1.1-1c-0.7-0.6-1.7-0.6-2.4,0c-0.6,0.7-0.6,1.7,0,2.4l3.2,3.2
		c0,0.1,0.1,0.3,0.1,0.4v2.1c-1,0.3-1.9,0.8-2.7,1.6l-1.7-1c-0.1-0.1-0.2-0.2-0.3-0.3l-1.1-4.4c-0.2-0.9-1.1-1.4-2-1.2
		c-0.9,0.2-1.4,1.1-1.2,2l0.4,1.4l-2.2-1.3c-0.8-0.5-1.8-0.2-2.3,0.6c-0.5,0.8-0.2,1.8,0.6,2.3l2.2,1.3l-1.4,0.4
		c-0.9,0.2-1.4,1.2-1.2,2.1c0.2,0.7,0.9,1.2,1.6,1.2c0.1,0,0.3,0,0.4-0.1l4.4-1.2c0.1,0,0.3,0.1,0.4,0.1l1.7,1
		c-0.1,0.5-0.2,0.9-0.2,1.4c0,0.5,0.1,1,0.2,1.5l-1.7,1c-0.1,0-0.3,0-0.4,0.1l-4.4-1.2c-0.9-0.2-1.8,0.3-2.1,1.2
		c-0.2,0.9,0.3,1.8,1.2,2.1l1.4,0.4l-2.2,1.3c-0.8,0.5-1.1,1.5-0.6,2.3c0.3,0.5,0.9,0.8,1.4,0.8c0.3,0,0.6-0.1,0.8-0.2l2.2-1.3
		l-0.4,1.4c-0.2,0.9,0.3,1.8,1.2,2c0.1,0,0.3,0.1,0.4,0.1c0.7,0,1.4-0.5,1.6-1.3l1.1-4.4c0.1-0.1,0.2-0.2,0.3-0.3l1.7-1
		c0.7,0.7,1.6,1.2,2.6,1.5v1.8c-0.1,0.1-0.1,0.2-0.1,0.4l-3.2,3.2c-0.7,0.6-0.7,1.7,0,2.4c0.3,0.3,0.8,0.5,1.2,0.5
		c0.4,0,0.8-0.2,1.2-0.5l1.1-1v2.5c0,0.9,0.7,1.7,1.7,1.7c0.9,0,1.7-0.7,1.7-1.7v-2.5l1.1,1c0.3,0.3,0.7,0.5,1.2,0.5
		c0.4,0,0.9-0.2,1.2-0.5c0.6-0.7,0.6-1.7,0-2.4L70.5,81c0-0.1-0.1-0.3-0.1-0.4v-1.8c1-0.3,1.8-0.8,2.5-1.4l1.7,1
		c0.1,0.1,0.2,0.2,0.3,0.3l1.1,4.4c0.2,0.8,0.9,1.3,1.6,1.3c0.1,0,0.3,0,0.4-0.1c0.9-0.2,1.4-1.1,1.2-2l-0.4-1.4L81,82
		c0.3,0.2,0.5,0.2,0.8,0.2c0.6,0,1.1-0.3,1.4-0.8C83.7,80.6,83.4,79.6,82.7,79.2z M68.7,75.7c-1.5,0-2.8-1.2-2.8-2.8
		c0-1.5,1.2-2.8,2.8-2.8c1.5,0,2.8,1.2,2.8,2.8C71.5,74.5,70.2,75.7,68.7,75.7z"/>
</g>
<line fill="none" stroke="#FFFFFF" stroke-width="7" stroke-linecap="round" stroke-miterlimit="10" x1="39.9" y1="96.7" x2="44.1" y2="92.6"/>
<line fill="none" stroke="#FFFFFF" stroke-width="7" stroke-linecap="round" stroke-miterlimit="10" x1="19.9" y1="96.7" x2="24.1" y2="92.6"/>
<g id="Jenn_x5F_new_set" display="none">
	<g display="inline">
		<g>
			<path fill="#999999" d="M16.5,98.8c-0.2,0-0.4,0-0.6-0.1c-0.7-0.3-1-1.2-0.6-1.8l4.4-9c0.3-0.7,1.1-1,1.8-0.6s1,1.2,0.6,1.8
				l-4.4,9C17.5,98.5,17,98.8,16.5,98.8z"/>
		</g>
		<g>
			<path fill="#999999" d="M5.4,98.8c-0.2,0-0.4,0-0.6-0.1c-0.7-0.3-1-1.2-0.6-1.8l4.4-9c0.3-0.7,1.2-1,1.8-0.6
				c0.7,0.3,1,1.2,0.6,1.8l-4.4,9C6.4,98.5,5.9,98.8,5.4,98.8z M12.3,84.4c-0.2,0-0.4,0-0.6-0.1c-0.7-0.3-1-1.2-0.6-1.8l4.4-9
				c0.3-0.7,1.2-1,1.8-0.6c0.7,0.3,1,1.2,0.6,1.8l-4.4,9C13.3,84.1,12.9,84.4,12.3,84.4z"/>
		</g>
		<g>
			<path fill="#999999" d="M-5.8,98.8c-0.2,0-0.4,0-0.6-0.1c-0.7-0.3-1-1.2-0.6-1.8l4.4-9c0.3-0.7,1.2-1,1.8-0.6
				c0.7,0.3,1,1.2,0.6,1.8l-4.4,9C-4.8,98.5-5.3,98.8-5.8,98.8z M1.2,84.4c-0.2,0-0.4,0-0.6-0.1c-0.7-0.3-1-1.2-0.6-1.8l4.4-9
				c0.3-0.7,1.2-1,1.8-0.6c0.7,0.3,1,1.2,0.6,1.8l-4.4,9C2.2,84.1,1.7,84.4,1.2,84.4z M8.2,70c-0.2,0-0.4,0-0.6-0.1
				c-0.7-0.3-1-1.2-0.6-1.8l4-8.2c0.3-0.7,1.2-1,1.8-0.6s1,1.2,0.6,1.8l-4,8.2C9.2,69.7,8.7,70,8.2,70z"/>
		</g>
		<g>
			<path fill="#999999" d="M-16.9,98.8c-0.2,0-0.4,0-0.6-0.1c-0.7-0.3-1-1.2-0.6-1.8l4.4-9c0.3-0.7,1.2-1,1.8-0.6
				c0.7,0.3,1,1.2,0.6,1.8l-4.4,9C-15.9,98.5-16.4,98.8-16.9,98.8z M-9.9,84.4c-0.2,0-0.4,0-0.6-0.1c-0.7-0.3-1-1.2-0.6-1.8l4.4-9
				c0.3-0.7,1.2-1,1.8-0.6c0.7,0.3,1,1.2,0.6,1.8l-4.4,9C-8.9,84.1-9.4,84.4-9.9,84.4z M-3,70c-0.2,0-0.4,0-0.6-0.1
				c-0.7-0.3-1-1.2-0.6-1.8l4-8.2c0.3-0.7,1.1-1,1.8-0.6s1,1.2,0.6,1.8l-4,8.2C-2,69.7-2.5,70-3,70z"/>
		</g>
	</g>
	<g display="inline">
		<g>
			<path fill="#FFFFFF" d="M-21.1,60.4c-13,0-8.3-23,7.5-17c0.2-16.2,19.8-20.5,26.4-5.9c4.7-4.7,14.2-1.7,14.3,6.1
				c14.2-5.4,19,16.6,5.9,16.7C17.6,60.5-9.5,60.4-21.1,60.4z"/>
			<path fill="#CCCCCC" d="M30.3,56.4c2.1-0.1,4.3-2.5,2.4-5.6c-1.9-3-6.1-2.5-9.4-0.4c0,0,0.3-5.2-2.1-7.6
				C19.7,41.2,14.8,40,9.8,46l0,0c0,0-3.7-19.7-20.1-10.9c-5.5,2.9,5.1-6,10.5-6.5c2.8-0.3,6.2,1.3,6.2,1.3l6.4,7.7l4.6-2.5l4.1,1.4
				l4.1,2.7l1.5,4.5l4.9-0.8l4.9,1l3.3,4v3.7L39.4,57l-4.1,3.2l-58.6,0.5l-4-4.2"/>
			<path fill="none" stroke="#999999" stroke-width="2.7482" d="M-21.1,60.4c-13,0-8.3-23,7.5-17c0.2-16.2,19.8-20.5,26.4-5.9
				c4.7-4.7,14.2-1.7,14.3,6.1c14.2-5.4,19,16.6,5.9,16.7C17.6,60.5-9.5,60.4-21.1,60.4z"/>
		</g>
	</g>
	<g display="inline">
		<path fill="#999999" d="M35.5,61.4c-1.3,0-1.4,6.5-1.4,6.5s0.2-5.3-1.9-6.2L35.5,61.4z"/>
		<path fill="#999999" d="M14.9,61.8c2.9,0,4.2,13.9,4.2,13.9s1-10.8,3.1-10.8c2.1,0,3.2,25.4,3.2,25.4s0.2-19.2,2.1-19.2
			c1.9,0,2,2.3,2,2.3s0.4-11.6,2.6-11.7L14.9,61.8z"/>
	</g>
	<g id="Winter_Leaf" display="inline">
	</g>
	<g id="Maple_Leaf_2" display="inline">
		<g id="Leaf_3">
		</g>
	</g>
</g>
<g id="Discrepencies" display="none">
	<rect x="-43.9" y="20.1" display="inline" fill="#FFFFFF" width="101.4" height="101.4"/>
</g>
<g id="LABELS" display="none">
</g>
<g id="NUMBERS" display="none">
</g>
</svg>
