<?xml version="1.0" encoding="utf-8"?>
<!-- Generator: Adobe Illustrator 17.1.0, SVG Export Plug-In . SVG Version: 6.00 Build 0)  -->
<!DOCTYPE svg PUBLIC "-//W3C//DTD SVG 1.1//EN" "http://www.w3.org/Graphics/SVG/1.1/DTD/svg11.dtd">
<svg version="1.1" id="Layer_1" xmlns="http://www.w3.org/2000/svg" xmlns:xlink="http://www.w3.org/1999/xlink" x="0px" y="0px"
	 viewBox="0 0 120 120" enable-background="new 0 0 120 120" xml:space="preserve">
<g id="TWC" display="none">
	<g id="EkfeUu.tif" display="inline">
		
			<image overflow="visible" enable-background="new    " width="100" height="76" id="Layer_0_29_" xlink:href="D76B25E1C741F3AC.png"  transform="matrix(0.99 0 0 0.9868 -24.2969 -55.0293)">
		</image>
	</g>
	<g id="_x34_bpTf7.tif_1_" display="inline">
		
			<image overflow="visible" enable-background="new    " width="100" height="101" id="Layer_0_30_" xlink:href="D76B25E1C741F3AD.png"  transform="matrix(1 0 0 0.9901 95.2031 -60.6397)">
		</image>
	</g>
	<g id="FsobWL.tif" display="inline">
		
			<image overflow="visible" enable-background="new    " width="100" height="100" id="Layer_0_34_" xlink:href="D76B25E1C741F3AB.png"  transform="matrix(1 0 0 1 -24.7969 58.332)">
		</image>
	</g>
	<g id="HxB6V4.tif" display="inline">
		
			<image overflow="visible" enable-background="new    " width="88" height="83" id="Layer_0_35_" xlink:href="D76B25E1C741F3B4.png"  transform="matrix(1 0 0 1 101.2031 69.332)">
		</image>
	</g>
</g>
<g id="ios">
	<g>
		<path fill="#FFFFFF" d="M68.9,58.1c-2.1,0-4.2,0.4-6.1,1c-4.2-7.7-12.3-12.5-21.2-12.5c-12.4,0-22.6,9.3-24.1,21.3
			c-7.2,0.5-12.8,6.5-12.8,13.8c0,7.7,6.2,13.9,13.9,13.9h4.1l0.6-2.5l0.9-3.5h-5.6c-4.3,0-7.9-3.5-7.9-7.9c0-4.3,3.5-7.9,7.9-7.9
			h4.8l0-3c0-10.1,8.2-18.2,18.3-18.2c7.5,0,14.2,4.5,17,11.6l1.3,3.2l3-1.7c1.9-1,4-1.6,6.1-1.6c7,0,12.6,5.7,12.6,12.6
			c0,5.2-3.1,9.8-8,11.7l-0.4,0.2c-1.2,0.7-2.5,1-3.8,1h-7l-3.9,6h11c2.3,0,4.6-0.6,6.6-1.7c7-2.9,11.6-9.6,11.6-17.2
			C87.5,66.4,79.1,58.1,68.9,58.1z"/>
	</g>
	<g>
		<path fill="#FFFFFF" d="M105.5,50.5c-1.7,0.4-3.5,0.7-5.3,0.7c-11.7,0-21.3-9.5-21.3-21.3c0-2,0.3-3.9,0.8-5.9l1.4-5l-5.1,1.3
			c-11.2,2.9-19.2,12.5-20.3,23.9c2.1,1.1,4.2,2.5,6,4.2c0-0.6-0.1-1.1-0.1-1.7c0-8,4.5-15.2,11.3-18.8c0,0.7-0.1,1.3-0.1,2
			c0,15,12.2,27.3,27.3,27.3c0.4,0,0.9,0,1.3,0c-2.3,4.1-6,7.3-10.3,9.2C92,68.1,92.6,70,93,72c7.7-3.1,13.8-9.5,16.1-17.8l1.4-5
			L105.5,50.5z"/>
	</g>
	<polygon fill="#FFFFFF" points="36.5,119 58.2,85.9 43.4,85.9 43.2,85.9 43.2,85.9 43.2,85.9 43.2,85.9 50.3,68.6 35.8,68.6 
		29,95.6 41.6,95.6 43.6,95.5 43.6,95.6 43.6,95.6 43.5,95.7 	"/>
</g>
<g id="Jenn_x5F_new_set" display="none">
	<polygon display="inline" fill="#F9ED32" stroke="#F7941E" stroke-width="2.0612" points="39.4,76 41.4,80.4 44.7,76.8 45.3,81.7 
		49.5,79.3 48.5,84 53.3,83.1 50.9,87.3 55.8,87.8 52.1,91.1 56.6,93.2 52.1,95.2 55.8,98.5 50.9,99 53.3,103.2 48.5,102.3 
		49.5,107 45.3,104.6 44.7,109.5 41.4,105.9 39.4,110.3 37.4,105.9 34.1,109.5 33.6,104.6 29.3,107 30.3,102.3 25.5,103.2 27.9,99 
		23.1,98.5 26.7,95.2 22.2,93.2 26.7,91.1 23.1,87.8 27.9,87.3 25.5,83.1 30.3,84 29.3,79.3 33.6,81.7 34.1,76.8 37.4,80.4 	"/>
	<g display="inline">
		<path fill="#FFFFFF" d="M-2,118.4c-13,0-8.3-23,7.5-17C5.8,85.2,25.4,80.9,32,95.5c4.7-4.7,14.2-1.7,14.3,6.1
			c14.2-5.4,19,16.6,5.9,16.7C36.7,118.4,9.6,118.4-2,118.4z"/>
		<path fill="#ADD9F2" d="M49.5,114.4c2.1-0.1,4.3-2.5,2.4-5.6c-1.9-3-6.1-2.5-9.4-0.4c0,0,0.3-5.2-2.1-7.6C38.8,99.2,34,98,29,104
			l0,0c0,0-3.7-19.7-20.1-10.9c-5.5,2.9,5.1-6,10.5-6.5c2.8-0.3,6.2,1.3,6.2,1.3l6.4,7.7l4.6-2.5l4.1,1.4l4.1,2.7l1.5,4.5l4.9-0.8
			l4.9,1l3.3,4v3.7l-0.9,5.5l-4.1,3.2l-58.6,0.5l-4-4.2"/>
		<path fill="none" stroke="#40B4E5" stroke-width="2.7482" d="M-2,118.4c-13,0-8.3-23,7.5-17C5.8,85.2,25.4,80.9,32,95.5
			c4.7-4.7,14.2-1.7,14.3,6.1c14.2-5.4,19,16.6,5.9,16.7C36.7,118.4,9.6,118.4-2,118.4z"/>
	</g>
	<g display="inline">
		<g>
			<path fill="#ADD9F2" stroke="#40B4E5" stroke-miterlimit="10" d="M1.8-46.4c-2.3,0-4.6,0.3-6.7,0.9c6.8,3.1,11.6,10,11.6,18
				c0,10.9-8.8,19.8-19.8,19.8c-1.7,0-3.3-0.2-4.9-0.6C-13.6-2.2-6.4,1.9,1.8,1.9c13.3,0,24.1-10.8,24.1-24.1S15.1-46.4,1.8-46.4z"
				/>
		</g>
		<g>
			<path fill="#ADD9F2" stroke="#40B4E5" stroke-width="3.4353" stroke-linecap="round" stroke-linejoin="round" d="M1.8-46.4
				c-2.3,0-4.6,0.3-6.7,0.9c6.8,3.1,11.6,10,11.6,18c0,10.9-8.8,19.8-19.8,19.8c-1.7,0-3.3-0.2-4.9-0.6C-13.6-2.2-6.4,1.9,1.8,1.9
				c13.3,0,24.1-10.8,24.1-24.1S15.1-46.4,1.8-46.4z"/>
		</g>
	</g>
	<g display="inline">
		<path fill="#FFFFFF" d="M13,8.6c-9.8,0-6.3-17.4,5.7-12.9c0.2-12.3,15-15.5,20-4.4c3.5-3.6,10.8-1.3,10.9,4.6
			C60.3-8.2,63.9,8.4,54,8.5C42.3,8.6,21.7,8.6,13,8.6z"/>
		<path fill="#CCCCCC" d="M51.9,5.6c1.6,0,3.2-1.9,1.8-4.3C52.3-1,49.1-0.6,46.6,1c0,0,0.3-3.9-1.6-5.7c-1.2-1.2-4.9-2.1-8.7,2.4
			l0,0c0,0-2.8-14.9-15.2-8.3c-4.1,2.2,3.9-4.5,7.9-4.9c2.1-0.2,4.7,1,4.7,1l4.8,5.8l3.5-1.9l3.1,1l3.1,2.1l1.1,3.4l3.7-0.6l3.7,0.8
			l2.5,3v2.8L58.8,6l-3.1,2.4L11.2,8.8l-3-3.2"/>
		<path fill="none" stroke="#999999" stroke-width="2.7482" d="M13,8.6c-9.8,0-6.3-17.4,5.7-12.9c0.2-12.3,15-15.5,20-4.4
			c3.5-3.6,10.8-1.3,10.9,4.6C60.3-8.2,63.9,8.4,54,8.5C42.3,8.6,21.7,8.6,13,8.6z"/>
	</g>
	<g id="Winter_Leaf" display="inline">
	</g>
	<g id="Maple_Leaf_2" display="inline">
		<g id="Leaf_3">
		</g>
	</g>
</g>
<g id="Discrepencies" display="none">
	<g display="inline">
		<line fill="none" stroke="#DA1F26" stroke-width="4" stroke-linecap="round" x1="118.9" y1="82" x2="171.6" y2="134.7"/>
		<line fill="none" stroke="#DA1F26" stroke-width="4" stroke-linecap="round" x1="171.6" y1="82" x2="118.9" y2="134.7"/>
	</g>
	<rect x="96.6" y="59" display="inline" fill="#FFFFFF" width="99.4" height="99.4"/>
	<rect x="95.2" y="-60.6" display="inline" fill="#FFFFFF" width="98" height="98"/>
	<rect x="-23.8" y="-61.7" display="inline" fill="#FFFFFF" width="99" height="99"/>
</g>
<g id="LABELS" display="none">
	
		<text transform="matrix(1 0 0 1 -26.3882 56.332)" display="inline" fill="#383838" font-family="'MyriadPro-Regular'" font-size="12">2 Partly cloudy (day)</text>
</g>
<g id="NUMBERS" display="none">
</g>
</svg>
