<?xml version="1.0" encoding="utf-8"?>
<!-- Generator: Adobe Illustrator 17.1.0, SVG Export Plug-In . SVG Version: 6.00 Build 0)  -->
<!DOCTYPE svg PUBLIC "-//W3C//DTD SVG 1.1//EN" "http://www.w3.org/Graphics/SVG/1.1/DTD/svg11.dtd">
<svg version="1.1" id="Layer_1" xmlns="http://www.w3.org/2000/svg" xmlns:xlink="http://www.w3.org/1999/xlink" x="0px" y="0px"
	 viewBox="0 0 120 120" enable-background="new 0 0 120 120" xml:space="preserve">
<g id="TWC" display="none">
	<g id="zjFmwj.tif" display="inline">
		
			<image overflow="visible" enable-background="new    " width="98" height="98" id="Layer_0_19_" xlink:href="7BA890370B5BFEA9.png"  transform="matrix(1 0 0 0.9898 -23.249 -18.9297)">
		</image>
	</g>
	<g id="DPTusl.tif" display="inline">
		
			<image overflow="visible" enable-background="new    " width="99" height="98" id="Layer_0_20_" xlink:href="7BA890370B5BFEAB.png"  transform="matrix(0.9899 0 0 0.9898 97.1553 -18.9297)">
		</image>
	</g>
	<g id="SWS2Ji.tif_1_" display="inline">
		
			<image overflow="visible" enable-background="new    " width="88" height="68" id="Layer_0_25_" xlink:href="7BA890370B5BFEAE.png"  transform="matrix(1 0 0 0.9853 -18.249 113.2793)">
		</image>
	</g>
</g>
<g id="ios">
	<path fill="none" stroke="#FFFFFF" stroke-width="7" stroke-miterlimit="10" d="M91,72c-22.6,0-40.9-18.3-40.9-40.9
		c0-3.9,0.6-7.7,1.6-11.3C34,24.4,21,40.4,21,59.5c0,22.6,18.3,40.9,40.9,40.9c18.7,0,34.4-12.5,39.3-29.7C98,71.6,94.6,72,91,72z"
		/>
</g>
<g id="Jenn_x5F_new_set" display="none">
	<g id="Winter_Leaf" display="inline">
	</g>
	<g id="Maple_Leaf_2" display="inline">
		<g id="Leaf_3">
		</g>
	</g>
	<g display="inline">
		<polygon fill="#999999" points="172.2,27.2 172.2,18.9 162.7,18.9 162.7,10.4 161.2,8.2 151.1,8.2 151.1,14.2 148.1,14.2 
			146.9,15 146.9,25.5 142.9,25.5 142.9,9.7 140.4,7.9 133.9,7.9 133.9,14.5 129.1,14.5 129.1,2.6 121.8,2.6 121.8,5 117.7,5 
			117.7,27.2 113.4,27.2 113.4,27.5 112.4,29.4 112.4,50.1 113.4,49.8 117.7,49.8 117.7,51 124.9,51 124.9,49.8 126.1,49.8 
			126.1,48.6 129.1,48.6 129.1,48 133.9,48 140.4,48 141,48 142.9,48 153.8,48 153.8,47.7 160.9,47.7 161.2,47.7 161.2,48.1 
			162.7,48.7 162.7,47.7 164.8,47.7 164.8,49.8 177.5,49.8 177.5,27.2 		"/>
		<g>
			<g>
				<defs>
					<path id="SVGID_1_" d="M101.5,54.2l-3.3-1.5l-2.4-8.4l7.6-13.1l21.8-9L163,24c0,0,16.1,3,16.8,3.6S193.6,38,193.6,38l-0.1,11.3
						l-1.3,3.8l-2.2,1.1l-41.3-1.3L101.5,54.2z"/>
				</defs>
				<clipPath id="SVGID_2_">
					<use xlink:href="#SVGID_1_"  overflow="visible"/>
				</clipPath>
				<g clip-path="url(#SVGID_2_)">
					<path fill="#CCCCCC" d="M189.4,47.1c0.8-0.6,1.4-1.6,1.4-2.8c0-1.9-1.6-3.5-3.5-3.5c-0.4,0-0.7,0.1-1.1,0.2
						c-0.3-1.5-1.6-2.7-3.3-2.7c0,0,0,0,0,0c-0.1-1.9-1.6-3.3-3.5-3.3c-1.8,0-3.2,1.3-3.5,3.1c-0.6-0.4-1.3-0.7-2-0.7
						c-0.5,0-1,0.1-1.5,0.4c-0.4-1.7-2-3-3.9-3c-0.5,0-1,0.1-1.5,0.3c-0.6-2.8-3.2-5-6.2-5c-2.2,0-4.2,1.1-5.3,2.8
						c-0.6-0.9-1.7-1.5-2.9-1.5c-1.9,0-3.4,1.5-3.5,3.3c-0.5-0.2-1.1-0.3-1.7-0.3c-0.1,0-0.3,0-0.4,0c0-0.3,0.1-0.6,0.1-0.9
						c0-3.2-2.6-5.8-5.8-5.8c-2.1,0-4,1.1-5,2.8c-0.5-0.3-1.2-0.5-1.8-0.5c-1.8,0-3.3,1.3-3.6,3c-0.5-0.2-1-0.3-1.6-0.3
						c-0.6,0-1.3,0.1-1.8,0.4c-0.9-2.9-3.6-5.1-6.8-5.1c-4,0-7.2,3.2-7.2,7.2l0,0h0c0,0,0,0,0,0c-0.4-0.2-0.9-0.3-1.5-0.3
						c-1.8,0-3.3,1.4-3.5,3.2c-0.1,0-0.1,0-0.2,0c-1.8,0-3.3,1.5-3.3,3.3c0,1.1,0.5,2,1.3,2.6c-0.9,0.6-1.5,1.7-1.5,2.9c0,0,0,0,0,0
						c-1.9,0.1-3.3,1.6-3.3,3.5c0,1.9,1.6,3.5,3.5,3.5c1,0,1.9-0.5,2.6-1.2c0.3,0,0.5,0,0.8,0.1c2,0.2,4.1,0,6-0.2
						c4.9-0.5,9.8-1.1,14.6-1.7c6.3-0.8,13-0.5,19.3,0.1c5.1,0.5,10.3,0.4,15.5,0.4c3.3,0,6.5,0.3,9.7,0.3c2.3,0,4.6-0.1,6.7,0.7
						c1.6,0.6,3.7,1.2,5.5,0.8c0.1,0,0.2-0.1,0.2-0.1c0.4,0.1,0.8,0.2,1.2,0.2c1.9,0,3.5-1.6,3.5-3.5
						C190.8,48.8,190.2,47.8,189.4,47.1z"/>
					<path fill="#FFFFFF" d="M187.2,49.1c1-0.5,1.6-1.5,1.6-2.7c0-1.7-1.4-3.1-3.1-3.1c-0.5,0-0.9,0.1-1.3,0.3
						c-0.1-1.6-1.4-2.8-2.9-2.8c-0.1,0-0.2,0-0.4,0c0-0.1,0-0.1,0-0.2c0-1.7-1.4-3.1-3.1-3.1c-1.7,0-3.1,1.4-3.1,3.1
						c0,0.1,0,0.2,0,0.4c-0.5-0.7-1.4-1.2-2.4-1.2c-0.7,0-1.3,0.2-1.7,0.6c-0.2-1.8-1.7-3.1-3.5-3.1c-0.7,0-1.4,0.2-2,0.6
						c-0.3-2.8-2.7-5-5.6-5c-2.3,0-4.2,1.3-5.1,3.2c-0.4-1.3-1.6-2.2-3-2.2c-1.7,0-3.1,1.4-3.1,3.1c0,0.2,0,0.4,0.1,0.5
						c-0.6-0.3-1.3-0.6-2-0.6c-0.4,0-0.8,0.1-1.1,0.2c0.1-0.5,0.2-0.9,0.2-1.5c0-2.9-2.3-5.2-5.2-5.2c-2,0-3.8,1.2-4.6,2.9
						c-0.6-0.5-1.3-0.8-2.1-0.8c-1.8,0-3.2,1.4-3.2,3.2c-0.6-0.3-1.2-0.5-1.8-0.5c-0.9,0-1.7,0.3-2.3,0.7c-0.6-2.9-3.2-5.1-6.2-5.1
						c-3.5,0-6.3,2.8-6.3,6.3c0,0.2,0,0.3,0,0.5c-0.2,0-0.5-0.1-0.7-0.1c0,0,0,0,0,0c-0.4-0.2-0.9-0.4-1.5-0.4
						c-1.7,0-3.1,1.4-3.1,3.1c0,0,0,0,0,0.1c-0.2,0-0.3-0.1-0.5-0.1c-1.6,0-3,1.3-3,3c0,0.2,0,0.5,0.1,0.7c-0.5,0.7-0.9,1.5-1,2.4
						c-1.7,0.5-2.9,2.1-2.9,4c0,0.6,0.1,1.2,0.4,1.7c0,0,0,0.1,0,0.1c0,1.7,1.4,3.1,3.1,3.1c0.5,0,1-0.1,1.4-0.4
						c1,0.1,2.3-0.1,3-0.1c0,0,0,0,0.1,0c3.7,0,7.5-0.1,11.2,0c10.5,0.3,21.1,0.2,31.7,0.2c6.4,0,12.7-0.3,19.1-0.3
						c4.3,0,8.7,0.1,12.9-0.3c0.4,0.2,0.9,0.4,1.5,0.4c1.7,0,3.1-1.4,3.1-3.1C188.8,50.7,188.2,49.7,187.2,49.1z"/>
					<g>
						<path fill="#999999" d="M141.5,27.7c3.2,0,5.8,2.6,5.8,5.8c0,0.3,0,0.6-0.1,0.9c0.1,0,0.3,0,0.4,0c0.6,0,1.2,0.1,1.7,0.3
							c0.1-1.8,1.6-3.3,3.5-3.3c1.2,0,2.2,0.6,2.9,1.5c1.1-1.7,3.1-2.9,5.3-2.9c3,0,5.6,2.1,6.2,5c0.5-0.2,1-0.3,1.5-0.3
							c1.9,0,3.4,1.3,3.9,3c0.4-0.2,0.9-0.4,1.5-0.4c0.8,0,1.5,0.3,2,0.7c0.2-1.7,1.7-3.1,3.5-3.1c1.9,0,3.4,1.5,3.5,3.3
							c0,0,0,0,0,0c1.6,0,3,1.2,3.3,2.7c0.3-0.1,0.7-0.2,1.1-0.2c1.9,0,3.5,1.6,3.5,3.5c0,1.1-0.5,2.1-1.4,2.8
							c0.8,0.6,1.4,1.6,1.4,2.8c0,1.9-1.6,3.5-3.5,3.5c-0.4,0-0.8-0.1-1.2-0.2c-0.1,0-0.2,0.1-0.2,0.1c-0.4,0.1-0.9,0.2-1.4,0.2
							c-1.5,0-3-0.5-4.1-0.9c-2.1-0.8-4.3-0.7-6.7-0.7c-3.2,0-6.4-0.3-9.6-0.3c0,0-0.1,0-0.1,0c-1.6,0-3.2,0-4.9,0
							c-3.6,0-7.1-0.1-10.6-0.4c-3.6-0.3-7.4-0.6-11.2-0.6c-2.7,0-5.4,0.1-8.1,0.5c-4.9,0.6-9.7,1.2-14.6,1.7
							c-1.3,0.1-2.8,0.2-4.2,0.2c-0.6,0-1.3,0-1.9-0.1c-0.3,0-0.5,0-0.8-0.1c-0.6,0.7-1.6,1.2-2.6,1.2c-1.9,0-3.5-1.6-3.5-3.5
							c0-1.9,1.5-3.4,3.3-3.5c0,0,0,0,0,0c0-1.2,0.6-2.2,1.5-2.9c-0.8-0.6-1.3-1.6-1.3-2.6c0-1.8,1.5-3.3,3.3-3.3c0.1,0,0.1,0,0.2,0
							c0.2-1.8,1.6-3.2,3.5-3.2c0.5,0,1,0.1,1.5,0.3c0,0,0,0,0,0h0c0-4,3.2-7.2,7.2-7.2c3.2,0,5.9,2.1,6.8,5.1
							c0.6-0.2,1.2-0.4,1.8-0.4c0.6,0,1.1,0.1,1.6,0.3c0.3-1.7,1.8-3,3.6-3c0.7,0,1.3,0.2,1.8,0.5C137.5,28.9,139.3,27.7,141.5,27.7
							 M141.5,26.3c-2.2,0-4.1,0.9-5.5,2.5c-0.4-0.1-0.9-0.2-1.3-0.2c-1.9,0-3.6,1.1-4.5,2.7c-0.2,0-0.4,0-0.6,0c-0.3,0-0.6,0-1,0.1
							c-1.4-2.9-4.4-4.7-7.7-4.7c-4.1,0-7.6,2.9-8.4,6.8c-0.1,0-0.2,0-0.2,0c-2.1,0-4,1.3-4.7,3.3c-2.2,0.5-3.8,2.4-3.8,4.7
							c0,0.9,0.3,1.8,0.8,2.6c-0.4,0.5-0.6,1.1-0.8,1.7c-2,0.6-3.5,2.5-3.5,4.7c0,2.7,2.2,5,5,5c1.1,0,2.2-0.4,3.1-1.1
							c0,0,0.1,0,0.1,0c0.6,0.1,1.3,0.1,2,0.1c1.5,0,3-0.1,4.3-0.3c5-0.5,10-1.1,14.7-1.7c2.4-0.3,5-0.5,7.9-0.5
							c3.3,0,6.8,0.2,11,0.6c3.7,0.3,7.4,0.4,10.8,0.4c1,0,1.9,0,2.9,0l2,0h0.1c1.7,0,3.4,0.1,5.1,0.2c1.5,0.1,3,0.1,4.5,0.2
							c0.3,0,0.6,0,0.9,0c2,0,3.7,0,5.3,0.6c1.3,0.5,2.9,1,4.7,1c0.6,0,1.1-0.1,1.6-0.2c0.4,0.1,0.8,0.2,1.2,0.2c2.7,0,5-2.2,5-5
							c0-1-0.3-1.9-0.8-2.8c0.5-0.8,0.8-1.8,0.8-2.8c0-2.7-2.2-5-5-5c0,0-0.1,0-0.1,0c-0.6-1.1-1.7-2-3-2.3c-0.6-2-2.5-3.5-4.7-3.5
							c-1.8,0-3.4,1-4.3,2.5c-0.4-0.1-0.8-0.2-1.2-0.2c-0.2,0-0.4,0-0.6,0c-1-1.6-2.7-2.7-4.7-2.7c-0.2,0-0.3,0-0.5,0
							c-1.2-2.8-4-4.7-7.1-4.7c-2,0-4,0.8-5.4,2.2c-0.8-0.5-1.8-0.8-2.8-0.8c-1.7,0-3.3,0.9-4.2,2.3C148,28.8,145,26.3,141.5,26.3
							L141.5,26.3z"/>
					</g>
				</g>
			</g>
		</g>
		<g>
			<path fill="#999999" d="M146.6,46.4c-16.1,0-31.5,2.8-45.8,8h91.7C178.2,49.2,162.7,46.4,146.6,46.4z"/>
		</g>
	</g>
	<g display="inline">
		<path fill="#FFFFFF" d="M-11.1,139.9c-8.3,0-5.3-14.8,4.8-10.9c0.1-10.4,12.7-13.2,17-3.8c3-3.1,9.1-1.1,9.2,3.9
			c9.1-3.5,12.2,10.6,3.8,10.7C13.8,140-3.6,139.9-11.1,139.9z"/>
		<path fill="#ADD9F2" d="M22,137.4c1.3,0,2.8-1.6,1.5-3.6c-1.2-2-3.9-1.6-6-0.3c0,0,0.2-3.3-1.3-4.9c-1-1-4.2-1.8-7.4,2.1l0,0
			c0,0-2.4-12.7-12.9-7c-3.5,1.9,3.3-3.8,6.7-4.2c1.8-0.2,4,0.8,4,0.8l4.1,4.9l2.9-1.6l2.7,0.9l2.6,1.8l1,2.9l3.2-0.5l3.2,0.7
			l2.1,2.6v2.4l-0.6,3.5l-2.6,2.1l-37.7,0.3l-2.6-2.7"/>
		<path fill="none" stroke="#40B4E5" stroke-width="2.3339" d="M-11.1,139.9c-8.3,0-5.3-14.8,4.8-10.9c0.1-10.4,12.7-13.2,17-3.8
			c3-3.1,9.1-1.1,9.2,3.9c9.1-3.5,12.2,10.6,3.8,10.7C13.8,140-3.6,139.9-11.1,139.9z"/>
	</g>
</g>
<g id="Discrepencies" display="none">
	<g display="inline">
		<line fill="none" stroke="#DA1F26" stroke-width="4" stroke-linecap="round" x1="-0.6" y1="3.2" x2="52.1" y2="55.9"/>
		<line fill="none" stroke="#DA1F26" stroke-width="4" stroke-linecap="round" x1="52.1" y1="3.2" x2="-0.6" y2="55.9"/>
	</g>
	<rect x="-23.2" y="-18.9" display="inline" fill="#FFFFFF" width="98" height="98"/>
	<rect x="97.2" y="98.3" display="inline" fill="#FFFFFF" width="98" height="98"/>
</g>
<g id="LABELS" display="none">
	
		<text transform="matrix(1 0 0 1 4.5322 94.7373)" display="inline" fill="#383838" font-family="'MyriadPro-Regular'" font-size="12">6 Foggy</text>
</g>
<g id="NUMBERS" display="none">
</g>
</svg>
