<?xml version="1.0" encoding="utf-8"?>
<!-- Generator: Adobe Illustrator 17.1.0, SVG Export Plug-In . SVG Version: 6.00 Build 0)  -->
<!DOCTYPE svg PUBLIC "-//W3C//DTD SVG 1.1//EN" "http://www.w3.org/Graphics/SVG/1.1/DTD/svg11.dtd">
<svg version="1.1" id="Layer_1" xmlns="http://www.w3.org/2000/svg" xmlns:xlink="http://www.w3.org/1999/xlink" x="0px" y="0px"
	 viewBox="0 0 120 120" enable-background="new 0 0 120 120" xml:space="preserve">
<g id="TWC" display="none">
	<g id="_x34_bpTf7.tif_1_" display="inline">
		
			<image overflow="visible" enable-background="new    " width="100" height="101" id="Layer_0_30_" xlink:href="577EC7ACC1691D3.png"  transform="matrix(1 0 0 0.9901 -45.0313 -60.7822)">
		</image>
	</g>
	<g id="HxB6V4.tif" display="inline">
		
			<image overflow="visible" enable-background="new    " width="88" height="83" id="Layer_0_35_" xlink:href="577EC7ACC1691D1.png"  transform="matrix(1 0 0 1 -39.0313 69.1895)">
		</image>
	</g>
</g>
<g id="ios">
	<path fill="#FFFFFF" d="M6,69.9"/>
	<g>
		<path fill="#FFFFFF" d="M88.8,74.5c-0.2,0-0.4,0-0.5,0c-0.1,0-0.1,0-0.2,0C88.3,74.5,88.6,74.5,88.8,74.5z"/>
		<path fill="#FFFFFF" d="M11.3,62.2L11.3,62.2c0,0,2.5,1.9,6.5,3.6c-1.2-1.7-2-3.7-2-6c0-5.6,4.6-10.2,10.2-10.2h5.1l0-3
			c0-12.5,10.2-22.7,22.8-22.7c9.4,0,17.7,5.7,21.1,14.4l1.3,3.2l3-1.7c2.4-1.3,5-2,7.7-2c8.8,0,15.9,7.1,15.9,15.9
			c0,0.4,0,0.8,0,1.1c2.1,0.7,4.1,1.4,5.8,2.2c0.2-1.1,0.3-2.2,0.3-3.3c0-12.1-9.8-21.9-21.9-21.9c-2.6,0-5.3,0.5-7.7,1.4
			C74.4,23.8,64.8,17.9,54,17.9c-14.8,0-27.1,11.3-28.6,25.7C16.8,44,9.9,51.1,9.9,59.8c0,0.5,0,1,0.1,1.5
			C10.4,61.5,10.9,61.8,11.3,62.2z"/>
	</g>
	<path fill="#FFFFFF" d="M29.5,80.1c-15.1,0-25.3-8.2-25.7-8.6c-1.3-1.1-1.5-2.9-0.4-4.2c1.1-1.3,2.9-1.5,4.2-0.4l0,0
		C7.7,67,18.2,75.3,32.9,74c7.9-0.7,17.3-4.3,26.4-7.8c9.3-3.5,18-6.8,25.6-7.5c15.7-1.5,28.9,7.9,29.5,8.3c1.3,1,1.7,2.8,0.7,4.2
		c-1,1.3-2.8,1.6-4.2,0.7c-0.1-0.1-12-8.5-25.4-7.2c-6.8,0.6-15.2,3.8-24,7.2c-9.5,3.6-19.3,7.3-28,8.1
		C32.1,80.1,30.8,80.1,29.5,80.1z"/>
	<path fill="#FFFFFF" d="M29.5,96.1c-15.1,0-25.3-8.2-25.7-8.6c-1.3-1.1-1.5-2.9-0.4-4.2c1.1-1.3,2.9-1.5,4.2-0.4l0,0
		C7.7,83,18.2,91.3,32.9,90c7.9-0.7,17.3-4.3,26.4-7.8c9.3-3.5,18-6.8,25.6-7.5c15.7-1.5,28.9,7.9,29.5,8.3c1.3,1,1.7,2.8,0.7,4.2
		c-1,1.3-2.8,1.6-4.2,0.7c-0.1-0.1-12-8.5-25.4-7.2c-6.8,0.6-15.2,3.8-24,7.2c-9.5,3.6-19.3,7.3-28,8.1
		C32.1,96.1,30.8,96.1,29.5,96.1z"/>
</g>
<g id="Jenn_x5F_new_set" display="none">
	<path display="inline" fill="#ADD9F2" d="M194,38.1c-8,6.5-19.2,9.5-29.4,8.6c-7.2-0.7-14.4-3.1-21.5-4.5
		c-9.6-1.9-19.2-1.5-28.7,0.4c-2.7,0.5-5.2,1.7-8,1.8l-3-0.6c2.8,0,5.3-1.2,8-1.8c9.5-1.8,19.1-2.3,28.7-0.4
		c7.1,1.4,14.3,3.8,21.5,4.5c10.2,1,21.5-2,29.4-8.6"/>
	<path display="inline" fill="#ADD9F2" d="M196.1,62.1c-4.3,1.3-9.4,1.4-14,1.8c-6.6,0.6-13.2,0.6-19.9,0.5
		c-3.9-0.1-8.5-0.1-12.3-1.5c-4.2-1.6-1.5-4,1.5-4.8c1.7-0.5,7.1-1.5,8.5,0c1.9,1.8-2.5,2.6-3.9,2.8c-4.9,0.7-10.3-0.3-15.1-0.9
		c-10.7-1.5-20.2-0.8-30.5,2.3l-3-0.6c10.3-3.2,19.9-3.8,30.5-2.3c4.8,0.7,10.2,1.6,15.1,0.9c1.4-0.2,5.8-1,3.9-2.8
		c-1.5-1.4-6.9-0.4-8.5,0c-2.9,0.8-5.7,3.2-1.5,4.8c3.7,1.4,8.4,1.4,12.3,1.5c6.6,0.2,13.3,0.2,19.9-0.5c4.5-0.4,9.6-0.5,14-1.8"/>
	<path display="inline" fill="#ADD9F2" d="M196.5,24.1c-7.4,4.5-16.2,6.6-24.8,6.9c-5.9,0.2-11.8-0.2-17.6-1.4
		c-3.8-0.8-7.4-2.2-11.1-3.1c-10.5-2.6-22.6-2.2-33.2-0.1l-3-0.6c10.6-2.2,22.7-2.6,33.1,0.1c3.8,0.9,7.3,2.3,11.1,3.1
		c5.8,1.2,11.7,1.5,17.6,1.4c8.6-0.2,17.5-2.3,24.8-6.9"/>
	<path display="inline" fill="#40B4E5" d="M195.2,39.9c-8,6.5-19.2,9.5-29.4,8.6c-7.2-0.7-14.4-3.1-21.5-4.5
		c-9.6-1.9-19.2-1.5-28.7,0.4c-2.7,0.5-5.2,1.7-8,1.8l-3-0.6c2.8,0,5.3-1.2,8-1.8c9.5-1.8,19.1-2.3,28.7-0.4
		c7.1,1.4,14.3,3.8,21.5,4.5c10.2,1,21.5-2,29.4-8.6"/>
	<path display="inline" fill="#40B4E5" d="M197.4,63.9c-4.3,1.3-9.4,1.4-14,1.8c-6.6,0.6-13.2,0.6-19.9,0.5
		c-3.9-0.1-8.5-0.1-12.3-1.5c-4.2-1.6-1.5-4,1.5-4.8c1.7-0.5,7.1-1.5,8.5,0c1.9,1.8-2.5,2.6-3.9,2.8c-4.9,0.7-10.3-0.3-15.1-0.9
		c-10.7-1.5-20.2-0.8-30.5,2.3l-3-0.6c10.3-3.2,19.9-3.8,30.5-2.3c4.8,0.7,10.2,1.6,15.1,0.9c1.4-0.2,5.8-1,3.9-2.8
		c-1.5-1.4-6.9-0.4-8.5,0c-2.9,0.8-5.7,3.2-1.5,4.8c3.7,1.4,8.4,1.4,12.3,1.5c6.6,0.2,13.3,0.2,19.9-0.5c4.5-0.4,9.6-0.5,14-1.8"/>
	<path display="inline" fill="#40B4E5" d="M197.7,25.9c-7.4,4.5-16.2,6.6-24.8,6.9c-5.9,0.2-11.8-0.2-17.6-1.4
		c-3.8-0.8-7.4-2.2-11.1-3.1c-10.5-2.6-22.6-2.2-33.2-0.1l-3-0.6c10.6-2.2,22.7-2.6,33.1,0.1c3.8,0.9,7.3,2.3,11.1,3.1
		c5.8,1.2,11.7,1.5,17.6,1.4c8.6-0.2,17.5-2.3,24.8-6.9"/>
	<g display="inline">
		<path fill="#FFFFFF" d="M-12.3,8.4c-9.8,0-6.3-17.4,5.7-12.9c0.2-12.3,15-15.5,20-4.4c3.5-3.6,10.8-1.3,10.9,4.6
			C35-8.3,38.7,8.3,28.7,8.4C17,8.5-3.5,8.4-12.3,8.4z"/>
		<path fill="#CCCCCC" d="M26.7,5.5c1.6,0,3.2-1.9,1.8-4.3c-1.4-2.3-4.6-1.9-7.1-0.3c0,0,0.3-3.9-1.6-5.7c-1.2-1.2-4.9-2.1-8.7,2.4
			l0,0c0,0-2.8-14.9-15.2-8.3c-4.1,2.2,3.9-4.5,7.9-4.9c2.1-0.2,4.7,1,4.7,1l4.9,5.8l3.5-1.9l3.1,1l3.1,2.1l1.1,3.4L28-4.9l3.7,0.8
			l2.5,3v2.8l-0.7,4.2l-3.1,2.4L-14,8.7l-3-3.2"/>
		<path fill="none" stroke="#999999" stroke-width="2.7482" d="M-12.3,8.4c-9.8,0-6.3-17.4,5.7-12.9c0.2-12.3,15-15.5,20-4.4
			c3.5-3.6,10.8-1.3,10.9,4.6C35-8.3,38.7,8.3,28.7,8.4C17,8.5-3.5,8.4-12.3,8.4z"/>
	</g>
	<g id="Winter_Leaf" display="inline">
	</g>
	<g id="Maple_Leaf_2" display="inline">
		<g id="Leaf_3">
		</g>
	</g>
</g>
<g id="Discrepencies" display="none">
	<g display="inline">
		<line fill="none" stroke="#DA1F26" stroke-width="4" stroke-linecap="round" x1="-21.4" y1="81.8" x2="31.3" y2="134.5"/>
		<line fill="none" stroke="#DA1F26" stroke-width="4" stroke-linecap="round" x1="31.3" y1="81.8" x2="-21.4" y2="134.5"/>
	</g>
	<rect x="-43.6" y="58.8" display="inline" fill="#FFFFFF" width="99.4" height="99.4"/>
	<rect x="-45" y="-60.8" display="inline" fill="#FFFFFF" width="98" height="98"/>
</g>
<g id="LABELS" display="none">
</g>
<g id="NUMBERS" display="none">
</g>
</svg>
