<?xml version="1.0" encoding="utf-8"?>
<!-- Generator: Adobe Illustrator 17.1.0, SVG Export Plug-In . SVG Version: 6.00 Build 0)  -->
<!DOCTYPE svg PUBLIC "-//W3C//DTD SVG 1.1//EN" "http://www.w3.org/Graphics/SVG/1.1/DTD/svg11.dtd">
<svg version="1.1" id="Layer_1" xmlns="http://www.w3.org/2000/svg" xmlns:xlink="http://www.w3.org/1999/xlink" x="0px" y="0px"
	 viewBox="0 0 120 120" enable-background="new 0 0 120 120" xml:space="preserve">
<g id="TWC" display="none">
	<g id="dco2Wo.tif" display="inline">
		
			<image overflow="visible" enable-background="new    " width="88" height="84" id="Layer_0_17_" xlink:href="5EE09263419AAB86.png"  transform="matrix(1 0 0 0.9881 21.7119 -11.6465)">
		</image>
	</g>
	<g id="tQfrYH.tif_1_" display="inline">
		
			<image overflow="visible" enable-background="new    " width="98" height="98" id="Layer_0_22_" xlink:href="5EE09263419AAB8A.png"  transform="matrix(1 0 0 0.9898 16.7119 98.5625)">
		</image>
	</g>
</g>
<g id="ios">
	<g>
		<g>
			<path fill="#FFFFFF" d="M98.1,107.6H47.2c-7.7,0-13.9-6.2-13.9-13.9c0-7.3,5.7-13.3,12.8-13.8c1.5-12,11.7-21.3,24.1-21.3
				c9,0,17,4.8,21.2,12.5c2-0.7,4-1,6.1-1c10.3,0,18.6,8.4,18.6,18.6c0,7.6-4.5,14.3-11.6,17.2C102.7,107,100.4,107.6,98.1,107.6z
				 M47.2,85.8c-4.3,0-7.9,3.5-7.9,7.9c0,4.3,3.5,7.9,7.9,7.9h50.9c1.3,0,2.7-0.3,3.8-1l0.4-0.2c4.8-1.9,8-6.5,8-11.7
				c0-7-5.7-12.6-12.6-12.6c-2.1,0-4.3,0.6-6.1,1.6l-3,1.7l-1.3-3.2c-2.8-7-9.4-11.6-17-11.6c-10.1,0-18.3,8.2-18.3,18.2l0,3
				L47.2,85.8L47.2,85.8z"/>
		</g>
	</g>
	<path fill="#FFFFFF" d="M105.5,46.5c-1.7,0.4-3.5,0.7-5.3,0.7c-11.7,0-21.3-9.5-21.3-21.3c0-2,0.3-3.9,0.8-5.9l1.4-5l-5.1,1.3
		c-12,3.1-20.4,14-20.4,26.4c0,0.5,0,1,0,1.5c2.6,1.4,4.9,3.1,7,5.2c-0.7-2.1-1.1-4.3-1.1-6.6c0-8,4.5-15.2,11.3-18.8
		c0,0.7-0.1,1.3-0.1,2c0,15,12.2,27.3,27.3,27.3c0.4,0,0.9,0,1.3,0c-2.2,3.8-5.5,6.9-9.4,8.7c0.8,0.8,1.5,1.6,2.2,2.5
		c1.1-0.2,2.3-0.2,3.4-0.2c0.7,0,1.3,0,1.9,0.1c4.5-3.5,7.9-8.3,9.5-14l1.4-5L105.5,46.5z"/>
	<g>
		<g>
			<path fill="#FFFFFF" d="M27.4,93.7c0-1.4,0.2-2.8,0.5-4.1h-9.4c-4.3,0-7.9-3.5-7.9-7.9c0-4.3,3.5-7.9,7.9-7.9h4.8l0-3
				c0-10.1,8.2-18.2,18.3-18.2c4.7,0,9.1,1.8,12.4,4.8c1.8-1.1,3.6-2.1,5.6-2.8c-4.5-5-11-8-18-8c-12.4,0-22.6,9.3-24.1,21.3
				c-7.2,0.5-12.8,6.5-12.8,13.8c0,7.7,6.2,13.9,13.9,13.9h9C27.4,95,27.4,94.3,27.4,93.7z"/>
		</g>
	</g>
</g>
<g id="Jenn_x5F_new_set" display="none">
	<g id="Winter_Leaf" display="inline">
	</g>
	<g id="Maple_Leaf_2" display="inline">
		<g id="Leaf_3">
		</g>
	</g>
</g>
<g id="Discrepencies" display="none">
	<g display="inline">
		<line fill="none" stroke="#DA1F26" stroke-width="4" stroke-linecap="round" x1="39.4" y1="3.5" x2="92.1" y2="56.2"/>
		<line fill="none" stroke="#DA1F26" stroke-width="4" stroke-linecap="round" x1="92.1" y1="3.5" x2="39.4" y2="56.2"/>
	</g>
	<rect x="16.7" y="-20.1" display="inline" fill="#FFFFFF" width="99" height="99"/>
	<rect x="16.7" y="98.6" display="inline" fill="#FFFFFF" width="98" height="98"/>
</g>
<g id="LABELS" display="none">
</g>
<g id="NUMBERS" display="none">
</g>
</svg>
