<?xml version="1.0" encoding="utf-8"?>
<!-- Generator: Adobe Illustrator 17.1.0, SVG Export Plug-In . SVG Version: 6.00 Build 0)  -->
<!DOCTYPE svg PUBLIC "-//W3C//DTD SVG 1.1//EN" "http://www.w3.org/Graphics/SVG/1.1/DTD/svg11.dtd">
<svg version="1.1" id="Layer_1" xmlns="http://www.w3.org/2000/svg" xmlns:xlink="http://www.w3.org/1999/xlink" x="0px" y="0px"
	 viewBox="0 0 120 120" enable-background="new 0 0 120 120" xml:space="preserve">
<g id="TWC" display="none">
	<g id="tQfrYH.tif" display="inline">
		
			<image overflow="visible" enable-background="new    " width="98" height="98" id="Layer_0_21_" xlink:href="36CCA8A7F8FABD5C.png"  transform="matrix(1 0 0 0.9898 36.3853 -39.064)">
		</image>
	</g>
	<g id="ZwiPhP.tif" display="inline">
		
			<image overflow="visible" enable-background="new    " width="88" height="41" id="Layer_0_26_" xlink:href="36CCA8A7F8FABD5D.png"  transform="matrix(0.9886 0 0 0.9756 41.8853 103.7036)">
		</image>
	</g>
</g>
<g id="ios">
	<g>
		<path fill="#FFFFFF" d="M105.5,50.5c-1.7,0.4-3.5,0.7-5.3,0.7c-11.7,0-21.3-9.5-21.3-21.3c0-2,0.3-3.9,0.8-5.9l1.4-5l-5.1,1.3
			c-11.2,2.9-19.2,12.5-20.3,23.9c2.1,1.1,4.2,2.5,6,4.2c0-0.6-0.1-1.1-0.1-1.7c0-8,4.5-15.2,11.3-18.8c0,0.7-0.1,1.3-0.1,2
			c0,15,12.2,27.3,27.3,27.3c0.4,0,0.9,0,1.3,0c-2.3,4.1-6,7.3-10.3,9.2C92,68.1,92.6,70,93,72c7.7-3.1,13.8-9.5,16.1-17.8l1.4-5
			L105.5,50.5z"/>
	</g>
	<path fill="#FFFFFF" d="M69.3,95.6H18.4c-7.7,0-13.9-6.2-13.9-13.9c0-7.3,5.7-13.3,12.8-13.8c1.5-12,11.7-21.3,24.1-21.3
		c9,0,17,4.8,21.2,12.5c2-0.7,4-1,6.1-1c10.3,0,18.6,8.4,18.6,18.6c0,7.6-4.5,14.3-11.6,17.2C73.9,95,71.6,95.6,69.3,95.6z
		 M18.4,73.8c-4.3,0-7.9,3.5-7.9,7.9c0,4.3,3.5,7.9,7.9,7.9h50.9c1.3,0,2.7-0.3,3.8-1l0.4-0.2c4.8-1.9,8-6.5,8-11.7
		c0-7-5.7-12.6-12.6-12.6c-2.1,0-4.3,0.6-6.1,1.6l-3,1.7l-1.3-3.2c-2.8-7-9.5-11.6-17-11.6c-10.1,0-18.3,8.2-18.3,18.2l0,3
		L18.4,73.8L18.4,73.8z"/>
</g>
<g id="Jenn_x5F_new_set" display="none">
	<g display="inline">
		<path fill="#FFFFFF" d="M58.2,135.2c-13,0-8.3-23,7.5-17c0.2-16.2,19.8-20.5,26.4-5.9c4.7-4.7,14.2-1.7,14.3,6.1
			c14.2-5.4,19,16.6,5.9,16.7C96.9,135.3,69.8,135.2,58.2,135.2z"/>
		<path fill="#ADD9F2" d="M109.7,131.3c2.1-0.1,4.3-2.5,2.4-5.6c-1.9-3-6.1-2.5-9.4-0.4c0,0,0.3-5.2-2.1-7.6
			c-1.6-1.6-6.5-2.8-11.4,3.2l0,0c0,0-3.7-19.7-20.1-10.9c-5.5,2.9,5.1-6,10.5-6.5c2.8-0.3,6.2,1.3,6.2,1.3l6.4,7.7l4.6-2.5l4.1,1.4
			l4.1,2.7l1.5,4.5l4.9-0.8l4.9,1l3.3,4v3.7l-0.9,5.5l-4.1,3.2L56,135.5l-4-4.2"/>
		<path fill="none" stroke="#40B4E5" stroke-width="2.7482" d="M58.2,135.2c-13,0-8.3-23,7.5-17c0.2-16.2,19.8-20.5,26.4-5.9
			c4.7-4.7,14.2-1.7,14.3,6.1c14.2-5.4,19,16.6,5.9,16.7C96.9,135.3,69.8,135.2,58.2,135.2z"/>
	</g>
	<g id="Winter_Leaf" display="inline">
	</g>
	<g id="Maple_Leaf_2" display="inline">
		<g id="Leaf_3">
		</g>
	</g>
</g>
<g id="Discrepencies" display="none">
	<g display="inline">
		<line fill="none" stroke="#DA1F26" stroke-width="4" stroke-linecap="round" x1="59" y1="-16.9" x2="111.7" y2="35.8"/>
		<line fill="none" stroke="#DA1F26" stroke-width="4" stroke-linecap="round" x1="111.7" y1="-16.9" x2="59" y2="35.8"/>
	</g>
	<rect x="36.4" y="-39.1" display="inline" fill="#FFFFFF" width="99" height="99"/>
</g>
<g id="LABELS" display="none">
	
		<text transform="matrix(1 0 0 1 65.4556 76.936)" display="inline" fill="#383838" font-family="'MyriadPro-Regular'" font-size="12">Overcast</text>
</g>
<g id="NUMBERS" display="none">
</g>
</svg>
