<?xml version="1.0" encoding="utf-8"?>
<!-- Generator: Adobe Illustrator 17.1.0, SVG Export Plug-In . SVG Version: 6.00 Build 0)  -->
<!DOCTYPE svg PUBLIC "-//W3C//DTD SVG 1.1//EN" "http://www.w3.org/Graphics/SVG/1.1/DTD/svg11.dtd">
<svg version="1.1" id="Layer_1" xmlns="http://www.w3.org/2000/svg" xmlns:xlink="http://www.w3.org/1999/xlink" x="0px" y="0px"
	 viewBox="0 0 120 120" enable-background="new 0 0 120 120" xml:space="preserve">
<g id="TWC" display="none">
	<g id="IDi1mN.tif" display="inline">
		
			<image overflow="visible" enable-background="new    " width="100" height="76" id="Layer_0_27_" xlink:href="149FC950BC97A08E.png"  transform="matrix(0.99 0 0 0.9868 16.2007 -48.9619)">
		</image>
	</g>
	<g id="YZHetf.tif" display="inline">
		
			<image overflow="visible" enable-background="new    " width="100" height="100" id="Layer_0_32_" xlink:href="149FC950BC97A092.png"  transform="matrix(1 0 0 1 15.7007 58.332)">
		</image>
	</g>
</g>
<g>
	<path fill="#FFFFFF" d="M105.5,50.5c-1.7,0.4-3.5,0.7-5.3,0.7c-11.7,0-21.3-9.5-21.3-21.3c0-2,0.3-3.9,0.8-5.9l1.4-5l-5.1,1.3
		c-11.2,2.9-19.2,12.5-20.3,23.9c2.1,1.1,4.2,2.5,6,4.2c0-0.6-0.1-1.1-0.1-1.7c0-8,4.5-15.2,11.3-18.8c0,0.7-0.1,1.3-0.1,2
		c0,15,12.2,27.3,27.3,27.3c0.4,0,0.9,0,1.3,0c-2.3,4.1-6,7.3-10.3,9.2C92,68.1,92.6,70,93,72c7.7-3.1,13.8-9.5,16.1-17.8l1.4-5
		L105.5,50.5z"/>
</g>
<path fill="#FFFFFF" d="M69.3,95.6H18.4c-7.7,0-13.9-6.2-13.9-13.9c0-7.3,5.7-13.3,12.8-13.8c1.5-12,11.7-21.3,24.1-21.3
	c9,0,17,4.8,21.2,12.5c2-0.7,4-1,6.1-1c10.3,0,18.6,8.4,18.6,18.6c0,7.6-4.5,14.3-11.6,17.2C73.9,95,71.6,95.6,69.3,95.6z
	 M18.4,73.8c-4.3,0-7.9,3.5-7.9,7.9c0,4.3,3.5,7.9,7.9,7.9h50.9c1.3,0,2.7-0.3,3.8-1l0.4-0.2c4.8-1.9,8-6.5,8-11.7
	c0-7-5.7-12.6-12.6-12.6c-2.1,0-4.3,0.6-6.1,1.6l-3,1.7l-1.3-3.2c-2.8-7-9.5-11.6-17-11.6c-10.1,0-18.3,8.2-18.3,18.2l0,3L18.4,73.8
	L18.4,73.8z"/>
<line fill="none" stroke="#FFFFFF" stroke-width="6" stroke-linecap="round" stroke-miterlimit="10" x1="37.7" y1="113.8" x2="45.6" y2="105.9"/>
<line fill="none" stroke="#FFFFFF" stroke-width="6" stroke-linecap="round" stroke-miterlimit="10" x1="57.7" y1="113.8" x2="65.6" y2="105.9"/>
<line fill="none" stroke="#FFFFFF" stroke-width="6" stroke-linecap="round" stroke-miterlimit="10" x1="17.7" y1="113.8" x2="25.6" y2="105.9"/>
<g id="Jenn_x5F_new_set" display="none">
	<g display="inline">
		<g>
			<path fill="#ADD9F2" stroke="#40B4E5" stroke-miterlimit="10" d="M42.3-46.4c-2.3,0-4.6,0.3-6.7,0.9c6.8,3.1,11.6,10,11.6,18
				c0,10.9-8.8,19.8-19.8,19.8c-1.7,0-3.3-0.2-4.9-0.6C26.9-2.2,34.1,1.9,42.3,1.9c13.3,0,24.1-10.8,24.1-24.1S55.6-46.4,42.3-46.4z
				"/>
		</g>
		<g>
			<path fill="#ADD9F2" stroke="#40B4E5" stroke-width="3.4353" stroke-linecap="round" stroke-linejoin="round" d="M42.3-46.4
				c-2.3,0-4.6,0.3-6.7,0.9c6.8,3.1,11.6,10,11.6,18c0,10.9-8.8,19.8-19.8,19.8c-1.7,0-3.3-0.2-4.9-0.6C26.9-2.2,34.1,1.9,42.3,1.9
				c13.3,0,24.1-10.8,24.1-24.1S55.6-46.4,42.3-46.4z"/>
		</g>
	</g>
	<polygon display="inline" fill="#F9ED32" stroke="#F7941E" stroke-width="2.7482" points="65.7,74 68.8,80.7 73.8,75.2 74.6,82.6 
		81,78.9 79.5,86.2 86.8,84.7 83.1,91.2 90.5,92 85,97 91.8,100.1 85,103.1 90.5,108.1 83.1,108.9 86.8,115.4 79.5,113.9 81,121.2 
		74.6,117.5 73.8,124.9 68.8,119.4 65.7,126.2 62.6,119.4 57.6,124.9 56.8,117.5 50.4,121.2 51.9,113.9 44.6,115.4 48.3,108.9 
		40.9,108.1 46.4,103.1 39.6,100.1 46.4,97 40.9,92 48.3,91.2 44.6,84.7 51.9,86.2 50.4,78.9 56.8,82.6 57.6,75.2 62.6,80.7 	"/>
	<g display="inline">
		<path fill="#FFFFFF" d="M53.5,8.6c-9.8,0-6.3-17.4,5.7-12.9c0.2-12.3,15-15.5,20-4.4C82.7-12.3,89.9-10,90-4.1
			c10.8-4.1,14.4,12.5,4.5,12.6C82.8,8.6,62.2,8.6,53.5,8.6z"/>
		<path fill="#CCCCCC" d="M92.4,5.6c1.6,0,3.2-1.9,1.8-4.3C92.8-1,89.6-0.6,87.1,1c0,0,0.3-3.9-1.6-5.7c-1.2-1.2-4.9-2.1-8.7,2.4
			l0,0c0,0-2.8-14.9-15.2-8.3c-4.1,2.2,3.9-4.5,7.9-4.9c2.1-0.2,4.7,1,4.7,1l4.8,5.8l3.5-1.9l3.1,1l3.1,2.1L90-4.1l3.7-0.6l3.7,0.8
			l2.5,3v2.8L99.3,6l-3.1,2.4L51.7,8.8l-3-3.2"/>
		<path fill="none" stroke="#999999" stroke-width="2.7482" d="M53.5,8.6c-9.8,0-6.3-17.4,5.7-12.9c0.2-12.3,15-15.5,20-4.4
			C82.7-12.3,89.9-10,90-4.1c10.8-4.1,14.4,12.5,4.5,12.6C82.8,8.6,62.2,8.6,53.5,8.6z"/>
	</g>
	<g id="Winter_Leaf" display="inline">
	</g>
	<g id="Maple_Leaf_2" display="inline">
		<g id="Leaf_3">
		</g>
	</g>
</g>
<g id="Discrepencies" display="none">
</g>
<g id="LABELS" display="none">
	
		<text transform="matrix(1 0 0 1 37.8135 56.332)" display="inline" fill="#383838" font-family="'MyriadPro-Regular'" font-size="12">1 Clear (day)</text>
</g>
<g id="NUMBERS" display="none">
</g>
</svg>
