<?xml version="1.0" encoding="utf-8"?>
<!-- Generator: Adobe Illustrator 17.1.0, SVG Export Plug-In . SVG Version: 6.00 Build 0)  -->
<!DOCTYPE svg PUBLIC "-//W3C//DTD SVG 1.1//EN" "http://www.w3.org/Graphics/SVG/1.1/DTD/svg11.dtd">
<svg version="1.1" id="Layer_1" xmlns="http://www.w3.org/2000/svg" xmlns:xlink="http://www.w3.org/1999/xlink" x="0px" y="0px"
	 viewBox="0 0 120 120" enable-background="new 0 0 120 120" xml:space="preserve">
<g id="TWC" display="none">
	<g id="sOIT75.tif" display="inline">
		
			<image overflow="visible" enable-background="new    " width="88" height="67" id="Layer_0_12_" xlink:href="9F6F94FFF00C2D7F.png"  transform="matrix(1 0 0 1 22.0649 10)">
		</image>
	</g>
</g>
<g id="ios">
	<g>
		<path fill="#FFFFFF" d="M81.5,74.2C81.5,74.2,81.5,74.2,81.5,74.2C81.4,74.2,81.4,74.2,81.5,74.2C81.4,74.2,81.5,74.2,81.5,74.2z"
			/>
		<path fill="#FFFFFF" d="M91.6,25.9c-3,0-6,0.6-8.8,1.6C77.1,16.8,65.9,10,53.5,10c-17,0-31.1,13-32.9,29.5
			c-9.9,0.4-17.8,8.6-17.8,18.6c0,10.3,8.4,18.6,18.6,18.6h26.8c-0.1-1-0.1-2,0.2-3c0.1-0.2,0.1-0.5,0.2-0.7
			c-0.1-0.3-0.2-0.6-0.3-0.9c-0.2-0.8-0.3-1.6-0.3-2.3H21.4c-6.4,0-11.6-5.2-11.6-11.6c0-6.4,5.2-11.6,11.6-11.6h6l0-3.5
			c0-14.4,11.7-26,26.1-26c10.8,0,20.3,6.5,24.3,16.5l1.5,3.7l3.5-1.9c2.7-1.5,5.8-2.3,8.9-2.3c10,0,18.2,8.2,18.2,18.2
			c0,7.5-4.5,14.1-11.5,16.9l-0.4,0.2c-1.7,1-3.7,1.5-5.7,1.5h-3.1c0,0.8-0.1,1.5-0.3,2.3c-0.1,0.3-0.2,0.7-0.4,1
			c0.1,0.3,0.2,0.5,0.3,0.8c0.3,1,0.3,2,0.2,2.9h3.2c3.1,0,6.2-0.8,8.9-2.3c9.5-3.9,15.7-13,15.7-23.3
			C116.8,37.3,105.5,25.9,91.6,25.9z"/>
		<path fill="#FFFFFF" d="M55.9,74.2C55.9,74.2,55.9,74.2,55.9,74.2C55.9,74.2,55.8,74.2,55.9,74.2C55.9,74.2,55.9,74.2,55.9,74.2z"
			/>
	</g>
	<g>
		<path fill="#FFFFFF" d="M82.7,79.2l-2.2-1.3l1.4-0.4c0.9-0.2,1.4-1.2,1.2-2.1c-0.2-0.9-1.2-1.4-2.1-1.2l-4.4,1.2
			c-0.1,0-0.3-0.1-0.4-0.1l-1.6-0.9c0.1-0.5,0.2-1,0.2-1.6c0-0.5-0.1-1-0.2-1.5l1.7-1c0.1,0,0.3,0,0.4-0.1l4.4,1.2
			c0.2,0,0.3,0.1,0.4,0.1c0.7,0,1.4-0.5,1.6-1.2c0.2-0.9-0.3-1.8-1.2-2.1L80.6,68l2.2-1.3c0.8-0.5,1.1-1.5,0.6-2.3
			c-0.5-0.8-1.5-1.1-2.3-0.6l-2.2,1.3l0.4-1.4c0.2-0.9-0.3-1.8-1.2-2c-0.9-0.2-1.8,0.3-2,1.2l-1.1,4.4c-0.1,0.1-0.2,0.2-0.3,0.3
			l-1.7,1c-0.7-0.7-1.6-1.2-2.6-1.5v-2c0.1-0.1,0.1-0.3,0.1-0.4l3.2-3.2c0.7-0.6,0.7-1.7,0-2.4c-0.6-0.7-1.7-0.7-2.4,0l-1.1,1v-2.5
			c0-0.9-0.7-1.7-1.7-1.7c-0.9,0-1.7,0.7-1.7,1.7v2.5l-1.1-1c-0.7-0.6-1.7-0.6-2.4,0c-0.6,0.7-0.6,1.7,0,2.4l3.2,3.2
			c0,0.1,0.1,0.3,0.1,0.4v2.1c-1,0.3-1.9,0.8-2.7,1.6l-1.7-1c-0.1-0.1-0.2-0.2-0.3-0.3l-1.1-4.4c-0.2-0.9-1.1-1.4-2-1.2
			c-0.9,0.2-1.4,1.1-1.2,2l0.4,1.4l-2.2-1.3c-0.8-0.5-1.8-0.2-2.3,0.6c-0.5,0.8-0.2,1.8,0.6,2.3l2.2,1.3l-1.4,0.4
			c-0.9,0.2-1.4,1.2-1.2,2.1c0.2,0.7,0.9,1.2,1.6,1.2c0.1,0,0.3,0,0.4-0.1l4.4-1.2c0.1,0,0.3,0.1,0.4,0.1l1.7,1
			c-0.1,0.5-0.2,0.9-0.2,1.4c0,0.5,0.1,1,0.2,1.5l-1.7,1c-0.1,0-0.3,0-0.4,0.1l-4.4-1.2c-0.9-0.2-1.8,0.3-2.1,1.2
			c-0.2,0.9,0.3,1.8,1.2,2.1l1.4,0.4l-2.2,1.3c-0.8,0.5-1.1,1.5-0.6,2.3c0.3,0.5,0.9,0.8,1.4,0.8c0.3,0,0.6-0.1,0.8-0.2l2.2-1.3
			l-0.4,1.4c-0.2,0.9,0.3,1.8,1.2,2c0.1,0,0.3,0.1,0.4,0.1c0.7,0,1.4-0.5,1.6-1.3l1.1-4.4c0.1-0.1,0.2-0.2,0.3-0.3l1.7-1
			c0.7,0.7,1.6,1.2,2.6,1.5v1.8c-0.1,0.1-0.1,0.2-0.1,0.4l-3.2,3.2c-0.7,0.6-0.7,1.7,0,2.4c0.3,0.3,0.8,0.5,1.2,0.5
			c0.4,0,0.8-0.2,1.2-0.5l1.1-1v2.5c0,0.9,0.7,1.7,1.7,1.7c0.9,0,1.7-0.7,1.7-1.7v-2.5l1.1,1c0.3,0.3,0.7,0.5,1.2,0.5
			c0.4,0,0.9-0.2,1.2-0.5c0.6-0.7,0.6-1.7,0-2.4L70.5,81c0-0.1-0.1-0.3-0.1-0.4v-1.8c1-0.3,1.8-0.8,2.5-1.4l1.7,1
			c0.1,0.1,0.2,0.2,0.3,0.3l1.1,4.4c0.2,0.8,0.9,1.3,1.6,1.3c0.1,0,0.3,0,0.4-0.1c0.9-0.2,1.4-1.1,1.2-2l-0.4-1.4L81,82
			c0.3,0.2,0.5,0.2,0.8,0.2c0.6,0,1.1-0.3,1.4-0.8C83.7,80.6,83.4,79.6,82.7,79.2z M68.7,75.7c-1.5,0-2.8-1.2-2.8-2.8
			c0-1.5,1.2-2.8,2.8-2.8c1.5,0,2.8,1.2,2.8,2.8C71.5,74.5,70.2,75.7,68.7,75.7z"/>
	</g>
</g>
<g id="Jenn_x5F_new_set" display="none">
	<g display="inline">
		
			<line fill="none" stroke="#999999" stroke-width="2.7482" stroke-linecap="round" stroke-dasharray="10,6" x1="76.5" y1="77.3" x2="94.4" y2="40.3"/>
		
			<line fill="none" stroke="#999999" stroke-width="2.7482" stroke-linecap="round" stroke-dasharray="10,6" x1="65.4" y1="77.3" x2="83.3" y2="40.3"/>
		
			<line fill="none" stroke="#999999" stroke-width="2.7482" stroke-linecap="round" stroke-dasharray="10,6" x1="54.2" y1="77.3" x2="72.1" y2="40.3"/>
		
			<line fill="none" stroke="#999999" stroke-width="2.7482" stroke-linecap="round" stroke-dasharray="10,6" x1="43.1" y1="77.3" x2="61" y2="40.3"/>
		
			<line fill="none" stroke="#999999" stroke-width="2.7482" stroke-linecap="round" stroke-dasharray="10,6" x1="32" y1="77.3" x2="49.8" y2="40.3"/>
	</g>
	<g display="inline">
		<g>
			<path fill="#FFFFFF" d="M38.9,40.3c-13,0-8.3-23,7.5-17c0.2-16.2,19.8-20.5,26.4-5.9c4.7-4.7,14.2-1.7,14.3,6.1
				c14.2-5.4,19,16.6,5.9,16.7C77.6,40.4,50.5,40.3,38.9,40.3z"/>
			<path fill="#CCCCCC" d="M90.3,36.4c2.1-0.1,4.3-2.5,2.4-5.6c-1.9-3-6.1-2.5-9.4-0.4c0,0,0.3-5.2-2.1-7.6
				c-1.6-1.6-6.5-2.8-11.5,3.2l0,0c0,0-3.7-19.7-20.1-10.9c-5.5,2.9,5.1-6,10.5-6.5c2.8-0.3,6.2,1.3,6.2,1.3l6.4,7.7l4.6-2.5
				l4.1,1.4l4.1,2.7l1.5,4.5l4.9-0.8l4.9,1l3.3,4v3.7l-0.9,5.5l-4.1,3.2l-58.6,0.5l-4-4.2"/>
			<path fill="none" stroke="#999999" stroke-width="2.7482" d="M38.9,40.3c-13,0-8.3-23,7.5-17c0.2-16.2,19.8-20.5,26.4-5.9
				c4.7-4.7,14.2-1.7,14.3,6.1c14.2-5.4,19,16.6,5.9,16.7C77.6,40.4,50.5,40.3,38.9,40.3z"/>
		</g>
	</g>
	<g id="Winter_Leaf" display="inline">
	</g>
	<g id="Maple_Leaf_2" display="inline">
		<g id="Leaf_3">
		</g>
	</g>
</g>
<g id="Discrepencies" display="none">
	<rect x="17.1" y="120" display="inline" fill="#FFFFFF" width="99" height="99"/>
	<rect x="16.6" display="inline" fill="#FFFFFF" width="98.5" height="98.5"/>
</g>
<g id="LABELS" display="none">
</g>
<g id="NUMBERS" display="none">
</g>
</svg>
