<?xml version="1.0" encoding="utf-8"?>
<!-- Generator: Adobe Illustrator 17.1.0, SVG Export Plug-In . SVG Version: 6.00 Build 0)  -->
<!DOCTYPE svg PUBLIC "-//W3C//DTD SVG 1.1//EN" "http://www.w3.org/Graphics/SVG/1.1/DTD/svg11.dtd">
<svg version="1.1" id="Layer_1" xmlns="http://www.w3.org/2000/svg" xmlns:xlink="http://www.w3.org/1999/xlink" x="0px" y="0px"
	 viewBox="0 0 120 120" enable-background="new 0 0 120 120" xml:space="preserve">
<g id="TWC" display="none">
	<g id="ZwiPhP.tif" display="inline">
		
			<image overflow="visible" enable-background="new    " width="88" height="41" id="Layer_0_26_" xlink:href="E4589D66A66834FF.png"  transform="matrix(0.9886 0 0 0.9756 41.7222 -37.0693)">
		</image>
	</g>
	<g id="vEVovE.tif" display="inline">
		
			<image overflow="visible" enable-background="new    " width="58" height="58" id="Layer_0_31_" xlink:href="E4589D66A66834FD.png"  transform="matrix(1 0 0 1 56.2222 79.6631)">
		</image>
	</g>
</g>
<g id="ios">
	<g>
		<circle fill="none" stroke="#FFFFFF" stroke-width="7" stroke-miterlimit="10" cx="59.8" cy="59.2" r="34.8"/>
		
			<line fill="none" stroke="#FFFFFF" stroke-width="7" stroke-linecap="round" stroke-miterlimit="10" x1="68.1" y1="59.2" x2="77.4" y2="59.2"/>
		
			<line fill="none" stroke="#FFFFFF" stroke-width="7" stroke-linecap="round" stroke-miterlimit="10" x1="42.1" y1="59.2" x2="51.5" y2="59.2"/>
	</g>
</g>
<g id="Jenn_x5F_new_set" display="none">
	<g display="inline">
		<g>
			<path fill="#ADD9F2" stroke="#40B4E5" stroke-miterlimit="10" d="M90.4,74.3c-2.3,0-4.6,0.3-6.7,0.9c6.8,3.1,11.6,10,11.6,18
				c0,10.9-8.8,19.8-19.8,19.8c-1.7,0-3.3-0.2-4.9-0.6c4.4,6.2,11.6,10.2,19.7,10.2c13.3,0,24.1-10.8,24.1-24.1
				C114.6,85.1,103.8,74.3,90.4,74.3z"/>
		</g>
		<g>
			<path fill="#ADD9F2" stroke="#40B4E5" stroke-width="3.4353" stroke-linecap="round" stroke-linejoin="round" d="M90.4,74.3
				c-2.3,0-4.6,0.3-6.7,0.9c6.8,3.1,11.6,10,11.6,18c0,10.9-8.8,19.8-19.8,19.8c-1.7,0-3.3-0.2-4.9-0.6c4.4,6.2,11.6,10.2,19.7,10.2
				c13.3,0,24.1-10.8,24.1-24.1C114.6,85.1,103.8,74.3,90.4,74.3z"/>
		</g>
	</g>
	<g id="Winter_Leaf" display="inline">
	</g>
	<g id="Maple_Leaf_2" display="inline">
		<g id="Leaf_3">
		</g>
	</g>
</g>
<g id="Discrepencies" display="none">
</g>
<g id="LABELS" display="none">
	
		<text transform="matrix(1 0 0 1 55.7647 56.6631)" display="inline" fill="#383838" font-family="'MyriadPro-Regular'" font-size="12">Clear (Night)</text>
</g>
<g id="NUMBERS" display="none">
</g>
</svg>
