<?xml version="1.0" encoding="utf-8"?>
<!-- Generator: Adobe Illustrator 17.1.0, SVG Export Plug-In . SVG Version: 6.00 Build 0)  -->
<!DOCTYPE svg PUBLIC "-//W3C//DTD SVG 1.1//EN" "http://www.w3.org/Graphics/SVG/1.1/DTD/svg11.dtd">
<svg version="1.1" id="Layer_1" xmlns="http://www.w3.org/2000/svg" xmlns:xlink="http://www.w3.org/1999/xlink" x="0px" y="0px"
	 viewBox="0 0 120 120" enable-background="new 0 0 120 120" xml:space="preserve">
<g id="TWC" display="none">
	<g id="tQfrYH.tif_1_" display="inline">
		
			<image overflow="visible" enable-background="new    " width="98" height="98" id="Layer_0_22_" xlink:href="C181DDC87311A32E.png"  transform="matrix(1 0 0 0.9898 17.0322 -41.8877)">
		</image>
	</g>
	<g id="IDi1mN.tif" display="inline">
		
			<image overflow="visible" enable-background="new    " width="100" height="76" id="Layer_0_27_" xlink:href="C181DDC87311A332.png"  transform="matrix(0.99 0 0 0.9868 16.5322 92.1094)">
		</image>
	</g>
</g>
<g>
	<path fill="#FFFFFF" d="M22.2,67l-6.3,6.3c-1.2,1.2-1.2,3.1,0,4.2c0.6,0.6,1.4,0.9,2.1,0.9s1.5-0.3,2.1-0.9l6.3-6.3
		c1.2-1.2,1.2-3.1,0-4.2C25.3,65.9,23.4,65.9,22.2,67z"/>
	<path fill="#FFFFFF" d="M67.4,29c0.8,0,1.5-0.3,2.1-0.9l6.3-6.3c1.2-1.2,1.2-3.1,0-4.2c-1.2-1.2-3.1-1.2-4.2,0l-6.3,6.3
		c-1.2,1.2-1.2,3.1,0,4.2C65.9,28.8,66.7,29,67.4,29z"/>
	<path fill="#FFFFFF" d="M22.2,28.2c0.6,0.6,1.4,0.9,2.1,0.9s1.5-0.3,2.1-0.9c1.2-1.2,1.2-3.1,0-4.2l-6.3-6.3
		c-1.2-1.2-3.1-1.2-4.2,0c-1.2,1.2-1.2,3.1,0,4.2L22.2,28.2z"/>
	<path fill="#FFFFFF" d="M18.4,47.6c0-1.7-1.3-3-3-3H6.5c-1.7,0-3,1.3-3,3s1.3,3,3,3h8.9C17.1,50.6,18.4,49.3,18.4,47.6z"/>
	<path fill="#FFFFFF" d="M34.8,66.3c1.9-1.5,4-2.7,6.4-3.5c0-0.1,0-0.1,0.1-0.2c-6.4-2-11-8-11-15c0-8.7,7.1-15.8,15.8-15.8
		c6.8,0,12.6,4.3,14.8,10.3c1.9-0.6,3.9-1.1,5.9-1.3c-2.8-8.7-11-15-20.7-15c-12,0-21.8,9.8-21.8,21.8
		C24.1,55.5,28.4,62.5,34.8,66.3z"/>
	<path fill="#FFFFFF" d="M45.9,20.1c1.7,0,3-1.3,3-3V8.2c0-1.7-1.3-3-3-3s-3,1.3-3,3v8.9C42.9,18.8,44.2,20.1,45.9,20.1z"/>
</g>
<path fill="#FFFFFF" d="M98.1,95.6H47.2c-7.7,0-13.9-6.2-13.9-13.9c0-7.3,5.7-13.3,12.8-13.8c1.5-12,11.7-21.3,24.1-21.3
	c9,0,17,4.8,21.2,12.5c2-0.7,4-1,6.1-1c10.3,0,18.6,8.4,18.6,18.6c0,7.6-4.5,14.3-11.6,17.2C102.7,95,100.4,95.6,98.1,95.6z
	 M47.2,73.8c-4.3,0-7.9,3.5-7.9,7.9c0,4.3,3.5,7.9,7.9,7.9h50.9c1.3,0,2.7-0.3,3.8-1l0.4-0.2c4.8-1.9,8-6.5,8-11.7
	c0-7-5.7-12.6-12.6-12.6c-2.1,0-4.3,0.6-6.1,1.6l-3,1.7l-1.3-3.2c-2.8-7-9.4-11.6-17-11.6c-10.1,0-18.3,8.2-18.3,18.2l0,3L47.2,73.8
	L47.2,73.8z"/>
<g id="Jenn_x5F_new_set" display="none">
	<g display="inline">
		<g>
			<path fill="#ADD9F2" stroke="#40B4E5" stroke-miterlimit="10" d="M42.6,94.7c-2.3,0-4.6,0.3-6.7,0.9c6.8,3.1,11.6,10,11.6,18
				c0,10.9-8.8,19.8-19.8,19.8c-1.7,0-3.3-0.2-4.9-0.6c4.4,6.2,11.6,10.3,19.7,10.3c13.3,0,24.1-10.8,24.1-24.1S55.9,94.7,42.6,94.7
				z"/>
		</g>
		<g>
			<path fill="#ADD9F2" stroke="#40B4E5" stroke-width="3.4353" stroke-linecap="round" stroke-linejoin="round" d="M42.6,94.7
				c-2.3,0-4.6,0.3-6.7,0.9c6.8,3.1,11.6,10,11.6,18c0,10.9-8.8,19.8-19.8,19.8c-1.7,0-3.3-0.2-4.9-0.6c4.4,6.2,11.6,10.3,19.7,10.3
				c13.3,0,24.1-10.8,24.1-24.1S55.9,94.7,42.6,94.7z"/>
		</g>
	</g>
	<g display="inline">
		<path fill="#FFFFFF" d="M39.7,136.5c-13,0-8.3-23,7.5-17c0.2-16.2,19.8-20.5,26.4-5.9c4.7-4.7,14.2-1.7,14.3,6.1
			c14.2-5.4,19,16.6,5.9,16.7C78.4,136.6,51.3,136.5,39.7,136.5z"/>
		<path fill="#CCCCCC" d="M91.1,132.6c2.1-0.1,4.3-2.5,2.4-5.6c-1.9-3-6.1-2.5-9.4-0.4c0,0,0.3-5.2-2.1-7.6
			c-1.6-1.6-6.5-2.8-11.4,3.2l0,0c0,0-3.7-19.7-20.1-10.9c-5.5,2.9,5.1-6,10.5-6.5c2.8-0.3,6.2,1.3,6.2,1.3l6.4,7.7l4.6-2.5l4.1,1.4
			l4.1,2.7l1.5,4.5l4.9-0.8l4.9,1l3.3,4v3.7l-0.9,5.5l-4.1,3.2l-58.6,0.5l-4-4.2"/>
		<path fill="none" stroke="#999999" stroke-width="2.7482" d="M39.7,136.5c-13,0-8.3-23,7.5-17c0.2-16.2,19.8-20.5,26.4-5.9
			c4.7-4.7,14.2-1.7,14.3,6.1c14.2-5.4,19,16.6,5.9,16.7C78.4,136.6,51.3,136.5,39.7,136.5z"/>
	</g>
	<g display="inline">
		<path fill="#CCCCCC" d="M95.9-0.4c0-0.1,0-0.2,0.1-0.3c0,0,0-0.1,0.1-0.1c0-0.1,0.1-0.1,0.2-0.2c0,0,0.1-0.1,0.1-0.1
			c1.5-1.4,7-1.9,8.3-2.1c3.2-0.6,6.5-0.8,9.8-1.4c0.2,0,0.7-0.1,1.2-0.1c0.1,0,0.2,0,0.3,0c0,0,0.1,0,0.1,0c0.1,0,0.2,0,0.3,0
			c0,0,0.1,0,0.1,0c0.1,0,0.3-0.1,0.4-0.1c0,0,0,0,0.1,0c0.1,0,0.2-0.1,0.3-0.1c0,0,0.1,0,0.1,0c0.1,0,0.2-0.1,0.2-0.2
			c1.1-1.3-1.2-1.5-1.9-1.5c-4.7-0.4-9.5-0.5-14.2-0.8C98.2-7.8,95-7.9,91.8-9c-0.2-0.1-0.4-0.1-0.5-0.2c0,0-0.1,0-0.1-0.1
			c-0.1-0.1-0.2-0.1-0.3-0.2c0,0-0.1,0-0.1-0.1c-0.1-0.1-0.2-0.1-0.2-0.2c0,0-0.1,0-0.1-0.1c-0.1-0.1-0.1-0.1-0.2-0.2c0,0,0,0,0,0
			c-0.1-0.2-0.1-0.5,0-0.7c0,0,0,0,0,0c0-0.1,0.1-0.1,0.2-0.2c0.4-0.4,1.1-0.7,2.1-0.9c6-1.2,12.6,0.3,18.6-1.3c0,0,0.1,0,0.1,0
			c0.4-0.1,0.9-0.2,1.3-0.4c0.1-1.7-6.1-2.7-7.2-3c-4.5-1-8.9-1.2-13.5-1c-4.4,0.2-8.9-0.2-13.4,0c-7,0.3-14,0.8-21,1.1
			c-1.5,0.1-3.8-0.2-5.1,0.7c1.1,0.9,3.6,0.6,4.9,0.6c3.4,0.1,6.8,0.3,10.2,0.6c1.2,0.1,6.5-0.3,6.9,1.5c-0.4,0.1-1.4,0.3-2.8,0.5
			l0,0c-2,0.2-4.8,0.5-7.9,0.8c-0.2,0-0.4,0-0.6,0.1c-0.1,0-0.3,0-0.4,0c-0.2,0-0.4,0-0.7,0.1c-0.1,0-0.2,0-0.3,0
			c-1.2,0.1-2.3,0.3-3.4,0.4c0,0,0,0,0,0c-4.8,0.6-9,1.3-10.1,2.2c0,0,0,0,0,0l0,0c-0.2,0.2-0.3,0.4-0.3,0.6C48.1-6.7,55-6.7,56-6.6
			c2.8,0.3,5.6,0.4,8.4,0.5c2.1,0.1,6-0.6,7.7,1c-0.4,0.9-1.7,1.3-2.9,1.5l0,0c-0.2,0-0.4,0.1-0.5,0.1c0,0,0,0-0.1,0
			c-0.4,0-0.7,0.1-1,0.1c-0.1,0-0.2,0-0.4,0c-4.6,0.7-9.3,0.9-14,1.5c-0.7,0.1-2,0.1-2.9,0.5c0,0,0,0,0,0c-0.2,0.1-0.3,0.1-0.4,0.2
			c0,0,0,0,0,0c-0.1,0.1-0.2,0.2-0.3,0.3l0,0l0,0c-0.1,0.1-0.2,0.2-0.2,0.3c-0.3,0.9,0.3,1.3,1.2,1.5c-1.6,0-3.1,0-4.7,0.1
			c-1.5,0.1-3,0-4.5,0.2c-0.1,0-0.2,0-0.3,0c0,0,0,0-0.1,0c-0.5,0.1-1.4,0.2-2.4,0.3c0,0,0,0-0.1,0c-0.2,0-0.3,0.1-0.5,0.1
			c0,0-0.1,0-0.1,0c-0.7,0.1-1.4,0.3-2,0.5c0,0-0.1,0-0.1,0c-0.1,0-0.2,0.1-0.4,0.1c0,0-0.1,0-0.1,0c-0.1,0-0.2,0.1-0.3,0.1
			c0,0-0.1,0-0.1,0c-0.2,0.1-0.4,0.2-0.5,0.3c0,0,0,0,0,0h0c-0.3,0.3-0.4,0.6-0.2,0.9c0.8,1.2,8.8-1.1,9-0.1c0.1,0.6-1,0.9-2.5,1.1
			l0,0c-0.4,0-0.8,0.1-1.3,0.1c0,0-0.1,0-0.1,0c-0.2,0-0.4,0-0.5,0c-0.1,0-0.1,0-0.2,0c-0.2,0-0.3,0-0.5,0c-0.2,0-0.5,0-0.7,0
			c0,0-0.1,0-0.1,0c-1.2,0.1-2.5,0.2-3.6,0.3c0,0,0,0-0.1,0c-0.2,0-0.4,0.1-0.6,0.1c0,0,0,0-0.1,0c-0.2,0-0.4,0.1-0.5,0.1
			c0,0,0,0-0.1,0c-0.2,0-0.4,0.1-0.5,0.1c0,0,0,0,0,0c-0.5,0.2-1,0.4-1.3,0.7c0,0,0,0,0,0c0,0,0,0,0,0c-0.4,0.4-0.6,0.9-0.5,1.5
			c0.6,2.3,8.4,1.9,10.3,1.9c2.5,0,5.1,0,7.6,0c2.2,0,7.8-1.1,9.3,0.6c-0.8,0.4-1.7,0.7-2.6,0.9c-1.8,0.4-3.9,0.4-5.7,0.5
			c-0.5,0-1,0.1-1.5,0.1c-2.6,0.2-5.3,0.5-7.9,0.9c-1.1,0.1-3.3-0.1-4.3,0.7c-0.1,0.1-0.1,0.1-0.2,0.2c-1.2,1.3,2,1.6,2.9,1.7
			c2.3,0.2,4.6,0.1,7,0.1c1.4,0,3.2-0.3,4.9-0.3c-0.1,0-0.3,0-0.4,0c-0.1,0-0.1,0-0.2,0c-0.3,0-0.5,0.1-0.8,0.1c0,0-0.1,0-0.1,0
			c-0.3,0-0.5,0.1-0.8,0.1c0,0-0.1,0-0.1,0c-0.3,0.1-0.6,0.1-0.8,0.2c0,0-0.1,0-0.1,0c-0.3,0.1-0.6,0.1-0.8,0.2c0,0,0,0-0.1,0
			c-0.5,0.2-1.1,0.4-1.6,0.6c-0.2,0.7,0.5,1,1.6,1.1c-3.6,0.6-7.2,1.2-10.8,1.9c-0.1,0-0.2,0-0.3,0c-0.3,0.1-0.7,0.1-1.1,0.2
			c0,0,0,0,0,0c-0.3,0.1-0.5,0.2-0.7,0.3c0,0,0,0,0,0c-0.6,0.3-0.8,0.8-0.2,1.7c0.8,1.1,3.4,0.4,4.4,0.4c2.7-0.1,5.3-0.3,7.9-0.6
			c1.2-0.1,2.5-0.2,3.7-0.3c-0.3,0.2-0.3,0.5,0.6,0.8c1.8,0.6,4.4-0.3,6.2-0.4c1.9-0.1,4-0.5,5.8,0.2c-0.3,0.5-1.3,0.7-2.5,0.8
			C58,23,57.3,23,56.6,23c-2.1,0.1-4.4,0.1-5.3,0.9c0,0,0,0,0,0l0,0c-0.3,0.2-0.5,0.6-0.5,1c0.1,1.4,3,0.5,3.6,0.9
			c-0.3,1-1.7,1.4-3.1,1.5l0,0c-1,0.1-2,0.1-2.8,0.1c0,0,0,0-0.1,0c0,0,0,0-0.1,0c-0.2,0-0.4,0-0.6,0c-2.4,0.1-5-0.2-7.3,0.3
			c0,0-0.1,0-0.2,0c-0.2,0-0.6,0.1-0.9,0.1c0,0,0,0,0,0c-0.2,0-0.4,0.1-0.5,0.2c0,0,0,0,0,0c-0.1,0-0.1,0.1-0.2,0.1c0,0,0,0,0,0
			c-0.2,0.1-0.3,0.3-0.1,0.6c0.3,0.7,2.2,0.4,2.7,0.4c3.2,0,6.4,0.1,9.5-0.1c3.5-0.3,7.1-0.5,10.6,0.3c1,0.2,3.1,0.4,2,1.6
			c-0.4,0.4-1.4,0.6-2.5,0.8c-0.7,0.1-1.5,0.2-2.1,0.2c0,0,0,0-0.1,0c-0.1,0-0.2,0-0.3,0c-0.1,0-0.2,0-0.2,0c0,0,0,0-0.1,0
			c-0.1,0-0.2,0-0.2,0c-2.6,0.4-5.2,0.8-7.8,1.1c-0.1,0-0.1,0-0.2,0c0,0-0.1,0-0.1,0c-0.1,0-0.1,0-0.2,0c0,0,0,0,0,0
			c-2.8,0.3-13.3,1.4-17,2.8c0,0,0,0,0,0c0,0,0,0,0,0c-0.8,0.3-1.3,0.7-1.3,1c0.1,1.9,4.8,0.8,5.7,0.7c3.5-0.4,7.3,0,10.9,0.1
			c5.3,0.1,10.5,0.3,15.7-0.1c2.8-0.2,5.7,0,8.5-0.5c0.6-0.1,1.3-0.1,2.1-0.2l0,0c0,0,0,0,0,0c0.3,0,0.7-0.1,1-0.2c0,0,0.1,0,0.1,0
			c0.1,0,0.3-0.1,0.4-0.1c0,0,0.1,0,0.1,0c0.1,0,0.2-0.1,0.3-0.1c0,0,0.1,0,0.1,0c0.1-0.1,0.3-0.1,0.4-0.2c0,0,0,0,0.1-0.1
			c0.1-0.1,0.2-0.1,0.3-0.2c0,0,0.1-0.1,0.1-0.1c0.1-0.1,0.1-0.2,0.2-0.2c0,0,0.1-0.1,0.1-0.1c0.1-0.1,0.1-0.3,0.2-0.4
			c0.5-1.6-1.5-1.7-2.6-1.9c-1.5-0.2-6,0.3-7.1-1c-0.1-0.1-0.2-0.2-0.2-0.3c0,0,0-0.1-0.1-0.1c0-0.1-0.1-0.1-0.1-0.2
			c0,0,0-0.1,0-0.1c0,0,0-0.1,0-0.1c0,0,0-0.1,0-0.1c0,0,0-0.1,0-0.1c0-0.1,0-0.1,0.1-0.2c0,0,0,0,0-0.1c0,0,0.1-0.1,0.1-0.1
			c0,0,0,0,0.1,0c0,0,0.1-0.1,0.2-0.1c0.1-0.1,0.3-0.2,0.5-0.3c0.5-0.3,3-0.6,5.1-1c0,0,0,0,0,0c0,0,0,0,0.1,0
			c0.1,0,0.3-0.1,0.4-0.1c0.1,0,0.2,0,0.2-0.1c0.1,0,0.2-0.1,0.4-0.1c0.1,0,0.2,0,0.3-0.1c0.1,0,0.2-0.1,0.3-0.1
			c0.1,0,0.2-0.1,0.3-0.1c0.1,0,0.2-0.1,0.2-0.1c0.1,0,0.2-0.1,0.2-0.1c0.1,0,0.1-0.1,0.2-0.1c0.1,0,0.1-0.1,0.2-0.1
			c0,0,0.1,0,0.1-0.1c0,0,0.1-0.1,0.1-0.1c0,0,0,0,0-0.1c0-0.1,0-0.1,0-0.2c-0.7-1.5-4.2-0.4-5.3-0.8c0-0.1,0-0.1,0-0.2
			c0,0,0-0.1,0-0.1c0,0,0-0.1,0-0.1c0,0,0-0.1,0-0.1c0,0,0-0.1,0.1-0.1c0,0,0-0.1,0.1-0.1c0,0,0,0,0.1-0.1c0,0,0.1-0.1,0.1-0.1
			c0,0,0,0,0,0c0.2-0.1,0.4-0.3,0.7-0.4c0,0,0,0,0,0c2.8-1.3,9.9-1.4,10.9-1.4c2.6-0.1,5.4-0.7,8-0.3c0.7,0.1,1.7,0.2,1.4,1.2
			c-0.2,0.8-1.6,1.2-2.9,1.3c-0.5,0.1-1,0.1-1.4,0.1c-0.1,0-0.2,0-0.3,0c0,0-0.1,0-0.1,0c-0.1,0-0.2,0-0.3,0c-0.1,0-0.1,0-0.2,0
			c0,0,0,0-0.1,0c-0.1,0-0.1,0-0.2,0c0,0,0,0-0.1,0c-0.4,0-0.9,0.1-1.4,0.1c0,0-0.1,0-0.1,0c-0.1,0-0.2,0-0.3,0c0,0-0.1,0-0.1,0
			c-0.1,0-0.2,0-0.3,0c0,0-0.1,0-0.1,0c-0.1,0-0.2,0-0.3,0c0,0-0.1,0-0.1,0c-0.2,0-0.4,0.1-0.5,0.1c0,0-0.1,0-0.1,0
			c-0.1,0-0.2,0-0.2,0.1c-0.1,0-0.1,0-0.2,0c-0.1,0-0.1,0-0.2,0.1c0,0-0.1,0-0.1,0.1c-0.1,0-0.1,0.1-0.2,0.1c0,0-0.1,0-0.1,0.1
			c-0.1,0-0.1,0.1-0.2,0.1l0,0l0,0c-0.3,0.2-0.5,0.4-0.5,0.7c-0.3,2,6.4,0.8,7.2,1.5c1.2,1-1.1,1.7-3.5,2.3c0,0,0,0,0,0
			c-0.7,0.2-1.3,0.3-1.9,0.5c-0.1,0-0.2,0-0.2,0.1c-0.1,0-0.1,0-0.2,0c-0.1,0-0.2,0.1-0.3,0.1c0,0-0.1,0-0.1,0
			c-0.1,0-0.3,0.1-0.4,0.1c0,0,0,0,0,0c-0.1,0-0.2,0.1-0.3,0.1c0,0-0.1,0-0.1,0c-0.4,0.1-0.6,0.3-0.7,0.4c2,1.2,6,0,8.2-0.3
			c3.7-0.4,7.4-0.8,11.2-1c1.4-0.1,3.1-0.1,4.7-0.4c0.1,0,0.1,0,0.2,0c0.2,0,0.4-0.1,0.5-0.1c0.1,0,0.2-0.1,0.4-0.1
			c0.1,0,0.2-0.1,0.4-0.1c0.2-0.1,0.5-0.2,0.7-0.4c0.7-0.5,2.4-1.6,2.9-2.3c1.1-1.5-0.7-2-1.9-2.5c-2.4-1-4.9-1.6-7.3-2.7
			c-2.1-1-4.3-1.3-6.6-1.8c-1-0.2-2.6-0.1-3.4-0.8l0,0c0,0,0,0,0,0c0.7-0.6,2.4-0.6,3.3-0.8c1.8-0.3,3.6-0.4,5.3-0.8
			c0.8-0.2,1.9-0.2,2.9-0.3c0.1,0,0.1,0,0.2,0c0.2,0,0.3,0,0.5-0.1c0.1,0,0.2,0,0.2,0c0.1,0,0.3-0.1,0.4-0.1c0.1,0,0.1,0,0.2-0.1
			c0.2-0.1,0.4-0.1,0.5-0.2c-3-1.5-6.2-1.8-9.4-1.7c-3.6-1.2-8.2-1-11.7-1c-0.5,0-1.1,0-1.7,0C82.1,16,82,16,82,16
			c0-0.1,0.1-0.2,0.1-0.3c0,0,0-0.1,0-0.1c0-0.1,0.1-0.1,0.1-0.2c0.5,0,0.9,0,1.1,0c5,0.3,10,0.8,15,1.1c4,0.2,8,0.7,12.1,0.7
			c0.5,0,3.2-0.1,5.4-0.5l0,0c0,0,0,0,0,0c0.5-0.1,0.9-0.2,1.3-0.3c0,0,0,0,0,0c0.1,0,0.1-0.1,0.2-0.1c0,0,0.1,0,0.1,0
			c0.1,0,0.1,0,0.2-0.1c0,0,0.1,0,0.1,0c0.1,0,0.1,0,0.1-0.1c0,0,0.1,0,0.1-0.1c0,0,0.1,0,0.1-0.1c0,0,0.1,0,0.1-0.1
			c0,0,0.1-0.1,0.1-0.1c0,0,0.1,0,0.1-0.1c0,0,0.1-0.1,0.1-0.1c0,0,0.1-0.1,0.1-0.1c0,0,0-0.1,0.1-0.1c0,0,0-0.1,0.1-0.1
			c0,0,0-0.1,0-0.1c0,0,0-0.1,0-0.1c0,0,0-0.1,0-0.1c0,0,0-0.1,0-0.1c0,0,0-0.1,0-0.1c0,0,0-0.1,0-0.1c0,0,0-0.1,0-0.1
			c0-0.1,0-0.1-0.1-0.2c-0.7-1.4-3.2-0.9-4.3-1c-2.8-0.3-5.7,0.3-8.5-0.1c-0.2,0-0.3-0.1-0.4-0.1c0,0,0,0,0,0
			c-0.1,0-0.3-0.1-0.4-0.1c0,0,0,0-0.1,0c-0.1,0-0.2-0.1-0.3-0.1c0,0-0.1,0-0.1,0c-0.1,0-0.2-0.1-0.2-0.1c0,0-0.1-0.1-0.1-0.1
			c0,0-0.1-0.1-0.1-0.1c0,0-0.1-0.1-0.1-0.1c0,0-0.1-0.1-0.1-0.1c0-0.1-0.1-0.1-0.1-0.2c0,0,0,0,0,0c0-0.1-0.1-0.1-0.1-0.2
			c0,0,0,0,0,0c-0.2-0.6,0.2-1.3,1.4-2c0,0,0,0,0,0c0,0,0,0,0,0c1.7-0.9,3.5-1.2,5.3-1.4c1.1-0.1,4.1-0.1,6.5-0.5l0,0c0,0,0,0,0,0
			c0.2,0,0.4-0.1,0.6-0.1c0,0,0.1,0,0.1,0c0.5-0.1,0.9-0.3,1.3-0.4c0.1,0,0.2-0.1,0.3-0.1c0.1,0,0.1-0.1,0.2-0.1
			c0.1-0.1,0.2-0.1,0.2-0.2c0.1,0,0.1-0.1,0.2-0.1c0.1-0.1,0.2-0.2,0.2-0.2c0,0,0.1-0.1,0.1-0.1c0.1-0.1,0.2-0.3,0.2-0.4
			C121.7,1.5,95.6,3.9,95.9-0.4z M74.2,13.2c0.7,0.2,1.4,0.4,1.4,0.7c-0.8,0.2-1.7,0.4-2.6,0.5c-0.2,0-0.3,0-0.5,0
			c-0.3,0-0.5,0-0.8,0c-0.2,0-0.4,0-0.6,0c-0.2,0-0.4,0-0.7,0c-0.2,0-0.4,0-0.6,0c-0.2,0-0.4,0-0.6,0c0,0-0.1,0-0.1,0
			C70.1,13.8,72,13.4,74.2,13.2z M95.3,6c-0.8,0.5-1.7,0.8-2.7,1.1c-0.4,0.1-0.7,0.1-1.1,0.2c-0.1,0-0.1,0-0.2,0
			c-0.8,0.1-1.5,0.2-2.3,0.2c0,0-0.1,0-0.1,0c-0.9,0-1.9,0-2.8,0c0,0-0.1,0-0.1,0c-0.3,0-0.5,0-0.8,0c-0.3,0-0.6,0-0.9,0
			c-0.1,0-0.2,0-0.3,0c0,0-0.1,0-0.1,0c-2.4-0.1-4.8-0.2-7.2-0.2c-4.8-0.1-9.6-0.2-14.4-0.2c-2.8,0-5.7,0.1-8.4-0.5
			c0-0.1,0-0.2,0-0.3c0,0,0.1-0.1,0.1-0.1c0,0,0.1-0.1,0.1-0.1c0.1-0.1,0.1-0.1,0.2-0.2c0,0,0,0,0.1-0.1c0.1-0.1,0.2-0.1,0.3-0.2
			c0,0,0,0,0,0c1.7-1,5.6-1.7,7.4-2.1l0,0c0,0,0,0,0,0c0.1,0,0.3-0.1,0.4-0.1c0.1,0,0.2-0.1,0.3-0.1c1-0.4,2.4-0.8,2.6-1.3
			c5.5,0.3,11,0.7,16.5,1.2c3.4,0.3,6.9,0.7,10.2,1.2C93,4.5,95.8,4.3,95.3,6z"/>
	</g>
	<g display="inline">
		<path fill="#FFFFFF" d="M82.1,29.4C82.1,29.4,82.1,29.4,82.1,29.4l-0.2-0.9L82.1,29.4z"/>
		<path fill="#FFFFFF" d="M83.9,29.5C84,29.5,84,29.5,83.9,29.5l-0.1-1.3L83.9,29.5z"/>
		<path opacity="0.5" fill="#FFFFFF" enable-background="new    " d="M88.6,33c3.5-0.4,6.9-0.7,10.4-0.9c0.4,0,0.8,0,1.2-0.1
			c1.1-0.1,2.3-0.1,3.4-0.3l0.1,0c0.2-0.1,0.4-0.1,0.5-0.1c0.1,0,0.2-0.1,0.2-0.1l0.2-0.1c0.1,0,0.1,0,0.2-0.1
			c0.2-0.1,0.4-0.2,0.5-0.3c0.9-0.5,1.9-1.3,2.3-1.8c-0.2-0.1-0.6-0.2-0.8-0.3l-0.4-0.1c-1-0.4-2.1-0.8-3.2-1.2
			c-1.4-0.5-2.8-0.9-4.2-1.6c-1.8-0.8-3.7-1.2-5.7-1.6l-0.6-0.1c-0.2,0-0.5-0.1-0.8-0.1c-0.3,0-0.7-0.1-1-0.1
			c0.3,0.2,0.7,0.4,0.9,0.8c0.2,0.4,0.4,1,0.2,1.9c-0.4,1.7-2.2,2.2-4,2.4c-0.5,0.1-0.9,0.1-1.3,0.1l-0.4,0l-0.2-1.4l0.1,1.4
			c-0.1,0-0.2,0-0.3,0c-0.1,0-0.2,0-0.3,0l-0.3,0l0.1,0c1.3,0,2,0.1,2.5,0.5c0.9,0.8,0.9,1.7,0.8,2.1C89,32.4,88.8,32.7,88.6,33z"/>
		<polygon fill="#FFFFFF" points="116,16 116.5,16.8 116.1,16 		"/>
		<path opacity="0.5" fill="#FFFFFF" enable-background="new    " d="M115.1,14.9c-0.3,0-0.9,0-1.4,0c-0.5,0-0.8,0-1.2,0
			c-1.1-0.1-2.4-0.1-3.8,0c-0.7,0-1.5,0.1-2.2,0.1c-1,0-1.8-0.1-2.6-0.2c-0.2,0-0.4-0.1-0.5-0.1c-0.2-0.1-0.4-0.1-0.5-0.1l-0.1,0
			c-0.1,0-0.2-0.1-0.4-0.1l-0.1-0.1c-0.1,0-0.2-0.1-0.3-0.2c-0.1,0-0.1-0.1-0.2-0.1c-0.1-0.1-0.2-0.1-0.2-0.2
			c-0.1-0.1-0.1-0.1-0.2-0.2c-0.1-0.1-0.1-0.1-0.2-0.2c-0.1-0.1-0.1-0.2-0.2-0.3l-0.1-0.1c-0.1-0.2-0.2-0.3-0.2-0.5l0-0.1
			c-0.2-0.5-0.5-2.4,2-3.7c1.9-1,3.9-1.3,5.7-1.6c0.5-0.1,1.1-0.1,1.9-0.1c1.4-0.1,3.1-0.1,4.6-0.4l0,0c0.2,0,0.3-0.1,0.5-0.1
			c0.5-0.1,0.8-0.2,1.1-0.4c0.1,0,0.1-0.1,0.2-0.1l0.1-0.1C117,6,117,6,117.1,5.9l0.1-0.1c-1.4-1-7.3-1.4-11-1.7
			c-7-0.6-11.3-1-12.7-2.9c-0.4-0.5-0.6-1.1-0.5-1.8c0-0.3,0.1-0.6,0.2-0.9l0.1-0.2c0.1-0.2,0.2-0.3,0.3-0.4
			c0.1-0.1,0.1-0.1,0.2-0.2c1.4-1.3,4.7-1.9,7.9-2.3c0.4-0.1,0.8-0.1,1-0.1c1.7-0.3,3.3-0.5,5-0.7c0.7-0.1,1.5-0.2,2.2-0.3
			c-1.8-0.1-3.5-0.2-5.2-0.3c-1.7-0.1-3.4-0.2-5-0.3l-0.8,0c-3-0.2-6.1-0.4-9.2-1.4c-0.2-0.1-0.4-0.2-0.6-0.3L89-7.9
			c-0.2-0.1-0.3-0.2-0.4-0.2c-0.1,0-0.1-0.1-0.2-0.1c-0.1-0.1-0.2-0.2-0.3-0.3c0,0-0.1-0.1-0.1-0.1c-0.1-0.1-0.2-0.2-0.3-0.4
			l-0.1-0.1c-0.5-0.8-0.4-1.7,0-2.4l0-0.1c0.1-0.1,0.2-0.3,0.3-0.4c0.7-0.7,1.8-1,2.7-1.2c2.4-0.5,4.9-0.6,7.2-0.6
			c0.6,0,1.1,0,1.7,0c0.6,0,1.1,0,1.7,0c2.3,0,4.3-0.1,6.2-0.4c-0.8-0.2-2-0.5-3.5-0.8c-0.3-0.1-0.5-0.1-0.6-0.1
			c-4-0.9-8.2-1.2-13.2-1c-2.2,0.1-4.5,0-6.7,0c-2.3-0.1-4.7-0.1-6.7,0c-2.2,0.1-4.4,0.2-6.5,0.3c1.8,0.2,3.3,0.8,3.6,2.4l0.3,1.3
			L73-11.6c-0.5,0.2-1.4,0.3-3.1,0.5c-1.3,0.2-3.1,0.3-4.9,0.5l-4.9,0.5c-1.2,0.1-2.3,0.3-3.4,0.4c-3.7,0.5-6,0.9-7.4,1.2
			c1,0.1,2.3,0.3,4.3,0.4c0.4,0,0.7,0,0.8,0c2.5,0.2,5.1,0.3,7.6,0.4l0.8,0c0.5,0,1,0,1.7,0c0.5,0,1.1,0,1.7,0
			c1.7,0,3.8,0.2,5.1,1.4L72-5.6l-0.5,1c-0.7,1.5-2.4,2-3.9,2.2c-0.2,0-0.4,0.1-0.6,0.1c-0.4,0-0.6,0.1-0.9,0.1L65.7-2
			c-2.5,0.4-5.1,0.6-7.6,0.8C56-1,53.9-0.8,51.7-0.5c-0.2,0-0.4,0-0.6,0.1c-0.6,0-1.4,0.1-1.9,0.3L49,2.4c-1.9,0-3.3,0-4.6,0.1
			c-0.6,0-1.2,0-1.7,0c0,0-0.1,0-0.1,0c0.2,0.3,0.4,0.6,0.4,0.9C43,4,42.9,4.5,42.6,5c-0.6,0.9-1.7,1.1-3.4,1.3
			c-0.4,0-0.9,0.1-1.3,0.1l-2.2,0.1c-1.2,0.1-2.4,0.2-3.5,0.3c-0.2,0-0.4,0.1-0.6,0.1C31.3,7,31.2,7,31,7.1
			c-0.2,0.1-0.4,0.1-0.5,0.1c-0.5,0.1-0.7,0.3-0.8,0.4c0.4,0.3,1.8,0.9,6.9,0.9c0.5,0,0.9,0,1.3,0l0.8,0l0.2,0c0.9,0,1.7,0,2.6,0
			l5,0c0.5,0,1.3-0.1,2.1-0.1c1.1-0.1,2.4-0.2,3.6-0.2c0.3,0,0.7,0,1,0c-0.3-0.1-0.7-0.1-1-0.2L51,7.8l-0.1-1c0-0.4,0-0.7,0.2-1.1
			c0.1-0.2,0.2-0.3,0.2-0.4c0.1-0.1,0.1-0.2,0.2-0.3c0.1-0.1,0.2-0.2,0.4-0.3L52,4.6c0.2-0.1,0.3-0.2,0.5-0.3
			c1.5-0.8,4.1-1.4,6.2-1.9c0.6-0.1,1.1-0.2,1.5-0.4C60.2,2,60.3,2,60.4,2c0.1,0,0.2,0,0.2-0.1L61,1.8c0.5-0.2,1.3-0.5,1.6-0.7
			l0.3-0.6l0.8,0.1c5.1,0.3,10.9,0.7,16.6,1.2c3.3,0.3,6.9,0.7,10.3,1.2c0.2,0,0.4,0,0.6,0c1.1,0.1,2.7,0.2,3.4,1.3
			c0.4,0.6,0.5,1.3,0.3,2l-0.1,0.6l-0.5,0.3c-0.9,0.5-1.9,0.9-3.1,1.2c-0.4,0.1-0.8,0.2-1.2,0.2l-0.1,0c-0.8,0.1-1.6,0.2-2.5,0.2
			l-0.1,0c-0.9,0-1.9,0-2.8,0l-0.1-1.4l0,1.4l-0.8,0c-0.3,0-0.6,0-0.9,0l-0.5,0c-1.8-0.1-3.5-0.1-5.3-0.2l-2-0.1
			c-4.2-0.1-8.7-0.2-14.3-0.2l0-1.4l0,0v1.4l-2.2,0c-1.2,0-2.6,0-4-0.2c1,0.2,1.7,0.6,2.2,1.2l1.3,1.5l-1.7,0.9
			c-0.8,0.4-1.8,0.7-3,1c-1.7,0.3-3.4,0.4-5.1,0.5l-0.7,0c-0.5,0-1,0.1-1.5,0.1c-2.3,0.2-4.7,0.5-7.1,0.8c1.1,0,1.9,0,2.8,0
			c0.5,0,1.1,0,1.6,0c0.6,0,1.3-0.1,2.1-0.1c0.9-0.1,1.8-0.2,2.7-0.2h0.1l0.1,2.9l-0.4,0l0,0c0,0-0.1,0-0.1,0l0,0.1
			c-0.3,0-0.5,0.1-0.8,0.1l0-0.1c0,0-0.1,0-0.1,0l0,0.1c-0.3,0-0.5,0.1-0.8,0.1l-0.1,0c-0.3,0.1-0.5,0.1-0.8,0.2L45.1,17
			c0,0,0,0-0.1,0l0.1,0.3c-0.3,0.1-0.5,0.1-0.8,0.2c-0.1,0-0.2,0.1-0.2,0.1l0,1.7l-2.2,0.4c-2.5,0.4-5.1,0.8-7.6,1.3
			c0.3,0,0.6-0.1,0.9-0.1c2.9-0.2,5.7-0.4,7.9-0.6c0.9-0.1,1.8-0.1,2.6-0.2l5.8-0.4L49.8,21c0.5-0.1,1-0.1,1.6-0.2
			c0.8-0.1,1.5-0.2,2.2-0.3c0.4,0,0.8,0,1.2-0.1c0.7-0.1,1.4-0.1,2.2-0.1c1.1,0,2,0.1,2.9,0.4l1.8,0.6L60.4,23c-0.7,1-2,1.2-3.4,1.3
			c-0.6,0.1-1.3,0.1-2.1,0.1l-0.2,0c-0.4,0-1,0-1.5,0.1c0,0,0.1,0,0.1,0.1l0.9,0.6l-0.4,1.1c-0.2,0.5-0.4,0.8-0.7,1.1
			c0.3,0,0.6,0,0.9,0c2.2,0,4.1,0.2,5.8,0.5c0.1,0,0.3,0.1,0.4,0.1c1.1,0.2,2.5,0.5,2.9,1.8c0.1,0.4,0.2,1.3-0.6,2.2
			c-0.5,0.6-1.5,0.9-3.2,1.2c-0.6,0.1-1.3,0.2-1.9,0.2l-1.1,0.1c-2.3,0.4-4.7,0.7-7.8,1.1l-1,0.1c-2.2,0.2-7.7,0.8-11.9,1.6
			c0.9-0.1,1.8-0.1,2.9-0.1c1.4,0,2.9,0.1,4.3,0.1c1.1,0.1,2.2,0.1,3.3,0.1c0.9,0,1.8,0,2.7,0.1c2.1,0,4.1,0.1,6.2,0.1
			c2.6,0,4.7-0.1,6.7-0.2c1.1-0.1,2.1-0.1,3.2-0.1c1.7,0,3.5-0.1,5.2-0.3c0.3-0.1,0.7-0.1,1.2-0.1c0.3,0,0.7-0.1,1-0.1h0
			c0.3,0,0.6-0.1,0.9-0.2c0.2,0,0.3-0.1,0.4-0.1l0.1,0c0.1,0,0.2-0.1,0.2-0.1c0.1-0.1,0.2-0.1,0.3-0.2c0.1-0.1,0.1-0.1,0.1-0.1l0,0
			c-0.3-0.1-0.8-0.2-1.1-0.2l-0.4-0.1c-0.4-0.1-1-0.1-1.8-0.1c-2.9,0-5-0.1-6-1.3c-0.1-0.2-0.3-0.3-0.4-0.5l-0.1-0.2
			c-0.1-0.2-0.1-0.3-0.2-0.4c0-0.1-0.1-0.2-0.1-0.3c0-0.1-0.1-0.3-0.1-0.4l0-0.1l0-0.2c0-0.2,0.1-0.4,0.1-0.5
			c0.1-0.2,0.2-0.4,0.3-0.5l0.1-0.2c0.1-0.1,0.2-0.2,0.2-0.2l0.1-0.1c0.1-0.1,0.2-0.1,0.3-0.2c0.2-0.1,0.4-0.2,0.6-0.3
			c0.4-0.2,1.2-0.4,2.7-0.6l-0.6-0.2l-0.1-0.9c0-0.2,0-0.4,0-0.6l0.1-0.3c0-0.1,0-0.2,0.1-0.3c0-0.1,0.1-0.2,0.1-0.3
			c0-0.1,0.1-0.2,0.1-0.3c0-0.1,0.1-0.1,0.1-0.2l0.1-0.1c0.1-0.1,0.1-0.1,0.2-0.2l0.1-0.1c0.3-0.2,0.6-0.4,0.9-0.6
			c2.4-1.1,7.3-1.4,10.8-1.5l0.5,0c0.8,0,1.6-0.1,2.4-0.2c2-0.2,4.1-0.3,5.8-0.1c0,0,0.1,0,0.1,0c-0.3-0.1-0.6-0.3-0.8-0.5l-0.2-0.1
			l-1.2-1.1l1.2-1.1c0.9-0.7,2.1-0.9,3.2-1c0.2,0,0.5,0,0.7-0.1c0.6-0.1,1.3-0.2,1.9-0.3c0.5-0.1,1-0.1,1.5-0.2c-0.6,0-1.1,0-1.7,0
			l-0.8,0l-0.2-0.1c-3-1-6.6-1-9.9-0.9c-1.1,0-2.1,0-3.1,0l-0.2,0L80,17.4c-0.1,0-0.1,0-0.2-0.1l-1.1-0.4l0.3-1.3
			c0.1-0.3,0.2-0.6,0.3-0.8l0.1-0.1c0.1-0.1,0.2-0.2,0.3-0.3l0.4-0.3l1.2,0c0.2,0,0.3,0,0.4,0c2.3,0.1,4.6,0.3,6.9,0.5
			c2.7,0.2,5.4,0.4,8.1,0.6c1.5,0.1,3,0.2,4.5,0.3c2.3,0.2,4.6,0.4,6.9,0.4l0.6,0c0.5,0,3.1-0.1,5.2-0.5
			C114.4,15.1,114.7,15,115.1,14.9L115.1,14.9z M74.2,15.3c-0.8,0.2-1.7,0.4-2.8,0.5c-0.1,0-0.2,0-0.4,0l-0.1,0c-0.3,0-0.5,0-0.8,0
			c-0.2,0-0.4,0-0.6,0l-0.5,0l-1.5,0l-4.2-0.1l3.4-2.5c1-0.7,2.8-1.2,5.5-1.5l0.2,0l0.2,0.1c0.9,0.3,2.2,0.6,2.4,2l0.1,1.2
			L74.2,15.3z"/>
		<path fill="#FFFFFF" d="M83.1,29.5c0,0,0.1,0,0.1,0L83,28.3L83.1,29.5z"/>
	</g>
	<g display="inline">
		<path fill="none" stroke="#999999" stroke-width="1.3165" d="M95.9-0.4c0-0.1,0-0.2,0.1-0.3c0,0,0-0.1,0.1-0.1
			c0-0.1,0.1-0.1,0.2-0.2c0,0,0.1-0.1,0.1-0.1c1.5-1.4,7-1.9,8.3-2.1c3.2-0.6,6.5-0.8,9.8-1.4c0.2,0,0.7-0.1,1.2-0.1
			c0.1,0,0.2,0,0.3,0c0,0,0.1,0,0.1,0c0.1,0,0.2,0,0.3,0c0,0,0.1,0,0.1,0c0.1,0,0.3-0.1,0.4-0.1c0,0,0,0,0.1,0
			c0.1,0,0.2-0.1,0.3-0.1c0,0,0.1,0,0.1,0c0.1,0,0.2-0.1,0.2-0.2c1.1-1.3-1.2-1.5-1.9-1.5c-4.7-0.4-9.5-0.5-14.2-0.8
			C98.2-7.8,95-7.9,91.8-9c-0.2-0.1-0.4-0.1-0.5-0.2c0,0-0.1,0-0.1-0.1c-0.1-0.1-0.2-0.1-0.3-0.2c0,0-0.1,0-0.1-0.1
			c-0.1-0.1-0.2-0.1-0.2-0.2c0,0-0.1,0-0.1-0.1c-0.1-0.1-0.1-0.1-0.2-0.2c0,0,0,0,0,0c-0.1-0.2-0.1-0.5,0-0.7c0,0,0,0,0,0
			c0-0.1,0.1-0.1,0.2-0.2c0.4-0.4,1.1-0.7,2.1-0.9c6-1.2,12.6,0.3,18.6-1.3c0,0,0.1,0,0.1,0c0.4-0.1,0.9-0.2,1.3-0.4
			c0.1-1.7-6.1-2.7-7.2-3c-4.5-1-8.9-1.2-13.5-1c-4.4,0.2-8.9-0.2-13.4,0c-7,0.3-14,0.8-21,1.1c-1.5,0.1-3.8-0.2-5.1,0.7
			c1.1,0.9,3.6,0.6,4.9,0.6c3.4,0.1,6.8,0.3,10.2,0.6c1.2,0.1,6.5-0.3,6.9,1.5c-0.4,0.1-1.4,0.3-2.8,0.5l0,0c-2,0.2-4.8,0.5-7.9,0.8
			c-0.2,0-0.4,0-0.6,0.1c-0.1,0-0.3,0-0.4,0c-0.2,0-0.4,0-0.7,0.1c-0.1,0-0.2,0-0.3,0c-1.2,0.1-2.3,0.3-3.4,0.4c0,0,0,0,0,0
			c-4.8,0.6-9,1.3-10.1,2.2c0,0,0,0,0,0l0,0c-0.2,0.2-0.3,0.4-0.3,0.6C48.1-6.7,55-6.7,56-6.6c2.8,0.3,5.6,0.4,8.4,0.5
			c2.1,0.1,6-0.6,7.7,1c-0.4,0.9-1.7,1.3-2.9,1.5l0,0c-0.2,0-0.4,0.1-0.5,0.1c0,0,0,0-0.1,0c-0.4,0-0.7,0.1-1,0.1
			c-0.1,0-0.2,0-0.4,0c-4.6,0.7-9.3,0.9-14,1.5c-0.7,0.1-2,0.1-2.9,0.5c0,0,0,0,0,0c-0.2,0.1-0.3,0.1-0.4,0.2c0,0,0,0,0,0
			c-0.1,0.1-0.2,0.2-0.3,0.3l0,0l0,0c-0.1,0.1-0.2,0.2-0.2,0.3c-0.3,0.9,0.3,1.3,1.2,1.5c-1.6,0-3.1,0-4.7,0.1c-1.5,0.1-3,0-4.5,0.2
			c-0.1,0-0.2,0-0.3,0c0,0,0,0-0.1,0c-0.5,0.1-1.4,0.2-2.4,0.3c0,0,0,0-0.1,0c-0.2,0-0.3,0.1-0.5,0.1c0,0-0.1,0-0.1,0
			c-0.7,0.1-1.4,0.3-2,0.5c0,0-0.1,0-0.1,0c-0.1,0-0.2,0.1-0.4,0.1c0,0-0.1,0-0.1,0c-0.1,0-0.2,0.1-0.3,0.1c0,0-0.1,0-0.1,0
			c-0.2,0.1-0.4,0.2-0.5,0.3c0,0,0,0,0,0h0c-0.3,0.3-0.4,0.6-0.2,0.9c0.8,1.2,8.8-1.1,9-0.1c0.1,0.6-1,0.9-2.5,1.1l0,0
			c-0.4,0-0.8,0.1-1.3,0.1c0,0-0.1,0-0.1,0c-0.2,0-0.4,0-0.5,0c-0.1,0-0.1,0-0.2,0c-0.2,0-0.3,0-0.5,0c-0.2,0-0.5,0-0.7,0
			c0,0-0.1,0-0.1,0c-1.2,0.1-2.5,0.2-3.6,0.3c0,0,0,0-0.1,0c-0.2,0-0.4,0.1-0.6,0.1c0,0,0,0-0.1,0c-0.2,0-0.4,0.1-0.5,0.1
			c0,0,0,0-0.1,0c-0.2,0-0.4,0.1-0.5,0.1c0,0,0,0,0,0c-0.5,0.2-1,0.4-1.3,0.7c0,0,0,0,0,0c0,0,0,0,0,0c-0.4,0.4-0.6,0.9-0.5,1.5
			c0.6,2.3,8.4,1.9,10.3,1.9c2.5,0,5.1,0,7.6,0c2.2,0,7.8-1.1,9.3,0.6c-0.8,0.4-1.7,0.7-2.6,0.9c-1.8,0.4-3.9,0.4-5.7,0.5
			c-0.5,0-1,0.1-1.5,0.1c-2.6,0.2-5.3,0.5-7.9,0.9c-1.1,0.1-3.3-0.1-4.3,0.7c-0.1,0.1-0.1,0.1-0.2,0.2c-1.2,1.3,2,1.6,2.9,1.7
			c2.3,0.2,4.6,0.1,7,0.1c1.4,0,3.2-0.3,4.9-0.3c-0.1,0-0.3,0-0.4,0c-0.1,0-0.1,0-0.2,0c-0.3,0-0.5,0.1-0.8,0.1c0,0-0.1,0-0.1,0
			c-0.3,0-0.5,0.1-0.8,0.1c0,0-0.1,0-0.1,0c-0.3,0.1-0.6,0.1-0.8,0.2c0,0-0.1,0-0.1,0c-0.3,0.1-0.6,0.1-0.8,0.2c0,0,0,0-0.1,0
			c-0.5,0.2-1.1,0.4-1.6,0.6c-0.2,0.7,0.5,1,1.6,1.1c-3.6,0.6-7.2,1.2-10.8,1.9c-0.1,0-0.2,0-0.3,0c-0.3,0.1-0.7,0.1-1.1,0.2
			c0,0,0,0,0,0c-0.3,0.1-0.5,0.2-0.7,0.3c0,0,0,0,0,0c-0.6,0.3-0.8,0.8-0.2,1.7c0.8,1.1,3.4,0.4,4.4,0.4c2.7-0.1,5.3-0.3,7.9-0.6
			c1.2-0.1,2.5-0.2,3.7-0.3c-0.3,0.2-0.3,0.5,0.6,0.8c1.8,0.6,4.4-0.3,6.2-0.4c1.9-0.1,4-0.5,5.8,0.2c-0.3,0.5-1.3,0.7-2.5,0.8
			C58,23,57.3,23,56.6,23c-2.1,0.1-4.4,0.1-5.3,0.9c0,0,0,0,0,0l0,0c-0.3,0.2-0.5,0.6-0.5,1c0.1,1.4,3,0.5,3.6,0.9
			c-0.3,1-1.7,1.4-3.1,1.5l0,0c-1,0.1-2,0.1-2.8,0.1c0,0,0,0-0.1,0c0,0,0,0-0.1,0c-0.2,0-0.4,0-0.6,0c-2.4,0.1-5-0.2-7.3,0.3
			c0,0-0.1,0-0.2,0c-0.2,0-0.6,0.1-0.9,0.1c0,0,0,0,0,0c-0.2,0-0.4,0.1-0.5,0.2c0,0,0,0,0,0c-0.1,0-0.1,0.1-0.2,0.1c0,0,0,0,0,0
			c-0.2,0.1-0.3,0.3-0.1,0.6c0.3,0.7,2.2,0.4,2.7,0.4c3.2,0,6.4,0.1,9.5-0.1c3.5-0.3,7.1-0.5,10.6,0.3c1,0.2,3.1,0.4,2,1.6
			c-0.4,0.4-1.4,0.6-2.5,0.8c-0.7,0.1-1.5,0.2-2.1,0.2c0,0,0,0-0.1,0c-0.1,0-0.2,0-0.3,0c-0.1,0-0.2,0-0.2,0c0,0,0,0-0.1,0
			c-0.1,0-0.2,0-0.2,0c-2.6,0.4-5.2,0.8-7.8,1.1c-0.1,0-0.1,0-0.2,0c0,0-0.1,0-0.1,0c-0.1,0-0.1,0-0.2,0c0,0,0,0,0,0
			c-2.8,0.3-13.3,1.4-17,2.8c0,0,0,0,0,0c0,0,0,0,0,0c-0.8,0.3-1.3,0.7-1.3,1c0.1,1.9,4.8,0.8,5.7,0.7c3.5-0.4,7.3,0,10.9,0.1
			c5.3,0.1,10.5,0.3,15.7-0.1c2.8-0.2,5.7,0,8.5-0.5c0.6-0.1,1.3-0.1,2.1-0.2l0,0c0,0,0,0,0,0c0.3,0,0.7-0.1,1-0.2c0,0,0.1,0,0.1,0
			c0.1,0,0.3-0.1,0.4-0.1c0,0,0.1,0,0.1,0c0.1,0,0.2-0.1,0.3-0.1c0,0,0.1,0,0.1,0c0.1-0.1,0.3-0.1,0.4-0.2c0,0,0,0,0.1-0.1
			c0.1-0.1,0.2-0.1,0.3-0.2c0,0,0.1-0.1,0.1-0.1c0.1-0.1,0.1-0.2,0.2-0.2c0,0,0.1-0.1,0.1-0.1c0.1-0.1,0.1-0.3,0.2-0.4
			c0.5-1.6-1.5-1.7-2.6-1.9c-1.5-0.2-6,0.3-7.1-1c-0.1-0.1-0.2-0.2-0.2-0.3c0,0,0-0.1-0.1-0.1c0-0.1-0.1-0.1-0.1-0.2
			c0,0,0-0.1,0-0.1c0,0,0-0.1,0-0.1c0,0,0-0.1,0-0.1c0,0,0-0.1,0-0.1c0-0.1,0-0.1,0.1-0.2c0,0,0,0,0-0.1c0,0,0.1-0.1,0.1-0.1
			c0,0,0,0,0.1,0c0,0,0.1-0.1,0.2-0.1c0.1-0.1,0.3-0.2,0.5-0.3c0.5-0.3,3-0.6,5.1-1c0,0,0,0,0,0c0,0,0,0,0.1,0
			c0.1,0,0.3-0.1,0.4-0.1c0.1,0,0.2,0,0.2-0.1c0.1,0,0.2-0.1,0.4-0.1c0.1,0,0.2,0,0.3-0.1c0.1,0,0.2-0.1,0.3-0.1
			c0.1,0,0.2-0.1,0.3-0.1c0.1,0,0.2-0.1,0.2-0.1c0.1,0,0.2-0.1,0.2-0.1c0.1,0,0.1-0.1,0.2-0.1c0.1,0,0.1-0.1,0.2-0.1
			c0,0,0.1,0,0.1-0.1c0,0,0.1-0.1,0.1-0.1c0,0,0,0,0-0.1c0-0.1,0-0.1,0-0.2c-0.7-1.5-4.2-0.4-5.3-0.8c0-0.1,0-0.1,0-0.2
			c0,0,0-0.1,0-0.1c0,0,0-0.1,0-0.1c0,0,0-0.1,0-0.1c0,0,0-0.1,0.1-0.1c0,0,0-0.1,0.1-0.1c0,0,0,0,0.1-0.1c0,0,0.1-0.1,0.1-0.1
			c0,0,0,0,0,0c0.2-0.1,0.4-0.3,0.7-0.4c0,0,0,0,0,0c2.8-1.3,9.9-1.4,10.9-1.4c2.6-0.1,5.4-0.7,8-0.3c0.7,0.1,1.7,0.2,1.4,1.2
			c-0.2,0.8-1.6,1.2-2.9,1.3c-0.5,0.1-1,0.1-1.4,0.1c-0.1,0-0.2,0-0.3,0c0,0-0.1,0-0.1,0c-0.1,0-0.2,0-0.3,0c-0.1,0-0.1,0-0.2,0
			c0,0,0,0-0.1,0c-0.1,0-0.1,0-0.2,0c0,0,0,0-0.1,0c-0.4,0-0.9,0.1-1.4,0.1c0,0-0.1,0-0.1,0c-0.1,0-0.2,0-0.3,0c0,0-0.1,0-0.1,0
			c-0.1,0-0.2,0-0.3,0c0,0-0.1,0-0.1,0c-0.1,0-0.2,0-0.3,0c0,0-0.1,0-0.1,0c-0.2,0-0.4,0.1-0.5,0.1c0,0-0.1,0-0.1,0
			c-0.1,0-0.2,0-0.2,0.1c-0.1,0-0.1,0-0.2,0c-0.1,0-0.1,0-0.2,0.1c0,0-0.1,0-0.1,0.1c-0.1,0-0.1,0.1-0.2,0.1c0,0-0.1,0-0.1,0.1
			c-0.1,0-0.1,0.1-0.2,0.1l0,0l0,0c-0.3,0.2-0.5,0.4-0.5,0.7c-0.3,2,6.4,0.8,7.2,1.5c1.2,1-1.1,1.7-3.5,2.3c0,0,0,0,0,0
			c-0.7,0.2-1.3,0.3-1.9,0.5c-0.1,0-0.2,0-0.2,0.1c-0.1,0-0.1,0-0.2,0c-0.1,0-0.2,0.1-0.3,0.1c0,0-0.1,0-0.1,0
			c-0.1,0-0.3,0.1-0.4,0.1c0,0,0,0,0,0c-0.1,0-0.2,0.1-0.3,0.1c0,0-0.1,0-0.1,0c-0.4,0.1-0.6,0.3-0.7,0.4c2,1.2,6,0,8.2-0.3
			c3.7-0.4,7.4-0.8,11.2-1c1.4-0.1,3.1-0.1,4.7-0.4c0.1,0,0.1,0,0.2,0c0.2,0,0.4-0.1,0.5-0.1c0.1,0,0.2-0.1,0.4-0.1
			c0.1,0,0.2-0.1,0.4-0.1c0.2-0.1,0.5-0.2,0.7-0.4c0.7-0.5,2.4-1.6,2.9-2.3c1.1-1.5-0.7-2-1.9-2.5c-2.4-1-4.9-1.6-7.3-2.7
			c-2.1-1-4.3-1.3-6.6-1.8c-1-0.2-2.6-0.1-3.4-0.8l0,0c0,0,0,0,0,0c0.7-0.6,2.4-0.6,3.3-0.8c1.8-0.3,3.6-0.4,5.3-0.8
			c0.8-0.2,1.9-0.2,2.9-0.3c0.1,0,0.1,0,0.2,0c0.2,0,0.3,0,0.5-0.1c0.1,0,0.2,0,0.2,0c0.1,0,0.3-0.1,0.4-0.1c0.1,0,0.1,0,0.2-0.1
			c0.2-0.1,0.4-0.1,0.5-0.2c-3-1.5-6.2-1.8-9.4-1.7c-3.6-1.2-8.2-1-11.7-1c-0.5,0-1.1,0-1.7,0C82.1,16,82,16,82,16
			c0-0.1,0.1-0.2,0.1-0.3c0,0,0-0.1,0-0.1c0-0.1,0.1-0.1,0.1-0.2c0.5,0,0.9,0,1.1,0c5,0.3,10,0.8,15,1.1c4,0.2,8,0.7,12.1,0.7
			c0.5,0,3.2-0.1,5.4-0.5l0,0c0,0,0,0,0,0c0.5-0.1,0.9-0.2,1.3-0.3c0,0,0,0,0,0c0.1,0,0.1-0.1,0.2-0.1c0,0,0.1,0,0.1,0
			c0.1,0,0.1,0,0.2-0.1c0,0,0.1,0,0.1,0c0.1,0,0.1,0,0.1-0.1c0,0,0.1,0,0.1-0.1c0,0,0.1,0,0.1-0.1c0,0,0.1,0,0.1-0.1
			c0,0,0.1-0.1,0.1-0.1c0,0,0.1,0,0.1-0.1c0,0,0.1-0.1,0.1-0.1c0,0,0.1-0.1,0.1-0.1c0,0,0-0.1,0.1-0.1c0,0,0-0.1,0.1-0.1
			c0,0,0-0.1,0-0.1c0,0,0-0.1,0-0.1c0,0,0-0.1,0-0.1c0,0,0-0.1,0-0.1c0,0,0-0.1,0-0.1c0,0,0-0.1,0-0.1c0,0,0-0.1,0-0.1
			c0-0.1,0-0.1-0.1-0.2c-0.7-1.4-3.2-0.9-4.3-1c-2.8-0.3-5.7,0.3-8.5-0.1c-0.2,0-0.3-0.1-0.4-0.1c0,0,0,0,0,0
			c-0.1,0-0.3-0.1-0.4-0.1c0,0,0,0-0.1,0c-0.1,0-0.2-0.1-0.3-0.1c0,0-0.1,0-0.1,0c-0.1,0-0.2-0.1-0.2-0.1c0,0-0.1-0.1-0.1-0.1
			c0,0-0.1-0.1-0.1-0.1c0,0-0.1-0.1-0.1-0.1c0,0-0.1-0.1-0.1-0.1c0-0.1-0.1-0.1-0.1-0.2c0,0,0,0,0,0c0-0.1-0.1-0.1-0.1-0.2
			c0,0,0,0,0,0c-0.2-0.6,0.2-1.3,1.4-2c0,0,0,0,0,0c0,0,0,0,0,0c1.7-0.9,3.5-1.2,5.3-1.4c1.1-0.1,4.1-0.1,6.5-0.5l0,0c0,0,0,0,0,0
			c0.2,0,0.4-0.1,0.6-0.1c0,0,0.1,0,0.1,0c0.5-0.1,0.9-0.3,1.3-0.4c0.1,0,0.2-0.1,0.3-0.1c0.1,0,0.1-0.1,0.2-0.1
			c0.1-0.1,0.2-0.1,0.2-0.2c0.1,0,0.1-0.1,0.2-0.1c0.1-0.1,0.2-0.2,0.2-0.2c0,0,0.1-0.1,0.1-0.1c0.1-0.1,0.2-0.3,0.2-0.4
			C121.7,1.5,95.6,3.9,95.9-0.4z M74.2,13.2c0.7,0.2,1.4,0.4,1.4,0.7c-0.8,0.2-1.7,0.4-2.6,0.5c-0.2,0-0.3,0-0.5,0
			c-0.3,0-0.5,0-0.8,0c-0.2,0-0.4,0-0.6,0c-0.2,0-0.4,0-0.7,0c-0.2,0-0.4,0-0.6,0c-0.2,0-0.4,0-0.6,0c0,0-0.1,0-0.1,0
			C70.1,13.8,72,13.4,74.2,13.2z M95.3,6c-0.8,0.5-1.7,0.8-2.7,1.1c-0.4,0.1-0.7,0.1-1.1,0.2c-0.1,0-0.1,0-0.2,0
			c-0.8,0.1-1.5,0.2-2.3,0.2c0,0-0.1,0-0.1,0c-0.9,0-1.9,0-2.8,0c0,0-0.1,0-0.1,0c-0.3,0-0.5,0-0.8,0c-0.3,0-0.6,0-0.9,0
			c-0.1,0-0.2,0-0.3,0c0,0-0.1,0-0.1,0c-2.4-0.1-4.8-0.2-7.2-0.2c-4.8-0.1-9.6-0.2-14.4-0.2c-2.8,0-5.7,0.1-8.4-0.5
			c0-0.1,0-0.2,0-0.3c0,0,0.1-0.1,0.1-0.1c0,0,0.1-0.1,0.1-0.1c0.1-0.1,0.1-0.1,0.2-0.2c0,0,0,0,0.1-0.1c0.1-0.1,0.2-0.1,0.3-0.2
			c0,0,0,0,0,0c1.7-1,5.6-1.7,7.4-2.1l0,0c0,0,0,0,0,0c0.1,0,0.3-0.1,0.4-0.1c0.1,0,0.2-0.1,0.3-0.1c1-0.4,2.4-0.8,2.6-1.3
			c5.5,0.3,11,0.7,16.5,1.2c3.4,0.3,6.9,0.7,10.2,1.2C93,4.5,95.8,4.3,95.3,6z"/>
	</g>
	<g id="Winter_Leaf" display="inline">
	</g>
	<g id="Maple_Leaf_2" display="inline">
		<g id="Leaf_3">
		</g>
	</g>
</g>
<g id="Discrepencies" display="none">
	<g display="inline">
		<line fill="none" stroke="#DA1F26" stroke-width="4" stroke-linecap="round" x1="39.7" y1="-16.9" x2="92.4" y2="35.8"/>
		<line fill="none" stroke="#DA1F26" stroke-width="4" stroke-linecap="round" x1="92.4" y1="-16.9" x2="39.7" y2="35.8"/>
	</g>
	<rect x="17" y="-41.9" display="inline" fill="#FFFFFF" width="98" height="98"/>
</g>
<g id="LABELS" display="none">
	
		<text transform="matrix(1 0 0 1 10.249 76.9033)" display="inline" fill="#383838" font-family="'MyriadPro-Regular'" font-size="12">Mostly Cloudy (night)</text>
</g>
<g id="NUMBERS" display="none">
</g>
</svg>
