<?xml version="1.0" encoding="utf-8"?>
<!-- Generator: Adobe Illustrator 17.1.0, SVG Export Plug-In . SVG Version: 6.00 Build 0)  -->
<!DOCTYPE svg PUBLIC "-//W3C//DTD SVG 1.1//EN" "http://www.w3.org/Graphics/SVG/1.1/DTD/svg11.dtd">
<svg version="1.1" id="Layer_1" xmlns="http://www.w3.org/2000/svg" xmlns:xlink="http://www.w3.org/1999/xlink" x="0px" y="0px"
	 viewBox="0 0 120 120" enable-background="new 0 0 120 120" xml:space="preserve">
<g id="TWC" display="none">
	<g id="S6FN4H.tif" display="inline">
		
			<image overflow="visible" enable-background="new    " width="88" height="67" id="Layer_0_11_" xlink:href="BF09A5C5BC47C722.png"  transform="matrix(1 0 0 1 41.7705 10.124)">
		</image>
	</g>
</g>
<line fill="none" stroke="#FFFFFF" stroke-width="7" stroke-linecap="round" stroke-miterlimit="10" x1="54.9" y1="103.8" x2="66.1" y2="92.6"/>
<line fill="none" stroke="#FFFFFF" stroke-width="7" stroke-linecap="round" stroke-miterlimit="10" x1="79.9" y1="103.8" x2="91.1" y2="92.6"/>
<line fill="none" stroke="#FFFFFF" stroke-width="7" stroke-linecap="round" stroke-miterlimit="10" x1="29.9" y1="103.8" x2="41.1" y2="92.6"/>
<path fill="none" stroke="#FFFFFF" stroke-width="7" stroke-miterlimit="10" d="M113.3,51.2c0-12-9.7-21.7-21.7-21.7
	c-3.8,0-7.4,1-10.6,2.7c-4.3-11-15-18.7-27.5-18.7C37.2,13.5,24,26.7,23.9,43h-2.5c-8.4,0-15.1,6.8-15.1,15.1
	c0,8.4,6.8,15.1,15.1,15.1h70.8c2.7,0,5.2-0.7,7.4-1.9C107.6,68.1,113.3,60.3,113.3,51.2z"/>
<g id="Jenn_x5F_new_set" display="none">
	<g display="inline">
		
			<line fill="none" stroke="#999999" stroke-width="2.7482" stroke-linecap="round" stroke-dasharray="10,6" x1="96.2" y1="77.5" x2="114.1" y2="40.4"/>
		
			<line fill="none" stroke="#999999" stroke-width="2.7482" stroke-linecap="round" stroke-dasharray="10,6" x1="85.1" y1="77.5" x2="103" y2="40.4"/>
		
			<line fill="none" stroke="#999999" stroke-width="2.7482" stroke-linecap="round" stroke-dasharray="10,6" x1="73.9" y1="77.5" x2="91.8" y2="40.4"/>
		
			<line fill="none" stroke="#999999" stroke-width="2.7482" stroke-linecap="round" stroke-dasharray="10,6" x1="62.8" y1="77.5" x2="80.7" y2="40.4"/>
		
			<line fill="none" stroke="#999999" stroke-width="2.7482" stroke-linecap="round" stroke-dasharray="10,6" x1="51.7" y1="77.5" x2="69.6" y2="40.4"/>
	</g>
	<g display="inline">
		<g>
			<path fill="#FFFFFF" d="M58.6,40.4c-13,0-8.3-23,7.5-17c0.2-16.2,19.8-20.5,26.4-5.9c4.7-4.7,14.2-1.7,14.3,6.1
				c14.2-5.4,19,16.6,5.9,16.7C97.3,40.5,70.2,40.4,58.6,40.4z"/>
			<path fill="#CCCCCC" d="M110,36.5c2.1-0.1,4.3-2.5,2.4-5.6c-1.9-3-6.1-2.5-9.4-0.4c0,0,0.3-5.2-2.1-7.6
				c-1.6-1.6-6.5-2.8-11.5,3.2l0,0c0,0-3.7-19.7-20.1-10.9c-5.5,2.9,5.1-6,10.5-6.5c2.8-0.3,6.2,1.3,6.2,1.3l6.4,7.7l4.6-2.5
				l4.1,1.4l4.1,2.7l1.5,4.5l4.9-0.8l4.9,1l3.3,4v3.7l-0.9,5.5l-4.1,3.2l-58.6,0.5l-4-4.2"/>
			<path fill="none" stroke="#999999" stroke-width="2.7482" d="M58.6,40.4c-13,0-8.3-23,7.5-17c0.2-16.2,19.8-20.5,26.4-5.9
				c4.7-4.7,14.2-1.7,14.3,6.1c14.2-5.4,19,16.6,5.9,16.7C97.3,40.5,70.2,40.4,58.6,40.4z"/>
		</g>
	</g>
	<g id="Winter_Leaf" display="inline">
	</g>
	<g id="Maple_Leaf_2" display="inline">
		<g id="Leaf_3">
		</g>
	</g>
</g>
<g id="Discrepencies" display="none">
</g>
<g id="LABELS" display="none">
	
		<text transform="matrix(1 0 0 1 57.561 115.624)" display="inline" fill="#383838" font-family="'MyriadPro-Regular'" font-size="12">Heavy snow</text>
</g>
<g id="NUMBERS" display="none">
</g>
</svg>
