<?xml version="1.0" encoding="utf-8"?>
<!-- Generator: Adobe Illustrator 17.1.0, SVG Export Plug-In . SVG Version: 6.00 Build 0)  -->
<!DOCTYPE svg PUBLIC "-//W3C//DTD SVG 1.1//EN" "http://www.w3.org/Graphics/SVG/1.1/DTD/svg11.dtd">
<svg version="1.1" id="Layer_1" xmlns="http://www.w3.org/2000/svg" xmlns:xlink="http://www.w3.org/1999/xlink" x="0px" y="0px"
	 viewBox="0 0 120 120" enable-background="new 0 0 120 120" xml:space="preserve">
<g id="TWC" display="none">
	<g id="JnB27E.tif" display="inline">
		
			<image overflow="visible" enable-background="new    " width="88" height="65" id="Layer_0_2_" xlink:href="9E81BE1BBD7D364A.png"  transform="matrix(1 0 0 1 2.0649 29.0698)">
		</image>
	</g>
</g>
<polygon fill="#FFFFFF" points="18.4,89.1 18.4,95 24.3,95 28.5,84.9 "/>
<polygon fill="#FFFFFF" points="26.5,104.8 30,104.8 32.5,98.8 26.5,101.3 "/>
<polygon fill="#FFFFFF" points="44.7,107.1 50.6,107.1 54.8,97 44.7,101.2 "/>
<polygon fill="#FFFFFF" points="66.9,104.8 70.5,104.8 73,98.8 66.9,101.3 "/>
<polygon fill="#FFFFFF" points="85.1,107.1 91,107.1 95.2,97 85.1,101.2 "/>
<polygon fill="#FFFFFF" points="40.6,89.2 40.6,92.7 44.2,92.7 46.7,86.6 "/>
<polygon fill="#FFFFFF" points="58.8,89.1 58.8,95 64.8,95 68.9,84.9 "/>
<polygon fill="#FFFFFF" points="81.1,89.2 81.1,92.7 84.6,92.7 87.1,86.6 "/>
<path fill="none" stroke="#FFFFFF" stroke-width="7" stroke-miterlimit="10" d="M113.3,51.2c0-12-9.7-21.7-21.7-21.7
	c-3.8,0-7.4,1-10.6,2.7c-4.3-11-15-18.7-27.5-18.7C37.2,13.5,24,26.7,23.9,43h-2.5c-8.4,0-15.1,6.8-15.1,15.1
	c0,8.4,6.8,15.1,15.1,15.1h70.8c2.7,0,5.2-0.7,7.4-1.9C107.6,68.1,113.3,60.3,113.3,51.2z"/>
<g id="Jenn_x5F_new_set" display="none">
	<g display="inline">
		<g>
			<path fill="#FFFFFF" d="M18.9,60.4c-13,0-8.3-23,7.5-17c0.2-16.2,19.8-20.5,26.4-5.9c4.7-4.7,14.2-1.7,14.3,6.1
				c14.2-5.4,19,16.6,5.9,16.7C57.6,60.5,30.5,60.4,18.9,60.4z"/>
			<path fill="#CCCCCC" d="M70.3,56.4c2.1-0.1,4.3-2.5,2.4-5.6c-1.9-3-6.1-2.5-9.4-0.4c0,0,0.3-5.2-2.1-7.6
				c-1.6-1.6-6.5-2.8-11.5,3.2l0,0c0,0-3.7-19.7-20.1-10.9c-5.5,2.9,5.1-6,10.5-6.5c2.8-0.3,6.2,1.3,6.2,1.3l6.4,7.7l4.6-2.5
				l4.1,1.4l4.1,2.7l1.5,4.5l4.9-0.8l4.9,1l3.3,4v3.7L79.4,57l-4.1,3.2l-58.6,0.5l-4-4.2"/>
			<path fill="none" stroke="#999999" stroke-width="2.7482" d="M18.9,60.4c-13,0-8.3-23,7.5-17c0.2-16.2,19.8-20.5,26.4-5.9
				c4.7-4.7,14.2-1.7,14.3,6.1c14.2-5.4,19,16.6,5.9,16.7C57.6,60.5,30.5,60.4,18.9,60.4z"/>
		</g>
	</g>
	<g display="inline">
		<path fill="#999999" d="M75.5,61.4c-1.3,0-1.4,6.5-1.4,6.5s0.2-5.3-1.9-6.2L75.5,61.4z"/>
		<path fill="#999999" d="M54.9,61.8c2.9,0,4.2,13.9,4.2,13.9s1-10.8,3.1-10.8c2.1,0,3.2,25.4,3.2,25.4s0.2-19.2,2.1-19.2
			c1.9,0,2,2.3,2,2.3s0.4-11.6,2.6-11.7L54.9,61.8z"/>
	</g>
	<g display="inline">
		<g>
			<path fill="#999999" d="M56.5,98.8c-0.2,0-0.4,0-0.6-0.1c-0.7-0.3-1-1.2-0.6-1.8l3-6.3c0.3-0.7,1.2-1,1.8-0.6
				c0.7,0.3,1,1.2,0.6,1.8l-3,6.3C57.5,98.5,57,98.8,56.5,98.8z"/>
		</g>
		<g>
			<path fill="#999999" d="M45.4,98.8c-0.2,0-0.4,0-0.6-0.1c-0.7-0.3-1-1.2-0.6-1.8l3-6.3c0.3-0.7,1.2-1,1.8-0.6
				c0.7,0.3,1,1.2,0.6,1.8l-3,6.3C46.4,98.5,45.9,98.8,45.4,98.8z M52.8,83.5c-0.2,0-0.4,0-0.6-0.1c-0.7-0.3-1-1.2-0.6-1.8l3-6.3
				c0.3-0.7,1.2-1,1.8-0.6c0.7,0.3,1,1.2,0.6,1.8l-3,6.3C53.8,83.2,53.3,83.5,52.8,83.5z"/>
		</g>
		<g>
			<path fill="#999999" d="M34.2,98.8c-0.2,0-0.4,0-0.6-0.1c-0.7-0.3-1-1.2-0.6-1.8l3-6.3c0.3-0.7,1.2-1,1.8-0.6
				c0.7,0.3,1,1.2,0.6,1.8l-3,6.3C35.2,98.5,34.7,98.8,34.2,98.8z M41.6,83.5c-0.2,0-0.4,0-0.6-0.1c-0.7-0.3-1-1.2-0.6-1.8l3-6.3
				c0.3-0.7,1.2-1,1.8-0.6c0.7,0.3,1,1.2,0.6,1.8l-3,6.3C42.6,83.2,42.1,83.5,41.6,83.5z M49,68.2c-0.2,0-0.4,0-0.6-0.1
				c-0.7-0.3-1-1.2-0.6-1.8l3-6.3c0.3-0.7,1.2-1,1.8-0.6c0.7,0.3,1,1.2,0.6,1.8l-3,6.3C50,67.9,49.5,68.2,49,68.2z"/>
		</g>
		<g>
			<path fill="#999999" d="M23.1,98.8c-0.2,0-0.4,0-0.6-0.1c-0.7-0.3-1-1.2-0.6-1.8l3-6.3c0.3-0.7,1.1-1,1.8-0.6
				c0.7,0.3,1,1.2,0.6,1.8l-3,6.3C24.1,98.5,23.6,98.8,23.1,98.8z M30.5,83.5c-0.2,0-0.4,0-0.6-0.1c-0.7-0.3-1-1.2-0.6-1.8l3-6.3
				c0.3-0.7,1.2-1,1.8-0.6c0.7,0.3,1,1.2,0.6,1.8l-3,6.3C31.5,83.2,31,83.5,30.5,83.5z M37.9,68.2c-0.2,0-0.4,0-0.6-0.1
				c-0.7-0.3-1-1.2-0.6-1.8l3-6.3c0.3-0.7,1.2-1,1.8-0.6c0.7,0.3,1,1.2,0.6,1.8l-3,6.3C38.9,67.9,38.4,68.2,37.9,68.2z"/>
		</g>
		<g>
			<path fill="#999999" d="M12,98.8c-0.2,0-0.4,0-0.6-0.1c-0.7-0.3-1-1.2-0.6-1.8l3-6.3c0.3-0.7,1.1-1,1.8-0.6
				c0.7,0.3,1,1.2,0.6,1.8l-3,6.3C13,98.5,12.5,98.8,12,98.8z M19.4,83.5c-0.2,0-0.4,0-0.6-0.1c-0.7-0.3-1-1.2-0.6-1.8l3-6.3
				c0.3-0.7,1.2-1,1.8-0.6c0.7,0.3,1,1.2,0.6,1.8l-3,6.3C20.4,83.2,19.9,83.5,19.4,83.5z M26.8,68.2c-0.2,0-0.4,0-0.6-0.1
				c-0.7-0.3-1-1.2-0.6-1.8l3-6.3c0.3-0.7,1.2-1,1.8-0.6c0.7,0.3,1,1.2,0.6,1.8l-3,6.3C27.8,67.9,27.3,68.2,26.8,68.2z"/>
		</g>
	</g>
	<g id="Winter_Leaf" display="inline">
	</g>
	<g id="Maple_Leaf_2" display="inline">
		<g id="Leaf_3">
		</g>
	</g>
</g>
<g id="Discrepencies" display="none">
	<rect x="-3.9" y="-99.9" display="inline" fill="#FFFFFF" width="100" height="100"/>
	<rect x="116.1" y="-99.9" display="inline" fill="#FFFFFF" width="100" height="100"/>
</g>
<g id="LABELS" display="none">
	
		<text transform="matrix(1 0 0 1 7.4516 17.0698)" display="inline" fill="#383838" font-family="'MyriadPro-Regular'" font-size="12">Light rain/sleet</text>
</g>
<g id="NUMBERS" display="none">
</g>
</svg>
