<?xml version="1.0" encoding="utf-8"?>
<!-- Generator: Adobe Illustrator 17.1.0, SVG Export Plug-In . SVG Version: 6.00 Build 0)  -->
<!DOCTYPE svg PUBLIC "-//W3C//DTD SVG 1.1//EN" "http://www.w3.org/Graphics/SVG/1.1/DTD/svg11.dtd">
<svg version="1.1" id="Layer_1" xmlns="http://www.w3.org/2000/svg" xmlns:xlink="http://www.w3.org/1999/xlink" x="0px" y="0px"
	 viewBox="0 0 120 120" enable-background="new 0 0 120 120" xml:space="preserve">
<g id="TWC" display="none">
	<g id="SWS2Ji.tif" display="inline">
		
			<image overflow="visible" enable-background="new    " width="88" height="68" id="Layer_0_23_" xlink:href="C2DC5BF82D78FBA.png"  transform="matrix(1 0 0 0.9853 2.0649 -26.8877)">
		</image>
	</g>
	<g id="_x34_bpTf7.tif" display="inline">
		
			<image overflow="visible" enable-background="new    " width="100" height="101" id="Layer_0_28_" xlink:href="C2DC5BF82D78FBE.png"  transform="matrix(1 0 0 0.9901 -3.9351 80.4316)">
		</image>
	</g>
	<g id="EkfeUu.tif" display="inline">
		
			<image overflow="visible" enable-background="new    " width="100" height="76" id="Layer_0_29_" xlink:href="C2DC5BF82D78FB9.png"  transform="matrix(0.99 0 0 0.9868 116.5649 86.042)">
		</image>
	</g>
</g>
<g id="ios">
	<g>
		<path fill="#FFFFFF" d="M97.7,58.1c-2.1,0-4.2,0.4-6.1,1c-4.2-7.7-12.3-12.5-21.2-12.5c-12.4,0-22.6,9.3-24.1,21.3
			c-7.2,0.5-12.8,6.5-12.8,13.8c0,7.7,6.2,13.9,13.9,13.9h4.1l0.6-2.5l0.9-3.5h-5.6c-4.3,0-7.9-3.5-7.9-7.9c0-4.3,3.5-7.9,7.9-7.9
			H52l0-3c0-10.1,8.2-18.2,18.3-18.2c7.5,0,14.2,4.5,17,11.6l1.3,3.2l3-1.7c1.9-1,4-1.6,6.1-1.6c7,0,12.6,5.7,12.6,12.6
			c0,5.2-3.1,9.8-8,11.7l-0.4,0.2c-1.2,0.7-2.5,1-3.8,1h-7l-3.9,6h11c2.3,0,4.6-0.6,6.6-1.7c7-2.9,11.6-9.6,11.6-17.2
			C116.3,66.4,107.9,58.1,97.7,58.1z"/>
	</g>
	<polygon fill="#FFFFFF" points="65.3,119 87,85.9 72.2,85.9 72,85.9 72,85.9 72,85.9 72,85.9 79.1,68.6 64.6,68.6 57.8,95.6 
		70.4,95.6 72.4,95.5 72.4,95.6 72.4,95.6 72.3,95.7 	"/>
	<g>
		<path fill="#FFFFFF" d="M22.2,67l-6.3,6.3c-1.2,1.2-1.2,3.1,0,4.2c0.6,0.6,1.4,0.9,2.1,0.9s1.5-0.3,2.1-0.9l6.3-6.3
			c1.2-1.2,1.2-3.1,0-4.2C25.3,65.9,23.4,65.9,22.2,67z"/>
		<path fill="#FFFFFF" d="M67.4,29c0.8,0,1.5-0.3,2.1-0.9l6.3-6.3c1.2-1.2,1.2-3.1,0-4.2c-1.2-1.2-3.1-1.2-4.2,0l-6.3,6.3
			c-1.2,1.2-1.2,3.1,0,4.2C65.9,28.8,66.7,29,67.4,29z"/>
		<path fill="#FFFFFF" d="M22.2,28.2c0.6,0.6,1.4,0.9,2.1,0.9s1.5-0.3,2.1-0.9c1.2-1.2,1.2-3.1,0-4.2l-6.3-6.3
			c-1.2-1.2-3.1-1.2-4.2,0c-1.2,1.2-1.2,3.1,0,4.2L22.2,28.2z"/>
		<path fill="#FFFFFF" d="M18.4,47.6c0-1.7-1.3-3-3-3H6.5c-1.7,0-3,1.3-3,3s1.3,3,3,3h8.9C17.1,50.6,18.4,49.3,18.4,47.6z"/>
		<path fill="#FFFFFF" d="M34.8,66.3c1.9-1.5,4-2.7,6.4-3.5c0-0.1,0-0.1,0.1-0.2c-6.4-2-11-8-11-15c0-8.7,7.1-15.8,15.8-15.8
			c6.8,0,12.6,4.3,14.8,10.3c1.9-0.6,3.9-1.1,5.9-1.3c-2.8-8.7-11-15-20.7-15c-12,0-21.8,9.8-21.8,21.8
			C24.1,55.5,28.4,62.5,34.8,66.3z"/>
		<path fill="#FFFFFF" d="M45.9,20.1c1.7,0,3-1.3,3-3V8.2c0-1.7-1.3-3-3-3s-3,1.3-3,3v8.9C42.9,18.8,44.2,20.1,45.9,20.1z"/>
	</g>
</g>
<g id="Jenn_x5F_new_set" display="none">
	<polygon display="inline" fill="#F9ED32" stroke="#F7941E" stroke-width="2.0612" points="60.3,97 62.3,101.5 65.6,97.9 
		66.1,102.7 70.4,100.3 69.4,105.1 74.2,104.1 71.8,108.4 76.6,108.9 73,112.2 77.5,114.2 73,116.2 76.6,119.5 71.8,120.1 
		74.2,124.3 69.4,123.3 70.4,128.1 66.1,125.7 65.6,130.6 62.3,126.9 60.3,131.4 58.3,126.9 55,130.6 54.4,125.7 50.2,128.1 
		51.2,123.3 46.4,124.3 48.8,120.1 43.9,119.5 47.6,116.2 43.1,114.2 47.6,112.2 43.9,108.9 48.8,108.4 46.4,104.1 51.2,105.1 
		50.2,100.3 54.4,102.7 55,97.9 58.3,101.5 	"/>
	<g display="inline">
		<path fill="#FFFFFF" d="M14.7,136.5c-13,0-8.3-23,7.5-17c0.2-16.2,19.8-20.5,26.4-5.9c4.7-4.7,14.2-1.7,14.3,6.1
			c14.2-5.4,19,16.6,5.9,16.7C53.4,136.6,26.3,136.5,14.7,136.5z"/>
		<path fill="#CCCCCC" d="M66.1,132.6c2.1-0.1,4.3-2.5,2.4-5.6c-1.9-3-6.1-2.5-9.4-0.4c0,0,0.3-5.2-2.1-7.6
			c-1.6-1.6-6.5-2.8-11.4,3.2l0,0c0,0-3.7-19.7-20.1-10.9c-5.5,2.9,5.1-6,10.5-6.5c2.8-0.3,6.2,1.3,6.2,1.3l6.4,7.7l4.6-2.5l4.1,1.4
			l4.1,2.7l1.5,4.5l4.9-0.8l4.9,1l3.3,4v3.7l-0.9,5.5l-4.1,3.2l-58.6,0.5l-4-4.2"/>
		<path fill="none" stroke="#999999" stroke-width="2.7482" d="M14.7,136.5c-13,0-8.3-23,7.5-17c0.2-16.2,19.8-20.5,26.4-5.9
			c4.7-4.7,14.2-1.7,14.3,6.1c14.2-5.4,19,16.6,5.9,16.7C53.4,136.6,26.3,136.5,14.7,136.5z"/>
	</g>
	<g display="inline">
		<path fill="#CCCCCC" d="M78.9,0.3c-0.7,0-1.4,0.2-2,0.6c-0.5-1.6-2-2.8-3.8-2.8c-1.4,0-2.6,0.7-3.3,1.7c-0.2,0-0.4-0.1-0.7-0.1
			c-1.2,0-2.2,0.7-2.6,1.7c-0.2,0-0.3-0.1-0.5-0.1c-0.3,0-0.6,0.1-0.9,0.2C65,0.4,64-0.5,62.7-0.5c-1.1,0-2,0.7-2.4,1.6
			c-0.6-1.1-1.8-1.9-3.1-1.9c-0.1,0-0.3,0-0.4,0c0,0,0,0,0,0c0-1.7-1.4-3-3.1-3c-0.2,0-0.4,0-0.6,0.1c-0.4-1.1-1.5-1.9-2.8-1.9
			c-1.3,0-2.4,0.8-2.8,2c-0.5-0.5-1.3-0.8-2.1-0.8c-1.3,0-2.4,0.8-2.9,2c-0.5-0.3-1.2-0.5-1.9-0.5c-0.7,0-1.3,0.2-1.8,0.5
			c0-1.9-1.6-3.5-3.5-3.5c-0.6,0-1.2,0.2-1.7,0.5C33.3-7,32-8.2,30.3-8.2c-1.1,0-2,0.5-2.6,1.3C27-8,25.8-8.8,24.4-8.8
			c-2.1,0-3.8,1.6-3.8,3.7c-0.2-0.1-0.5-0.1-0.7-0.1c-1,0-1.9,0.5-2.5,1.3C17-4,16.7-4.1,16.3-4.1c-1.6,0-2.8,1.2-2.8,2.8
			c0,0.1,0,0.2,0,0.3c-0.1,0-0.1,0-0.2,0c-0.6,0-1.1,0.2-1.6,0.5c-0.3-2-2-3.5-4-3.5C6.2-4.1,4.8-3.3,4.1-2c-0.5-0.2-1-0.4-1.5-0.4
			C0.8-2.4-0.6-1-0.6,0.7c-0.1,0-0.3,0-0.4,0c-1.9,0-3.4,1.5-3.4,3.3c0,1.8,1.5,3.3,3.4,3.3c0.1,0,0.1,0,0.2,0v0h79.8
			c2,0,3.5-1.6,3.5-3.5S80.9,0.3,78.9,0.3z"/>
		<path opacity="0.5" fill="#FFFFFF" enable-background="new    " d="M77.9,2.3c-0.4,0-0.8,0.1-1.1,0.3l-1.9,1.1l-0.6-1.9
			C74,1,73.1,0.4,72.1,0.4c-0.8,0-1.5,0.3-2,0.9l-0.6,0.8l-1.1-0.2c-0.1,0-0.2,0-0.3,0c-0.5,0-0.9,0.3-1.1,0.7l-0.5,1.1l-1.3-0.3
			c-0.1,0-0.1,0-0.1,0c-0.1,0-0.2,0-0.3,0l-1.9,0.7l-0.3-1.8c-0.1-0.4-0.5-0.7-0.9-0.7c-0.4,0-0.7,0.2-0.9,0.5l-1.3,3l-1.7-2.8
			c-0.3-0.6-1-0.9-1.7-0.9c0,0-0.1,0-0.1,0l-0.1,0l-1.8,0.2V0v-0.1l0,0c0-0.7-0.7-1.2-1.5-1.2c-0.1,0-0.2,0-0.3,0l-1.3,0.2l-0.5-1.1
			C50.2-2.7,49.7-3,49.2-3c-0.6,0-1.1,0.3-1.3,0.8l-0.8,2l-1.8-1.4c-0.2-0.2-0.5-0.3-1-0.3c-0.6,0-1.2,0.3-1.4,0.8l-0.7,1.6
			l-1.7-0.9c-0.3-0.2-0.7-0.3-1-0.3c-0.3,0-0.7,0.1-1,0.3L36.1,1l0-2.5c0-0.9-0.9-1.7-1.9-1.7c-0.3,0-0.6,0.1-0.9,0.2l-2.1,1L30.8-4
			c-0.1-0.7-0.8-1.3-1.6-1.3c-0.5,0-1,0.2-1.3,0.6l-1.5,1.8l-1.2-1.9c-0.4-0.6-1.1-1-1.9-1c-1.2,0-2.2,0.9-2.2,1.9l0,1.8l-2-0.4
			c-0.1,0-0.2,0-0.3,0c-0.5,0-0.9,0.2-1.1,0.5l-0.7,1l-1.2-0.4c-0.1-0.1-0.3-0.1-0.4-0.1c-0.7,0-1.2,0.5-1.2,1l0,0c0,0,0,0.1,0,0.1
			l0.2,1.6l-1.9-0.1c0,0-0.1,0-0.1,0c-0.2,0-0.5,0.1-0.7,0.2L9.4,2.5L9.1,0.3C8.9-0.8,7.9-1.6,6.6-1.6c-0.9,0-1.7,0.4-2.2,1.1
			L3.7,0.7L2.3,0C2-0.1,1.8-0.1,1.5-0.1c-0.9,0-1.6,0.6-1.6,1.4l-0.1,1.6l-1.8-0.2l-0.1,0c0,0-0.1,0-0.1,0c-1,0-1.8,0.7-1.8,1.6
			c0,0.8,0.8,1.5,1.7,1.6c0.1,0,0.1,0,0.2,0l1.7-0.1v0.1h78.2c1.1,0,1.9-0.8,1.9-1.7C79.8,3.1,78.9,2.3,77.9,2.3z"/>
		<path fill="none" stroke="#999999" stroke-width="1.4624" d="M78.9,0.3c-0.7,0-1.4,0.2-2,0.6c-0.5-1.6-2-2.8-3.8-2.8
			c-1.4,0-2.6,0.7-3.3,1.7c-0.2,0-0.4-0.1-0.7-0.1c-1.2,0-2.2,0.7-2.6,1.7c-0.2,0-0.3-0.1-0.5-0.1c-0.3,0-0.6,0.1-0.9,0.2
			C65,0.4,64-0.5,62.7-0.5c-1.1,0-2,0.7-2.4,1.6c-0.6-1.1-1.8-1.9-3.1-1.9c-0.1,0-0.3,0-0.4,0c0,0,0,0,0,0c0-1.7-1.4-3-3.1-3
			c-0.2,0-0.4,0-0.6,0.1c-0.4-1.1-1.5-1.9-2.8-1.9c-1.3,0-2.4,0.8-2.8,2c-0.5-0.5-1.3-0.8-2.1-0.8c-1.3,0-2.4,0.8-2.9,2
			c-0.5-0.3-1.2-0.5-1.9-0.5c-0.7,0-1.3,0.2-1.8,0.5c0-1.9-1.6-3.5-3.5-3.5c-0.6,0-1.2,0.2-1.7,0.5C33.3-7,32-8.2,30.3-8.2
			c-1.1,0-2,0.5-2.6,1.3C27-8,25.8-8.8,24.4-8.8c-2.1,0-3.8,1.6-3.8,3.7c-0.2-0.1-0.5-0.1-0.7-0.1c-1,0-1.9,0.5-2.5,1.3
			C17-4,16.7-4.1,16.3-4.1c-1.6,0-2.8,1.2-2.8,2.8c0,0.1,0,0.2,0,0.3c-0.1,0-0.1,0-0.2,0c-0.6,0-1.1,0.2-1.6,0.5c-0.3-2-2-3.5-4-3.5
			C6.2-4.1,4.8-3.3,4.1-2c-0.5-0.2-1-0.4-1.5-0.4C0.8-2.4-0.6-1-0.6,0.7c-0.1,0-0.3,0-0.4,0c-1.9,0-3.4,1.5-3.4,3.3
			c0,1.8,1.5,3.3,3.4,3.3c0.1,0,0.1,0,0.2,0v0h79.8c2,0,3.5-1.6,3.5-3.5S80.9,0.3,78.9,0.3z"/>
	</g>
	<g display="inline">
		<path fill="#CCCCCC" d="M87.7,9.5c-0.2,0-0.4,0-0.5,0.1c-0.4-1.1-1.4-1.9-2.7-1.9c-0.1,0-0.1,0-0.2,0C84.2,6.7,83.4,6,82.5,6
			c-0.5,0-0.9,0.2-1.2,0.4c-0.5-0.7-1.3-1.2-2.2-1.2c-0.7,0-1.3,0.3-1.8,0.7c-0.5-0.4-1.1-0.7-1.8-0.7c-0.2,0-0.4,0-0.6,0.1
			c0-0.1,0-0.2,0-0.2c0-1.3-1.1-2.4-2.4-2.4c-0.9,0-1.6,0.4-2,1.1c-0.5-0.3-1-0.4-1.6-0.4c-0.9,0-1.7,0.4-2.3,0.9
			c-0.4-1.8-2-3.2-4-3.2c-1.4,0-2.7,0.7-3.4,1.8c-0.4-0.6-1.1-1.1-1.9-1.1c-0.8,0-1.5,0.4-1.9,1.1c-0.4-0.2-0.8-0.4-1.3-0.4
			c-1.2,0-2.2,0.8-2.5,1.8c-0.6-0.8-1.5-1.3-2.6-1.3c-1.4,0-2.6,0.9-3,2.2c-0.3-0.1-0.5-0.1-0.8-0.1c-1.1,0-2,0.7-2.4,1.6
			c-0.5-0.6-1.2-1-2.1-1c-0.5,0-1,0.2-1.4,0.4C38.8,4.8,37.7,4,36.4,4c-1.2,0-2.1,0.6-2.6,1.6C33,4.6,31.9,4,30.6,4
			c-1,0-1.9,0.4-2.6,1c-0.5-1.6-2.1-2.8-3.9-2.8c-1.8,0-3.3,1.2-3.9,2.8c-0.4-0.1-0.8-0.2-1.2-0.2c-1.6,0-3,0.9-3.6,2.2
			c-0.5-0.2-1.1-0.4-1.7-0.4c-2.3,0-4.1,1.8-4.1,4c0,2.2,1.8,4,4.1,4h74.1c1.4,0,2.6-1.1,2.6-2.6C90.3,10.6,89.1,9.5,87.7,9.5z"/>
		<path opacity="0.5" fill="#FFFFFF" enable-background="new    " d="M86.6,11.3c-0.1,0-0.1,0-0.2,0L85,11.5l-0.5-1.2
			c-0.2-0.4-0.6-0.7-1.1-0.7c0,0-0.1,0-0.1,0l-1.6,0.1l-0.1-1.4c0-0.1-0.1-0.2-0.2-0.2c0,0-0.1,0-0.2,0.1l-1.4,1l-1-1.3
			c-0.2-0.3-0.5-0.4-0.8-0.4c-0.3,0-0.5,0.1-0.7,0.2l-1.1,0.9l-1.1-0.9c-0.1-0.1-0.4-0.2-0.7-0.2c-0.1,0-0.1,0-0.2,0L72,7.9l0.3-2
			c0,0,0-0.1,0-0.1c0-0.4-0.4-0.7-0.8-0.7c-0.3,0-0.5,0.1-0.7,0.3L70,6.7L68.6,6c-0.3-0.1-0.5-0.2-0.8-0.2c-0.4,0-0.8,0.1-1.1,0.4
			l-2.1,1.9L64,5.5c-0.2-1-1.3-1.8-2.5-1.8c-0.8,0-1.6,0.4-2.1,1L58,6.6l-1.3-1.9c-0.1-0.2-0.3-0.3-0.5-0.3s-0.4,0.1-0.5,0.3
			l-0.8,1.2l-1.4-0.7C53.3,5.1,53.1,5,52.9,5c-0.5,0-0.8,0.3-1,0.6l-0.9,2.8l-1.9-2.3c-0.3-0.4-0.8-0.6-1.3-0.6
			c-0.7,0-1.3,0.4-1.5,1l-0.5,1.3l-1.5-0.4c-0.1,0-0.2-0.1-0.3-0.1c-0.4,0-0.8,0.2-0.9,0.6L42,10.2l-1.7-2c-0.2-0.2-0.5-0.4-0.8-0.4
			c-0.2,0-0.4,0-0.5,0.1l-1.8,1l-0.6-1.8c-0.2-0.5-0.7-0.8-1.3-0.8c-0.5,0-1,0.3-1.2,0.7l-1.2,2l-1.5-1.8c-0.4-0.5-1.1-0.8-1.9-0.8
			c-0.7,0-1.2,0.3-1.5,0.5l-1.8,1.4l-0.8-2.1C25,5.3,24.1,4.7,23,4.7c-1.1,0-2,0.6-2.4,1.5l-0.5,1.3l-1.5-0.4C18.3,7,18.1,7,17.9,7
			c-0.9,0-1.8,0.5-2.2,1.2L15,9.4l-1.4-0.6c-0.3-0.1-0.7-0.2-1-0.2c-1.4,0-2.5,1-2.5,2.2c0,1.2,1.1,2.2,2.5,2.2h74.1
			c0.6,0,1-0.4,1-0.9C87.6,11.7,87.2,11.3,86.6,11.3z"/>
		<path fill="none" stroke="#999999" stroke-width="1.4624" d="M87.7,9.5c-0.2,0-0.4,0-0.5,0.1c-0.4-1.1-1.4-1.9-2.7-1.9
			c-0.1,0-0.1,0-0.2,0C84.2,6.7,83.4,6,82.5,6c-0.5,0-0.9,0.2-1.2,0.4c-0.5-0.7-1.3-1.2-2.2-1.2c-0.7,0-1.3,0.3-1.8,0.7
			c-0.5-0.4-1.1-0.7-1.8-0.7c-0.2,0-0.4,0-0.6,0.1c0-0.1,0-0.2,0-0.2c0-1.3-1.1-2.4-2.4-2.4c-0.9,0-1.6,0.4-2,1.1
			c-0.5-0.3-1-0.4-1.6-0.4c-0.9,0-1.7,0.4-2.3,0.9c-0.4-1.8-2-3.2-4-3.2c-1.4,0-2.7,0.7-3.4,1.8c-0.4-0.6-1.1-1.1-1.9-1.1
			c-0.8,0-1.5,0.4-1.9,1.1c-0.4-0.2-0.8-0.4-1.3-0.4c-1.2,0-2.2,0.8-2.5,1.8c-0.6-0.8-1.5-1.3-2.6-1.3c-1.4,0-2.6,0.9-3,2.2
			c-0.3-0.1-0.5-0.1-0.8-0.1c-1.1,0-2,0.7-2.4,1.6c-0.5-0.6-1.2-1-2.1-1c-0.5,0-1,0.2-1.4,0.4C38.8,4.8,37.7,4,36.4,4
			c-1.2,0-2.1,0.6-2.6,1.6C33,4.6,31.9,4,30.6,4c-1,0-1.9,0.4-2.6,1c-0.5-1.6-2.1-2.8-3.9-2.8c-1.8,0-3.3,1.2-3.9,2.8
			c-0.4-0.1-0.8-0.2-1.2-0.2c-1.6,0-3,0.9-3.6,2.2c-0.5-0.2-1.1-0.4-1.7-0.4c-2.3,0-4.1,1.8-4.1,4c0,2.2,1.8,4,4.1,4h74.1
			c1.4,0,2.6-1.1,2.6-2.6C90.3,10.6,89.1,9.5,87.7,9.5z"/>
	</g>
	<g display="inline">
		<path fill="#CCCCCC" d="M73.6,18.3c-0.2,0-0.3,0-0.5,0c0-0.2,0.1-0.4,0.1-0.6c0-1.5-1.3-2.8-2.8-2.8c-0.9,0-1.7,0.4-2.2,1
			c-0.5-0.8-1.4-1.3-2.5-1.3c-1.5,0-2.7,1.1-2.9,2.5c-0.5-0.4-1.1-0.6-1.7-0.6c-0.5,0-0.9,0.1-1.2,0.3c-0.4-1.4-1.7-2.5-3.3-2.5
			c-0.4,0-0.9,0.1-1.3,0.2c-0.5-2.4-2.7-4.1-5.2-4.1c-1.9,0-3.5,0.9-4.5,2.4c-0.5-0.8-1.4-1.3-2.4-1.3c-1.6,0-2.9,1.2-3,2.8
			c-0.4-0.2-0.9-0.3-1.4-0.3c-0.1,0-0.2,0-0.3,0c0-0.2,0.1-0.5,0.1-0.7c0-2.7-2.2-4.8-4.9-4.8c-1.8,0-3.4,0.9-4.2,2.4
			c-0.5-0.3-1-0.4-1.6-0.4c-1.5,0-2.8,1.1-3,2.5c-0.4-0.2-0.9-0.2-1.3-0.2c-0.5,0-1.1,0.1-1.5,0.3c-0.8-2.4-3.1-4.2-5.8-4.2
			c-3.4,0-6.1,2.7-6.1,6l0,0h0c-1.6,0-3,1.1-3.4,2.5c-0.3-0.1-0.7-0.2-1-0.2c-1.1,0-2.1,0.7-2.6,1.6c-0.5-0.3-1-0.5-1.7-0.5
			c-1.6,0-3,1.3-3,2.9c0,1.6,1.3,2.9,3,2.9h72.4c1.6,0,3-1.3,3-2.9C76.5,19.6,75.2,18.3,73.6,18.3z"/>
		<path opacity="0.5" fill="#FFFFFF" enable-background="new    " d="M72.5,20.2c-0.1,0-0.2,0-0.2,0l-2.4,0.3l0.5-2
			c0-0.1,0-0.2,0-0.2c0-0.6-0.5-1-1.2-1c-0.5,0-0.8,0.2-0.9,0.4l-1.4,1.5l-1.2-1.6c-0.3-0.3-0.7-0.5-1.1-0.5c-0.7,0-1.2,0.4-1.3,1
			l-0.4,2.4L60.7,19c-0.2-0.1-0.4-0.2-0.7-0.2c-0.2,0-0.3,0-0.5,0.1l-1.8,0.8L57.1,18c-0.2-0.7-0.9-1.1-1.7-1.1
			c-0.2,0-0.4,0-0.7,0.1L53,17.5l-0.4-1.6c-0.4-1.5-1.9-2.5-3.7-2.5c-1.3,0-2.4,0.5-3.1,1.4l-1.3,1.7l-1.4-1.7
			c-0.3-0.3-0.7-0.5-1.1-0.5c-0.7,0-1.3,0.5-1.3,1.1l-0.1,1.9l-2.1-0.7c-0.3-0.1-0.5-0.1-0.8-0.1l0,0c-0.1,0-0.1,0-0.2,0l-2.1,0.2
			l0.3-1.7c0-0.2,0-0.3,0-0.4c0-1.6-1.5-2.9-3.3-2.9c-1.2,0-2.2,0.5-2.9,1.4l-0.8,1.2l-1.4-0.7c-0.2-0.1-0.5-0.2-0.7-0.2
			c-0.7,0-1.3,0.4-1.5,1l-0.4,1.6l-1.8-0.6c-0.3-0.1-0.5-0.1-0.8-0.1c-0.3,0-0.6,0.1-0.9,0.2l-1.7,0.6l-0.5-1.5
			c-0.6-1.6-2.3-2.7-4.3-2.7c-2.5,0-4.5,1.7-4.5,3.8v1.4H8.7c-0.9,0-1.6,0.5-1.8,1.2l-0.5,1.5l-1.7-0.5c-0.2,0-0.3-0.1-0.4-0.1
			c-0.5,0-0.9,0.2-1.1,0.6l-0.8,1.5l-1.6-0.9c-0.2-0.1-0.5-0.2-0.8-0.2c-0.7,0-1.4,0.5-1.4,1.2s0.6,1.2,1.4,1.2h72.4
			c0.7,0,1.4-0.5,1.4-1.2C73.9,20.7,73.2,20.2,72.5,20.2z"/>
		<path fill="none" stroke="#999999" stroke-width="1.4624" d="M73.6,18.3c-0.2,0-0.3,0-0.5,0c0-0.2,0.1-0.4,0.1-0.6
			c0-1.5-1.3-2.8-2.8-2.8c-0.9,0-1.7,0.4-2.2,1c-0.5-0.8-1.4-1.3-2.5-1.3c-1.5,0-2.7,1.1-2.9,2.5c-0.5-0.4-1.1-0.6-1.7-0.6
			c-0.5,0-0.9,0.1-1.2,0.3c-0.4-1.4-1.7-2.5-3.3-2.5c-0.4,0-0.9,0.1-1.3,0.2c-0.5-2.4-2.7-4.1-5.2-4.1c-1.9,0-3.5,0.9-4.5,2.4
			c-0.5-0.8-1.4-1.3-2.4-1.3c-1.6,0-2.9,1.2-3,2.8c-0.4-0.2-0.9-0.3-1.4-0.3c-0.1,0-0.2,0-0.3,0c0-0.2,0.1-0.5,0.1-0.7
			c0-2.7-2.2-4.8-4.9-4.8c-1.8,0-3.4,0.9-4.2,2.4c-0.5-0.3-1-0.4-1.6-0.4c-1.5,0-2.8,1.1-3,2.5c-0.4-0.2-0.9-0.2-1.3-0.2
			c-0.5,0-1.1,0.1-1.5,0.3c-0.8-2.4-3.1-4.2-5.8-4.2c-3.4,0-6.1,2.7-6.1,6l0,0h0c-1.6,0-3,1.1-3.4,2.5c-0.3-0.1-0.7-0.2-1-0.2
			c-1.1,0-2.1,0.7-2.6,1.6c-0.5-0.3-1-0.5-1.7-0.5c-1.6,0-3,1.3-3,2.9c0,1.6,1.3,2.9,3,2.9h72.4c1.6,0,3-1.3,3-2.9
			C76.5,19.6,75.2,18.3,73.6,18.3z"/>
	</g>
	<g display="inline">
		<path fill="#CCCCCC" d="M7.6,24.5c0.7,0,1.4,0.2,2,0.6c0.5-1.6,2-2.8,3.8-2.8c1.4,0,2.6,0.7,3.3,1.7c0.2,0,0.4-0.1,0.7-0.1
			c1.2,0,2.2,0.7,2.6,1.7c0.2,0,0.3-0.1,0.5-0.1c0.3,0,0.6,0.1,0.9,0.2c0.2-1.2,1.2-2.1,2.5-2.1c1.1,0,2,0.7,2.4,1.6
			c0.6-1.1,1.8-1.9,3.1-1.9c0.1,0,0.3,0,0.4,0c0,0,0,0,0,0c0-1.7,1.4-3,3.1-3c0.2,0,0.4,0,0.6,0.1c0.4-1.1,1.5-1.9,2.8-1.9
			c1.3,0,2.4,0.9,2.8,2c0.5-0.5,1.3-0.8,2.1-0.8c1.3,0,2.4,0.8,2.9,2c0.5-0.3,1.2-0.5,1.9-0.5c0.7,0,1.3,0.2,1.8,0.5
			c0-1.9,1.6-3.5,3.5-3.5c0.6,0,1.2,0.2,1.7,0.5c0.2-1.6,1.5-2.8,3.2-2.8c1.1,0,2,0.5,2.6,1.3c0.7-1.1,1.9-1.9,3.3-1.9
			c2.1,0,3.8,1.6,3.8,3.7c0.2-0.1,0.5-0.1,0.7-0.1c1,0,1.9,0.5,2.5,1.3c0.3-0.1,0.7-0.2,1.1-0.2c1.6,0,2.8,1.2,2.8,2.8
			c0,0.1,0,0.2,0,0.3c0.1,0,0.1,0,0.2,0c0.6,0,1.1,0.2,1.6,0.5c0.3-2,2-3.5,4-3.5c1.5,0,2.9,0.8,3.6,2.1c0.5-0.2,1-0.4,1.5-0.4
			c1.8,0,3.2,1.4,3.2,3.1c0.1,0,0.3,0,0.4,0c1.9,0,3.4,1.5,3.4,3.3c0,1.8-1.5,3.3-3.4,3.3c-0.1,0-0.1,0-0.2,0v0H7.6
			c-2,0-3.5-1.5-3.5-3.5C4.1,26.1,5.7,24.5,7.6,24.5z"/>
		<path opacity="0.5" fill="#FFFFFF" enable-background="new    " d="M6.8,26.5c0.4,0,0.8,0.1,1.1,0.3l1.9,1.1l0.6-1.9
			c0.3-0.9,1.2-1.5,2.2-1.5c0.8,0,1.5,0.3,2,0.9l0.6,0.8l1.1-0.2c0.1,0,0.2,0,0.3,0c0.5,0,0.9,0.3,1.1,0.7l0.5,1.1l1.3-0.3
			c0.1,0,0.1,0,0.1,0c0.1,0,0.2,0,0.3,0l1.9,0.7l0.3-1.8c0.1-0.4,0.5-0.7,0.9-0.7c0.4,0,0.7,0.2,0.9,0.5l1.3,3l1.7-2.8
			c0.3-0.6,1-0.9,1.7-0.9c0,0,0.1,0,0.1,0l0.1,0l1.8,0.2v-1.6V24l0,0c0-0.7,0.7-1.2,1.5-1.2c0.1,0,0.2,0,0.3,0l1.3,0.2l0.5-1.1
			c0.2-0.5,0.7-0.8,1.3-0.8c0.6,0,1.1,0.3,1.3,0.8l0.8,2l1.8-1.4c0.2-0.2,0.5-0.3,1-0.3c0.6,0,1.2,0.3,1.4,0.8l0.7,1.6l1.7-0.9
			c0.3-0.2,0.7-0.3,1-0.3c0.3,0,0.7,0.1,1,0.3l2.5,1.3l0-2.5c0-0.9,0.9-1.7,1.9-1.7c0.3,0,0.6,0.1,0.9,0.2l2.1,1l0.3-2.1
			c0.1-0.7,0.8-1.3,1.6-1.3c0.5,0,1,0.2,1.3,0.6l1.5,1.8l1.2-1.9c0.4-0.6,1.1-1,1.9-1c1.2,0,2.2,0.9,2.2,1.9l0,1.8l2-0.4
			c0.1,0,0.2,0,0.3,0c0.5,0,0.9,0.2,1.1,0.5l0.7,1l1.2-0.4c0.1-0.1,0.3-0.1,0.4-0.1c0.7,0,1.2,0.5,1.2,1l0,0c0,0,0,0.1,0,0.1
			l-0.2,1.6l1.9-0.1c0,0,0.1,0,0.1,0c0.2,0,0.5,0.1,0.7,0.2l2.2,1.2l0.3-2.2c0.2-1.1,1.2-1.9,2.4-1.9c0.9,0,1.7,0.4,2.2,1.1l0.8,1.2
			l1.4-0.7c0.3-0.1,0.5-0.2,0.8-0.2c0.9,0,1.6,0.6,1.6,1.4l0.1,1.6l1.8-0.2l0.1,0c0,0,0.1,0,0.1,0c1,0,1.8,0.7,1.8,1.6
			c0,0.8-0.8,1.5-1.7,1.6c-0.1,0-0.1,0-0.2,0L85,29.7v0.1H6.8c-1.1,0-1.9-0.8-1.9-1.7C4.8,27.3,5.7,26.5,6.8,26.5z"/>
		<path fill="none" stroke="#999999" stroke-width="1.4624" d="M7.6,24.5c0.7,0,1.4,0.2,2,0.6c0.5-1.6,2-2.8,3.8-2.8
			c1.4,0,2.6,0.7,3.3,1.7c0.2,0,0.4-0.1,0.7-0.1c1.2,0,2.2,0.7,2.6,1.7c0.2,0,0.3-0.1,0.5-0.1c0.3,0,0.6,0.1,0.9,0.2
			c0.2-1.2,1.2-2.1,2.5-2.1c1.1,0,2,0.7,2.4,1.6c0.6-1.1,1.8-1.9,3.1-1.9c0.1,0,0.3,0,0.4,0c0,0,0,0,0,0c0-1.7,1.4-3,3.1-3
			c0.2,0,0.4,0,0.6,0.1c0.4-1.1,1.5-1.9,2.8-1.9c1.3,0,2.4,0.9,2.8,2c0.5-0.5,1.3-0.8,2.1-0.8c1.3,0,2.4,0.8,2.9,2
			c0.5-0.3,1.2-0.5,1.9-0.5c0.7,0,1.3,0.2,1.8,0.5c0-1.9,1.6-3.5,3.5-3.5c0.6,0,1.2,0.2,1.7,0.5c0.2-1.6,1.5-2.8,3.2-2.8
			c1.1,0,2,0.5,2.6,1.3c0.7-1.1,1.9-1.9,3.3-1.9c2.1,0,3.8,1.6,3.8,3.7c0.2-0.1,0.5-0.1,0.7-0.1c1,0,1.9,0.5,2.5,1.3
			c0.3-0.1,0.7-0.2,1.1-0.2c1.6,0,2.8,1.2,2.8,2.8c0,0.1,0,0.2,0,0.3c0.1,0,0.1,0,0.2,0c0.6,0,1.1,0.2,1.6,0.5c0.3-2,2-3.5,4-3.5
			c1.5,0,2.9,0.8,3.6,2.1c0.5-0.2,1-0.4,1.5-0.4c1.8,0,3.2,1.4,3.2,3.1c0.1,0,0.3,0,0.4,0c1.9,0,3.4,1.5,3.4,3.3
			c0,1.8-1.5,3.3-3.4,3.3c-0.1,0-0.1,0-0.2,0v0H7.6c-2,0-3.5-1.5-3.5-3.5C4.1,26.1,5.7,24.5,7.6,24.5z"/>
	</g>
	<g display="inline">
		<path fill="#CCCCCC" d="M78.5,36.3c-0.2,0-0.4,0-0.5,0.1c-0.4-1.1-1.4-1.9-2.7-1.9c-0.1,0-0.1,0-0.2,0c-0.1-0.9-0.9-1.7-1.9-1.7
			c-0.5,0-0.9,0.2-1.2,0.4c-0.5-0.7-1.3-1.2-2.2-1.2c-0.7,0-1.3,0.3-1.8,0.7c-0.5-0.4-1.1-0.7-1.8-0.7c-0.2,0-0.4,0-0.6,0.1
			c0-0.1,0-0.2,0-0.2c0-1.3-1.1-2.4-2.4-2.4c-0.9,0-1.6,0.4-2,1.1c-0.5-0.3-1-0.4-1.6-0.4c-0.9,0-1.7,0.4-2.3,0.9
			c-0.4-1.8-2-3.2-4-3.2c-1.4,0-2.7,0.7-3.4,1.8c-0.4-0.6-1.1-1.1-1.9-1.1c-0.8,0-1.5,0.4-1.9,1.1c-0.4-0.2-0.8-0.4-1.3-0.4
			c-1.2,0-2.2,0.8-2.5,1.8c-0.6-0.8-1.5-1.3-2.6-1.3c-1.4,0-2.6,0.9-3,2.2c-0.3-0.1-0.5-0.1-0.8-0.1c-1.1,0-2,0.7-2.4,1.6
			c-0.5-0.6-1.2-1-2.1-1c-0.5,0-1,0.2-1.4,0.4c-0.4-1.2-1.5-2.1-2.8-2.1c-1.2,0-2.1,0.6-2.6,1.6c-0.7-1-1.9-1.6-3.2-1.6
			c-1,0-1.9,0.4-2.6,1c-0.5-1.6-2.1-2.8-3.9-2.8c-1.8,0-3.3,1.2-3.9,2.8c-0.4-0.1-0.8-0.2-1.2-0.2c-1.6,0-3,0.9-3.6,2.2
			c-0.5-0.2-1.1-0.4-1.7-0.4c-2.3,0-4.1,1.8-4.1,4c0,2.2,1.8,4,4.1,4h74.1c1.4,0,2.6-1.1,2.6-2.6C81.2,37.4,80,36.3,78.5,36.3z"/>
		<path opacity="0.5" fill="#FFFFFF" enable-background="new    " d="M77.5,38.1c-0.1,0-0.1,0-0.2,0l-1.4,0.2l-0.5-1.2
			c-0.2-0.4-0.6-0.7-1.1-0.7c0,0-0.1,0-0.1,0l-1.6,0.1l-0.1-1.4c0-0.1-0.1-0.2-0.2-0.2c0,0-0.1,0-0.2,0.1l-1.4,1l-1-1.3
			c-0.2-0.3-0.5-0.4-0.8-0.4c-0.3,0-0.5,0.1-0.7,0.2l-1.1,0.9L66,34.5c-0.1-0.1-0.4-0.2-0.7-0.2c-0.1,0-0.1,0-0.2,0l-2.2,0.4l0.3-2
			c0,0,0-0.1,0-0.1c0-0.4-0.4-0.7-0.8-0.7c-0.3,0-0.5,0.1-0.7,0.3l-0.8,1.1l-1.3-0.7c-0.3-0.1-0.5-0.2-0.8-0.2
			c-0.4,0-0.8,0.1-1.1,0.4l-2.1,1.9l-0.6-2.6c-0.2-1-1.3-1.8-2.5-1.8c-0.8,0-1.6,0.4-2.1,1l-1.4,1.9l-1.3-1.9
			c-0.1-0.2-0.3-0.3-0.5-0.3c-0.2,0-0.4,0.1-0.5,0.3l-0.8,1.2l-1.4-0.7c-0.2-0.1-0.3-0.1-0.5-0.1c-0.5,0-0.8,0.3-1,0.6l-0.9,2.8
			L40,32.9c-0.3-0.4-0.8-0.6-1.3-0.6c-0.7,0-1.3,0.4-1.5,1l-0.5,1.3l-1.5-0.4c-0.1,0-0.2-0.1-0.3-0.1c-0.4,0-0.8,0.2-0.9,0.5
			L32.9,37l-1.7-2c-0.2-0.2-0.5-0.4-0.8-0.4c-0.2,0-0.4,0-0.5,0.1l-1.8,1L27.5,34c-0.2-0.5-0.7-0.8-1.3-0.8c-0.5,0-1,0.3-1.2,0.7
			l-1.2,2L22.2,34c-0.4-0.5-1.1-0.8-1.9-0.8c-0.7,0-1.2,0.3-1.5,0.5L17,35.1L16.2,33c-0.3-0.9-1.3-1.5-2.4-1.5c-1.1,0-2,0.6-2.4,1.5
			L11,34.3l-1.5-0.4c-0.3-0.1-0.5-0.1-0.8-0.1c-0.9,0-1.8,0.5-2.2,1.2l-0.7,1.2l-1.4-0.6c-0.3-0.1-0.7-0.2-1-0.2
			c-1.4,0-2.5,1-2.5,2.2c0,1.2,1.1,2.2,2.5,2.2h74.1c0.6,0,1-0.4,1-0.9C78.5,38.4,78,38.1,77.5,38.1z"/>
		<path fill="none" stroke="#999999" stroke-width="1.4624" d="M78.5,36.3c-0.2,0-0.4,0-0.5,0.1c-0.4-1.1-1.4-1.9-2.7-1.9
			c-0.1,0-0.1,0-0.2,0c-0.1-0.9-0.9-1.7-1.9-1.7c-0.5,0-0.9,0.2-1.2,0.4c-0.5-0.7-1.3-1.2-2.2-1.2c-0.7,0-1.3,0.3-1.8,0.7
			c-0.5-0.4-1.1-0.7-1.8-0.7c-0.2,0-0.4,0-0.6,0.1c0-0.1,0-0.2,0-0.2c0-1.3-1.1-2.4-2.4-2.4c-0.9,0-1.6,0.4-2,1.1
			c-0.5-0.3-1-0.4-1.6-0.4c-0.9,0-1.7,0.4-2.3,0.9c-0.4-1.8-2-3.2-4-3.2c-1.4,0-2.7,0.7-3.4,1.8c-0.4-0.6-1.1-1.1-1.9-1.1
			c-0.8,0-1.5,0.4-1.9,1.1c-0.4-0.2-0.8-0.4-1.3-0.4c-1.2,0-2.2,0.8-2.5,1.8c-0.6-0.8-1.5-1.3-2.6-1.3c-1.4,0-2.6,0.9-3,2.2
			c-0.3-0.1-0.5-0.1-0.8-0.1c-1.1,0-2,0.7-2.4,1.6c-0.5-0.6-1.2-1-2.1-1c-0.5,0-1,0.2-1.4,0.4c-0.4-1.2-1.5-2.1-2.8-2.1
			c-1.2,0-2.1,0.6-2.6,1.6c-0.7-1-1.9-1.6-3.2-1.6c-1,0-1.9,0.4-2.6,1c-0.5-1.6-2.1-2.8-3.9-2.8c-1.8,0-3.3,1.2-3.9,2.8
			c-0.4-0.1-0.8-0.2-1.2-0.2c-1.6,0-3,0.9-3.6,2.2c-0.5-0.2-1.1-0.4-1.7-0.4c-2.3,0-4.1,1.8-4.1,4c0,2.2,1.8,4,4.1,4h74.1
			c1.4,0,2.6-1.1,2.6-2.6C81.2,37.4,80,36.3,78.5,36.3z"/>
	</g>
	<g display="inline">
		<path fill="#CCCCCC" d="M79.7,44.5c-0.6,0-1.2,0.2-1.7,0.5c-0.4-1.2-1.5-2.1-2.8-2.1c-0.1,0-0.1,0-0.2,0c0-0.1,0-0.2,0-0.3
			c0-3-2.5-5.4-5.5-5.4c-2.7,0-4.9,1.8-5.4,4.3c-0.4-0.2-0.8-0.3-1.2-0.3c-1.6,0-2.9,1.2-3,2.7c-0.4-0.2-0.7-0.2-1.1-0.2
			c-0.4,0-0.8,0.1-1.2,0.3c-0.2-2-1.9-3.6-4.1-3.6c-1.3,0-2.5,0.6-3.2,1.6c-0.7-0.6-1.7-1-2.7-1c-0.8,0-1.5,0.2-2.1,0.6
			c0-0.2,0-0.3,0-0.5c0-3.4-2.8-6.2-6.4-6.2c-1.5,0-2.9,0.5-4,1.4c-0.8-0.9-1.9-1.4-3.2-1.4c-2.3,0-4.2,1.9-4.2,4.2
			c0,0.1,0,0.2,0,0.2c-0.6-0.3-1.3-0.5-2-0.5c-2.3,0-4.2,1.9-4.2,4.2c0,0.2,0,0.4,0.1,0.7c-0.4-0.2-0.8-0.2-1.2-0.2
			c-1.8,0-3.3,1.5-3.3,3.5s1.5,3.5,3.3,3.5c0,0,0,0,0.1,0h59.2c0,0,0.1,0,0.1,0c1.6,0,3-1.3,3-2.9C82.7,45.8,81.4,44.5,79.7,44.5z"
			/>
		<path opacity="0.5" fill="#FFFFFF" enable-background="new    " d="M78.7,46.3c-0.3,0-0.6,0.1-0.8,0.2l-1.8,1.1l-0.7-1.9
			c-0.2-0.5-0.7-0.8-1.2-0.8c-0.1,0-0.1,0-0.1,0l-1.8,0.1l0.1-1.6l0-0.1c0,0,0-0.1,0-0.1c0-1.9-1.7-3.4-3.9-3.4
			c-1.8,0-3.4,1.1-3.8,2.7l-0.4,1.7l-1.8-0.7c-0.2-0.1-0.4-0.1-0.6-0.1c-0.7,0-1.3,0.5-1.3,1.1l-0.1,2.1l-2.1-0.8
			c-0.2-0.1-0.3-0.1-0.5-0.1c-0.2,0-0.3,0-0.5,0.1l-2,0.8l-0.2-2c-0.1-1.1-1.2-2-2.5-2c-0.8,0-1.5,0.3-2,0.9l-1.1,1.2l-1.3-1
			c-0.3-0.3-0.9-0.6-1.6-0.6c-0.5,0-0.9,0.1-1.3,0.3L42.6,45l0.2-2.8l0,0c0-0.1,0-0.2,0-0.3c0-2.3-2.1-4.2-4.7-4.2
			c-1.1,0-2.2,0.3-3,1l-1.2,0.9l-1-1c-0.5-0.5-1.2-0.8-2-0.8c-1.4,0-2.6,1-2.6,2.3c0,0.1,0,0.1,0,0.2l0.2,2.5l-2.5-1.2
			c-0.4-0.2-0.8-0.3-1.2-0.3c-1.4,0-2.6,1-2.6,2.3c0,0.1,0,0.2,0,0.4l0.5,2.6l-2.7-1c-0.2-0.1-0.4-0.1-0.6-0.1
			c-0.9,0-1.6,0.8-1.6,1.7c0,0.9,0.7,1.7,1.6,1.7c0,0,0.1,0,0.1,0h0h0h59.2h0h0c0,0,0.1,0,0.1,0c0.7,0,1.3-0.6,1.3-1.2
			C80,46.9,79.4,46.3,78.7,46.3z"/>
		<path fill="none" stroke="#999999" stroke-width="1.4624" d="M79.7,44.5c-0.6,0-1.2,0.2-1.7,0.5c-0.4-1.2-1.5-2.1-2.8-2.1
			c-0.1,0-0.1,0-0.2,0c0-0.1,0-0.2,0-0.3c0-3-2.5-5.4-5.5-5.4c-2.7,0-4.9,1.8-5.4,4.3c-0.4-0.2-0.8-0.3-1.2-0.3
			c-1.6,0-2.9,1.2-3,2.7c-0.4-0.2-0.7-0.2-1.1-0.2c-0.4,0-0.8,0.1-1.2,0.3c-0.2-2-1.9-3.6-4.1-3.6c-1.3,0-2.5,0.6-3.2,1.6
			c-0.7-0.6-1.7-1-2.7-1c-0.8,0-1.5,0.2-2.1,0.6c0-0.2,0-0.3,0-0.5c0-3.4-2.8-6.2-6.4-6.2c-1.5,0-2.9,0.5-4,1.4
			c-0.8-0.9-1.9-1.4-3.2-1.4c-2.3,0-4.2,1.9-4.2,4.2c0,0.1,0,0.2,0,0.2c-0.6-0.3-1.3-0.5-2-0.5c-2.3,0-4.2,1.9-4.2,4.2
			c0,0.2,0,0.4,0.1,0.7c-0.4-0.2-0.8-0.2-1.2-0.2c-1.8,0-3.3,1.5-3.3,3.5s1.5,3.5,3.3,3.5c0,0,0,0,0.1,0h59.2c0,0,0.1,0,0.1,0
			c1.6,0,3-1.3,3-2.9C82.7,45.8,81.4,44.5,79.7,44.5z"/>
	</g>
	<g id="Winter_Leaf" display="inline">
	</g>
	<g id="Maple_Leaf_2" display="inline">
		<g id="Leaf_3">
		</g>
	</g>
</g>
<g id="Discrepencies" display="none">
	<g display="inline">
		<line fill="none" stroke="#DA1F26" stroke-width="4" stroke-linecap="round" x1="19.7" y1="-16.9" x2="72.4" y2="35.8"/>
		<line fill="none" stroke="#DA1F26" stroke-width="4" stroke-linecap="round" x1="72.4" y1="-16.9" x2="19.7" y2="35.8"/>
	</g>
	<rect x="-1.7" y="-40.6" display="inline" fill="#FFFFFF" width="98.5" height="98.5"/>
	<rect x="117.1" y="79.4" display="inline" fill="#FFFFFF" width="99" height="99"/>
</g>
<g id="LABELS" display="none">
	
		<text transform="matrix(1 0 0 1 -9.7661 76.9033)" display="inline" fill="#383838" font-family="'MyriadPro-Regular'" font-size="12">3 Mostly Cloudy (day)</text>
</g>
<g id="NUMBERS" display="none">
</g>
</svg>
